<?xml version="1.0" encoding="utf-8"?>
<!-- Generator: Adobe Illustrator 23.1.0, SVG Export Plug-In . SVG Version: 6.00 Build 0)  -->
<svg version="1.1" id="Layer_1" xmlns="http://www.w3.org/2000/svg" xmlns:xlink="http://www.w3.org/1999/xlink" x="0px" y="0px"
	 viewBox="0 0 16 16" style="enable-background:new 0 0 16 16;" xml:space="preserve">
<g>
	<polygon points="0.42,10.92 6.82,7.09 8.18,8.88 14.28,5.18 14.28,10.92 10.22,14.98 4.48,14.98 	"/>
	<polyline points="0,11.18 6.82,7.09 8.18,8.88 14.28,5.18 	"/>
	<polygon points="16,4.2 13.53,4.2 14.77,6.34 	"/>
	<g>
		<polygon points="11.33,5.69 11.33,2.25 10.22,1.15 8.99,1.15 8.99,7.09 		"/>
		<polygon points="6.82,5.79 8.18,7.58 8.54,7.38 8.54,1.15 6.17,1.15 6.17,6.15 		"/>
		<polygon points="5.61,6.51 5.61,1.15 4.48,1.15 3.28,2.29 3.28,7.9 		"/>
		<polygon points="2.73,2.84 0.42,5.18 0.42,9.62 2.73,8.19 		"/>
	</g>
</g>
</svg>
