<?xml version="1.0" encoding="utf-8"?>
<!-- Generator: Adobe Illustrator 23.1.0, SVG Export Plug-In . SVG Version: 6.00 Build 0)  -->
<svg version="1.1" id="Layer_1" xmlns="http://www.w3.org/2000/svg" xmlns:xlink="http://www.w3.org/1999/xlink" x="0px" y="0px"
	 viewBox="0 0 1000 800" style="enable-background:new 0 0 1000 800;" xml:space="preserve">
<style type="text/css">
	.st0{fill:#201444;}
	.st1{fill:#C40211;}
	.st2{fill:#4C4C54;}
</style>
<path class="st0" d="M999.83,766.98L999.83,766.98l0,2.05h0c-13.62,0-26.43-5.31-36.06-14.94c-9.63-9.63-14.94-22.44-14.94-36.06
	c0-13.62,5.31-26.43,14.94-36.06c9.63-9.63,22.44-14.94,36.06-14.94v2.05c-13.08,0-25.37,5.09-34.61,14.34s-14.34,21.54-14.34,34.61
	s5.09,25.37,14.34,34.61C974.46,761.89,986.76,766.98,999.83,766.98z M957.13,718.03c0-23.55,19.16-42.7,42.7-42.7v-2.05
	c-11.95,0-23.19,4.66-31.65,13.11c-8.45,8.45-13.11,19.69-13.11,31.65c0,11.95,4.66,23.19,13.11,31.65
	c8.45,8.45,19.69,13.11,31.65,13.11h0v-2.05h0C976.28,760.73,957.13,741.58,957.13,718.03z M960.86,757
	c-10.41-10.41-16.14-24.25-16.14-38.97s5.73-28.56,16.14-38.97c10.41-10.41,24.25-16.14,38.97-16.14v-2.05
	c-15.27,0-29.62,5.95-40.42,16.74s-16.74,25.15-16.74,40.42c0,15.27,5.95,29.62,16.74,40.42c10.8,10.8,25.15,16.74,40.42,16.74h0
	v-2.05h0C985.11,773.14,971.27,767.41,960.86,757z M999.83,754.59L999.83,754.59c-20.16,0-36.56-16.4-36.56-36.56
	c0-20.16,16.4-36.56,36.56-36.56v-2.05c-21.29,0-38.61,17.32-38.61,38.61c0,21.29,17.32,38.61,38.61,38.61h0L999.83,754.59
	L999.83,754.59z M955,762.86c11.97,11.97,27.89,18.57,44.83,18.57h0v-2.05h0c-16.39,0-31.79-6.38-43.38-17.97
	s-17.97-26.99-17.97-43.38c0-16.39,6.38-31.79,17.97-43.38c11.59-11.59,26.99-17.97,43.38-17.97v-2.05
	c-16.93,0-32.85,6.59-44.83,18.57s-18.57,27.89-18.57,44.83S943.03,750.88,955,762.86z"/>
<path class="st1" d="M6.88,429.47c-0.29-0.6-0.57-1.21-0.83-1.83l46.91-46.91c0.62,0.26,1.23,0.54,1.83,0.83L6.88,429.47z
	 M59.31,384.18c-0.53-0.36-1.07-0.71-1.62-1.05L8.47,432.36c0.33,0.55,0.68,1.09,1.05,1.62L59.31,384.18z M49.68,379.53
	c-0.69-0.21-1.38-0.4-2.09-0.57L4.29,422.27c0.17,0.7,0.36,1.4,0.57,2.09L49.68,379.53z M43.83,378.25
	c-0.8-0.11-1.61-0.18-2.43-0.24L3.34,416.07c0.05,0.82,0.13,1.63,0.24,2.43L43.83,378.25z M63.29,387.34
	c-0.46-0.42-0.94-0.84-1.42-1.24l-50.43,50.43c0.4,0.49,0.81,0.96,1.24,1.42L63.29,387.34z M28.16,379.64
	c-1.51,0.48-2.98,1.07-4.4,1.74L6.71,398.44c-0.67,1.42-1.25,2.89-1.74,4.4L28.16,379.64z M36.93,378.01c-1,0.06-1.99,0.16-2.96,0.3
	L3.63,408.65c-0.14,0.97-0.24,1.96-0.3,2.96L36.93,378.01z M66.76,391c-0.4-0.49-0.81-0.96-1.24-1.42L14.91,440.2
	c0.46,0.42,0.94,0.84,1.42,1.24L66.76,391z M74.56,418.89c0.14-0.97,0.24-1.96,0.3-2.96l-33.6,33.6c1-0.06,1.99-0.16,2.96-0.3
	L74.56,418.89z M74.85,411.46c-0.05-0.82-0.13-1.63-0.24-2.43l-40.25,40.25c0.8,0.11,1.61,0.18,2.43,0.24L74.85,411.46z
	 M69.73,395.17c-0.33-0.55-0.68-1.09-1.05-1.62l-49.8,49.8c0.53,0.36,1.07,0.71,1.62,1.05L69.73,395.17z M71.48,429.1
	c0.67-1.42,1.25-2.89,1.74-4.4L50.03,447.9c1.51-0.48,2.98-1.07,4.4-1.74L71.48,429.1z M72.14,399.9c-0.26-0.62-0.54-1.23-0.83-1.83
	L23.4,445.98c0.6,0.29,1.21,0.57,1.83,0.83L72.14,399.9z M73.91,405.27c-0.17-0.7-0.36-1.4-0.57-2.09l-44.83,44.83
	c0.69,0.21,1.38,0.4,2.09,0.57L73.91,405.27z"/>
<path class="st2" d="M449.43,798.72L449.43,798.72l-2.12,0v0c0-14.06,5.48-27.29,15.43-37.23c9.95-9.94,23.18-15.42,37.26-15.42
	c14.07,0,27.31,5.48,37.26,15.42c9.95,9.94,15.43,23.17,15.43,37.23h-2.12c0-13.5-5.26-26.19-14.81-35.74
	c-9.55-9.55-22.25-14.8-35.76-14.8c-13.51,0-26.21,5.26-35.76,14.8C454.69,772.53,449.43,785.22,449.43,798.72z M500,754.63
	c24.33,0,44.12,19.78,44.12,44.09h2.12c0-12.34-4.81-23.94-13.54-32.67c-8.73-8.73-20.34-13.53-32.69-13.53
	c-12.35,0-23.96,4.81-32.69,13.53c-8.73,8.73-13.54,20.33-13.54,32.67v0h2.12v0C455.88,774.41,475.67,754.63,500,754.63z
	 M459.74,758.49c10.75-10.75,25.05-16.66,40.26-16.66s29.51,5.92,40.26,16.66c10.75,10.75,16.68,25.03,16.68,40.23h2.12
	c0-15.76-6.14-30.58-17.3-41.73s-25.98-17.28-41.76-17.28c-15.77,0-30.6,6.14-41.76,17.28c-11.15,11.15-17.3,25.96-17.3,41.73v0
	h2.12v0C443.07,783.52,448.99,769.24,459.74,758.49z M462.23,798.72L462.23,798.72c0-20.81,16.94-37.74,37.77-37.74
	c20.82,0,37.77,16.93,37.77,37.74h2.12c0-21.98-17.89-39.86-39.88-39.86c-21.99,0-39.88,17.88-39.88,39.86v0L462.23,798.72
	L462.23,798.72z M453.69,752.44c-12.37,12.36-19.18,28.8-19.18,46.28v0h2.12v0c0-16.92,6.59-32.82,18.56-44.78
	c11.97-11.96,27.89-18.55,44.82-18.55c16.93,0,32.84,6.59,44.82,18.55c11.97,11.96,18.56,27.87,18.56,44.78h2.12
	c0-17.48-6.81-33.92-19.18-46.28s-28.82-19.17-46.31-19.17C482.51,733.27,466.06,740.08,453.69,752.44z"/>
</svg>
