<?xml version="1.0" encoding="utf-8"?>
<!-- Generator: Adobe Illustrator 23.1.0, SVG Export Plug-In . SVG Version: 6.00 Build 0)  -->
<svg version="1.1" id="Layer_1" xmlns="http://www.w3.org/2000/svg" xmlns:xlink="http://www.w3.org/1999/xlink" x="0px" y="0px"
	 viewBox="0 0 1000 800" style="enable-background:new 0 0 1000 800;" xml:space="preserve">
<style type="text/css">
	.st0{opacity:0.41;}
	.st1{fill:#C0C0BC;}
	.st2{fill-rule:evenodd;clip-rule:evenodd;fill:#1F113B;}
	.st3{fill-rule:evenodd;clip-rule:evenodd;fill:#EC1D25;}
	.st4{fill-rule:evenodd;clip-rule:evenodd;fill:#CE0514;}
	.st5{fill-rule:evenodd;clip-rule:evenodd;fill:#B5041A;}
	.st6{fill-rule:evenodd;clip-rule:evenodd;fill:#FFBF2F;}
	.st7{fill-rule:evenodd;clip-rule:evenodd;}
	.st8{fill-rule:evenodd;clip-rule:evenodd;fill:#FFFFFF;}
	.st9{fill-rule:evenodd;clip-rule:evenodd;fill:#046C34;}
	.st10{fill-rule:evenodd;clip-rule:evenodd;fill:#013F11;}
	.st11{fill-rule:evenodd;clip-rule:evenodd;fill:#EAEAEB;}
	.st12{fill-rule:evenodd;clip-rule:evenodd;fill:#201444;}
	.st13{fill-rule:evenodd;clip-rule:evenodd;fill:#D2D3D5;}
	.st14{opacity:0.38;}
	.st15{fill-rule:evenodd;clip-rule:evenodd;fill:#FFCF84;}
	.st16{fill-rule:evenodd;clip-rule:evenodd;fill:#FDA92F;}
	.st17{fill-rule:evenodd;clip-rule:evenodd;fill:#E9E9EB;}
	.st18{fill-rule:evenodd;clip-rule:evenodd;fill:#BABDC2;}
</style>
<g class="st0">
	<path class="st1" d="M880.84,163.04c-16.59-45.23-52.15-82.14-95.05-98.68c-42.9-16.54-92.43-12.43-132.4,10.98
		c-42.38,24.83-79.99,71.53-127.98,65.04c-25.31-3.42-46.33-21.52-69.28-33.37c-38.92-20.09-85.79-21.94-126-4.97
		c-31.8,13.42-58.55,37.51-83.06,62.9c-32.85,34.03-63.48,72.28-79.22,118.1c-32.28,93.96,1.68,207.67-47.41,293
		c-8.5,14.77-19.57,29-21.16,46.23c-1.07,11.61,2.42,23.23,7.5,33.57c24.85,50.63,82.21,71.06,134.66,83.24
		c183.66,42.65,377.81,40.15,557.52-18.56c37.12-12.13,74.33-27.06,104.28-53.35c29.95-26.29,51.86-65.86,49.64-107.1
		c-1.4-25.99-12.08-51.4-8.85-77.2c5.95-47.6,56.91-80.77,55.97-128.77c-0.48-24.22-14.82-45.99-32.3-61.5
		c-12.07-10.71-25.86-19.21-40.59-25.03c-7.44-2.94-15.34-5.33-21.33-10.88c-14.22-13.18-11.53-36.77-10.9-56.82
		c0.63-20.05-7.36-45.72-26.21-46.07"/>
</g>
<g>
	<g>
		<path d="M854.42,45.61c1.93,0,1.93-3,0-3C852.49,42.61,852.49,45.61,854.42,45.61L854.42,45.61z"/>
	</g>
</g>
<g>
	<path id="MANS-CHAIR-" class="st2" d="M298.39,564.83h130.88v12.5H302.64l31.78,95.81h-11.94l-82.27-242.73l10.97-4.28
		L298.39,564.83z"/>
	<path class="st3" d="M202.54,658.98c0,0,1.61-81.13,2.85-143.25c0.79-39.78,30.06-72.2,67.16-74.4
		c81.99-4.9,162.93-6.15,242.2-1.58c38.5,2.22,70.3,33.01,76.22,73.81c0.02,0,0.02,0,0.02,0c3.24,22.32-2.42,45.06-15.61,62.68
		c-16.73,22.28-44.99,53.32-88.74,82.93c0,0,16.18,5.01,17.83,12.75c0,0-123.1-0.15-154.47-0.19c-1.16,0-2.19-0.76-2.61-1.92
		c-0.42-1.15-0.13-2.46,0.72-3.3c22.04-21.57,105.03-102.8,105.03-102.8l-139.99,1.52c0,0-2.25,83.8-2.78,103.49
		c-0.06,2.28-1.81,4.09-3.94,4.08c-21.04-0.16-121.51-0.89-121.51-0.89S184.22,664.04,202.54,658.98z"/>
	<path class="st4" d="M519.48,634.47l-107.16-30.81l3.22-3.16l107.54,30.92C521.9,632.44,520.7,633.45,519.48,634.47z
		 M312.25,598.88l-108.57,2.81l0.08-3.95l108.6-2.81L312.25,598.88z"/>
	<path class="st5" d="M452.96,563.89l38.09-0.09c0.36,0,0.67,0.28,0.73,0.67s-0.16,0.76-0.51,0.88l-60.49,20.26L452.96,563.89z
		 M313.15,565.35l-0.49,18.38l-32.13-15.49c-0.62-0.3-0.96-1.03-0.82-1.74c0.14-0.72,0.73-1.23,1.42-1.22L313.15,565.35z"/>
	<path class="st3" d="M499.26,270.44c0,0-36.99-53.48-120.21-30.13c-11.21,3.15-99.97,33.31-134.99,118.06
		c-3.42,8.29-21.88,45.97,4.88,66.11c18.67,14.06,38.7,11.45,108.86-13.69c5.94-2.13,42.51-10.4,35.9-19.44c0,0,2.95,0.64,4.37-1.46
		c0,0,0.16,1.08,0.28,1.88c0.08,0.55,0.32,1.05,0.69,1.44c1.68,1.79,6.71,7.17,9.88,10.55c0.54,0.58,1.34,0.8,2.08,0.57
		c0.74-0.22,1.31-0.86,1.48-1.67c0.94-4.31,2.3-10.6,2.3-10.6s33.28,7.73,53.34-26.99c0,0,0.84,34.3,25.63,48.15
		c7.24,4.05,47.46,12.64,58.01-31.77c7.38-31.06,12.77-86.57,17.49-126.45c0,0,24.64-16.56,26.51-24.5c0.67-2.85-2.03-7.53-8.06-2.8
		c0,0,9-8.19,5.99-12.05c-1.67-2.15-5.09-2.26-11.87,3.95c0,0,8.44-9.25,4.58-12.96c-4.15-3.98-8.96,4.2-13.37,8.61
		c0,0,9.82-16.14,4.26-18.93c-2.35-1.18-4.89-1.33-13.46,10.22c-7.93,10.7-19.19,11.8-27.34,10.75c0,0,3.21-20.16-0.47-22.11
		c-4.15-2.21-7.9,1.74-16.92,21.56C510.2,236.33,505.75,255.71,499.26,270.44z"/>
	<path class="st4" d="M401.34,235.65c64.35-8.66,94.95,30.73,97.71,34.5c-4.2,16.03-11.4,50.28-11.4,50.28l-7.57-0.11
		c0.12,20.01-11.93,43.93-11.93,43.93l-0.05,0.84c-19.07,33-50.51,27.53-53.48,27.05l0.97-5.22l-2.52-7.57l-0.78-2.15
		c0,0,3.48-4.99,6.56-9.41c2.6-3.73,1.99-8.99-1.38-11.94c-6.74-5.88-16.72-14.59-16.72-14.59c-0.06-0.05-0.12-0.1-0.17-0.14
		c-8.02-6.57-18.15-9.44-28.15-7.99c-21.2,3.07-63.82,9.26-63.82,9.26l-25.73-42.6c30.02-31.01,65.24-47.91,83.99-55.24
		L401.34,235.65z"/>
	<g>
		<path class="st6" d="M398.07,389.97c0.72-0.93,3.09-4.46,0.96-7.87l-3-3.88c0,0,4.2,0.65,5.91,0.48c0,0-0.23,4.5,3.24,5.29
			c0.95,0.21,1.93-0.17,2.53-0.98c1.68-2.25,5.43-7.32,5.43-7.32s2.09,9.67,2.47,11.42c0.04,0.18,0.04,0.36,0,0.54
			c-0.35,1.67-2.17,10.52-2.17,10.52l-0.98,4.51c-0.17,0.8-0.74,1.44-1.48,1.67c-0.74,0.23-1.54,0.01-2.08-0.57
			c-3.17-3.38-8.21-8.76-9.88-10.55c-0.37-0.39-0.61-0.9-0.69-1.44L398.07,389.97z M383.23,333.13c0,0,13.33,2.09,21.89,12.25
			l-5.89-30.46l-19.53,0.12L383.23,333.13z"/>
		<path class="st7" d="M413.55,397.67l-0.1,0.49l-0.98,4.51c-0.17,0.8-0.74,1.44-1.48,1.67c-0.74,0.23-1.54,0.01-2.08-0.57
			l-4.48-4.79L413.55,397.67z M400.32,378.69c0.63,0.04,1.21,0.04,1.63,0c0,0-0.23,4.5,3.24,5.29c0.38,0.08,0.76,0.07,1.12-0.02
			l0.54,2.69l8.13-2.53l0.64,2.98c0.02,0.09,0.03,0.19,0.03,0.28l-16.98,5.36c-0.17-0.29-0.28-0.62-0.34-0.97l-0.27-1.81
			c0.13-0.17,0.31-0.42,0.51-0.74l3.63-1.13L400.32,378.69z M391.65,335.73L387.47,315l4.98-0.03l4.75,23.64
			C395.29,337.42,393.4,336.48,391.65,335.73z"/>
	</g>
	<path class="st4" d="M394.4,394.3l-11.2-0.96c-0.81-0.07-1.42-0.83-1.35-1.7c0.06-0.87,0.78-1.52,1.59-1.45l12.62,1.08
		c-1.21,0.33-2.36,0.08-2.36,0.08C394.42,392.34,394.62,393.33,394.4,394.3z M399.48,379.42c0.1-0.08,0.22-0.15,0.34-0.2
		c0,0,1.41-0.59,2.91-1.22c1.77-0.74,3.09-2.37,3.51-4.36c0,0,0,0,0,0c0.88-4.05-0.7-8.25-3.95-10.52
		c-3.69-2.58-7.64-5.34-7.64-5.34c-0.68-0.48-0.87-1.45-0.43-2.18c0.44-0.73,1.36-0.93,2.04-0.46l7.35,5.14l0.2-1.79
		c0.09-0.86,0.83-1.48,1.63-1.38c0.81,0.1,1.39,0.89,1.29,1.75l-0.42,3.84c2.61,3.11,3.71,7.45,2.8,11.66c0,0,0,0,0,0
		c-0.65,3-2.63,5.46-5.31,6.58c-1.5,0.63-2.91,1.22-2.91,1.22c-0.52,0.22-1.1,0.1-1.5-0.27c-0.37,0.3-0.87,0.4-1.34,0.23
		l-12.57-4.44c-0.77-0.27-1.19-1.17-0.94-1.99c0.25-0.83,1.09-1.28,1.86-1l12.57,4.44C399.17,379.19,399.34,379.29,399.48,379.42z
		 M488.17,303.16c0,0-10.73,48.17-13.08,69.69c-0.1,0.86,0.48,1.65,1.29,1.75c0.81,0.1,1.54-0.52,1.63-1.38
		c2.35-21.4,13.03-69.32,13.03-69.32c0.19-0.85-0.3-1.7-1.09-1.9C489.16,301.79,488.37,302.31,488.17,303.16z M316.53,336.08
		c-25.54,6.13-41.15,11.34-48.74,15.86c-0.89,0.53-1.21,1.73-0.71,2.68c0.49,0.95,1.62,1.29,2.5,0.76
		c7.43-4.43,22.73-9.45,47.75-15.46c0.99-0.24,1.62-1.29,1.39-2.35C318.5,336.51,317.52,335.84,316.53,336.08z M569.7,254.69
		c-0.3,0.2-0.46,0.31-0.46,0.31c-0.34,2.89-0.69,5.86-1.03,8.89l-7.56-2.13c-0.29-0.08-0.5-0.34-0.54-0.66
		c-0.04-0.32,0.1-0.63,0.36-0.78L569.7,254.69z M594.17,216.58c1.24,4.1-6.47,11.13-6.47,11.13c0.22-0.17,0.44-0.33,0.65-0.48
		c-5.38,5.28-12.64,11.55-19.66,14.85c-0.74,0.35-1.61-0.01-1.94-0.81c-0.33-0.8,0.01-1.73,0.75-2.08
		C579.31,233.63,591.83,219.33,594.17,216.58z M587.41,209.28c-0.07,4.27-5.59,10.33-5.59,10.33c0.41-0.37,0.8-0.73,1.19-1.06
		c-5.42,5.58-13.27,12.96-20.17,16.71c-0.73,0.39-1.61,0.08-1.98-0.69c-0.37-0.78-0.08-1.73,0.65-2.12
		C572.64,226.4,586.29,210.59,587.41,209.28z M578.42,203.46c-1.5,5.43-5.38,11.81-5.38,11.81c0.12-0.12,0.24-0.24,0.36-0.37
		c-4.49,5.03-10.56,10.54-17.38,13.32c-0.76,0.31-1.61-0.1-1.9-0.92c-0.29-0.81,0.1-1.73,0.85-2.03
		C566.75,220.48,576.1,207.02,578.42,203.46z"/>
	<path class="st5" d="M353.77,335.84l11.39-12.94c0.51-0.58,1.31-0.77,2-0.46c0.69,0.3,1.14,1.03,1.12,1.83l-0.2,9.5L353.77,335.84z
		 M480.06,322.27c-0.03-1.72-0.26-11.89-1.24-18.87c-0.07-0.33,0.1-0.67,0.39-0.78c0.29-0.12,0.63,0.02,0.77,0.32
		c2.13,4.34,5.36,11.38,7.21,17.49l-7.11-0.11C480.08,320.97,480.07,321.62,480.06,322.27z"/>
	<g transform="matrix(1.01592,0,0,1.01932,-17.6908,-9.9515)">
		<ellipse class="st3" cx="409.73" cy="199.23" rx="28.74" ry="30.88"/>
	</g>
	<path class="st7" d="M379.46,216.18c-5.91-5.66-9.63-13.89-9.63-23.06c0-17.04,12.88-30.88,28.74-30.88
		c9.71,0,18.31,5.19,23.51,13.13l-23.54,22.53c-0.28-0.89-0.71-1.75-1.29-2.55c-2.46-3.37-6.69-4.23-9.44-1.92
		c-2.75,2.31-2.99,6.91-0.53,10.28c0.76,1.05,1.7,1.85,2.71,2.39L379.46,216.18z"/>
	<g id="TICKET-NOTE" transform="matrix(0.925945,0,0,0.925945,133.563,52.6991)">
		<g transform="matrix(0.836076,0,0.29029,1,60.6403,-2.26609)">
			<polygon class="st8" points="581.19,211.67 609.56,211.67 608.71,248.55 580.35,248.55 			"/>
		</g>
		<g transform="matrix(0.836076,0,0.29029,1,60.6403,-2.26609)">
			<path class="st7" d="M581.34,247.71h8.95c0.52,0,0.81,0.38,0.65,0.84c-0.16,0.46-0.72,0.84-1.23,0.84h-9.66
				c-0.42,0-0.7-0.25-0.69-0.61l0.85-36.89c0.01-0.25,0.16-0.53,0.41-0.74c0.25-0.21,0.57-0.34,0.87-0.34h19.9
				c0.52,0,0.81,0.38,0.65,0.84c-0.16,0.46-0.71,0.84-1.23,0.84h-18.65L581.34,247.71z"/>
		</g>
		<g transform="matrix(0.836076,0,0.29029,1,60.6403,-2.26609)">
			<path class="st7" d="M608.56,212.51h-7.76c-0.52,0-0.81-0.38-0.65-0.84c0.16-0.46,0.71-0.84,1.23-0.84h8.47
				c0.42,0,0.7,0.25,0.69,0.61l-0.85,36.89c-0.01,0.25-0.16,0.53-0.41,0.74c-0.25,0.21-0.57,0.34-0.87,0.34h-18.71
				c-0.52,0-0.81-0.38-0.65-0.84c0.16-0.46,0.72-0.84,1.23-0.84h17.46L608.56,212.51z"/>
		</g>
		<g transform="matrix(1,0,0.477775,1.38266,-339.314,-243.265)">
			<polygon class="st7" points="792.82,329.79 812.46,329.79 812.36,332.74 792.73,332.74 			"/>
		</g>
		<g transform="matrix(1,0,0.477775,1.38266,-334.084,-226.275)">
			<polygon class="st7" points="793.07,322.34 812.71,322.34 812.62,325.29 792.98,325.29 			"/>
		</g>
		<g transform="matrix(1,0,0.477775,1.38266,-328.854,-209.285)">
			<polygon class="st7" points="793.33,314.9 812.96,314.9 812.87,317.85 793.23,317.85 			"/>
		</g>
		<g transform="matrix(1,0,0.477775,1.38266,-323.624,-192.296)">
			<polygon class="st7" points="793.58,307.46 813.21,307.46 813.12,310.41 793.48,310.41 			"/>
		</g>
		<g transform="matrix(1,0,0.477775,1.38266,-318.395,-175.306)">
			<polygon class="st7" points="793.83,300.01 813.47,300.01 813.37,302.96 793.74,302.96 			"/>
		</g>
	</g>
	<path class="st9" d="M723.56,266.21c-0.72-2.17-5-15.73-1.69-21.49c0.22-0.37,0.58-0.64,0.99-0.72c1.18-0.2,3.69,0.33,7.24,6.46
		c0,0,32.26,51.88,43.91,59.63c0,0,0.31-39.62,43.87-46.09c6.05-0.9,48.54-9.74,72.36,53.39c7.88,20.89,7.79,37.59,7.65,55.44
		c-0.09,14.15-6.95,27.27-18.18,34.74l0,0c-14.71,9.79-32.95,11.32-48.9,4.1c-10.7-4.83-24.52-9.74-40.2-12.21l-34.43-3.56
		c0,0,1.72,10.07-12.53,8.13c0,0-11.22-1.58-8.98-9.64c0,0-7.56-1.31-6-9.14c0,0-7.17-5.99-0.8-13.3c0,0-20.7-0.27-24.91-10.82
		c-0.35-0.91-0.38-1.94-0.06-2.87c0.39-1.15,1.39-2.37,3.83-2.46c0,0,28.63-0.47,36.16-2.78l-16.37-29.81c0,0-12.75-7.5-15.69-19.5
		c-3.03,0.01-5.6-2.48-5.83-5.77c-0.2-2.81,1.38-5.33,3.71-6.29l-1.34,0.11c-3.17,0.26-5.93-2.29-6.17-5.68
		c-0.19-2.73,1.32-5.19,3.57-6.17c-3.06,0.15-5.69-2.33-5.92-5.62c-0.24-3.35,2.11-6.27,5.23-6.52L723.56,266.21z"/>
	<path class="st10" d="M755.71,399.78c-6.74-0.41-12.15,1.32-12.15,1.32c-0.98,0.32-2-0.28-2.29-1.32
		c-0.29-1.04,0.26-2.14,1.24-2.46c0,0,7.87-2.53,16.8-1.1l-3.12-0.32C756.18,395.9,756.5,397.79,755.71,399.78z M731.2,392.84
		c1.29-4.18,5.67-13.41,19.61-15.69c1-0.16,1.94,0.58,2.1,1.65c0.15,1.08-0.54,2.08-1.54,2.25c-12.29,2.01-15.84,10.28-16.74,13.33
		C734.33,394.32,732.7,393.96,731.2,392.84z M726,381.64c1.8-4.11,6.71-10.79,19.9-13.42c1-0.2,1.96,0.51,2.15,1.58
		c0.19,1.07-0.47,2.1-1.47,2.3c-16.45,3.28-17.96,13.41-17.91,13.16C728.66,385.25,727.02,383.87,726,381.64z M723.29,371.6
		c2.15-2.99,8.97-11.31,19.04-12.85c1.01-0.15,1.94,0.59,2.08,1.67s-0.56,2.08-1.56,2.23c-7.08,1.09-12.28,6.06-15.02,9.31
		C727.49,371.95,725.72,371.89,723.29,371.6z M830.37,351.65l22.48,8.46c0.96,0.36,2.01-0.18,2.35-1.21
		c0.34-1.03-0.17-2.15-1.13-2.51l-22.48-8.46c-0.96-0.36-2.01,0.18-2.35,1.21C828.91,350.16,829.42,351.29,830.37,351.65z
		 M740.97,349.52c2.36-0.5,28.34-5.9,47.28-5.68c1.02,0.01,1.83,0.9,1.82,1.99c-0.01,1.09-0.85,1.96-1.86,1.95
		c-19.54-0.23-45.83,5.39-45.33,5.24L740.97,349.52z M726.53,323.2l5.7,2.74c0.74,0.37,1.06,1.31,0.72,2.1
		c-0.35,0.79-1.22,1.13-1.96,0.77l-1.9-0.95L726.53,323.2z M722.59,263c3.33,0.58,5.7,2.49,6.57,3.99c1.93,3.36,1.16,6.66-0.68,9.02
		c0.12,0.63,0.32,1.58,0.63,2.75c0.45,0.34,0.82,0.68,1.13,1.03c1.7,1.9,1.82,3.91,1.85,4.53c0.04,0.75-0.03,1.44-0.17,2.09
		c1.61,3.24,3.87,6.43,7.06,8.26c0.71,0.41,0.98,1.37,0.6,2.14c-0.38,0.77-1.28,1.06-2,0.64c-1.35-0.78-2.57-1.76-3.66-2.87
		c0,0.01,0.01,0.03,0.01,0.04c1.2,4-0.72,8.33-4.39,9.86c-5.58,2.35-13.4,2.5-17.68,2.38c-0.41-1.01-0.76-2.06-1.02-3.14
		c-0.38,0,11.19,0.54,17.63-2.17c2.25-0.94,3.41-3.6,2.64-6.04c-0.01-0.03-0.02-0.05-0.03-0.08c-0.55-1.63-2.06-2.65-3.67-2.49
		l-3.03,0.31c-0.58,0.18-0.95,0.27-0.95,0.27c-0.29,0.06-0.59,0.03-0.85-0.08l-17.16,1.74c0.6-1.59,1.79-2.87,3.31-3.5l15.1-1.54
		c0.89-0.3,2.25-0.87,3.4-1.79c1.08-0.87,2.01-2.09,1.92-3.83c-0.02-0.34-0.08-1.46-1.03-2.52c-1.17-1.3-3.47-2.39-7.86-2.5
		c-0.12,0-0.23-0.02-0.34-0.05c-5.14,0.18-10.42,0.27-15.66,0.49c-1.93-0.1-3.63-1.23-4.59-2.92c7.62-0.46,15.39-0.5,22.82-0.82
		c1.05-0.05,2.19-0.63,3.11-1.5c0.13-0.24,0.31-0.44,0.53-0.58c1.14-1.41,1.63-3.37,0.51-5.44c-1.04-1.92-3.09-2.43-3.09-2.43
		C723.39,265.69,723.02,264.54,722.59,263z M731.91,293.54c-0.5,0.22-0.57,0.46-0.61,0.54c0.08-0.12,0.17-0.23,0.28-0.32
		C731.67,293.67,731.78,293.6,731.91,293.54l0.03-0.01L731.91,293.54z M730.25,289.64c-0.14,0.16-0.29,0.32-0.44,0.48
		c0.35,0.13,0.69,0.28,1.01,0.47C730.62,290.27,730.44,289.96,730.25,289.64z"/>
	<path class="st10" d="M773.88,310.01l0.12,0.08c0,0,0.31-39.62,43.87-46.09c6.05-0.9,48.54-9.74,72.36,53.39
		c0.08,0.22,0.17,0.44,0.25,0.66c-14.12,15.91-29.64,3.92-29.64,3.92c-7.59,24.84-31.85,14.17-31.85,14.17l7.85,17.95
		c-18.33-7.21-53.99-6.16-53.99-6.16C775.46,337.94,774.05,319.97,773.88,310.01z"/>
	<path class="st10" d="M828.26,351.43c0,0-4.74-16.36-8.14-28.13c-0.15-0.53,0.1-1.09,0.57-1.3c0.48-0.21,1.03,0.01,1.26,0.5
		c6.03,12.64,15.13,31.68,15.13,31.68L828.26,351.43z"/>
	<path class="st9" d="M693.63,457.38c34.18-44.39,104.96-27.93,120.54-25.73c100.85,14.24,78.48,97.19,74.83,107.78
		c-8,23.25-27.28,32.24-56.04,35.37v90.23c0,0-8.78-8.39-10.8-17.93c0,0-3.46-0.23-9.45-0.87c0,0,4.55,13.24,6.95,20.21
		c0.33,0.95,0.2,2.02-0.34,2.85c-0.54,0.84-1.43,1.33-2.38,1.33H702.44c6.24-12.19,18.52-12.09,18.52-12.09
		c-4.8-12.87-9.75-25.38-14.62-38.16c-31.36-13.42-59.02-33.33-67.45-62.74C635.61,546.23,633.68,496.03,693.63,457.38z"/>
	<path class="st10" d="M709.76,629.29c11.4,6.16,31.14,11.88,44.22-11.63c0.28-0.5,0.74-0.84,1.28-0.94
		c0.53-0.09,1.08,0.07,1.49,0.44c0,0,8.18,7.41,18.24,11.07c5.8,2.11,12.25,3,18.05,0.2c3.84-1.86,7.36-5.34,10.23-11.07
		c0.48-0.96,1.59-1.32,2.49-0.8c0.89,0.52,1.23,1.71,0.75,2.67c-3.34,6.66-7.5,10.64-11.96,12.79c-6.66,3.22-14.08,2.37-20.75-0.06
		c-7.92-2.88-14.75-7.94-17.77-10.39c-13.16,21.66-31.79,18.6-44.25,12.97l-0.87-2.24c-0.31-0.79-0.61-1.58-0.92-2.38L709.76,629.29
		z"/>
	<path class="st10" d="M792.43,575.62c0,0-31.26-0.14-48.46-0.21c-0.7,0-1.3,0.56-1.4,1.3c-0.09,0.75,0.35,1.45,1.03,1.64
		c18.03,5.06,52.56,14.76,52.56,14.76L792.43,575.62z"/>
	<path class="st10" d="M835.23,574.54c-0.75,0.09-1.49,0.18-2.25,0.26v3.85c-13.73,0.92-26.44,1.15-38.85,0.97l22.53,67.02
		c-1.15-0.11-2.47-0.24-3.93-0.4l3.28,9.55c-0.19-0.2-0.34-0.45-0.44-0.74l-25.38-75.5c-2.32-0.05-4.63-0.11-6.94-0.19
		c-1.01-0.03-1.81-0.94-1.78-2.03c0.03-1.09,0.88-1.94,1.89-1.91C799.88,575.96,816.6,575.89,835.23,574.54z M702.88,447.51
		c-20.98,20.04-29.26,41.9-23.47,80c3.94,25.94,14.33,59.28,31.58,104.42c0.11,0.3,0.15,0.61,0.13,0.91
		c-1.6-4.14-3.2-8.28-4.79-12.45c-1.47-0.63-2.93-1.27-4.38-1.93c-14.05-38.04-22.66-67.11-26.19-90.31
		c-4.31-28.36-1.1-48.1,9.03-64.67c2.78-2.06,5.72-4.09,8.83-6.09C696.48,453.68,699.58,450.41,702.88,447.51z"/>
	<g transform="matrix(1.0436,0,0,1.05132,-87.9969,-50.2575)">
		<ellipse class="st9" cx="836.09" cy="269.13" rx="27.01" ry="29.14"/>
	</g>
	<path class="st7" d="M763.58,214.32c4.96-6.58,12.51-10.78,20.97-10.78c14.91,0,27.01,13.06,27.01,29.14c0,3.29-0.5,6.45-1.44,9.39
		c-4.76-0.45-7.47-4.25-8.4-5.83c1.74-0.96,2.95-3.08,2.95-5.53c0-3.36-2.26-6.08-5.06-6.08c-2.79,0-5.06,2.73-5.06,6.08
		c0,0.79,0.13,1.55,0.36,2.25C777.81,234.93,766.93,219.8,763.58,214.32z M775.85,198.91c0.7,0.25,1.47-0.04,1.87-0.7
		c0.4-0.66,0.33-1.53-0.18-2.11c-0.14-0.19-0.31-0.37-0.48-0.56c-4.26-4.75-9.05-9.07-14.16-12.71
		c-15.71-11.22-34.42-19.62-52.82-24.08c-19.01-4.6-42.73-4.86-59.52,7.05c-11.05,7.83-19.31,24.41-9.79,37.36
		c3.42,4.64,8.33,7.87,13.4,10.04c20.54,8.8,41.95,3.25,61.46-5.56c11.11-5.02,22.15-11.66,34.25-13.73
		C757.49,192.6,769.21,196.39,775.85,198.91z"/>
	<g id="GIRLS-CHAIR" transform="matrix(1,0,0,1,6.02348,2.73409)">
		<path class="st2" d="M874,573.06l51.4-148.58l10.97,4.28l-81.62,239.8h-13.78l28.71-83H787.9v-12.5H874z"/>
	</g>
	<g transform="matrix(0.843235,0,0.162401,0.964007,99.7904,26.5646)">
		<polygon class="st2" points="458.97,255.1 642.21,255.1 640.67,375.63 457.44,375.63 		"/>
	</g>
	<g transform="matrix(0.188267,0,0.0445801,0.264627,1212.9,786.955)">
		<polygon class="st2" points="-2847.96,-1526.93 -2664.72,-1526.93 -2666.61,-1406.39 -2849.84,-1406.39 		"/>
	</g>
	<polygon class="st11" points="539.15,281.34 674.3,281.34 689.41,377.4 554.26,377.4 	"/>
	<g>
		<g transform="matrix(0.250622,0,0.059635,0.353992,1167,489.54)">
			<polygon class="st8" points="-2032.02,-564.17 -1848.79,-564.17 -1850.68,-443.63 -2033.92,-443.63 			"/>
		</g>
		<g transform="matrix(0.250622,0,0.059635,0.353992,1167,489.54)">
			<path class="st7" d="M-2027.6-560.82l-0.66,41.69c-0.03,1.82-2.06,3.54-4.53,3.85c-2.47,0.31-4.46-0.92-4.43-2.74l0.72-45.59
				c0.02-0.97,0.61-1.96,1.63-2.71s2.35-1.18,3.65-1.18h183.24c2.15,0,3.71,1.18,3.68,2.79l-0.72,45.59
				c-0.03,1.82-2.06,3.54-4.53,3.85c-2.47,0.31-4.45-0.92-4.42-2.74l0.67-42.8H-2027.6z"/>
		</g>
		<g transform="matrix(0.250622,0,0.059635,0.353992,1167,489.54)">
			<path class="st7" d="M-1855.1-446.98l1.12-71.05c0.03-1.82,2.06-3.54,4.53-3.85c2.47-0.31,4.46,0.92,4.43,2.74l-1.18,74.94
				c-0.02,0.97-0.61,1.96-1.63,2.71c-1.02,0.75-2.35,1.18-3.65,1.18h-183.24c-2.15,0-3.71-1.18-3.68-2.79l1.18-74.94
				c0.03-1.82,2.06-3.54,4.53-3.85c2.47-0.31,4.46,0.92,4.43,2.74l-1.13,72.16H-1855.1z"/>
		</g>
		<path class="st7" d="M647.43,332.5h-2.24l-6.76-42.67h2.24L647.43,332.5z M663.77,332.5h-2.24l-6.75-42.67h2.24L663.77,332.5z"/>
		<path class="st7" d="M675.18,322.68h-45.92l-0.37-2.37h45.92L675.18,322.68z M673.52,312.16H627.6l-0.37-2.37h45.92L673.52,312.16
			z M671.74,300.85h-45.92l-0.38-2.37h45.93L671.74,300.85z"/>
	</g>
	<g>
		<g transform="matrix(0.43426,0,0.0904681,0.537017,741.787,400.271)">
			<path class="st8" d="M-285.7-58.37h84.4l1.66-120.53h-60.94"/>
		</g>
		<g transform="matrix(0.43426,0,0.0904681,0.537017,741.787,400.271)">
			<path class="st7" d="M-202.26-176.7h-58.8c-1.4,0-2.34-0.99-2.08-2.2c0.25-1.22,1.6-2.2,3-2.2h60.95c1.24,0,2.14,0.78,2.13,1.84
				l-1.66,120.53c-0.01,0.64-0.35,1.29-0.94,1.79c-0.59,0.49-1.36,0.78-2.11,0.78h-84.4c-1.4,0-2.34-0.99-2.08-2.2
				c0.25-1.22,1.6-2.2,3-2.2h81.39L-202.26-176.7z"/>
		</g>
		<g transform="matrix(0.43426,0,0.0904681,0.537017,741.787,400.271)">
			<path class="st8" d="M-260.59-178.9h-122.29l-1.66,120.53h98.84"/>
		</g>
		<g transform="matrix(0.43426,0,0.0904681,0.537017,741.787,400.271)">
			<path class="st7" d="M-381.93-60.57h96.69c1.4,0,2.34,0.99,2.09,2.2c-0.26,1.22-1.6,2.2-3.01,2.2H-385
				c-1.24,0-2.14-0.78-2.13-1.84l1.66-120.53c0.01-0.64,0.35-1.29,0.94-1.79c0.59-0.49,1.36-0.78,2.11-0.78h122.29
				c1.4,0,2.34,0.99,2.09,2.2c-0.26,1.22-1.6,2.2-3.01,2.2h-119.28L-381.93-60.57z"/>
		</g>
		<g transform="matrix(0.43426,0,0.0108641,0.064489,796.463,724.822)">
			<polygon class="st7" points="-382.88,-6522.44 -199.65,-6522.44 -199.85,-6401.91 -383.08,-6401.91 			"/>
		</g>
		<path class="st7" d="M646.22,350.71h-79.57l-0.37-2.37h79.57L646.22,350.71z M642.94,329.87h-79.57L563,327.5h79.57L642.94,329.87
			z"/>
		<path class="st7" d="M589.91,368.92h-2.24l-10.25-64.73h2.24L589.91,368.92z M611.59,368.92h-2.24L599.1,304.2h2.24L611.59,368.92
			z M633,368.92h-2.24l-10.25-64.73h2.24L633,368.92z"/>
	</g>
	<g>
		<g transform="matrix(39.1332,-3.06228,2.9801,38.083,1539.87,874.293)">
			<path d="M-21.79-15.74c0,0.02,0,0.03-0.01,0.05c-0.01,0.01-0.02,0.02-0.04,0.03c-0.02,0.01-0.03,0.01-0.06,0.01
				c-0.03,0-0.05,0-0.06-0.02c-0.01-0.01-0.02-0.02-0.03-0.03c-0.01-0.01-0.01-0.02-0.01-0.04c0-0.01,0-0.01,0.01-0.02
				c0-0.01,0.01-0.01,0.02-0.01c0.01,0,0.01,0,0.01,0.01c0,0,0.01,0.01,0.01,0.02c0,0.01,0.01,0.02,0.01,0.02
				c0,0.01,0.01,0.01,0.02,0.01c0.01,0,0.02,0.01,0.03,0.01c0.02,0,0.03,0,0.04-0.01s0.01-0.02,0.01-0.03c0-0.01,0-0.02-0.01-0.02
				c-0.01-0.01-0.01-0.01-0.02-0.01c-0.01,0-0.02-0.01-0.03-0.01c-0.02,0-0.03-0.01-0.05-0.02c-0.01-0.01-0.02-0.01-0.03-0.03
				c-0.01-0.01-0.01-0.02-0.01-0.04c0-0.02,0-0.03,0.01-0.04c0.01-0.01,0.02-0.02,0.03-0.03c0.02-0.01,0.03-0.01,0.05-0.01
				c0.02,0,0.03,0,0.04,0.01c0.01,0,0.02,0.01,0.03,0.02c0.01,0.01,0.01,0.01,0.02,0.02c0,0.01,0.01,0.02,0.01,0.02
				c0,0.01,0,0.01-0.01,0.02c0,0.01-0.01,0.01-0.02,0.01c-0.01,0-0.01,0-0.01,0c0,0-0.01-0.01-0.01-0.02c0-0.01-0.01-0.02-0.02-0.02
				c-0.01-0.01-0.02-0.01-0.03-0.01c-0.01,0-0.02,0-0.03,0.01c-0.01,0.01-0.01,0.01-0.01,0.02c0,0.01,0,0.01,0,0.01
				c0,0,0.01,0.01,0.01,0.01c0.01,0,0.01,0.01,0.02,0.01c0.01,0,0.01,0,0.03,0.01c0.01,0,0.03,0.01,0.04,0.01
				c0.01,0,0.02,0.01,0.03,0.02c0.01,0.01,0.02,0.01,0.02,0.02S-21.79-15.75-21.79-15.74z"/>
		</g>
		<g transform="matrix(0.999849,-0.0173515,0.0173515,0.999849,-14.7933,25.9972)">
			<path class="st7" d="M643.64,319.05l1.36,12.29c0.07,0.65,0.62,1.11,1.22,1.03c0.61-0.08,1.04-0.67,0.97-1.32l-1.36-12.29
				c-0.07-0.65-0.62-1.11-1.22-1.03C644,317.81,643.57,318.4,643.64,319.05z"/>
		</g>
	</g>
	<path class="st7" d="M569.58,315.75l1.26,7.86c0.1,0.64,0.68,1.08,1.28,0.97c0.6-0.11,1.01-0.72,0.9-1.37l-1.26-7.86
		c-0.1-0.64-0.67-1.08-1.27-0.97C569.89,314.5,569.48,315.11,569.58,315.75z"/>
	<g transform="matrix(1,0,0,1,18.943,101.882)">
		<path class="st7" d="M557.62,254.04l1.26,7.86c0.1,0.64,0.68,1.08,1.28,0.97c0.6-0.11,1.01-0.72,0.9-1.37l-1.26-7.86
			c-0.1-0.64-0.67-1.08-1.27-0.97C557.92,252.78,557.51,253.4,557.62,254.04z"/>
	</g>
	<g>
		<g transform="matrix(0.872154,-0.126564,0.123316,0.849772,92.3663,350.963)">
			<path class="st7" d="M566.87,66.81c0.39,0,0.66,0.39,0.9,0.85c0.41,0.77,0.64,1.84,0.63,3.02c-0.01,1.18-0.26,2.25-0.68,3.03
				c-0.26,0.47-0.53,0.87-0.92,0.87c-0.69,0.01-1.26,0.63-1.27,1.39c-0.01,0.76,0.55,1.37,1.24,1.36c0.98-0.01,1.92-0.55,2.66-1.56
				c0.85-1.16,1.46-3.02,1.48-5.12c0.02-2.1-0.55-3.95-1.38-5.09c-0.72-0.99-1.66-1.51-2.63-1.5c-0.69,0.01-1.26,0.63-1.27,1.39
				C565.63,66.2,566.18,66.81,566.87,66.81z"/>
		</g>
		<g transform="matrix(0.872154,-0.126564,0.123316,0.849772,92.3663,350.963)">
			<path class="st7" d="M566.8,74.58c-0.38,0-0.66-0.39-0.9-0.85c-0.41-0.77-0.64-1.84-0.62-3.02c0.01-1.18,0.26-2.25,0.68-3.03
				c0.26-0.47,0.54-0.87,0.92-0.87c0.69-0.01,1.26-0.63,1.27-1.39c0.01-0.76-0.55-1.37-1.24-1.36c-0.98,0.01-1.91,0.55-2.66,1.56
				c-0.86,1.16-1.46,3.02-1.48,5.12c-0.02,2.1,0.55,3.95,1.38,5.09c0.72,0.99,1.65,1.51,2.63,1.5c0.69-0.01,1.26-0.63,1.27-1.39
				C568.05,75.19,567.5,74.57,566.8,74.58z"/>
		</g>
	</g>
	<g>
		<g transform="matrix(0.872154,-0.126564,0.123316,0.849772,100.543,403.611)">
			<path class="st7" d="M566.27,29.19c0.39,0,0.66,0.39,0.9,0.85c0.41,0.77,0.64,1.84,0.63,3.02c-0.01,1.18-0.26,2.25-0.68,3.03
				c-0.26,0.47-0.53,0.87-0.92,0.87c-0.69,0.01-1.26,0.63-1.27,1.39c-0.01,0.76,0.55,1.37,1.24,1.36c0.98-0.01,1.92-0.55,2.66-1.56
				c0.85-1.16,1.46-3.02,1.48-5.12c0.02-2.1-0.55-3.95-1.38-5.09c-0.72-0.99-1.66-1.51-2.63-1.5c-0.69,0.01-1.26,0.63-1.27,1.39
				C565.02,28.59,565.58,29.2,566.27,29.19z"/>
		</g>
		<g transform="matrix(0.872154,-0.126564,0.123316,0.849772,100.543,403.611)">
			<path class="st7" d="M566.2,36.96c-0.38,0-0.66-0.39-0.9-0.85c-0.41-0.77-0.64-1.84-0.63-3.02c0.01-1.18,0.26-2.25,0.68-3.03
				c0.26-0.47,0.54-0.87,0.92-0.87c0.69-0.01,1.26-0.63,1.27-1.39c0.01-0.76-0.55-1.37-1.24-1.36c-0.98,0.01-1.91,0.55-2.66,1.56
				c-0.85,1.16-1.46,3.02-1.48,5.12c-0.02,2.1,0.55,3.95,1.38,5.09c0.72,0.99,1.65,1.51,2.63,1.5c0.69-0.01,1.26-0.63,1.27-1.39
				C567.45,37.57,566.89,36.96,566.2,36.96z"/>
		</g>
	</g>
	<g>
		<g transform="matrix(0.872154,-0.126564,0.123316,0.849772,158.987,403.58)">
			<path class="st7" d="M524.8,23.03c0.39,0,0.66,0.39,0.9,0.85c0.41,0.77,0.64,1.84,0.63,3.02c-0.01,1.18-0.26,2.25-0.68,3.03
				c-0.26,0.47-0.53,0.87-0.92,0.87c-0.69,0.01-1.26,0.63-1.27,1.39c-0.01,0.76,0.55,1.37,1.24,1.36c0.98-0.01,1.92-0.55,2.66-1.56
				c0.85-1.16,1.46-3.02,1.48-5.12c0.02-2.1-0.55-3.95-1.38-5.09c-0.72-0.99-1.66-1.51-2.63-1.5c-0.69,0.01-1.26,0.63-1.27,1.39
				C523.55,22.43,524.11,23.04,524.8,23.03z"/>
		</g>
		<g transform="matrix(0.872154,-0.126564,0.123316,0.849772,158.987,403.58)">
			<path class="st7" d="M524.73,30.81c-0.38,0-0.66-0.39-0.9-0.85c-0.41-0.77-0.64-1.84-0.62-3.02c0.01-1.18,0.26-2.25,0.68-3.03
				c0.26-0.47,0.54-0.87,0.92-0.87c0.69-0.01,1.26-0.63,1.27-1.39c0.01-0.76-0.55-1.37-1.24-1.36c-0.98,0.01-1.91,0.55-2.66,1.56
				c-0.85,1.16-1.46,3.02-1.48,5.12c-0.02,2.1,0.55,3.95,1.38,5.09c0.72,0.99,1.65,1.51,2.63,1.5c0.69-0.01,1.26-0.63,1.27-1.39
				C525.98,31.41,525.42,30.8,524.73,30.81z"/>
		</g>
	</g>
	<g transform="matrix(0.783652,0.324094,-0.364731,0.799184,456.503,-337.805)">
		<polygon class="st12" points="357.85,505.63 413.23,506.95 415.1,578.54 359.72,577.22 		"/>
	</g>
	<g transform="matrix(0.647214,0.267668,-0.0474112,0.103886,493.968,77.1391)">
		<polygon class="st8" points="144.61,712.85 200,721.25 200.29,792.85 144.91,784.44 		"/>
	</g>
	<g>
		<g>
			<g transform="matrix(0.907626,0.392889,-0.37877,0.87501,318.062,-459.153)">
				<path class="st8" d="M483.93,540.71c1.66,0.04,3.06,1.48,3.1,3.23c0.04,1.74-1.29,3.11-2.95,3.07l0.03,1.23
					c2.3,0.06,4.11-1.86,4.05-4.26c-0.06-2.41-1.96-4.42-4.25-4.48L483.93,540.71z"/>
			</g>
			<g transform="matrix(0.907626,0.392889,-0.37877,0.87501,318.062,-459.153)">
				<path class="st8" d="M484.07,547c-1.66-0.04-3.06-1.48-3.1-3.23c-0.04-1.74,1.29-3.11,2.95-3.07l-0.03-1.23
					c-2.3-0.06-4.11,1.86-4.05,4.26c0.06,2.41,1.96,4.42,4.26,4.48L484.07,547z"/>
			</g>
		</g>
		<g>
			<g transform="matrix(0.907626,0.392889,-0.37877,0.87501,307.832,-435.519)">
				<path class="st8" d="M484.17,524.23c1.66,0.04,3.06,1.48,3.1,3.23c0.04,1.74-1.29,3.11-2.95,3.07l0.03,1.23
					c2.3,0.06,4.11-1.86,4.05-4.26c-0.06-2.41-1.96-4.42-4.25-4.48L484.17,524.23z"/>
			</g>
			<g transform="matrix(0.907626,0.392889,-0.37877,0.87501,307.832,-435.519)">
				<path class="st8" d="M484.32,530.53c-1.66-0.04-3.06-1.48-3.1-3.23c-0.04-1.74,1.29-3.11,2.95-3.07l-0.03-1.23
					c-2.3-0.06-4.11,1.86-4.05,4.26c0.06,2.41,1.96,4.42,4.26,4.48L484.32,530.53z"/>
			</g>
		</g>
		<g>
			<g transform="matrix(0.907626,0.392889,-0.37877,0.87501,297.602,-411.886)">
				<path class="st8" d="M484.42,507.76c1.66,0.04,3.06,1.48,3.1,3.23c0.04,1.74-1.29,3.11-2.95,3.07l0.03,1.23
					c2.3,0.06,4.11-1.86,4.05-4.26c-0.06-2.41-1.96-4.42-4.25-4.48L484.42,507.76z"/>
			</g>
			<g transform="matrix(0.907626,0.392889,-0.37877,0.87501,297.602,-411.886)">
				<path class="st8" d="M484.57,514.06c-1.66-0.04-3.06-1.48-3.1-3.23c-0.04-1.74,1.29-3.11,2.95-3.07l-0.03-1.23
					c-2.3-0.06-4.11,1.86-4.05,4.26c0.06,2.41,1.96,4.42,4.26,4.48L484.57,514.06z"/>
			</g>
		</g>
		<g>
			<g transform="matrix(0.907626,0.392889,-0.37877,0.87501,287.371,-388.252)">
				<path class="st8" d="M484.67,491.29c1.66,0.04,3.06,1.48,3.1,3.23c0.04,1.74-1.29,3.11-2.95,3.07l0.03,1.23
					c2.3,0.06,4.11-1.86,4.05-4.26s-1.96-4.42-4.25-4.48L484.67,491.29z"/>
			</g>
			<g transform="matrix(0.907626,0.392889,-0.37877,0.87501,287.371,-388.252)">
				<path class="st8" d="M484.81,497.58c-1.66-0.04-3.06-1.48-3.1-3.23c-0.04-1.74,1.29-3.11,2.95-3.07l-0.03-1.23
					c-2.3-0.06-4.11,1.86-4.05,4.26c0.06,2.41,1.96,4.42,4.26,4.48L484.81,497.58z"/>
			</g>
		</g>
		<g>
			<g transform="matrix(0.907626,0.392889,-0.37877,0.87501,341.967,-448.805)">
				<path class="st8" d="M467.39,540.96c1.66,0.04,3.06,1.48,3.1,3.23c0.04,1.74-1.29,3.11-2.95,3.07l0.03,1.23
					c2.3,0.06,4.11-1.86,4.05-4.26c-0.06-2.41-1.96-4.42-4.25-4.48L467.39,540.96z"/>
			</g>
			<g transform="matrix(0.907626,0.392889,-0.37877,0.87501,341.967,-448.805)">
				<path class="st8" d="M467.54,547.26c-1.66-0.04-3.06-1.48-3.1-3.23c-0.04-1.74,1.29-3.11,2.95-3.07l-0.03-1.23
					c-2.3-0.06-4.11,1.86-4.05,4.26c0.06,2.41,1.96,4.42,4.26,4.48L467.54,547.26z"/>
			</g>
		</g>
		<g>
			<g transform="matrix(0.907626,0.392889,-0.37877,0.87501,331.736,-425.172)">
				<path class="st8" d="M467.64,524.49c1.66,0.04,3.06,1.48,3.1,3.23c0.04,1.74-1.29,3.11-2.95,3.07l0.03,1.23
					c2.3,0.06,4.11-1.86,4.05-4.26c-0.06-2.41-1.96-4.42-4.25-4.48L467.64,524.49z"/>
			</g>
			<g transform="matrix(0.907626,0.392889,-0.37877,0.87501,331.736,-425.172)">
				<path class="st8" d="M467.79,530.79c-1.66-0.04-3.06-1.48-3.1-3.23c-0.04-1.74,1.29-3.11,2.95-3.07l-0.03-1.23
					c-2.3-0.06-4.11,1.86-4.05,4.26c0.06,2.41,1.96,4.42,4.26,4.48L467.79,530.79z"/>
			</g>
		</g>
		<g>
			<g transform="matrix(0.907626,0.392889,-0.37877,0.87501,321.506,-401.538)">
				<path class="st8" d="M467.89,508.02c1.66,0.04,3.06,1.48,3.1,3.23c0.04,1.74-1.29,3.11-2.95,3.07l0.03,1.23
					c2.3,0.06,4.11-1.86,4.05-4.26c-0.06-2.41-1.96-4.42-4.25-4.48L467.89,508.02z"/>
			</g>
			<g transform="matrix(0.907626,0.392889,-0.37877,0.87501,321.506,-401.538)">
				<path class="st8" d="M468.04,514.31c-1.66-0.04-3.06-1.48-3.1-3.23c-0.04-1.74,1.29-3.11,2.95-3.07l-0.03-1.23
					c-2.3-0.06-4.11,1.86-4.05,4.26s1.96,4.42,4.26,4.48L468.04,514.31z"/>
			</g>
		</g>
		<g>
			<g transform="matrix(0.907626,0.392889,-0.37877,0.87501,311.275,-377.905)">
				<path class="st8" d="M468.14,491.55c1.66,0.04,3.06,1.48,3.1,3.23s-1.29,3.11-2.95,3.07l0.03,1.23c2.3,0.06,4.11-1.86,4.05-4.26
					c-0.06-2.41-1.96-4.42-4.25-4.48L468.14,491.55z"/>
			</g>
			<g transform="matrix(0.907626,0.392889,-0.37877,0.87501,311.275,-377.905)">
				<path class="st8" d="M468.28,497.84c-1.66-0.04-3.06-1.48-3.1-3.23s1.29-3.11,2.95-3.07l-0.03-1.23
					c-2.3-0.06-4.11,1.86-4.05,4.26c0.06,2.41,1.96,4.42,4.26,4.48L468.28,497.84z"/>
			</g>
		</g>
		<g>
			<g transform="matrix(0.907626,0.392889,-0.37877,0.87501,365.871,-438.458)">
				<path class="st8" d="M450.86,541.22c1.66,0.04,3.06,1.48,3.1,3.23s-1.29,3.11-2.95,3.07l0.03,1.23c2.3,0.06,4.11-1.86,4.05-4.26
					c-0.06-2.41-1.96-4.42-4.25-4.48L450.86,541.22z"/>
			</g>
			<g transform="matrix(0.907626,0.392889,-0.37877,0.87501,365.871,-438.458)">
				<path class="st8" d="M451.01,547.52c-1.66-0.04-3.06-1.48-3.1-3.23c-0.04-1.74,1.29-3.11,2.95-3.07l-0.03-1.23
					c-2.3-0.06-4.11,1.86-4.05,4.26c0.06,2.41,1.96,4.42,4.26,4.48L451.01,547.52z"/>
			</g>
		</g>
		<g>
			<g transform="matrix(0.907626,0.392889,-0.37877,0.87501,355.641,-414.824)">
				<path class="st8" d="M451.11,524.75c1.66,0.04,3.06,1.48,3.1,3.23c0.04,1.74-1.29,3.11-2.95,3.07l0.03,1.23
					c2.3,0.06,4.11-1.86,4.05-4.26c-0.06-2.41-1.96-4.42-4.25-4.48L451.11,524.75z"/>
			</g>
			<g transform="matrix(0.907626,0.392889,-0.37877,0.87501,355.641,-414.824)">
				<path class="st8" d="M451.26,531.05c-1.66-0.04-3.06-1.48-3.1-3.23c-0.04-1.74,1.29-3.11,2.95-3.07l-0.03-1.23
					c-2.3-0.06-4.11,1.86-4.05,4.26c0.06,2.41,1.96,4.42,4.26,4.48L451.26,531.05z"/>
			</g>
		</g>
		<g>
			<g transform="matrix(0.907626,0.392889,-0.37877,0.87501,345.41,-391.191)">
				<path class="st8" d="M451.36,508.28c1.66,0.04,3.06,1.48,3.1,3.23c0.04,1.74-1.29,3.11-2.95,3.07l0.03,1.23
					c2.3,0.06,4.11-1.86,4.05-4.26c-0.06-2.41-1.96-4.42-4.25-4.48L451.36,508.28z"/>
			</g>
			<g transform="matrix(0.907626,0.392889,-0.37877,0.87501,345.41,-391.191)">
				<path class="st8" d="M451.5,514.57c-1.66-0.04-3.06-1.48-3.1-3.23c-0.04-1.74,1.29-3.11,2.95-3.07l-0.03-1.23
					c-2.3-0.06-4.11,1.86-4.05,4.26c0.06,2.41,1.96,4.42,4.26,4.48L451.5,514.57z"/>
			</g>
		</g>
		<g>
			<g transform="matrix(0.907626,0.392889,-0.37877,0.87501,335.18,-367.557)">
				<path class="st8" d="M451.6,491.81c1.66,0.04,3.06,1.48,3.1,3.23c0.04,1.74-1.29,3.11-2.95,3.07l0.03,1.23
					c2.3,0.06,4.11-1.86,4.05-4.26c-0.06-2.41-1.96-4.42-4.25-4.48L451.6,491.81z"/>
			</g>
			<g transform="matrix(0.907626,0.392889,-0.37877,0.87501,335.18,-367.557)">
				<path class="st8" d="M451.75,498.1c-1.66-0.04-3.06-1.48-3.1-3.23c-0.04-1.74,1.29-3.11,2.95-3.07l-0.03-1.23
					c-2.3-0.06-4.11,1.86-4.05,4.26c0.06,2.41,1.96,4.42,4.26,4.48L451.75,498.1z"/>
			</g>
		</g>
		<g>
			<g transform="matrix(0.907626,0.392889,-0.37877,0.87501,389.775,-428.11)">
				<path class="st8" d="M434.33,541.48c1.66,0.04,3.06,1.48,3.1,3.23c0.04,1.74-1.29,3.11-2.95,3.07l0.03,1.23
					c2.3,0.06,4.11-1.86,4.05-4.26c-0.06-2.41-1.96-4.42-4.25-4.48L434.33,541.48z"/>
			</g>
			<g transform="matrix(0.907626,0.392889,-0.37877,0.87501,389.775,-428.11)">
				<path class="st8" d="M434.48,547.78c-1.66-0.04-3.06-1.48-3.1-3.23c-0.04-1.74,1.29-3.11,2.95-3.07l-0.03-1.23
					c-2.3-0.06-4.11,1.86-4.05,4.26c0.06,2.41,1.96,4.42,4.26,4.48L434.48,547.78z"/>
			</g>
		</g>
		<g>
			<g transform="matrix(0.907626,0.392889,-0.37877,0.87501,379.545,-404.476)">
				<path class="st8" d="M434.58,525.01c1.66,0.04,3.06,1.48,3.1,3.23c0.04,1.74-1.29,3.11-2.95,3.07l0.03,1.23
					c2.3,0.06,4.11-1.86,4.05-4.26c-0.06-2.41-1.96-4.42-4.25-4.48L434.58,525.01z"/>
			</g>
			<g transform="matrix(0.907626,0.392889,-0.37877,0.87501,379.545,-404.476)">
				<path class="st8" d="M434.73,531.31c-1.66-0.04-3.06-1.48-3.1-3.23c-0.04-1.74,1.29-3.11,2.95-3.07l-0.03-1.23
					c-2.3-0.06-4.11,1.86-4.05,4.26s1.96,4.42,4.26,4.48L434.73,531.31z"/>
			</g>
		</g>
		<g>
			<g transform="matrix(0.907626,0.392889,-0.37877,0.87501,369.314,-380.843)">
				<path class="st8" d="M434.83,508.54c1.66,0.04,3.06,1.48,3.1,3.23s-1.29,3.11-2.95,3.07l0.03,1.23c2.3,0.06,4.11-1.86,4.05-4.26
					c-0.06-2.41-1.96-4.42-4.25-4.48L434.83,508.54z"/>
			</g>
			<g transform="matrix(0.907626,0.392889,-0.37877,0.87501,369.314,-380.843)">
				<path class="st8" d="M434.97,514.83c-1.66-0.04-3.06-1.48-3.1-3.23s1.29-3.11,2.95-3.07l-0.03-1.23
					c-2.3-0.06-4.11,1.86-4.05,4.26c0.06,2.41,1.96,4.42,4.26,4.48L434.97,514.83z"/>
			</g>
		</g>
		<g>
			<g transform="matrix(0.907626,0.392889,-0.37877,0.87501,359.084,-357.209)">
				<path class="st8" d="M435.07,492.07c1.66,0.04,3.06,1.48,3.1,3.23c0.04,1.74-1.29,3.11-2.95,3.07l0.03,1.23
					c2.3,0.06,4.11-1.86,4.05-4.26c-0.06-2.41-1.96-4.42-4.25-4.48L435.07,492.07z"/>
			</g>
			<g transform="matrix(0.907626,0.392889,-0.37877,0.87501,359.084,-357.209)">
				<path class="st8" d="M435.22,498.36c-1.66-0.04-3.06-1.48-3.1-3.23c-0.04-1.74,1.29-3.11,2.95-3.07l-0.03-1.23
					c-2.3-0.06-4.11,1.86-4.05,4.26s1.96,4.42,4.26,4.48L435.22,498.36z"/>
			</g>
		</g>
	</g>
	<g id="DESK" transform="matrix(1,0,0,1,3.02579,6.52912)">
		<rect x="329.54" y="407" class="st2" width="493.55" height="14.96"/>
	</g>
	<g id="KEYBOARD" transform="matrix(1,0,0,1,-0.676235,-1.59399)">
		<path class="st13" d="M686.71,407.19H693v-2.82h9.82v2.82h6.7v-2.82h9.82v2.82h6.7v-2.82h9.82v2.82h2.09
			c0.96,0,1.88,0.41,2.56,1.14c0.68,0.73,1.06,1.71,1.06,2.74V415h-71.17c0,0,0-1.97,0-3.93c0-1.03,0.38-2.01,1.06-2.74
			c0.68-0.73,1.6-1.14,2.56-1.14h2.84v-2.82h9.82V407.19z"/>
	</g>
	<g id="NOTEPAD">
		<g transform="matrix(0.974413,0,0,1,22.0427,43.2776)">
			<rect x="342.87" y="360.74" class="st8" width="88.67" height="10.56"/>
		</g>
		<g>
			<path class="st7" d="M402.88,402.29v3.15H358.1v6.79h44.78v3.15h-46.25c-0.81,0-1.47-0.71-1.47-1.58v-9.94
				c0-0.87,0.66-1.58,1.47-1.58H402.88z"/>
			<path class="st7" d="M402.88,402.29h40.91c0.81,0,1.47,0.71,1.47,1.58v9.94c0,0.87-0.66,1.58-1.47,1.58h-40.91
				c-1.37-1.55-0.85-2.41,0-3.15h39.44v-6.79h-39.44C402.32,404.28,402.18,403.2,402.88,402.29z"/>
			<path class="st7" d="M408.22,404.34l0.24,9.9c0.02,0.87,0.7,1.56,1.51,1.54c0.81-0.02,1.46-0.75,1.43-1.62l-0.24-9.9
				c-0.02-0.87-0.7-1.56-1.51-1.53C408.85,402.75,408.2,403.48,408.22,404.34z M426.72,399.73v13.91c0,0.87,0.66,1.58,1.47,1.58
				c0.81,0,1.47-0.71,1.47-1.58v-13.91c0-0.87-0.66-1.58-1.47-1.58C427.38,398.15,426.72,398.86,426.72,399.73z M417.64,399.96
				v12.79c0,0.87,0.66,1.58,1.47,1.58c0.81,0,1.47-0.71,1.47-1.58v-12.79c0-0.87-0.66-1.58-1.47-1.58
				C418.3,398.38,417.64,399.09,417.64,399.96z M435.37,399.87v12.54c0,0.87,0.66,1.58,1.47,1.58c0.81,0,1.47-0.71,1.47-1.58v-12.54
				c0-0.87-0.66-1.58-1.47-1.58C436.03,398.29,435.37,399,435.37,399.87z"/>
		</g>
	</g>
	<g id="JAR1" class="st14">
		<path class="st12" d="M463.89,329.1h-2.61c-1.45,0-2.63-1.26-2.63-2.82c0-1.55,1.18-2.82,2.63-2.82h65.39
			c1.45,0,2.63,1.26,2.63,2.82c0,1.55-1.17,2.82-2.63,2.82h-1.22c1.32,0.5,2.54,1.31,3.55,2.39c1.77,1.9,2.77,4.47,2.77,7.15v74.77
			h-74.2c0,0,0-52.26,0-74.77c0-2.68,1-5.26,2.77-7.15C461.35,330.41,462.57,329.6,463.89,329.1z"/>
		<path class="st12" d="M525.46,329.1c0.94,0.35,1.83,0.87,2.63,1.53l-68.83,2.26c0.32-0.49,0.68-0.96,1.08-1.39
			c1.01-1.08,2.23-1.89,3.55-2.39H525.46z"/>
	</g>
	<g transform="matrix(0.910266,-0.275905,0.29456,0.971812,-183.502,326.179)">
		<polygon class="st9" points="640.03,206.11 666.46,205.63 665.57,251.07 639.13,251.55 		"/>
	</g>
	<g>
		<g transform="matrix(1,0,0,1,4.58908,-9.29654)">
			<path class="st10" d="M473.85,372.8c2.81,0,5.08,2.44,5.08,5.45c0,3.01-2.28,5.45-5.08,5.45c-0.61,0-1.1,0.53-1.1,1.18
				s0.49,1.18,1.1,1.18c4.02,0,7.29-3.5,7.29-7.81c0-4.31-3.27-7.81-7.29-7.81c-0.61,0-1.1,0.53-1.1,1.18
				C472.75,372.27,473.24,372.8,473.85,372.8z"/>
		</g>
		<g transform="matrix(1,0,0,1,4.58908,-9.29654)">
			<path class="st10" d="M473.85,383.69c-2.81,0-5.08-2.44-5.08-5.45c0-3.01,2.28-5.45,5.08-5.45c0.61,0,1.1-0.53,1.1-1.18
				c0-0.65-0.5-1.18-1.1-1.18c-4.03,0-7.29,3.5-7.29,7.81c0,4.31,3.27,7.81,7.29,7.81c0.61,0,1.1-0.53,1.1-1.18
				S474.46,383.69,473.85,383.69z"/>
		</g>
		<path class="st10" d="M480.79,391.57l-1.91-6.25c-0.25-0.83,0.17-1.72,0.94-1.99c0.77-0.27,1.61,0.18,1.86,1.01l1.93,6.31
			L480.79,391.57z M484.76,390.28l-1.29-4.45c-0.24-0.83,0.2-1.72,0.97-1.97c0.78-0.26,1.6,0.21,1.84,1.04l1.29,4.47L484.76,390.28z
			 M475.4,344.84l2.08,7.2c0.24,0.83-0.2,1.72-0.97,1.97c-0.78,0.26-1.6-0.21-1.84-1.04l-2.09-7.22L475.4,344.84z M470.79,346.33
			l1.75,5.46c0.27,0.82-0.15,1.72-0.92,2s-1.61-0.16-1.87-0.98l-1.78-5.57L470.79,346.33z"/>
	</g>
	<g transform="matrix(0.910266,-0.275905,0.29456,0.971812,-183.502,326.179)">
		<polygon class="st9" points="683.56,230.05 705.74,243.46 680.81,282.51 658.63,269.09 		"/>
	</g>
	<g>
		<g transform="matrix(1,0,0,1,4.58908,-9.29654)">
			<path class="st10" d="M511.03,392.53c2.38,1.58,3.12,4.95,1.64,7.5c-1.48,2.55-4.62,3.34-7,1.75c-0.52-0.35-1.2-0.17-1.52,0.38
				c-0.32,0.55-0.16,1.28,0.36,1.63c3.42,2.27,7.92,1.15,10.04-2.52c2.12-3.66,1.07-8.48-2.35-10.76c-0.52-0.35-1.2-0.17-1.52,0.38
				C510.35,391.45,510.51,392.18,511.03,392.53z"/>
		</g>
		<g transform="matrix(1,0,0,1,4.58908,-9.29654)">
			<path class="st10" d="M505.66,401.78c-2.39-1.59-3.12-4.95-1.64-7.5c1.48-2.55,4.62-3.34,7-1.75c0.52,0.34,1.2,0.17,1.52-0.38
				c0.32-0.55,0.16-1.29-0.36-1.63c-3.42-2.28-7.92-1.15-10.05,2.52c-2.12,3.66-1.07,8.48,2.35,10.76c0.52,0.34,1.2,0.17,1.52-0.38
				S506.18,402.12,505.66,401.78z"/>
		</g>
		<path class="st10" d="M503.79,408.4l1.46-6.39c0.19-0.84,0.99-1.36,1.78-1.16c0.79,0.21,1.27,1.06,1.08,1.91l-1.47,6.45
			L503.79,408.4z M507.79,409.55l1.1-4.51c0.21-0.84,1.01-1.35,1.8-1.13c0.79,0.22,1.26,1.08,1.05,1.92l-1.1,4.52L507.79,409.55z
			 M522.22,365.66l-1.78,7.29c-0.21,0.84-1.01,1.35-1.8,1.13c-0.79-0.22-1.26-1.08-1.05-1.92l1.78-7.31L522.22,365.66z
			 M517.57,364.32l-1.2,5.63c-0.18,0.85-0.97,1.38-1.77,1.18c-0.79-0.19-1.29-1.04-1.11-1.89l1.23-5.74L517.57,364.32z"/>
	</g>
	<g id="COINS">
		<g transform="matrix(0.152362,0,0,0.15348,988.073,820.014)">
			<g transform="matrix(1.00734,0,0,1,-121.537,12.8484)">
				<ellipse class="st15" cx="-3011.87" cy="-3095.08" rx="8.92" ry="9.55"/>
			</g>
			<g transform="matrix(6.99699,0,0,6.94602,-7035.01,-5737.77)">
				<path class="st16" d="M554.56,376.6c3.02,0,5.48,2.63,5.48,5.87c0,3.24-2.46,5.87-5.48,5.87c-0.29,0-0.53,0.25-0.53,0.56
					s0.24,0.56,0.53,0.56c3.6,0,6.53-3.14,6.53-7c0-3.86-2.93-7-6.53-7c-0.29,0-0.53,0.25-0.53,0.56
					C554.03,376.35,554.27,376.6,554.56,376.6z"/>
			</g>
			<g transform="matrix(6.99699,0,0,6.94602,-7035.01,-5737.77)">
				<path class="st16" d="M554.56,388.34c-3.03,0-5.48-2.63-5.48-5.87c0-3.24,2.46-5.87,5.48-5.87c0.29,0,0.52-0.25,0.52-0.56
					c0-0.31-0.24-0.56-0.52-0.56c-3.61,0-6.54,3.14-6.54,7c0,3.86,2.93,7,6.54,7c0.29,0,0.52-0.25,0.52-0.56
					S554.85,388.34,554.56,388.34z"/>
			</g>
			<g transform="matrix(6.5633,0,0,6.5155,-6485.02,-5342.8)">
				<path class="st16" d="M505.96,356.4l0.08-2.28c0.01-0.33,0.27-0.59,0.58-0.58c0.31,0.01,0.55,0.29,0.54,0.62l-0.08,2.34
					C506.7,356.49,506.33,356.46,505.96,356.4z M509.23,356.27l-0.55-2.33c-0.07-0.32,0.11-0.65,0.41-0.73
					c0.3-0.08,0.6,0.11,0.68,0.44l0.54,2.29C509.96,356.08,509.6,356.19,509.23,356.27z M499.87,352.25l1.68-1.42
					c0.24-0.21,0.6-0.16,0.79,0.1c0.19,0.26,0.15,0.64-0.09,0.84l-1.69,1.43C500.31,352.91,500.08,352.59,499.87,352.25z
					 M498.74,349.67l2.1-1.22c0.27-0.16,0.61-0.05,0.76,0.24c0.15,0.29,0.04,0.66-0.23,0.81l-2.24,1.3
					C498.98,350.44,498.85,350.06,498.74,349.67z M516.11,348.36l-2.03-0.1c-0.31-0.02-0.55-0.3-0.53-0.63
					c0.01-0.33,0.28-0.59,0.59-0.57l2.07,0.1C516.2,347.57,516.17,347.97,516.11,348.36z M513.53,340.13
					c0.27,0.28,0.52,0.58,0.75,0.9l-1.65,1.81c-0.22,0.24-0.57,0.24-0.79,0.01c-0.22-0.23-0.23-0.61-0.01-0.85L513.53,340.13z
					 M502.85,338.67l1.46,2.33c0.17,0.28,0.1,0.65-0.15,0.83c-0.26,0.18-0.61,0.11-0.78-0.16l-1.46-2.34
					C502.21,339.09,502.52,338.87,502.85,338.67z M508.06,337.44c0.38,0.03,0.75,0.09,1.11,0.18l-0.22,2.39
					c-0.03,0.33-0.31,0.57-0.61,0.54c-0.31-0.03-0.53-0.33-0.5-0.66L508.06,337.44z"/>
			</g>
		</g>
		<g transform="matrix(-0.0172876,0.151378,-0.152489,-0.0174144,1240.29,729.908)">
			<g transform="matrix(1.00734,0,0,1,-121.537,12.8484)">
				<ellipse class="st15" cx="-1668.47" cy="5098.31" rx="8.92" ry="9.55"/>
			</g>
			<g transform="matrix(6.99699,0,0,6.94602,-7035.01,-5737.77)">
				<path class="st16" d="M748.02,1556.56c3.23-0.02,5.84,2.41,5.82,5.44c-0.02,3.03-2.67,5.51-5.91,5.53
					c-0.31,0-0.57,0.24-0.57,0.53s0.25,0.53,0.56,0.52c3.86-0.03,7.01-2.98,7.04-6.59c0.03-3.61-3.08-6.52-6.94-6.49
					c-0.31,0-0.57,0.24-0.57,0.53S747.71,1556.56,748.02,1556.56z"/>
			</g>
			<g transform="matrix(6.99699,0,0,6.94602,-7035.01,-5737.77)">
				<path class="st16" d="M747.93,1567.53c-3.24,0.02-5.85-2.41-5.82-5.44c0.02-3.03,2.67-5.51,5.91-5.53
					c0.31,0,0.56-0.24,0.56-0.53s-0.25-0.53-0.56-0.52c-3.86,0.03-7.02,2.98-7.04,6.59c-0.03,3.61,3.08,6.52,6.94,6.49
					c0.31,0,0.56-0.24,0.56-0.53S748.24,1567.53,747.93,1567.53z"/>
			</g>
			<g transform="matrix(6.5633,0,0,6.5155,-6485.02,-5342.8)">
				<path class="st16" d="M711.99,1613.31l0.1-2.14c0.01-0.31,0.3-0.55,0.63-0.54c0.33,0.01,0.59,0.27,0.57,0.58l-0.11,2.19
					C712.78,1613.4,712.38,1613.37,711.99,1613.31z M715.48,1613.17l-0.57-2.18c-0.08-0.3,0.12-0.61,0.44-0.69
					c0.32-0.08,0.65,0.1,0.73,0.4l0.56,2.14C716.26,1612.98,715.88,1613.09,715.48,1613.17z M705.5,1609.49l1.81-1.34
					c0.26-0.19,0.64-0.16,0.84,0.09c0.2,0.24,0.16,0.6-0.1,0.79l-1.82,1.35C705.97,1610.1,705.72,1609.8,705.5,1609.49z
					 M704.31,1607.09l2.25-1.16c0.29-0.15,0.66-0.05,0.81,0.22c0.16,0.27,0.04,0.61-0.25,0.76l-2.4,1.23
					C704.56,1607.81,704.42,1607.45,704.31,1607.09z M722.9,1605.72l-2.17-0.08c-0.33-0.01-0.58-0.27-0.57-0.58
					c0.02-0.31,0.3-0.55,0.63-0.54l2.21,0.08C723,1604.98,722.96,1605.36,722.9,1605.72z M720.2,1598.05
					c0.29,0.26,0.55,0.54,0.8,0.83l-1.77,1.7c-0.23,0.22-0.61,0.23-0.85,0.02c-0.24-0.21-0.24-0.57-0.01-0.79L720.2,1598.05z
					 M708.79,1596.77l1.54,2.17c0.18,0.26,0.11,0.61-0.17,0.78c-0.28,0.17-0.65,0.11-0.83-0.15l-1.55-2.17
					C708.1,1597.17,708.43,1596.96,708.79,1596.77z M714.38,1595.58c0.4,0.03,0.8,0.08,1.19,0.16l-0.25,2.23
					c-0.04,0.31-0.34,0.54-0.66,0.51c-0.33-0.03-0.57-0.3-0.53-0.61L714.38,1595.58z"/>
			</g>
		</g>
		<g transform="matrix(0.111656,0.103669,-0.10443,0.112475,990.357,833.943)">
			<g transform="matrix(1.00734,0,0,1,-121.537,12.8484)">
				<ellipse class="st15" cx="-4263.03" cy="223.98" rx="8.92" ry="9.55"/>
			</g>
			<g transform="matrix(6.99699,0,0,6.94602,-7035.01,-5737.77)">
				<path class="st16" d="M374.25,854.62c3.12,0.11,5.75,2.74,5.85,5.88c0.11,3.14-2.34,5.6-5.46,5.5c-0.3-0.01-0.54,0.23-0.53,0.53
					c0.01,0.3,0.27,0.55,0.57,0.57c3.72,0.13,6.64-2.81,6.52-6.55c-0.13-3.74-3.25-6.89-6.98-7.01c-0.3-0.01-0.54,0.23-0.53,0.53
					S373.95,854.61,374.25,854.62z"/>
			</g>
			<g transform="matrix(6.99699,0,0,6.94602,-7035.01,-5737.77)">
				<path class="st16" d="M374.64,866c-3.13-0.11-5.75-2.74-5.86-5.88c-0.11-3.14,2.34-5.6,5.47-5.5c0.3,0.01,0.53-0.23,0.52-0.53
					c-0.01-0.3-0.26-0.55-0.56-0.57c-3.73-0.13-6.65,2.81-6.52,6.55c0.13,3.74,3.25,6.89,6.98,7.01c0.3,0.01,0.53-0.23,0.52-0.53
					C375.19,866.26,374.93,866.01,374.64,866z"/>
			</g>
			<g transform="matrix(6.5633,0,0,6.5155,-6485.02,-5342.8)">
				<path class="st16" d="M314.2,865.47l0.01-2.21c0-0.32,0.26-0.56,0.58-0.54c0.32,0.02,0.58,0.3,0.58,0.62l-0.01,2.27
					C314.97,865.59,314.58,865.54,314.2,865.47z M317.57,865.47l-0.64-2.28c-0.09-0.31,0.09-0.62,0.4-0.69
					c0.31-0.07,0.63,0.13,0.72,0.45l0.63,2.24C318.32,865.3,317.95,865.4,317.57,865.47z M307.78,861.24l1.69-1.32
					c0.24-0.19,0.61-0.14,0.82,0.12c0.21,0.26,0.18,0.62-0.07,0.82l-1.7,1.33C308.25,861.89,308,861.57,307.78,861.24z
					 M306.52,858.7l2.13-1.11c0.28-0.14,0.63-0.03,0.8,0.26c0.16,0.29,0.07,0.64-0.21,0.78l-2.27,1.18
					C306.79,859.45,306.65,859.08,306.52,858.7z M324.42,858.04l-2.09-0.17c-0.32-0.03-0.58-0.31-0.57-0.63
					c0-0.32,0.27-0.56,0.59-0.53l2.14,0.17C324.48,857.28,324.46,857.66,324.42,858.04z M321.48,849.97
					c0.29,0.28,0.56,0.58,0.81,0.89l-1.64,1.7c-0.22,0.22-0.58,0.22-0.82-0.02c-0.24-0.23-0.26-0.6-0.04-0.82L321.48,849.97z
					 M310.4,848.18l1.58,2.31c0.19,0.27,0.13,0.63-0.13,0.8c-0.26,0.17-0.62,0.09-0.81-0.19l-1.59-2.32
					C309.75,848.57,310.07,848.36,310.4,848.18z M315.75,847.17c0.39,0.05,0.78,0.12,1.15,0.21l-0.15,2.31
					c-0.02,0.32-0.3,0.54-0.62,0.5c-0.32-0.04-0.56-0.34-0.54-0.65L315.75,847.17z"/>
			</g>
		</g>
		<g transform="matrix(0.149682,-0.0284542,0.028663,0.15078,1017.04,1003.81)">
			<g transform="matrix(1.00734,0,0,1,-121.537,12.8484)">
				<ellipse class="st15" cx="-2326.13" cy="-4459.49" rx="8.92" ry="9.55"/>
			</g>
			<g transform="matrix(6.99699,0,0,6.94602,-7035.01,-5737.77)">
				<path class="st16" d="M653.36,180.18c3.03-0.04,5.46,2.55,5.42,5.79c-0.04,3.23-2.53,5.89-5.56,5.93
					c-0.29,0-0.53,0.26-0.54,0.57c0,0.31,0.23,0.56,0.52,0.56c3.61-0.05,6.59-3.21,6.63-7.07c0.05-3.85-2.85-6.94-6.46-6.9
					c-0.29,0-0.53,0.26-0.54,0.57C652.83,179.94,653.06,180.19,653.36,180.18z"/>
			</g>
			<g transform="matrix(6.99699,0,0,6.94602,-7035.01,-5737.77)">
				<path class="st16" d="M653.21,191.9c-3.03,0.04-5.46-2.55-5.42-5.79c0.04-3.23,2.53-5.89,5.57-5.93c0.29,0,0.53-0.26,0.53-0.57
					c0-0.31-0.23-0.56-0.52-0.56c-3.62,0.05-6.59,3.21-6.64,7.07c-0.05,3.85,2.85,6.94,6.47,6.9c0.29,0,0.53-0.26,0.53-0.57
					C653.73,192.14,653.5,191.89,653.21,191.9z"/>
			</g>
			<g transform="matrix(6.5633,0,0,6.5155,-6485.02,-5342.8)">
				<path class="st16" d="M611.09,146.98l0.11-2.28c0.02-0.33,0.28-0.59,0.59-0.58c0.31,0.01,0.55,0.28,0.54,0.62l-0.11,2.34
					C611.84,147.07,611.46,147.04,611.09,146.98z M614.37,146.82l-0.52-2.32c-0.07-0.32,0.11-0.65,0.42-0.73
					c0.3-0.08,0.6,0.11,0.68,0.43l0.51,2.28C615.1,146.61,614.74,146.73,614.37,146.82z M605.04,142.93l1.7-1.44
					c0.25-0.21,0.6-0.17,0.79,0.09s0.14,0.63-0.1,0.84l-1.72,1.45C605.47,143.57,605.25,143.26,605.04,142.93z M603.93,140.37
					l2.12-1.24c0.28-0.16,0.62-0.06,0.76,0.23c0.14,0.29,0.04,0.65-0.24,0.82l-2.26,1.33C604.16,141.13,604.04,140.76,603.93,140.37
					z M621.36,138.83l-2.03-0.07c-0.31-0.01-0.55-0.29-0.53-0.62c0.02-0.33,0.28-0.59,0.59-0.58l2.07,0.08
					C621.46,138.04,621.42,138.44,621.36,138.83z M618.88,130.66c0.27,0.28,0.51,0.57,0.75,0.88l-1.67,1.83
					c-0.22,0.24-0.58,0.25-0.79,0.02c-0.22-0.23-0.22-0.61,0-0.85L618.88,130.66z M608.19,129.34l1.43,2.31
					c0.17,0.27,0.1,0.65-0.17,0.83c-0.26,0.19-0.61,0.12-0.78-0.15l-1.44-2.31C607.54,129.77,607.86,129.54,608.19,129.34z
					 M613.43,128.04c0.38,0.03,0.75,0.08,1.11,0.16l-0.25,2.38c-0.04,0.33-0.32,0.57-0.62,0.55c-0.31-0.03-0.53-0.32-0.5-0.65
					L613.43,128.04z"/>
			</g>
		</g>
	</g>
	<g id="PAPER-BILL" transform="matrix(1,0,0,1,5.21737,-5.81481)">
		<path class="st17" d="M493.41,418.01l-43.2,80.56h-17.77c0,0-5.46,12.49,2.81,17.06h81.5c0.08,0,0.17,0.01,0.25,0.02
			c1.62,0.13,10.9-0.16,18.24-20.52c11.92-33.07,24.01-52.15,36.21-77.13H493.41z"/>
		<g transform="matrix(0.93449,0.13298,-0.313392,0.955354,442.97,-95.9341)">
			
				<ellipse transform="matrix(-0.5981 0.8014 -0.8014 -0.5981 824.7161 725.3758)" class="st8" cx="230.49" cy="569.46" rx="15.23" ry="12.63"/>
		</g>
		<g transform="matrix(1.02716,0.0108992,-0.640974,1.16934,644.813,-194.141)">
			<polygon class="st18" points="181.4,524.82 246.74,524.87 246.94,529.66 181.6,529.62 			"/>
		</g>
		<g transform="matrix(1.03199,0.00927035,-0.639149,1.17041,624.093,-166.819)">
			<polygon class="st18" points="185.95,510.15 251.28,510.19 251.48,514.99 186.15,514.95 			"/>
		</g>
		<g transform="matrix(1.03531,0.026932,-0.65816,1.15904,625.602,-150.226)">
			<polygon class="st18" points="185.8,506.64 251.18,506.75 251.38,511.54 186,511.44 			"/>
		</g>
		<g transform="matrix(1.0299,0.0446274,-0.676583,1.14736,637.838,-133.605)">
			<polygon class="st18" points="176.95,503.42 242.38,503.6 242.58,508.39 177.16,508.21 			"/>
		</g>
		<g transform="matrix(0.549765,0.0277179,-0.562031,1.11902,1148.2,-51.3241)">
			<polygon class="st18" points="-683.84,478.02 -618.41,478.13 -618.1,482.92 -683.52,482.81 			"/>
		</g>
		<g transform="matrix(0.371267,0.0223134,-0.468608,1.12431,1275.26,-20.7622)">
			<polygon class="st18" points="-1468.19,471.32 -1402.77,471.41 -1402.38,476.2 -1467.8,476.11 			"/>
		</g>
		<g transform="matrix(0.492546,0.036704,-0.392064,1.1297,1016.41,-16.9977)">
			<polygon class="st18" points="-682.85,468.15 -617.43,468.3 -617.18,473.09 -682.61,472.94 			"/>
		</g>
		<path class="st7" d="M451.82,495.56h58.22c0.07,0,0.13,0.01,0.2,0.02c0.63,0.09,1.15,0.46,1.4,1.31c0.12,0.41,0.13,1.23-0.02,2.33
			c-0.53,3.95-2.92,13.93,6.62,16.41c-0.56,0.07-0.99,0.06-1.23,0.04c-0.08-0.01-0.17-0.02-0.25-0.02h-4.98
			c-0.32-0.31-0.62-0.63-0.9-0.97c-3.36-4.08-3-10-2.45-13.96c0.09-0.68,0.18-1.42,0.25-2l-58.47-0.14L451.82,495.56z"/>
		<g transform="matrix(0.259277,0.187502,-0.187502,0.259277,898.122,890.161)">
			<g transform="matrix(187.083,-86.746,58.002,189.528,1142.68,441.752)">
				<path d="M-12.88-9.59c0.02,0.02,0.05,0.03,0.08,0.03c0.03,0,0.05-0.01,0.05-0.04c0-0.02-0.01-0.03-0.04-0.04
					c-0.01,0-0.02,0-0.03-0.01c-0.02,0-0.04-0.01-0.05-0.03c-0.01-0.01-0.02-0.03-0.02-0.05c0-0.02,0.01-0.04,0.02-0.06
					c0.01-0.01,0.04-0.02,0.06-0.02c0.03,0,0.06,0.01,0.09,0.03l-0.02,0.03c-0.02-0.01-0.04-0.02-0.07-0.02
					c-0.01,0-0.02,0-0.03,0.01c-0.01,0.01-0.01,0.02-0.01,0.03c0,0.01,0,0.02,0.01,0.02c0.01,0.01,0.02,0.01,0.03,0.01
					c0.01,0,0.02,0,0.03,0c0.02,0,0.04,0.01,0.06,0.03c0.01,0.02,0.02,0.03,0.02,0.05c0,0.05-0.03,0.08-0.09,0.08
					c-0.04,0-0.07-0.01-0.1-0.04L-12.88-9.59z"/>
			</g>
			<g transform="matrix(1.058,-0.0924583,-0.0519775,1.11983,-39.8004,66.0465)">
				<path class="st7" d="M-1710.76-478.09l18.48,62.34l5.79-1.3l-18.64-62.88L-1710.76-478.09z"/>
			</g>
		</g>
	</g>
</g>
<g>
	<g>
		<path class="st1" d="M-144.32,631.96c1.93,0,1.93-3,0-3C-146.25,628.96-146.25,631.96-144.32,631.96L-144.32,631.96z"/>
	</g>
</g>
</svg>
