<?xml version="1.0" encoding="utf-8"?>
<!-- Generator: Adobe Illustrator 23.1.0, SVG Export Plug-In . SVG Version: 6.00 Build 0)  -->
<svg version="1.1" id="Layer_1" xmlns="http://www.w3.org/2000/svg" xmlns:xlink="http://www.w3.org/1999/xlink" x="0px" y="0px"
	 viewBox="0 0 1000 800" style="enable-background:new 0 0 1000 800;" xml:space="preserve">
<style type="text/css">
	.st0{fill:#E3E1D3;}
	.st1{fill-rule:evenodd;clip-rule:evenodd;}
	.st2{fill-rule:evenodd;clip-rule:evenodd;fill:#807D96;}
	.st3{fill-rule:evenodd;clip-rule:evenodd;fill:#5E6082;}
	.st4{fill-rule:evenodd;clip-rule:evenodd;fill:#606060;}
	.st5{fill-rule:evenodd;clip-rule:evenodd;fill:#96916E;}
	.st6{fill-rule:evenodd;clip-rule:evenodd;fill:#FFFFFF;}
	.st7{fill-rule:evenodd;clip-rule:evenodd;fill:#7C7052;}
	.st8{fill-rule:evenodd;clip-rule:evenodd;fill:#706346;}
	.st9{fill-rule:evenodd;clip-rule:evenodd;fill:#E3E1D3;}
	.st10{fill-rule:evenodd;clip-rule:evenodd;fill:#D2D3D5;}
	.st11{opacity:0.26;}
	.st12{fill-rule:evenodd;clip-rule:evenodd;fill:#046C34;}
	.st13{fill-rule:evenodd;clip-rule:evenodd;fill:#013F11;}
	.st14{fill-rule:evenodd;clip-rule:evenodd;fill:#FFCF84;}
	.st15{fill-rule:evenodd;clip-rule:evenodd;fill:#FDA92F;}
	.st16{fill-rule:evenodd;clip-rule:evenodd;fill:#E9E9EB;}
	.st17{fill-rule:evenodd;clip-rule:evenodd;fill:#BABDC2;}
	.st18{fill:#C0C0BC;}
	.st19{fill:none;stroke:#706346;stroke-width:3;stroke-miterlimit:10;}
</style>
<g>
	<g>
		<path class="st0" d="M536.21,20.35c60.61-9.61,116.32,36.28,151.34,86.68s59.91,109.31,106.44,149.33
			c18.75,16.12,40.38,28.56,59.7,43.99C917.07,351,951.5,431.98,957.6,512.87s-13.73,161.87-43.55,237.32
			c-3.45,8.74-7.36,17.84-14.83,23.53c-7.13,5.43-16.43,6.92-25.31,8.14c-259.03,35.6-523.18-5.78-783.44,19.27
			c-34.99,3.37-77.12,4.94-97.54-23.67c-6.48-9.08-9.65-20.11-11.55-31.1C-28.61,688.46-6.06,630.44,16.06,576
			c17.76-43.7,36.15-88.43,68.08-123.14c21.88-23.79,49.21-41.83,73.17-63.51c34.98-31.65,62.73-71.24,80.54-114.92
			c6.21-15.23,11.27-31.02,19.43-45.31c25.3-44.32,75.56-67.09,122.82-86.37c15.85-6.47,32.09-13.07,44.84-24.5
			c9.29-8.33,16.3-18.85,23.47-29.07c19.09-27.19,41.5-54.15,72.4-66.35s72.05-4.19,87.26,25.35"/>
	</g>
	<g>
		<g>
			<path d="M835.17,94.54c2.08,0,2.08-3.24,0-3.24S833.08,94.54,835.17,94.54L835.17,94.54z"/>
		</g>
	</g>
	<path id="MANS-CHAIR-" class="st1" d="M234.81,655.15h141.31v13.5H239.4l34.31,103.45h-12.89l-88.83-262.08l11.84-4.62
		L234.81,655.15z"/>
	<path class="st2" d="M131.32,756.81c0,0,1.74-87.6,3.08-154.67c0.85-42.95,32.46-77.96,72.51-80.33
		c88.53-5.29,175.92-6.64,261.51-1.71c41.57,2.4,75.9,35.64,82.3,79.69c0.02,0,0.02,0,0.02,0c3.5,24.1-2.61,48.65-16.85,67.68
		c-18.06,24.06-48.58,57.57-95.81,89.54c0,0,17.47,5.41,19.25,13.77c0,0-132.91-0.16-166.78-0.21c-1.25,0-2.36-0.82-2.82-2.07
		c-0.45-1.24-0.14-2.66,0.78-3.56c23.8-23.29,113.4-111,113.4-111l-151.15,1.64c0,0-2.43,90.48-3,111.74
		c-0.06,2.46-1.95,4.42-4.25,4.41c-22.72-0.17-131.2-0.96-131.2-0.96S111.54,762.27,131.32,756.81z"/>
	<path class="st3" d="M473.52,730.34l-115.7-33.27l3.48-3.41l116.11,33.38C476.14,728.15,474.84,729.24,473.52,730.34z
		 M249.77,691.92l-117.23,3.03l0.09-4.26l117.26-3.03L249.77,691.92z"/>
	<path class="st4" d="M401.7,654.14l41.13-0.1c0.39,0,0.72,0.3,0.79,0.72c0.06,0.42-0.17,0.82-0.55,0.95l-65.31,21.88L401.7,654.14z
		 M250.75,655.71l-0.53,19.85l-34.69-16.72c-0.67-0.32-1.04-1.11-0.89-1.88c0.15-0.78,0.79-1.33,1.53-1.32L250.75,655.71z"/>
	<path class="st2" d="M451.69,337.29c0,0-39.94-57.74-129.79-32.53c-12.1,3.4-107.94,35.97-145.75,127.47
		c-3.69,8.95-23.62,49.63,5.27,71.38c20.16,15.18,41.79,12.36,117.54-14.78c6.41-2.3,45.9-11.23,38.76-20.99
		c0,0,3.19,0.69,4.72-1.58c0,0,0.17,1.17,0.3,2.03c0.09,0.59,0.35,1.13,0.75,1.55c1.81,1.93,7.24,7.74,10.67,11.39
		c0.58,0.63,1.45,0.86,2.25,0.62c0.8-0.24,1.41-0.93,1.6-1.8c1.01-4.65,2.48-11.45,2.48-11.45s35.93,8.35,57.59-29.14
		c0,0,0.91,37.03,27.67,51.99c7.82,4.37,51.24,13.65,62.63-34.3c7.97-33.54,13.79-93.47,18.88-136.53c0,0,26.6-17.88,28.62-26.45
		c0.72-3.08-2.19-8.13-8.7-3.02c0,0,9.72-8.84,6.47-13.01c-1.8-2.32-5.5-2.44-12.82,4.26c0,0,9.11-9.99,4.95-13.99
		c-4.48-4.3-9.67,4.53-14.44,9.3c0,0,10.6-17.43,4.6-20.44c-2.54-1.27-5.28-1.44-14.53,11.03c-8.56,11.55-20.72,12.74-29.52,11.61
		c0,0,3.47-21.77-0.51-23.87c-4.48-2.39-8.53,1.88-18.27,23.28C463.5,300.47,458.7,321.39,451.69,337.29z"/>
	<path class="st3" d="M345.97,299.73c69.48-9.35,102.52,33.18,105.5,37.25c-4.53,17.31-12.31,54.29-12.31,54.29l-8.17-0.12
		c0.13,21.61-12.88,47.43-12.88,47.43l-0.05,0.91c-20.59,35.63-54.54,29.72-57.74,29.21l1.05-5.64l-2.72-8.17l-0.84-2.32
		c0,0,3.76-5.39,7.08-10.16c2.81-4.03,2.15-9.71-1.49-12.89c-7.28-6.35-18.05-15.75-18.05-15.75c-0.06-0.05-0.13-0.11-0.18-0.15
		c-8.66-7.09-19.6-10.19-30.39-8.63c-22.89,3.31-68.91,10-68.91,10l-27.78-46c32.41-33.48,70.44-51.73,90.69-59.64L345.97,299.73z"
		/>
	<path class="st5" d="M342.44,466.35c0.78-1,3.34-4.82,1.04-8.5l-3.24-4.19c0,0,4.53,0.7,6.38,0.52c0,0-0.25,4.86,3.5,5.71
		c1.03,0.23,2.08-0.18,2.73-1.06c1.81-2.43,5.86-7.9,5.86-7.9s2.26,10.44,2.67,12.33c0.04,0.19,0.04,0.39,0,0.58
		c-0.38,1.8-2.34,11.36-2.34,11.36l-1.06,4.87c-0.18,0.86-0.8,1.55-1.6,1.8c-0.8,0.25-1.66,0.01-2.25-0.62
		c-3.42-3.65-8.86-9.46-10.67-11.39c-0.4-0.42-0.66-0.97-0.74-1.55L342.44,466.35z M326.41,404.98c0,0,14.39,2.26,23.64,13.23
		l-6.36-32.89l-21.09,0.13L326.41,404.98z"/>
	<path class="st1" d="M359.15,474.67l-0.11,0.53l-1.06,4.87c-0.18,0.86-0.8,1.55-1.6,1.8c-0.8,0.25-1.66,0.01-2.25-0.62l-4.84-5.17
		L359.15,474.67z M344.86,454.17c0.68,0.04,1.31,0.04,1.76,0c0,0-0.25,4.86,3.5,5.71c0.41,0.09,0.82,0.08,1.21-0.02l0.58,2.9
		l8.78-2.73l0.69,3.22c0.02,0.1,0.03,0.21,0.03,0.3l-18.33,5.79c-0.18-0.31-0.3-0.67-0.37-1.05l-0.29-1.95
		c0.14-0.18,0.33-0.45,0.55-0.8l3.92-1.22L344.86,454.17z M335.5,407.79l-4.51-22.38l5.38-0.03l5.13,25.52
		C339.43,409.61,337.39,408.6,335.5,407.79z"/>
	<path class="st3" d="M338.47,471.03l-12.09-1.04c-0.87-0.08-1.53-0.9-1.46-1.84c0.06-0.94,0.84-1.64,1.72-1.57l13.63,1.17
		c-1.31,0.36-2.55,0.09-2.55,0.09C338.49,468.91,338.71,469.98,338.47,471.03z M343.96,454.96c0.11-0.09,0.24-0.16,0.37-0.22
		c0,0,1.52-0.64,3.14-1.32c1.91-0.8,3.34-2.56,3.79-4.71l0,0c0.95-4.37-0.76-8.91-4.26-11.36c-3.98-2.79-8.25-5.77-8.25-5.77
		c-0.73-0.52-0.94-1.57-0.46-2.35c0.48-0.79,1.47-1,2.2-0.5l7.94,5.55l0.22-1.93c0.1-0.93,0.9-1.6,1.76-1.49
		c0.87,0.11,1.5,0.96,1.39,1.89l-0.45,4.15c2.82,3.36,4.01,8.04,3.02,12.59l0,0c-0.7,3.24-2.84,5.9-5.73,7.1
		c-1.62,0.68-3.14,1.32-3.14,1.32c-0.56,0.24-1.19,0.11-1.62-0.29c-0.4,0.32-0.94,0.43-1.45,0.25l-13.57-4.79
		c-0.83-0.29-1.28-1.26-1.01-2.15c0.27-0.9,1.18-1.38,2.01-1.08l13.57,4.79C343.62,454.71,343.81,454.82,343.96,454.96z
		 M439.72,372.62c0,0-11.59,52.01-14.12,75.25c-0.11,0.93,0.52,1.78,1.39,1.89c0.87,0.11,1.66-0.56,1.76-1.49
		c2.54-23.11,14.07-74.85,14.07-74.85c0.21-0.92-0.32-1.84-1.18-2.05C440.79,371.14,439.93,371.71,439.72,372.62z M254.39,408.17
		c-27.58,6.62-44.43,12.24-52.63,17.12c-0.96,0.57-1.31,1.87-0.77,2.89c0.53,1.03,1.75,1.39,2.7,0.82
		c8.02-4.78,24.54-10.2,51.56-16.69c1.07-0.26,1.75-1.39,1.5-2.54C256.52,408.63,255.46,407.91,254.39,408.17z M527.75,320.29
		c-0.32,0.22-0.5,0.33-0.5,0.33c-0.37,3.12-0.75,6.33-1.11,9.6l-8.16-2.3c-0.31-0.09-0.54-0.37-0.58-0.71
		c-0.04-0.35,0.11-0.68,0.39-0.84L527.75,320.29z M554.17,279.14c1.34,4.43-6.99,12.02-6.99,12.02c0.24-0.18,0.48-0.36,0.7-0.52
		c-5.81,5.7-13.65,12.47-21.23,16.03c-0.8,0.38-1.74-0.01-2.09-0.87c-0.36-0.86,0.01-1.87,0.81-2.25
		C538.12,297.55,551.64,282.11,554.17,279.14z M546.87,271.26c-0.08,4.61-6.04,11.15-6.04,11.15c0.44-0.4,0.86-0.79,1.28-1.14
		c-5.85,6.02-14.33,13.99-21.78,18.04c-0.79,0.42-1.74,0.09-2.14-0.74c-0.4-0.84-0.09-1.87,0.7-2.29
		C530.92,289.74,545.66,272.67,546.87,271.26z M537.16,264.97c-1.62,5.86-5.81,12.75-5.81,12.75c0.13-0.13,0.26-0.26,0.39-0.4
		c-4.85,5.43-11.4,11.38-18.77,14.38c-0.82,0.33-1.74-0.11-2.05-0.99c-0.31-0.87,0.11-1.87,0.92-2.19
		C524.56,283.35,534.66,268.82,537.16,264.97z"/>
	<path class="st4" d="M294.6,407.91l12.3-13.97c0.55-0.63,1.41-0.83,2.16-0.5c0.74,0.32,1.23,1.11,1.21,1.98l-0.22,10.26
		L294.6,407.91z M430.96,393.26c-0.03-1.86-0.28-12.84-1.34-20.37c-0.08-0.36,0.11-0.72,0.42-0.84c0.31-0.13,0.68,0.02,0.83,0.35
		c2.3,4.69,5.79,12.29,7.78,18.88l-7.68-0.12C430.98,391.85,430.97,392.55,430.96,393.26z"/>
	<g transform="matrix(1.01592,0,0,1.01932,-17.6908,-9.9515)">
		<ellipse class="st2" cx="355.01" cy="258.77" rx="31.03" ry="33.34"/>
	</g>
	<path class="st1" d="M322.34,278.71c-6.38-6.11-10.4-15-10.4-24.9c0-18.4,13.91-33.34,31.03-33.34c10.48,0,19.77,5.6,25.38,14.18
		l-25.42,24.33c-0.3-0.96-0.77-1.89-1.39-2.75c-2.66-3.64-7.22-4.57-10.19-2.07c-2.97,2.49-3.23,7.46-0.57,11.1
		c0.82,1.13,1.84,2,2.93,2.58L322.34,278.71z"/>
	<g id="TICKET-NOTE" transform="matrix(0.925945,0,0,0.925945,133.563,52.6991)">
		<g transform="matrix(0.836076,0,0.29029,1,60.6403,-2.26609)">
			<polygon class="st6" points="515.7,281.82 546.34,281.82 545.42,321.64 514.8,321.64 			"/>
		</g>
		<g transform="matrix(0.836076,0,0.29029,1,60.6403,-2.26609)">
			<path class="st1" d="M515.87,320.73h9.66c0.56,0,0.87,0.41,0.7,0.91s-0.78,0.91-1.33,0.91h-10.43c-0.45,0-0.76-0.27-0.74-0.66
				l0.92-39.83c0.01-0.27,0.17-0.57,0.44-0.8c0.27-0.23,0.62-0.37,0.94-0.37h21.49c0.56,0,0.87,0.41,0.7,0.91s-0.77,0.91-1.33,0.91
				h-20.14L515.87,320.73z"/>
		</g>
		<g transform="matrix(0.836076,0,0.29029,1,60.6403,-2.26609)">
			<path class="st1" d="M545.26,282.73h-8.38c-0.56,0-0.87-0.41-0.7-0.91c0.17-0.5,0.77-0.91,1.33-0.91h9.15
				c0.45,0,0.76,0.27,0.75,0.66l-0.92,39.83c-0.01,0.27-0.17,0.57-0.44,0.8c-0.27,0.23-0.62,0.37-0.94,0.37h-20.2
				c-0.56,0-0.87-0.41-0.7-0.91s0.78-0.91,1.33-0.91h18.85L545.26,282.73z"/>
		</g>
		<g transform="matrix(1,0,0.477775,1.38266,-339.314,-243.265)">
			<polygon class="st1" points="734.35,380.72 755.55,380.72 755.44,383.9 734.25,383.9 			"/>
		</g>
		<g transform="matrix(1,0,0.477775,1.38266,-334.084,-226.275)">
			<polygon class="st1" points="734.57,373.65 755.77,373.65 755.67,376.84 734.47,376.84 			"/>
		</g>
		<g transform="matrix(1,0,0.477775,1.38266,-328.854,-209.285)">
			<polygon class="st1" points="734.79,366.6 755.99,366.6 755.89,369.78 734.69,369.78 			"/>
		</g>
		<g transform="matrix(1,0,0.477775,1.38266,-323.624,-192.296)">
			<polygon class="st1" points="735.01,359.54 756.21,359.54 756.11,362.73 734.91,362.73 			"/>
		</g>
		<g transform="matrix(1,0,0.477775,1.38266,-318.395,-175.306)">
			<polygon class="st1" points="735.23,352.48 756.44,352.48 756.33,355.67 735.14,355.67 			"/>
		</g>
	</g>
	<path class="st5" d="M693.87,332.73c-0.78-2.34-5.4-16.98-1.82-23.2c0.24-0.4,0.63-0.69,1.07-0.78c1.27-0.22,3.98,0.36,7.82,6.98
		c0,0,34.83,56.02,47.41,64.38c0,0,0.33-42.78,47.37-49.76c6.53-0.97,52.41-10.52,78.13,57.65c8.51,22.56,8.41,40.59,8.26,59.86
		c-0.1,15.28-7.5,29.44-19.63,37.51l0,0c-15.88,10.57-35.58,12.22-52.8,4.43c-11.55-5.22-26.47-10.52-43.4-13.18l-37.17-3.84
		c0,0,1.86,10.87-13.53,8.78c0,0-12.11-1.71-9.7-10.41c0,0-8.16-1.41-6.48-9.87c0,0-7.74-6.47-0.86-14.36c0,0-22.35-0.29-26.9-11.68
		c-0.38-0.98-0.41-2.09-0.06-3.1c0.42-1.24,1.5-2.56,4.14-2.66c0,0,30.91-0.51,39.04-3l-17.67-32.19c0,0-13.77-8.1-16.94-21.05
		c-3.27,0.01-6.05-2.68-6.29-6.23c-0.22-3.03,1.49-5.75,4.01-6.79l-1.45,0.12c-3.42,0.28-6.4-2.47-6.66-6.13
		c-0.21-2.95,1.43-5.6,3.85-6.66c-3.3,0.16-6.14-2.52-6.39-6.07c-0.26-3.62,2.28-6.77,5.65-7.04L693.87,332.73z"/>
	<path class="st7" d="M728.59,476.95c-7.28-0.44-13.12,1.43-13.12,1.43c-1.06,0.35-2.16-0.3-2.47-1.43
		c-0.31-1.12,0.28-2.31,1.34-2.66c0,0,8.5-2.73,18.14-1.19l-3.37-0.35C729.09,472.76,729.44,474.8,728.59,476.95z M702.12,469.45
		c1.39-4.51,6.12-14.48,21.17-16.94c1.08-0.17,2.09,0.63,2.27,1.78c0.16,1.17-0.58,2.25-1.66,2.43
		c-13.27,2.17-17.1,11.1-18.07,14.39C705.5,471.05,703.74,470.66,702.12,469.45z M696.51,457.36c1.94-4.44,7.24-11.65,21.49-14.49
		c1.08-0.22,2.12,0.55,2.32,1.71c0.21,1.16-0.51,2.27-1.59,2.48c-17.76,3.54-19.39,14.48-19.34,14.21
		C699.38,461.26,697.61,459.77,696.51,457.36z M693.58,446.52c2.32-3.23,9.69-12.21,20.56-13.87c1.09-0.16,2.09,0.64,2.25,1.8
		c0.15,1.17-0.6,2.25-1.68,2.41c-7.64,1.18-13.26,6.54-16.22,10.05C698.12,446.9,696.21,446.83,693.58,446.52z M809.2,424.98
		l24.27,9.13c1.04,0.39,2.17-0.19,2.54-1.31c0.37-1.11-0.18-2.32-1.22-2.71l-24.27-9.13c-1.04-0.39-2.17,0.19-2.54,1.31
		C807.62,423.37,808.17,424.59,809.2,424.98z M712.67,422.68c2.55-0.54,30.6-6.37,51.05-6.13c1.1,0.01,1.98,0.97,1.97,2.15
		c-0.01,1.18-0.92,2.12-2.01,2.11c-21.1-0.25-49.48,5.82-48.94,5.66L712.67,422.68z M697.08,394.26l6.15,2.96
		c0.8,0.4,1.14,1.41,0.78,2.27c-0.38,0.85-1.32,1.22-2.12,0.83l-2.05-1.03L697.08,394.26z M692.83,329.26
		c3.6,0.63,6.15,2.69,7.09,4.31c2.08,3.63,1.25,7.19-0.73,9.74c0.13,0.68,0.35,1.71,0.68,2.97c0.49,0.37,0.89,0.73,1.22,1.11
		c1.84,2.05,1.97,4.22,2,4.89c0.04,0.81-0.03,1.55-0.18,2.26c1.74,3.5,4.18,6.94,7.62,8.92c0.77,0.44,1.06,1.48,0.65,2.31
		c-0.41,0.83-1.38,1.14-2.16,0.69c-1.46-0.84-2.77-1.9-3.95-3.1c0,0.01,0.01,0.03,0.01,0.04c1.3,4.32-0.78,8.99-4.74,10.65
		c-6.02,2.54-14.47,2.7-19.09,2.57c-0.44-1.09-0.82-2.22-1.1-3.39c-0.41,0,12.08,0.58,19.04-2.34c2.43-1.01,3.68-3.89,2.85-6.52
		c-0.01-0.03-0.02-0.05-0.03-0.09c-0.59-1.76-2.22-2.86-3.96-2.69l-3.27,0.33c-0.63,0.19-1.03,0.29-1.03,0.29
		c-0.31,0.06-0.64,0.03-0.92-0.09l-18.53,1.88c0.65-1.72,1.93-3.1,3.57-3.78l16.3-1.66c0.96-0.32,2.43-0.94,3.67-1.93
		c1.17-0.94,2.17-2.26,2.07-4.14c-0.02-0.37-0.09-1.58-1.11-2.72c-1.26-1.4-3.75-2.58-8.49-2.7c-0.13,0-0.25-0.02-0.37-0.05
		c-5.55,0.19-11.25,0.29-16.91,0.53c-2.08-0.11-3.92-1.33-4.96-3.15c8.23-0.5,16.62-0.54,24.64-0.89c1.13-0.05,2.36-0.68,3.36-1.62
		c0.14-0.26,0.33-0.48,0.57-0.63c1.23-1.52,1.76-3.64,0.55-5.87c-1.12-2.07-3.34-2.62-3.34-2.62
		C693.69,332.17,693.29,330.92,692.83,329.26z M702.89,362.24c-0.54,0.24-0.62,0.5-0.66,0.58c0.09-0.13,0.18-0.25,0.3-0.35
		C702.63,362.38,702.75,362.3,702.89,362.24l0.03-0.01L702.89,362.24z M701.1,358.03c-0.15,0.17-0.31,0.35-0.48,0.52
		c0.38,0.14,0.74,0.3,1.09,0.51C701.5,358.71,701.3,358.37,701.1,358.03z"/>
	<path class="st7" d="M748.2,380.02l0.13,0.09c0,0,0.33-42.78,47.37-49.76c6.53-0.97,52.41-10.52,78.13,57.65
		c0.09,0.24,0.18,0.48,0.27,0.71c-15.25,17.18-32,4.23-32,4.23c-8.2,26.82-34.39,15.3-34.39,15.3l8.48,19.38
		c-19.79-7.78-58.29-6.65-58.29-6.65C749.91,410.18,748.39,390.77,748.2,380.02z"/>
	<path class="st8" d="M806.92,424.74c0,0-5.12-17.66-8.79-30.37c-0.16-0.57,0.11-1.18,0.62-1.4c0.52-0.23,1.11,0.01,1.36,0.54
		c6.51,13.65,16.34,34.21,16.34,34.21L806.92,424.74z"/>
	<path class="st5" d="M661.56,539.14c36.9-47.93,113.33-30.16,130.15-27.78c108.89,15.38,84.74,104.94,80.8,116.37
		c-8.64,25.1-29.45,34.81-60.51,38.19v97.42c0,0-9.48-9.06-11.66-19.36c0,0-3.74-0.25-10.2-0.94c0,0,4.91,14.3,7.5,21.82
		c0.36,1.03,0.22,2.18-0.37,3.08c-0.58,0.91-1.54,1.44-2.57,1.44H671.07c6.74-13.16,20-13.05,20-13.05
		c-5.18-13.9-10.53-27.4-15.79-41.2c-33.86-14.49-63.73-35.99-72.83-67.74C598.91,635.07,596.83,580.87,661.56,539.14z"/>
	<path class="st8" d="M678.97,724.75c12.31,6.65,33.62,12.83,47.75-12.56c0.3-0.54,0.8-0.91,1.38-1.01c0.57-0.1,1.17,0.08,1.61,0.48
		c0,0,8.83,8,19.69,11.95c6.26,2.28,13.23,3.24,19.49,0.22c4.15-2.01,7.95-5.77,11.05-11.95c0.52-1.04,1.72-1.43,2.69-0.86
		c0.96,0.56,1.33,1.85,0.81,2.88c-3.61,7.19-8.1,11.49-12.91,13.81c-7.19,3.48-15.2,2.56-22.4-0.06
		c-8.55-3.11-15.93-8.57-19.19-11.22c-14.21,23.39-34.32,20.08-47.78,14l-0.94-2.42c-0.33-0.85-0.66-1.71-0.99-2.57L678.97,724.75z"
		/>
	<path class="st8" d="M768.23,666.8c0,0-33.75-0.15-52.32-0.23c-0.76,0-1.4,0.6-1.51,1.4c-0.1,0.81,0.38,1.57,1.11,1.77
		c19.47,5.46,56.75,15.94,56.75,15.94L768.23,666.8z"/>
	<path class="st7" d="M814.45,665.64c-0.81,0.1-1.61,0.19-2.43,0.28v4.16c-14.82,0.99-28.55,1.24-41.95,1.05l24.33,72.36
		c-1.24-0.12-2.67-0.26-4.24-0.43l3.54,10.31c-0.21-0.22-0.37-0.49-0.48-0.8l-27.4-81.52c-2.5-0.05-5-0.12-7.49-0.21
		c-1.09-0.03-1.95-1.01-1.92-2.19c0.03-1.18,0.95-2.09,2.04-2.06C776.28,667.17,794.33,667.09,814.45,665.64z M671.54,528.48
		c-22.65,21.64-31.59,45.24-25.34,86.38c4.25,28.01,15.47,64.01,34.1,112.74c0.12,0.32,0.16,0.66,0.14,0.98
		c-1.73-4.47-3.46-8.94-5.17-13.44c-1.59-0.68-3.16-1.37-4.73-2.08c-15.17-41.07-24.47-72.46-28.28-97.51
		c-4.65-30.62-1.19-51.93,9.75-69.83c3-2.22,6.18-4.42,9.53-6.58C664.63,535.14,667.98,531.61,671.54,528.48z"/>
	<g transform="matrix(1.0436,0,0,1.05132,-87.9969,-50.2575)">
		<ellipse class="st5" cx="812.3" cy="329.86" rx="29.16" ry="31.46"/>
	</g>
	<path class="st1" d="M737.08,276.7c5.36-7.1,13.51-11.64,22.64-11.64c16.1,0,29.16,14.1,29.16,31.46c0,3.55-0.54,6.96-1.55,10.14
		c-5.14-0.49-8.07-4.59-9.07-6.29c1.88-1.04,3.19-3.33,3.19-5.97c0-3.63-2.44-6.56-5.46-6.56c-3.01,0-5.46,2.95-5.46,6.56
		c0,0.85,0.14,1.67,0.39,2.43C752.45,298.95,740.7,282.62,737.08,276.7z M750.33,260.06c0.76,0.27,1.59-0.04,2.02-0.76
		c0.43-0.71,0.36-1.65-0.19-2.28c-0.15-0.21-0.33-0.4-0.52-0.6c-4.6-5.13-9.77-9.79-15.29-13.72c-16.96-12.11-37.16-21.18-57.03-26
		c-20.53-4.97-46.14-5.25-64.26,7.61c-11.93,8.45-20.85,26.36-10.57,40.34c3.69,5.01,8.99,8.5,14.47,10.84
		c22.18,9.5,45.29,3.51,66.36-6c12-5.42,23.92-12.59,36.98-14.82C730.51,253.25,743.16,257.34,750.33,260.06z"/>
	<g id="GIRLS-CHAIR" transform="matrix(1,0,0,1,6.02348,2.73409)">
		<path class="st1" d="M856.79,664.26l55.5-160.42l11.84,4.62L836,767.37h-14.88l31-89.62h-88.3v-13.5H856.79z"/>
	</g>
	<g transform="matrix(0.843235,0,0.162401,0.964007,99.7904,26.5646)">
		<polygon class="st1" points="391.91,324.62 589.76,324.62 588.09,454.76 390.26,454.76 		"/>
	</g>
	<g transform="matrix(0.188267,0,0.0445801,0.264627,1212.9,786.955)">
		<polygon class="st1" points="-3122.14,-1240.42 -2924.3,-1240.42 -2926.34,-1110.27 -3124.17,-1110.27 		"/>
	</g>
	<polygon class="st9" points="494.76,349.06 640.69,349.06 657,452.78 511.08,452.78 	"/>
	<g transform="matrix(0.250622,0,0.059635,0.353992,1167,489.54)">
		<polygon class="st9" points="-2228.09,-370.95 -2030.25,-370.95 -2032.29,-240.8 -2230.14,-240.8 		"/>
	</g>
	<g transform="matrix(0.250622,0,0.059635,0.353992,1167,489.54)">
		<path class="st1" d="M-2223.32-367.33l-0.71,45.01c-0.03,1.97-2.22,3.82-4.89,4.16c-2.67,0.33-4.82-0.99-4.78-2.96l0.78-49.22
			c0.02-1.05,0.66-2.12,1.76-2.93c1.1-0.81,2.54-1.27,3.94-1.27h197.85c2.32,0,4.01,1.27,3.97,3.01l-0.78,49.22
			c-0.03,1.97-2.22,3.82-4.89,4.16c-2.67,0.33-4.8-0.99-4.77-2.96l0.72-46.21h-188.2V-367.33z"/>
	</g>
	<g transform="matrix(0.250622,0,0.059635,0.353992,1167,489.54)">
		<path class="st1" d="M-2037.07-244.41l1.21-76.71c0.03-1.97,2.22-3.82,4.89-4.16c2.67-0.33,4.82,0.99,4.78,2.96l-1.27,80.91
			c-0.02,1.05-0.66,2.12-1.76,2.93s-2.54,1.27-3.94,1.27h-197.85c-2.32,0-4.01-1.27-3.97-3.01l1.27-80.91
			c0.03-1.97,2.22-3.82,4.89-4.16c2.67-0.33,4.82,0.99,4.78,2.96l-1.22,77.91h188.18V-244.41z"/>
	</g>
	<path class="st1" d="M611.67,404.3h-2.42l-7.3-46.07h2.42L611.67,404.3z M629.32,404.3h-2.42l-7.29-46.07h2.42L629.32,404.3z"/>
	<path class="st1" d="M641.64,393.7h-49.58l-0.4-2.56h49.58L641.64,393.7z M639.84,382.34h-49.58l-0.4-2.56h49.58L639.84,382.34z
		 M637.92,370.13h-49.58l-0.41-2.56h49.59L637.92,370.13z"/>
	<g transform="matrix(0.43426,0,0.0904681,0.537017,741.787,400.271)">
		<path class="st9" d="M-403.44,80.74h91.13l1.79-130.14h-65.8"/>
	</g>
	<g transform="matrix(0.43426,0,0.0904681,0.537017,741.787,400.271)">
		<path class="st1" d="M-313.35-47.02h-63.49c-1.51,0-2.53-1.07-2.25-2.38c0.27-1.32,1.73-2.38,3.24-2.38h65.81
			c1.34,0,2.31,0.84,2.3,1.99l-1.79,130.14c-0.01,0.69-0.38,1.39-1.01,1.93c-0.64,0.53-1.47,0.84-2.28,0.84h-91.13
			c-1.51,0-2.53-1.07-2.25-2.38c0.27-1.32,1.73-2.38,3.24-2.38h87.88L-313.35-47.02z"/>
	</g>
	<g transform="matrix(0.43426,0,0.0904681,0.537017,741.787,400.271)">
		<path class="st9" d="M-376.33-49.4h-132.04l-1.79,130.14h106.72"/>
	</g>
	<g transform="matrix(0.43426,0,0.0904681,0.537017,741.787,400.271)">
		<path class="st1" d="M-507.34,78.37h104.4c1.51,0,2.53,1.07,2.26,2.38c-0.28,1.32-1.73,2.38-3.25,2.38h-106.72
			c-1.34,0-2.31-0.84-2.3-1.99l1.79-130.14c0.01-0.69,0.38-1.39,1.01-1.93c0.64-0.53,1.47-0.84,2.28-0.84h132.04
			c1.51,0,2.53,1.07,2.26,2.38c-0.28,1.32-1.73,2.38-3.25,2.38h-128.79L-507.34,78.37z"/>
	</g>
	<g transform="matrix(0.43426,0,0.0108641,0.064489,796.463,724.822)">
		<polygon class="st1" points="-508.37,-5444.03 -310.53,-5444.03 -310.75,-5313.89 -508.59,-5313.89 		"/>
	</g>
	<path class="st1" d="M610.37,423.96h-85.91l-0.4-2.56h85.91L610.37,423.96z M606.83,401.46h-85.91l-0.4-2.56h85.91L606.83,401.46z"
		/>
	<path class="st1" d="M549.57,443.63h-2.42l-11.07-69.89h2.42L549.57,443.63z M572.98,443.63h-2.42l-11.07-69.88h2.42L572.98,443.63
		z M596.09,443.63h-2.42l-11.07-69.89h2.42L596.09,443.63z"/>
	<g>
		<g transform="matrix(39.1332,-3.06228,2.9801,38.083,1539.87,874.293)">
			<path d="M-22.86-13.92c0,0.02,0,0.03-0.01,0.05c-0.01,0.01-0.02,0.02-0.04,0.03c-0.02,0.01-0.03,0.01-0.06,0.01
				c-0.03,0-0.05,0-0.06-0.02c-0.01-0.01-0.02-0.02-0.03-0.03c-0.01-0.01-0.01-0.02-0.01-0.04c0-0.01,0-0.01,0.01-0.02
				c0-0.01,0.01-0.01,0.02-0.01s0.01,0,0.01,0.01c0,0,0.01,0.01,0.01,0.02c0,0.01,0.01,0.02,0.01,0.02c0,0.01,0.01,0.01,0.02,0.01
				s0.02,0.01,0.03,0.01c0.02,0,0.03,0,0.04-0.01s0.01-0.02,0.01-0.03c0-0.01,0-0.02-0.01-0.02c-0.01-0.01-0.01-0.01-0.02-0.01
				s-0.02-0.01-0.03-0.01c-0.02,0-0.03-0.01-0.05-0.02c-0.01-0.01-0.02-0.01-0.03-0.03c-0.01-0.01-0.01-0.02-0.01-0.04
				c0-0.02,0-0.03,0.01-0.04s0.02-0.02,0.03-0.03c0.02-0.01,0.03-0.01,0.05-0.01c0.02,0,0.03,0,0.04,0.01
				c0.01,0,0.02,0.01,0.03,0.02s0.01,0.01,0.02,0.02c0,0.01,0.01,0.02,0.01,0.02c0,0.01,0,0.01-0.01,0.02
				c0,0.01-0.01,0.01-0.02,0.01s-0.01,0-0.01,0s-0.01-0.01-0.01-0.02s-0.01-0.02-0.02-0.02c-0.01-0.01-0.02-0.01-0.03-0.01
				s-0.02,0-0.03,0.01s-0.01,0.01-0.01,0.02s0,0.01,0,0.01l0.01,0.01c0.01,0,0.01,0.01,0.02,0.01s0.01,0,0.03,0.01
				c0.01,0,0.03,0.01,0.04,0.01s0.02,0.01,0.03,0.02s0.02,0.01,0.02,0.02S-22.86-13.93-22.86-13.92z"/>
		</g>
		<g transform="matrix(0.999849,-0.0173515,0.0173515,0.999849,-14.7933,25.9972)">
			<path class="st1" d="M605.59,390.31l1.47,13.27c0.08,0.7,0.67,1.2,1.32,1.11c0.66-0.09,1.12-0.72,1.05-1.43L607.96,390
				c-0.08-0.7-0.67-1.2-1.32-1.11C605.98,388.97,605.52,389.61,605.59,390.31z"/>
		</g>
	</g>
	<path class="st1" d="M527.62,386.22l1.36,8.49c0.11,0.69,0.73,1.17,1.38,1.05c0.65-0.12,1.09-0.78,0.97-1.48l-1.36-8.49
		c-0.11-0.69-0.72-1.17-1.37-1.05C527.95,384.87,527.51,385.53,527.62,386.22z"/>
	<g transform="matrix(1,0,0,1,18.943,101.882)">
		<path class="st1" d="M516.21,327.71l1.36,8.49c0.11,0.69,0.73,1.17,1.38,1.05c0.65-0.12,1.09-0.78,0.97-1.48l-1.36-8.49
			c-0.11-0.69-0.72-1.17-1.37-1.05C516.54,326.35,516.1,327.02,516.21,327.71z"/>
	</g>
	<g>
		<g transform="matrix(0.872154,-0.126564,0.123316,0.849772,92.3663,350.963)">
			<path class="st1" d="M510.28,143.2c0.42,0,0.71,0.42,0.97,0.92c0.44,0.83,0.69,1.99,0.68,3.26c-0.01,1.27-0.28,2.43-0.73,3.27
				c-0.28,0.51-0.57,0.94-0.99,0.94c-0.74,0.01-1.36,0.68-1.37,1.5c-0.01,0.82,0.59,1.48,1.34,1.47c1.06-0.01,2.07-0.59,2.87-1.68
				c0.92-1.25,1.58-3.26,1.6-5.53c0.02-2.27-0.59-4.26-1.49-5.5c-0.78-1.07-1.79-1.63-2.84-1.62c-0.74,0.01-1.36,0.68-1.37,1.5
				C508.94,142.55,509.53,143.2,510.28,143.2z"/>
		</g>
		<g transform="matrix(0.872154,-0.126564,0.123316,0.849772,92.3663,350.963)">
			<path class="st1" d="M510.2,151.59c-0.41,0-0.71-0.42-0.97-0.92c-0.44-0.83-0.69-1.99-0.67-3.26c0.01-1.27,0.28-2.43,0.73-3.27
				c0.28-0.51,0.58-0.94,0.99-0.94c0.74-0.01,1.36-0.68,1.37-1.5c0.01-0.82-0.59-1.48-1.34-1.47c-1.06,0.01-2.06,0.59-2.87,1.68
				c-0.93,1.25-1.58,3.26-1.6,5.53c-0.02,2.27,0.59,4.26,1.49,5.5c0.78,1.07,1.78,1.63,2.84,1.62c0.74-0.01,1.36-0.68,1.37-1.5
				C511.55,152.25,510.96,151.58,510.2,151.59z"/>
		</g>
	</g>
	<g>
		<g transform="matrix(0.872154,-0.126564,0.123316,0.849772,100.543,403.611)">
			<path class="st1" d="M509.68,107.53c0.42,0,0.71,0.42,0.97,0.92c0.44,0.83,0.69,1.99,0.68,3.26c-0.01,1.27-0.28,2.43-0.73,3.27
				c-0.28,0.51-0.57,0.94-0.99,0.94c-0.75,0.01-1.36,0.68-1.37,1.5s0.59,1.48,1.34,1.47c1.06-0.01,2.07-0.59,2.87-1.68
				c0.92-1.25,1.58-3.26,1.6-5.53c0.02-2.27-0.59-4.26-1.49-5.5c-0.78-1.07-1.79-1.63-2.84-1.62c-0.75,0.01-1.36,0.68-1.37,1.5
				C508.33,106.88,508.93,107.54,509.68,107.53z"/>
		</g>
		<g transform="matrix(0.872154,-0.126564,0.123316,0.849772,100.543,403.611)">
			<path class="st1" d="M509.6,115.92c-0.41,0-0.71-0.42-0.97-0.92c-0.44-0.83-0.69-1.99-0.68-3.26c0.01-1.27,0.28-2.43,0.73-3.27
				c0.28-0.51,0.58-0.94,0.99-0.94c0.75-0.01,1.36-0.68,1.37-1.5s-0.59-1.48-1.34-1.47c-1.06,0.01-2.06,0.59-2.87,1.68
				c-0.92,1.25-1.58,3.26-1.6,5.53c-0.02,2.27,0.59,4.26,1.49,5.5c0.78,1.07,1.78,1.63,2.84,1.62c0.75-0.01,1.36-0.68,1.37-1.5
				C510.95,116.58,510.35,115.92,509.6,115.92z"/>
		</g>
	</g>
	<g>
		<g transform="matrix(0.872154,-0.126564,0.123316,0.849772,158.987,403.58)">
			<path class="st1" d="M470.14,101.66c0.42,0,0.71,0.42,0.97,0.92c0.44,0.83,0.69,1.99,0.68,3.26s-0.28,2.43-0.73,3.27
				c-0.28,0.51-0.57,0.94-0.99,0.94c-0.75,0.01-1.36,0.68-1.37,1.5c-0.01,0.82,0.59,1.48,1.34,1.47c1.06-0.01,2.07-0.59,2.87-1.68
				c0.92-1.25,1.58-3.26,1.6-5.53c0.02-2.27-0.59-4.26-1.49-5.5c-0.78-1.07-1.79-1.63-2.84-1.62c-0.75,0.01-1.36,0.68-1.37,1.5
				C468.79,101.01,469.39,101.67,470.14,101.66z"/>
		</g>
		<g transform="matrix(0.872154,-0.126564,0.123316,0.849772,158.987,403.58)">
			<path class="st1" d="M470.06,110.06c-0.41,0-0.71-0.42-0.97-0.92c-0.44-0.83-0.69-1.99-0.67-3.26c0.01-1.27,0.28-2.43,0.73-3.27
				c0.28-0.51,0.58-0.94,0.99-0.94c0.75-0.01,1.36-0.68,1.37-1.5s-0.59-1.48-1.34-1.47c-1.06,0.01-2.06,0.59-2.87,1.68
				c-0.92,1.25-1.58,3.26-1.6,5.53c-0.02,2.27,0.59,4.26,1.49,5.5c0.78,1.07,1.78,1.63,2.84,1.62c0.75-0.01,1.36-0.68,1.37-1.5
				C471.41,110.7,470.81,110.05,470.06,110.06z"/>
		</g>
	</g>
	<g transform="matrix(0.783652,0.324094,-0.364731,0.799184,456.503,-337.805)">
		<polygon class="st1" points="340.65,587.46 400.45,588.89 402.47,666.18 342.67,664.76 		"/>
	</g>
	<g transform="matrix(0.647214,0.267668,-0.0474112,0.103886,493.968,77.1391)">
		<polygon class="st9" points="124.28,1346.97 184.08,1356.04 184.4,1433.35 124.6,1424.27 		"/>
	</g>
	<g>
		<g>
			<g transform="matrix(0.907626,0.392889,-0.37877,0.87501,318.062,-459.153)">
				<path class="st6" d="M468.46,618.02c1.79,0.04,3.3,1.6,3.35,3.49c0.04,1.88-1.39,3.36-3.19,3.31l0.03,1.33
					c2.48,0.06,4.44-2.01,4.37-4.6c-0.06-2.6-2.12-4.77-4.59-4.84L468.46,618.02z"/>
			</g>
			<g transform="matrix(0.907626,0.392889,-0.37877,0.87501,318.062,-459.153)">
				<path class="st6" d="M468.61,624.81c-1.79-0.04-3.3-1.6-3.35-3.49c-0.04-1.88,1.39-3.36,3.19-3.31l-0.03-1.33
					c-2.48-0.06-4.44,2.01-4.37,4.6c0.06,2.6,2.12,4.77,4.6,4.84L468.61,624.81z"/>
			</g>
		</g>
		<g>
			<g transform="matrix(0.907626,0.392889,-0.37877,0.87501,307.832,-435.519)">
				<path class="st6" d="M468.72,602.38c1.79,0.04,3.3,1.6,3.35,3.49c0.04,1.88-1.39,3.36-3.19,3.31l0.03,1.33
					c2.48,0.06,4.44-2.01,4.37-4.6c-0.06-2.6-2.12-4.77-4.59-4.84L468.72,602.38z"/>
			</g>
			<g transform="matrix(0.907626,0.392889,-0.37877,0.87501,307.832,-435.519)">
				<path class="st6" d="M468.88,609.18c-1.79-0.04-3.3-1.6-3.35-3.49c-0.04-1.88,1.39-3.36,3.19-3.31l-0.03-1.33
					c-2.48-0.06-4.44,2.01-4.37,4.6c0.06,2.6,2.12,4.77,4.6,4.84L468.88,609.18z"/>
			</g>
		</g>
		<g>
			<g transform="matrix(0.907626,0.392889,-0.37877,0.87501,297.602,-411.886)">
				<path class="st6" d="M468.99,586.75c1.79,0.04,3.3,1.6,3.35,3.49c0.04,1.88-1.39,3.36-3.19,3.31l0.03,1.33
					c2.48,0.06,4.44-2.01,4.37-4.6c-0.06-2.6-2.12-4.77-4.59-4.84L468.99,586.75z"/>
			</g>
			<g transform="matrix(0.907626,0.392889,-0.37877,0.87501,297.602,-411.886)">
				<path class="st6" d="M469.15,593.55c-1.79-0.04-3.3-1.6-3.35-3.49c-0.04-1.88,1.39-3.36,3.19-3.31l-0.03-1.33
					c-2.48-0.06-4.44,2.01-4.37,4.6c0.06,2.6,2.12,4.77,4.6,4.84L469.15,593.55z"/>
			</g>
		</g>
		<g>
			<g transform="matrix(0.907626,0.392889,-0.37877,0.87501,287.371,-388.252)">
				<path class="st6" d="M469.26,571.12c1.79,0.04,3.3,1.6,3.35,3.49c0.04,1.88-1.39,3.36-3.19,3.31l0.03,1.33
					c2.48,0.06,4.44-2.01,4.37-4.6c-0.06-2.59-2.12-4.77-4.59-4.84L469.26,571.12z"/>
			</g>
			<g transform="matrix(0.907626,0.392889,-0.37877,0.87501,287.371,-388.252)">
				<path class="st6" d="M469.41,577.91c-1.79-0.04-3.3-1.6-3.35-3.49c-0.04-1.88,1.39-3.36,3.19-3.31l-0.03-1.33
					c-2.48-0.06-4.44,2.01-4.37,4.6c0.06,2.6,2.12,4.77,4.6,4.84L469.41,577.91z"/>
			</g>
		</g>
		<g>
			<g transform="matrix(0.907626,0.392889,-0.37877,0.87501,341.967,-448.805)">
				<path class="st6" d="M452.7,618.29c1.79,0.04,3.3,1.6,3.35,3.49c0.04,1.88-1.39,3.36-3.19,3.31l0.03,1.33
					c2.48,0.06,4.44-2.01,4.37-4.6c-0.06-2.6-2.12-4.77-4.59-4.84L452.7,618.29z"/>
			</g>
			<g transform="matrix(0.907626,0.392889,-0.37877,0.87501,341.967,-448.805)">
				<path class="st6" d="M452.86,625.09c-1.79-0.04-3.3-1.6-3.35-3.49c-0.04-1.88,1.39-3.36,3.19-3.31l-0.03-1.33
					c-2.48-0.06-4.44,2.01-4.37,4.6c0.06,2.6,2.12,4.77,4.6,4.84L452.86,625.09z"/>
			</g>
		</g>
		<g>
			<g transform="matrix(0.907626,0.392889,-0.37877,0.87501,331.736,-425.172)">
				<path class="st6" d="M452.97,602.66c1.79,0.04,3.3,1.6,3.35,3.49c0.04,1.88-1.39,3.36-3.19,3.31l0.03,1.33
					c2.48,0.06,4.44-2.01,4.37-4.6c-0.06-2.6-2.12-4.77-4.59-4.84L452.97,602.66z"/>
			</g>
			<g transform="matrix(0.907626,0.392889,-0.37877,0.87501,331.736,-425.172)">
				<path class="st6" d="M453.13,609.46c-1.79-0.04-3.3-1.6-3.35-3.49c-0.04-1.88,1.39-3.36,3.19-3.31l-0.03-1.33
					c-2.48-0.06-4.44,2.01-4.37,4.6c0.06,2.6,2.12,4.77,4.6,4.84L453.13,609.46z"/>
			</g>
		</g>
		<g>
			<g transform="matrix(0.907626,0.392889,-0.37877,0.87501,321.506,-401.538)">
				<path class="st6" d="M453.24,587.03c1.79,0.04,3.3,1.6,3.35,3.49c0.04,1.88-1.39,3.36-3.19,3.31l0.03,1.33
					c2.48,0.06,4.44-2.01,4.37-4.6c-0.06-2.6-2.12-4.77-4.59-4.84L453.24,587.03z"/>
			</g>
			<g transform="matrix(0.907626,0.392889,-0.37877,0.87501,321.506,-401.538)">
				<path class="st6" d="M453.4,593.82c-1.79-0.04-3.3-1.6-3.35-3.49c-0.04-1.88,1.39-3.36,3.19-3.31l-0.03-1.33
					c-2.48-0.06-4.44,2.01-4.37,4.6c0.06,2.59,2.12,4.77,4.6,4.84L453.4,593.82z"/>
			</g>
		</g>
		<g>
			<g transform="matrix(0.907626,0.392889,-0.37877,0.87501,311.275,-377.905)">
				<path class="st6" d="M453.51,571.4c1.79,0.04,3.3,1.6,3.35,3.49c0.04,1.89-1.39,3.36-3.19,3.31l0.03,1.33
					c2.48,0.06,4.44-2.01,4.37-4.6c-0.06-2.6-2.12-4.77-4.59-4.84L453.51,571.4z"/>
			</g>
			<g transform="matrix(0.907626,0.392889,-0.37877,0.87501,311.275,-377.905)">
				<path class="st6" d="M453.66,578.19c-1.79-0.04-3.3-1.6-3.35-3.49c-0.04-1.89,1.39-3.36,3.19-3.31l-0.03-1.33
					c-2.48-0.06-4.44,2.01-4.37,4.6c0.06,2.6,2.12,4.77,4.6,4.84L453.66,578.19z"/>
			</g>
		</g>
		<g>
			<g transform="matrix(0.907626,0.392889,-0.37877,0.87501,365.871,-438.458)">
				<path class="st6" d="M436.95,618.57c1.79,0.04,3.3,1.6,3.35,3.49c0.04,1.89-1.39,3.36-3.19,3.31l0.03,1.33
					c2.48,0.06,4.44-2.01,4.37-4.6c-0.06-2.6-2.12-4.77-4.59-4.84L436.95,618.57z"/>
			</g>
			<g transform="matrix(0.907626,0.392889,-0.37877,0.87501,365.871,-438.458)">
				<path class="st6" d="M437.11,625.37c-1.79-0.04-3.3-1.6-3.35-3.49c-0.04-1.88,1.39-3.36,3.19-3.31l-0.03-1.33
					c-2.48-0.06-4.44,2.01-4.37,4.6c0.06,2.6,2.12,4.77,4.6,4.84L437.11,625.37z"/>
			</g>
		</g>
		<g>
			<g transform="matrix(0.907626,0.392889,-0.37877,0.87501,355.641,-414.824)">
				<path class="st6" d="M437.22,602.94c1.79,0.04,3.3,1.6,3.35,3.49c0.04,1.88-1.39,3.36-3.19,3.31l0.03,1.33
					c2.48,0.06,4.44-2.01,4.37-4.6c-0.06-2.6-2.12-4.77-4.59-4.84L437.22,602.94z"/>
			</g>
			<g transform="matrix(0.907626,0.392889,-0.37877,0.87501,355.641,-414.824)">
				<path class="st6" d="M437.38,609.74c-1.79-0.04-3.3-1.6-3.35-3.49c-0.04-1.88,1.39-3.36,3.19-3.31l-0.03-1.33
					c-2.48-0.06-4.44,2.01-4.37,4.6c0.06,2.6,2.12,4.77,4.6,4.84L437.38,609.74z"/>
			</g>
		</g>
		<g>
			<g transform="matrix(0.907626,0.392889,-0.37877,0.87501,345.41,-391.191)">
				<path class="st6" d="M437.49,587.31c1.79,0.04,3.3,1.6,3.35,3.49c0.04,1.88-1.39,3.36-3.19,3.31l0.03,1.33
					c2.48,0.06,4.44-2.01,4.37-4.6c-0.06-2.6-2.12-4.77-4.59-4.84L437.49,587.31z"/>
			</g>
			<g transform="matrix(0.907626,0.392889,-0.37877,0.87501,345.41,-391.191)">
				<path class="st6" d="M437.64,594.1c-1.79-0.04-3.3-1.6-3.35-3.49c-0.04-1.88,1.39-3.36,3.19-3.31l-0.03-1.33
					c-2.48-0.06-4.44,2.01-4.37,4.6c0.06,2.6,2.12,4.77,4.6,4.84L437.64,594.1z"/>
			</g>
		</g>
		<g>
			<g transform="matrix(0.907626,0.392889,-0.37877,0.87501,335.18,-367.557)">
				<path class="st6" d="M437.75,571.68c1.79,0.04,3.3,1.6,3.35,3.49c0.04,1.88-1.39,3.36-3.19,3.31l0.03,1.33
					c2.48,0.06,4.44-2.01,4.37-4.6c-0.06-2.6-2.12-4.77-4.59-4.84L437.75,571.68z"/>
			</g>
			<g transform="matrix(0.907626,0.392889,-0.37877,0.87501,335.18,-367.557)">
				<path class="st6" d="M437.91,578.47c-1.79-0.04-3.3-1.6-3.35-3.49c-0.04-1.88,1.39-3.36,3.19-3.31l-0.03-1.33
					c-2.48-0.06-4.44,2.01-4.37,4.6c0.06,2.6,2.12,4.77,4.6,4.84L437.91,578.47z"/>
			</g>
		</g>
		<g>
			<g transform="matrix(0.907626,0.392889,-0.37877,0.87501,389.775,-428.11)">
				<path class="st6" d="M421.2,618.85c1.79,0.04,3.3,1.6,3.35,3.49c0.04,1.88-1.39,3.36-3.19,3.31l0.03,1.33
					c2.48,0.06,4.44-2.01,4.37-4.6c-0.06-2.6-2.12-4.77-4.59-4.84L421.2,618.85z"/>
			</g>
			<g transform="matrix(0.907626,0.392889,-0.37877,0.87501,389.775,-428.11)">
				<path class="st6" d="M421.36,625.65c-1.79-0.04-3.3-1.6-3.35-3.49c-0.04-1.88,1.39-3.36,3.19-3.31l-0.03-1.33
					c-2.48-0.06-4.44,2.01-4.37,4.6c0.06,2.6,2.12,4.77,4.6,4.84L421.36,625.65z"/>
			</g>
		</g>
		<g>
			<g transform="matrix(0.907626,0.392889,-0.37877,0.87501,379.545,-404.476)">
				<path class="st6" d="M421.47,603.22c1.79,0.04,3.3,1.6,3.35,3.49c0.04,1.88-1.39,3.36-3.19,3.31l0.03,1.33
					c2.48,0.06,4.44-2.01,4.37-4.6c-0.06-2.6-2.12-4.77-4.59-4.84L421.47,603.22z"/>
			</g>
			<g transform="matrix(0.907626,0.392889,-0.37877,0.87501,379.545,-404.476)">
				<path class="st6" d="M421.63,610.02c-1.79-0.04-3.3-1.6-3.35-3.49c-0.04-1.88,1.39-3.36,3.19-3.31l-0.03-1.33
					c-2.48-0.06-4.44,2.01-4.37,4.6c0.06,2.59,2.12,4.77,4.6,4.84L421.63,610.02z"/>
			</g>
		</g>
		<g>
			<g transform="matrix(0.907626,0.392889,-0.37877,0.87501,369.314,-380.843)">
				<path class="st6" d="M421.74,587.59c1.79,0.04,3.3,1.6,3.35,3.49c0.04,1.89-1.39,3.36-3.19,3.31l0.03,1.33
					c2.48,0.06,4.44-2.01,4.37-4.6c-0.06-2.6-2.12-4.77-4.59-4.84L421.74,587.59z"/>
			</g>
			<g transform="matrix(0.907626,0.392889,-0.37877,0.87501,369.314,-380.843)">
				<path class="st6" d="M421.89,594.38c-1.79-0.04-3.3-1.6-3.35-3.49c-0.04-1.89,1.39-3.36,3.19-3.31l-0.03-1.33
					c-2.48-0.06-4.44,2.01-4.37,4.6c0.06,2.6,2.12,4.77,4.6,4.84L421.89,594.38z"/>
			</g>
		</g>
		<g>
			<g transform="matrix(0.907626,0.392889,-0.37877,0.87501,359.084,-357.209)">
				<path class="st6" d="M422,571.96c1.79,0.04,3.3,1.6,3.35,3.49c0.04,1.88-1.39,3.36-3.19,3.31l0.03,1.33
					c2.48,0.06,4.44-2.01,4.37-4.6c-0.06-2.6-2.12-4.77-4.59-4.84L422,571.96z"/>
			</g>
			<g transform="matrix(0.907626,0.392889,-0.37877,0.87501,359.084,-357.209)">
				<path class="st6" d="M422.16,578.75c-1.79-0.04-3.3-1.6-3.35-3.49c-0.04-1.88,1.39-3.36,3.19-3.31l-0.03-1.33
					c-2.48-0.06-4.44,2.01-4.37,4.6c0.06,2.59,2.12,4.77,4.6,4.84L422.16,578.75z"/>
			</g>
		</g>
	</g>
	<g id="DESK" transform="matrix(1,0,0,1,3.02579,6.52912)">
		<rect x="268.68" y="485.26" class="st1" width="532.9" height="16.15"/>
	</g>
	<g id="KEYBOARD" transform="matrix(1,0,0,1,-0.676235,-1.59399)">
		<path class="st10" d="M654.03,484.82h6.79v-3.04h10.6v3.04h7.23v-3.04h10.6v3.04h7.23v-3.04h10.6v3.04h2.26
			c1.04,0,2.03,0.44,2.76,1.23c0.73,0.79,1.14,1.85,1.14,2.96v4.24h-76.84c0,0,0-2.13,0-4.24c0-1.11,0.41-2.17,1.14-2.96
			c0.73-0.79,1.73-1.23,2.76-1.23h3.07v-3.04H654v3.04H654.03z"/>
	</g>
	<g id="NOTEPAD">
		<g transform="matrix(0.974413,0,0,1,22.0427,43.2776)">
			<rect x="282.34" y="438.24" class="st6" width="95.74" height="11.4"/>
		</g>
		<g>
			<path class="st1" d="M347.63,479.66v3.4h-48.35v7.33h48.35v3.4h-49.94c-0.87,0-1.59-0.77-1.59-1.71v-10.73
				c0-0.94,0.71-1.71,1.59-1.71h49.94V479.66z"/>
			<path class="st1" d="M347.63,479.66h44.17c0.87,0,1.59,0.77,1.59,1.71v10.73c0,0.94-0.71,1.71-1.59,1.71h-44.17
				c-1.48-1.67-0.92-2.6,0-3.4h42.58v-7.33h-42.58C347.02,481.8,346.87,480.64,347.63,479.66z"/>
			<path class="st1" d="M353.39,481.87l0.26,10.69c0.02,0.94,0.76,1.68,1.63,1.66c0.87-0.02,1.58-0.81,1.54-1.75l-0.26-10.69
				c-0.02-0.94-0.76-1.68-1.63-1.65C354.07,480.15,353.37,480.94,353.39,481.87z M373.37,476.89v15.02c0,0.94,0.71,1.71,1.59,1.71
				s1.59-0.77,1.59-1.71v-15.02c0-0.94-0.71-1.71-1.59-1.71C374.08,475.19,373.37,475.95,373.37,476.89z M363.57,477.14v13.81
				c0,0.94,0.71,1.71,1.59,1.71s1.59-0.77,1.59-1.71v-13.81c0-0.94-0.71-1.71-1.59-1.71C364.28,475.43,363.57,476.2,363.57,477.14z
				 M382.71,477.04v13.54c0,0.94,0.71,1.71,1.59,1.71s1.59-0.77,1.59-1.71v-13.54c0-0.94-0.71-1.71-1.59-1.71
				S382.71,476.1,382.71,477.04z"/>
		</g>
	</g>
	<g id="JAR1" class="st11">
		<path class="st1" d="M413.5,400.63h-2.82c-1.57,0-2.84-1.36-2.84-3.04c0-1.67,1.27-3.04,2.84-3.04h70.6
			c1.57,0,2.84,1.36,2.84,3.04c0,1.67-1.26,3.04-2.84,3.04h-1.32c1.43,0.54,2.74,1.41,3.83,2.58c1.91,2.05,2.99,4.83,2.99,7.72
			v80.73h-80.12c0,0,0-56.43,0-80.73c0-2.89,1.08-5.68,2.99-7.72C410.76,402.05,412.08,401.17,413.5,400.63z"/>
		<path class="st1" d="M479.98,400.63c1.01,0.38,1.98,0.94,2.84,1.65l-74.32,2.44c0.35-0.53,0.73-1.04,1.17-1.5
			c1.09-1.17,2.41-2.04,3.83-2.58h66.48V400.63z"/>
	</g>
	<g transform="matrix(0.910266,-0.275905,0.29456,0.971812,-183.502,326.179)">
		<polygon class="st12" points="566.69,260.6 595.22,260.08 594.26,309.14 565.71,309.66 		"/>
	</g>
	<g>
		<g transform="matrix(1,0,0,1,4.58908,-9.29654)">
			<path class="st13" d="M424.62,447.07c3.03,0,5.48,2.63,5.48,5.88s-2.46,5.88-5.48,5.88c-0.66,0-1.19,0.57-1.19,1.27
				s0.53,1.27,1.19,1.27c4.34,0,7.87-3.78,7.87-8.43c0-4.65-3.53-8.43-7.87-8.43c-0.66,0-1.19,0.57-1.19,1.27
				S423.96,447.07,424.62,447.07z"/>
		</g>
		<g transform="matrix(1,0,0,1,4.58908,-9.29654)">
			<path class="st13" d="M424.62,458.83c-3.03,0-5.48-2.63-5.48-5.88s2.46-5.88,5.48-5.88c0.66,0,1.19-0.57,1.19-1.27
				s-0.54-1.27-1.19-1.27c-4.35,0-7.87,3.78-7.87,8.43s3.53,8.43,7.87,8.43c0.66,0,1.19-0.57,1.19-1.27
				C425.81,459.4,425.28,458.83,424.62,458.83z"/>
		</g>
		<path class="st13" d="M431.75,468.08l-2.06-6.75c-0.27-0.9,0.18-1.86,1.01-2.15c0.83-0.29,1.74,0.19,2.01,1.09l2.08,6.81
			L431.75,468.08z M436.04,466.69l-1.39-4.8c-0.26-0.9,0.22-1.86,1.05-2.13c0.84-0.28,1.73,0.23,1.99,1.12l1.39,4.83L436.04,466.69z
			 M425.93,417.63l2.25,7.77c0.26,0.9-0.22,1.86-1.05,2.13c-0.84,0.28-1.73-0.23-1.99-1.12l-2.26-7.8L425.93,417.63z M420.95,419.23
			l1.89,5.9c0.29,0.89-0.16,1.86-0.99,2.16c-0.83,0.3-1.74-0.17-2.02-1.06l-1.92-6.01L420.95,419.23z"/>
	</g>
	<g transform="matrix(0.910266,-0.275905,0.29456,0.971812,-183.502,326.179)">
		<polygon class="st12" points="613.69,286.45 637.63,300.93 610.72,343.09 586.77,328.6 		"/>
	</g>
	<g>
		<g transform="matrix(1,0,0,1,4.58908,-9.29654)">
			<path class="st13" d="M464.77,468.38c2.57,1.71,3.37,5.34,1.77,8.1c-1.6,2.75-4.99,3.61-7.56,1.89c-0.56-0.38-1.3-0.18-1.64,0.41
				c-0.35,0.59-0.17,1.38,0.39,1.76c3.69,2.45,8.55,1.24,10.84-2.72c2.29-3.95,1.16-9.16-2.54-11.62c-0.56-0.38-1.3-0.18-1.64,0.41
				C464.03,467.21,464.2,468,464.77,468.38z"/>
		</g>
		<g transform="matrix(1,0,0,1,4.58908,-9.29654)">
			<path class="st13" d="M458.97,478.36c-2.58-1.72-3.37-5.34-1.77-8.1s4.99-3.61,7.56-1.89c0.56,0.37,1.3,0.18,1.64-0.41
				c0.35-0.59,0.17-1.39-0.39-1.76c-3.69-2.46-8.55-1.24-10.85,2.72c-2.29,3.95-1.16,9.16,2.54,11.62c0.56,0.37,1.3,0.18,1.64-0.41
				S459.53,478.73,458.97,478.36z"/>
		</g>
		<path class="st13" d="M456.58,486.25l1.58-6.9c0.21-0.91,1.07-1.47,1.92-1.25c0.85,0.23,1.37,1.14,1.17,2.06l-1.59,6.96
			L456.58,486.25z M460.9,487.49l1.19-4.87c0.23-0.91,1.09-1.46,1.94-1.22c0.85,0.24,1.36,1.17,1.13,2.07l-1.19,4.88L460.9,487.49z
			 M476.48,440.11l-1.92,7.87c-0.23,0.91-1.09,1.46-1.94,1.22c-0.85-0.24-1.36-1.17-1.13-2.07l1.92-7.89L476.48,440.11z
			 M471.46,438.66l-1.3,6.08c-0.19,0.92-1.05,1.49-1.91,1.27c-0.85-0.21-1.39-1.12-1.2-2.04l1.33-6.2L471.46,438.66z"/>
	</g>
	<g id="COINS">
		<g transform="matrix(0.152362,0,0,0.15348,988.073,820.014)">
			<g transform="matrix(1.00734,0,0,1,-121.537,12.8484)">
				<ellipse class="st14" cx="-3317.63" cy="-2619.75" rx="9.63" ry="10.31"/>
			</g>
			<g transform="matrix(6.99699,0,0,6.94602,-7035.01,-5737.77)">
				<path class="st15" d="M510.55,444.58c3.26,0,5.92,2.84,5.92,6.34s-2.66,6.34-5.92,6.34c-0.31,0-0.57,0.27-0.57,0.6
					s0.26,0.6,0.57,0.6c3.89,0,7.05-3.39,7.05-7.56s-3.16-7.56-7.05-7.56c-0.31,0-0.57,0.27-0.57,0.6
					C509.98,444.31,510.24,444.58,510.55,444.58z"/>
			</g>
			<g transform="matrix(6.99699,0,0,6.94602,-7035.01,-5737.77)">
				<path class="st15" d="M510.55,457.25c-3.27,0-5.92-2.84-5.92-6.34s2.66-6.34,5.92-6.34c0.31,0,0.56-0.27,0.56-0.6
					c0-0.33-0.26-0.6-0.56-0.6c-3.9,0-7.06,3.39-7.06,7.56c0,4.17,3.16,7.56,7.06,7.56c0.31,0,0.56-0.27,0.56-0.6
					S510.86,457.25,510.55,457.25z"/>
			</g>
			<g transform="matrix(6.5633,0,0,6.5155,-6485.02,-5342.8)">
				<path class="st15" d="M458.93,430.11l0.09-2.46c0.01-0.36,0.29-0.64,0.63-0.63s0.59,0.31,0.58,0.67l-0.09,2.53
					C459.73,430.21,459.33,430.17,458.93,430.11z M462.46,429.97l-0.59-2.52c-0.08-0.35,0.12-0.7,0.44-0.79
					c0.32-0.09,0.65,0.12,0.73,0.48l0.58,2.47C463.25,429.76,462.86,429.88,462.46,429.97z M452.35,425.63l1.81-1.53
					c0.26-0.23,0.65-0.17,0.85,0.11c0.21,0.28,0.16,0.69-0.1,0.91l-1.82,1.54C452.83,426.34,452.58,425.99,452.35,425.63z
					 M451.13,422.84l2.27-1.32c0.29-0.17,0.66-0.05,0.82,0.26c0.16,0.31,0.04,0.71-0.25,0.87l-2.42,1.4
					C451.39,423.67,451.25,423.26,451.13,422.84z M469.89,421.43l-2.19-0.11c-0.33-0.02-0.59-0.32-0.57-0.68
					c0.01-0.36,0.3-0.64,0.64-0.62l2.24,0.11C469.98,420.57,469.95,421.01,469.89,421.43z M467.1,412.54
					c0.29,0.3,0.56,0.63,0.81,0.97l-1.78,1.95c-0.24,0.26-0.62,0.26-0.85,0.01c-0.24-0.25-0.25-0.66-0.01-0.92L467.1,412.54z
					 M455.57,410.96l1.58,2.52c0.18,0.3,0.11,0.7-0.16,0.9c-0.28,0.19-0.66,0.12-0.84-0.17l-1.58-2.53
					C454.88,411.42,455.21,411.18,455.57,410.96z M461.19,409.64c0.41,0.03,0.81,0.1,1.2,0.19l-0.24,2.58
					c-0.03,0.36-0.33,0.62-0.66,0.58c-0.33-0.03-0.57-0.36-0.54-0.71L461.19,409.64z"/>
			</g>
		</g>
		<g transform="matrix(-0.0172876,0.151378,-0.152489,-0.0174144,1240.29,729.908)">
			<g transform="matrix(1.00734,0,0,1,-121.537,12.8484)">
				<ellipse class="st14" cx="-1149.73" cy="5354.78" rx="9.63" ry="10.31"/>
			</g>
			<g transform="matrix(6.99699,0,0,6.94602,-7035.01,-5737.77)">
				<path class="st15" d="M822.71,1593.06c3.49-0.02,6.31,2.6,6.28,5.87c-0.02,3.27-2.88,5.95-6.38,5.97
					c-0.33,0-0.62,0.26-0.62,0.57c0,0.31,0.27,0.57,0.6,0.56c4.17-0.03,7.57-3.22,7.6-7.12c0.03-3.9-3.33-7.04-7.49-7.01
					c-0.33,0-0.62,0.26-0.62,0.57C822.1,1592.8,822.38,1593.06,822.71,1593.06z"/>
			</g>
			<g transform="matrix(6.99699,0,0,6.94602,-7035.01,-5737.77)">
				<path class="st15" d="M822.62,1604.9c-3.5,0.02-6.32-2.6-6.28-5.87c0.02-3.27,2.88-5.95,6.38-5.97c0.33,0,0.6-0.26,0.6-0.57
					c0-0.31-0.27-0.57-0.6-0.56c-4.17,0.03-7.58,3.22-7.6,7.12c-0.03,3.9,3.33,7.04,7.49,7.01c0.33,0,0.6-0.26,0.6-0.57
					C823.21,1605.16,822.95,1604.9,822.62,1604.9z"/>
			</g>
			<g transform="matrix(6.5633,0,0,6.5155,-6485.02,-5342.8)">
				<path class="st15" d="M791.49,1653.38l0.11-2.31c0.01-0.33,0.32-0.59,0.68-0.58c0.36,0.01,0.64,0.29,0.62,0.63l-0.12,2.36
					C792.34,1653.48,791.91,1653.44,791.49,1653.38z M795.26,1653.23l-0.62-2.35c-0.09-0.32,0.13-0.66,0.48-0.74s0.7,0.11,0.79,0.43
					l0.6,2.31C796.1,1653.02,795.69,1653.14,795.26,1653.23z M784.48,1649.25l1.95-1.45c0.28-0.21,0.69-0.17,0.91,0.1
					c0.22,0.26,0.17,0.65-0.11,0.85l-1.97,1.46C784.99,1649.91,784.72,1649.59,784.48,1649.25z M783.2,1646.66l2.43-1.25
					c0.31-0.16,0.71-0.05,0.87,0.24c0.17,0.29,0.04,0.66-0.27,0.82l-2.59,1.33C783.47,1647.44,783.31,1647.05,783.2,1646.66z
					 M803.27,1645.18l-2.34-0.09c-0.36-0.01-0.63-0.29-0.62-0.63c0.02-0.33,0.32-0.59,0.68-0.58l2.39,0.09
					C803.38,1644.38,803.33,1644.79,803.27,1645.18z M800.35,1636.9c0.31,0.28,0.59,0.58,0.86,0.9l-1.91,1.84
					c-0.25,0.24-0.66,0.25-0.92,0.02c-0.26-0.23-0.26-0.62-0.01-0.85L800.35,1636.9z M788.03,1635.52l1.66,2.34
					c0.19,0.28,0.12,0.66-0.18,0.84c-0.3,0.18-0.7,0.12-0.9-0.16l-1.67-2.34C787.29,1635.95,787.64,1635.72,788.03,1635.52z
					 M794.07,1634.23c0.43,0.03,0.86,0.09,1.28,0.17l-0.27,2.41c-0.04,0.33-0.37,0.58-0.71,0.55c-0.36-0.03-0.62-0.32-0.57-0.66
					L794.07,1634.23z"/>
			</g>
		</g>
		<g transform="matrix(0.111656,0.103669,-0.10443,0.112475,990.357,833.943)">
			<g transform="matrix(1.00734,0,0,1,-121.537,12.8484)">
				
					<ellipse transform="matrix(-0.0291 0.9996 -0.9996 -0.0291 -3464.551 4992.959)" class="st14" cx="-4157.16" cy="813.88" rx="10.31" ry="9.63"/>
			</g>
			<g transform="matrix(6.99699,0,0,6.94602,-7035.01,-5737.77)">
				<path class="st15" d="M389.49,939.11c3.37,0.12,6.21,2.96,6.32,6.35c0.12,3.39-2.53,6.05-5.9,5.94
					c-0.32-0.01-0.58,0.25-0.57,0.57s0.29,0.59,0.62,0.62c4.02,0.14,7.17-3.03,7.04-7.07c-0.14-4.04-3.51-7.44-7.54-7.57
					c-0.32-0.01-0.58,0.25-0.57,0.57S389.16,939.1,389.49,939.11z"/>
			</g>
			<g transform="matrix(6.99699,0,0,6.94602,-7035.01,-5737.77)">
				<path class="st15" d="M389.91,951.39c-3.38-0.12-6.21-2.96-6.33-6.35c-0.12-3.39,2.53-6.05,5.91-5.94
					c0.32,0.01,0.57-0.25,0.56-0.57c-0.01-0.32-0.28-0.59-0.6-0.62c-4.03-0.14-7.18,3.03-7.04,7.07c0.14,4.04,3.51,7.44,7.54,7.57
					c0.32,0.01,0.57-0.25,0.56-0.57C390.5,951.67,390.22,951.4,389.91,951.39z"/>
			</g>
			<g transform="matrix(6.5633,0,0,6.5155,-6485.02,-5342.8)">
				<path class="st15" d="M330.36,956.73l0.01-2.39c0-0.35,0.28-0.6,0.63-0.58c0.35,0.02,0.63,0.32,0.63,0.67l-0.01,2.45
					C331.2,956.86,330.77,956.81,330.36,956.73z M334,956.73l-0.69-2.46c-0.1-0.33,0.1-0.67,0.43-0.74
					c0.33-0.08,0.68,0.14,0.78,0.49l0.68,2.42C334.81,956.55,334.41,956.66,334,956.73z M323.43,952.17l1.82-1.43
					c0.26-0.21,0.66-0.15,0.89,0.13c0.23,0.28,0.19,0.67-0.08,0.89l-1.84,1.44C323.94,952.87,323.67,952.52,323.43,952.17z
					 M322.07,949.42l2.3-1.2c0.3-0.15,0.68-0.03,0.86,0.28c0.17,0.31,0.08,0.69-0.23,0.84l-2.45,1.27
					C322.36,950.23,322.21,949.84,322.07,949.42z M341.4,948.71l-2.26-0.18c-0.35-0.03-0.63-0.33-0.62-0.68
					c0-0.35,0.29-0.6,0.64-0.57l2.31,0.18C341.46,947.89,341.44,948.3,341.4,948.71z M338.22,940c0.31,0.3,0.6,0.63,0.87,0.96
					l-1.77,1.84c-0.24,0.24-0.63,0.24-0.89-0.02c-0.26-0.25-0.28-0.65-0.04-0.89L338.22,940z M326.26,938.07l1.71,2.49
					c0.21,0.29,0.14,0.68-0.14,0.86s-0.67,0.1-0.87-0.21l-1.72-2.5C325.56,938.49,325.91,938.26,326.26,938.07z M332.04,936.98
					c0.42,0.05,0.84,0.13,1.24,0.23l-0.16,2.49c-0.02,0.35-0.32,0.58-0.67,0.54s-0.6-0.37-0.58-0.7L332.04,936.98z"/>
			</g>
		</g>
		<g transform="matrix(0.149682,-0.0284542,0.028663,0.15078,1017.04,1003.81)">
			<g transform="matrix(1.00734,0,0,1,-121.537,12.8484)">
				
					<ellipse transform="matrix(-1 -8.916317e-03 8.916317e-03 -1 -5391.9297 -8062.9966)" class="st14" cx="-2713.94" cy="-4019.48" rx="9.47" ry="10.49"/>
			</g>
			<g transform="matrix(6.99699,0,0,6.94602,-7035.01,-5737.77)">
				<path class="st15" d="M597.54,243.07c3.27-0.04,5.9,2.75,5.85,6.25c-0.04,3.49-2.73,6.36-6,6.4c-0.31,0-0.57,0.28-0.58,0.62
					c0,0.33,0.25,0.6,0.56,0.6c3.9-0.05,7.12-3.47,7.16-7.63c0.05-4.16-3.08-7.49-6.97-7.45c-0.31,0-0.57,0.28-0.58,0.62
					C596.97,242.81,597.22,243.08,597.54,243.07z"/>
			</g>
			<g transform="matrix(6.99699,0,0,6.94602,-7035.01,-5737.77)">
				<path class="st15" d="M597.38,255.73c-3.27,0.04-5.9-2.75-5.85-6.25c0.04-3.49,2.73-6.36,6.01-6.4c0.31,0,0.57-0.28,0.57-0.62
					c0-0.33-0.25-0.6-0.56-0.6c-3.91,0.05-7.12,3.47-7.17,7.63c-0.05,4.16,3.08,7.49,6.99,7.45c0.31,0,0.57-0.28,0.57-0.62
					C597.94,255.99,597.69,255.72,597.38,255.73z"/>
			</g>
			<g transform="matrix(6.5633,0,0,6.5155,-6485.02,-5342.8)">
				<path class="st15" d="M551.45,215.27l0.12-2.46c0.02-0.36,0.3-0.64,0.64-0.63s0.59,0.3,0.58,0.67l-0.12,2.53
					C552.26,215.36,551.85,215.33,551.45,215.27z M554.99,215.09l-0.56-2.5c-0.08-0.35,0.12-0.7,0.45-0.79
					c0.32-0.09,0.65,0.12,0.73,0.46l0.55,2.46C555.78,214.87,555.39,215,554.99,215.09z M544.92,210.89l1.84-1.55
					c0.27-0.23,0.65-0.18,0.85,0.1s0.15,0.68-0.11,0.91l-1.86,1.57C545.39,211.58,545.15,211.25,544.92,210.89z M543.72,208.13
					l2.29-1.34c0.3-0.17,0.67-0.06,0.82,0.25c0.15,0.31,0.04,0.7-0.26,0.89l-2.44,1.44C543.97,208.95,543.84,208.55,543.72,208.13z
					 M562.54,206.47l-2.19-0.08c-0.33-0.01-0.59-0.31-0.57-0.67c0.02-0.36,0.3-0.64,0.64-0.63l2.23,0.09
					C562.65,205.61,562.61,206.04,562.54,206.47z M559.86,197.64c0.29,0.3,0.55,0.62,0.81,0.95l-1.8,1.98
					c-0.24,0.26-0.63,0.27-0.85,0.02c-0.24-0.25-0.24-0.66,0-0.92L559.86,197.64z M548.32,196.22l1.54,2.49
					c0.18,0.29,0.11,0.7-0.18,0.9c-0.28,0.21-0.66,0.13-0.84-0.16l-1.55-2.49C547.62,196.68,547.97,196.44,548.32,196.22z
					 M553.98,194.82c0.41,0.03,0.81,0.09,1.2,0.17l-0.27,2.57c-0.04,0.36-0.35,0.62-0.67,0.59c-0.33-0.03-0.57-0.35-0.54-0.7
					L553.98,194.82z"/>
			</g>
		</g>
	</g>
	<path class="st16" d="M451.01,490.35l-46.64,86.98h-19.19c0,0-5.9,13.49,3.03,18.42h88c0.09,0,0.18,0.01,0.27,0.02
		c1.75,0.14,11.77-0.17,19.69-22.16c12.87-35.71,25.92-56.31,39.1-83.28h-84.26V490.35z"/>
	<g transform="matrix(0.93449,0.13298,-0.313392,0.955354,442.97,-95.9341)">
		
			<ellipse transform="matrix(-0.6711 0.7413 -0.7413 -0.6711 838.1597 933.9302)" class="st9" cx="211.93" cy="652.87" rx="18.25" ry="12.29"/>
	</g>
	<g transform="matrix(1.02716,0.0108992,-0.640974,1.16934,644.813,-194.141)">
		<polygon class="st17" points="178.99,586.95 249.54,587 249.76,592.17 179.21,592.13 		"/>
	</g>
	<g transform="matrix(1.03199,0.00927035,-0.639149,1.17041,624.093,-166.819)">
		<polygon class="st17" points="183.48,572.93 254.01,572.97 254.23,578.16 183.69,578.11 		"/>
	</g>
	<g transform="matrix(1.03531,0.026932,-0.65816,1.15904,625.602,-150.226)">
		<polygon class="st17" points="184.9,570.72 255.49,570.84 255.71,576.02 185.12,575.91 		"/>
	</g>
	<g transform="matrix(1.0299,0.0446274,-0.676583,1.14736,637.838,-133.605)">
		<polygon class="st17" points="177.65,568.8 248.3,568.99 248.51,574.16 177.88,573.97 		"/>
	</g>
	<g transform="matrix(0.549765,0.0277179,-0.562031,1.11902,1148.2,-51.3241)">
		<polygon class="st17" points="-689.85,546.14 -619.21,546.26 -618.87,551.43 -689.51,551.31 		"/>
	</g>
	<g transform="matrix(0.371267,0.0223134,-0.468608,1.12431,1275.26,-20.7622)">
		<polygon class="st17" points="-1491.95,540.27 -1421.32,540.37 -1420.9,545.54 -1491.53,545.44 		"/>
	</g>
	<g transform="matrix(0.492546,0.036704,-0.392064,1.1297,1016.41,-16.9977)">
		<polygon class="st17" points="-712.82,538.01 -642.18,538.18 -641.91,543.35 -712.56,543.19 		"/>
	</g>
	<path class="st1" d="M406.1,574.08h62.86c0.08,0,0.14,0.01,0.22,0.02c0.68,0.1,1.24,0.5,1.51,1.41c0.13,0.44,0.14,1.33-0.02,2.52
		c-0.57,4.26-3.15,15.04,7.15,17.72c-0.6,0.08-1.07,0.06-1.33,0.04c-0.09-0.01-0.18-0.02-0.27-0.02h-5.38
		c-0.35-0.33-0.67-0.68-0.97-1.05c-3.63-4.41-3.24-10.8-2.65-15.07c0.1-0.73,0.19-1.53,0.27-2.16l-63.13-0.15L406.1,574.08z"/>
	<g transform="matrix(0.259277,0.187502,-0.187502,0.259277,898.122,890.161)">
		<g transform="matrix(187.083,-86.746,58.002,189.528,1142.68,441.752)">
			<path d="M-13.13-8.25c0.02,0.02,0.05,0.03,0.09,0.03s0.05-0.01,0.05-0.04c0-0.02-0.01-0.03-0.04-0.04c-0.01,0-0.02,0-0.03-0.01
				c-0.02,0-0.04-0.01-0.05-0.03c-0.01-0.01-0.02-0.03-0.02-0.05s0.01-0.04,0.02-0.06c0.01-0.01,0.04-0.02,0.06-0.02
				c0.03,0,0.06,0.01,0.1,0.03l-0.02,0.03c-0.02-0.01-0.04-0.02-0.08-0.02c-0.01,0-0.02,0-0.03,0.01C-13.1-8.42-13.1-8.41-13.1-8.4
				c0,0.01,0,0.02,0.01,0.02c0.01,0.01,0.02,0.01,0.03,0.01c0.01,0,0.02,0,0.03,0c0.02,0,0.04,0.01,0.06,0.03
				c0.01,0.02,0.02,0.03,0.02,0.05c0,0.05-0.03,0.09-0.1,0.09c-0.04,0-0.08-0.01-0.11-0.04L-13.13-8.25z"/>
		</g>
		<g transform="matrix(1.058,-0.0924583,-0.0519775,1.11983,-39.8004,66.0465)">
			<path class="st1" d="M-1670.05-231.58l19.95,67.31l6.25-1.4l-20.13-67.89L-1670.05-231.58z"/>
		</g>
	</g>
	<g>
		<g>
			<path class="st18" d="M-243.19,727.63c2.08,0,2.08-3.24,0-3.24S-245.28,727.63-243.19,727.63L-243.19,727.63z"/>
		</g>
	</g>
	<line class="st19" x1="899.22" y1="771.16" x2="-94.55" y2="766.66"/>
</g>
</svg>
