<?xml version="1.0" encoding="utf-8"?>
<!-- Generator: Adobe Illustrator 23.1.0, SVG Export Plug-In . SVG Version: 6.00 Build 0)  -->
<svg version="1.1" id="Layer_1" xmlns="http://www.w3.org/2000/svg" xmlns:xlink="http://www.w3.org/1999/xlink" x="0px" y="0px"
	 viewBox="0 0 1000 800" style="enable-background:new 0 0 1000 800;" xml:space="preserve">
<style type="text/css">
	.st0{fill:#D8B6A4;}
	.st1{fill-rule:evenodd;clip-rule:evenodd;}
	.st2{fill-rule:evenodd;clip-rule:evenodd;fill:#EEEBDD;}
	.st3{fill-rule:evenodd;clip-rule:evenodd;fill:#D6CEBA;}
	.st4{fill-rule:evenodd;clip-rule:evenodd;fill:#BFB6A1;}
	.st5{fill-rule:evenodd;clip-rule:evenodd;fill:#630000;}
	.st6{fill-rule:evenodd;clip-rule:evenodd;fill:#FFFFFF;}
	.st7{fill-rule:evenodd;clip-rule:evenodd;fill:#3D0601;}
	.st8{fill-rule:evenodd;clip-rule:evenodd;fill:#210201;}
	.st9{fill-rule:evenodd;clip-rule:evenodd;fill:#E3E1D3;}
	.st10{opacity:0.26;}
	.st11{fill-rule:evenodd;clip-rule:evenodd;fill:#046C34;}
	.st12{fill-rule:evenodd;clip-rule:evenodd;fill:#013F11;}
	.st13{fill-rule:evenodd;clip-rule:evenodd;fill:#FFCF84;}
	.st14{fill-rule:evenodd;clip-rule:evenodd;fill:#FDA92F;}
	.st15{fill-rule:evenodd;clip-rule:evenodd;fill:#E9E9EB;}
	.st16{fill-rule:evenodd;clip-rule:evenodd;fill:#BABDC2;}
	.st17{fill:#C0C0BC;}
	.st18{stroke:#000000;stroke-width:3;stroke-miterlimit:10;}
</style>
<g>
	<path class="st0" d="M563.2,20.4c60.6-9.6,116.3,36.3,151.3,86.7S774.5,216.3,821,256.4c18.8,16.1,40.4,28.6,59.7,44
		C944.1,351,978.5,432,984.6,512.9S970.9,674.7,941,750.2c-3.5,8.7-7.4,17.8-14.8,23.5c-7.1,5.4-16.4,6.9-25.3,8.1
		c-259,35.6-523.2-5.8-783.4,19.3c-35,3.4-77.1,4.9-97.5-23.7c-6.5-9.1-9.6-20.1-11.5-31.1c-10-57.9,12.6-115.9,34.7-170.4
		c17.8-43.7,36.2-88.4,68.1-123.1c21.9-23.8,49.2-41.8,73.2-63.5c35-31.6,62.7-71.2,80.5-114.9c6.2-15.2,11.3-31,19.4-45.3
		c25.3-44.3,75.6-67.1,122.8-86.4c15.9-6.5,32.1-13.1,44.8-24.5c9.3-8.3,16.3-18.8,23.5-29.1C494.5,62,516.9,35,547.8,22.8
		s72-4.2,87.3,25.3"/>
</g>
<g>
	<g>
		<path d="M862.2,94.5c2.1,0,2.1-3.2,0-3.2S860.1,94.5,862.2,94.5L862.2,94.5z"/>
	</g>
</g>
<path id="MANS-CHAIR-" class="st1" d="M261.8,655.2h141.3v13.5H266.4l34.3,103.5h-12.9L199,510l11.8-4.6L261.8,655.2z"/>
<path class="st2" d="M158.3,756.8c0,0,1.7-87.6,3.1-154.7c0.9-43,32.5-78,72.5-80.3c88.5-5.3,175.9-6.6,261.5-1.7
	c41.6,2.4,75.9,35.6,82.3,79.7c0,0,0,0,0,0c3.5,24.1-2.6,48.7-16.8,67.7c-18.1,24.1-48.6,57.6-95.8,89.5c0,0,17.5,5.4,19.3,13.8
	c0,0-132.9-0.2-166.8-0.2c-1.3,0-2.4-0.8-2.8-2.1c-0.5-1.2-0.1-2.7,0.8-3.6c23.8-23.3,113.4-111,113.4-111l-151.1,1.6
	c0,0-2.4,90.5-3,111.7c-0.1,2.5-2,4.4-4.3,4.4c-22.7-0.2-131.2-1-131.2-1S138.5,762.3,158.3,756.8z"/>
<path class="st3" d="M500.5,730.3l-115.7-33.3l3.5-3.4L504.4,727C503.1,728.2,501.8,729.2,500.5,730.3z M276.8,691.9l-117.2,3
	l0.1-4.3l117.3-3L276.8,691.9z"/>
<path class="st4" d="M428.7,654.1l41.1-0.1c0.4,0,0.7,0.3,0.8,0.7c0.1,0.4-0.2,0.8-0.5,1l-65.3,21.9L428.7,654.1z M277.8,655.7
	l-0.5,19.8l-34.7-16.7c-0.7-0.3-1-1.1-0.9-1.9c0.1-0.8,0.8-1.3,1.5-1.3L277.8,655.7z"/>
<path class="st2" d="M478.7,337.3c0,0-39.9-57.7-129.8-32.5c-12.1,3.4-107.9,36-145.8,127.5c-3.7,9-23.6,49.6,5.3,71.4
	c20.2,15.2,41.8,12.4,117.5-14.8c6.4-2.3,45.9-11.2,38.8-21c0,0,3.2,0.7,4.7-1.6c0,0,0.2,1.2,0.3,2c0.1,0.6,0.4,1.1,0.8,1.5
	c1.8,1.9,7.2,7.7,10.7,11.4c0.6,0.6,1.5,0.9,2.3,0.6s1.4-0.9,1.6-1.8c1-4.6,2.5-11.5,2.5-11.5s35.9,8.4,57.6-29.1
	c0,0,0.9,37,27.7,52c7.8,4.4,51.2,13.6,62.6-34.3c8-33.5,13.8-93.5,18.9-136.5c0,0,26.6-17.9,28.6-26.5c0.7-3.1-2.2-8.1-8.7-3
	c0,0,9.7-8.8,6.5-13c-1.8-2.3-5.5-2.4-12.8,4.3c0,0,9.1-10,5-14c-4.5-4.3-9.7,4.5-14.4,9.3c0,0,10.6-17.4,4.6-20.4
	c-2.5-1.3-5.3-1.4-14.5,11c-8.6,11.5-20.7,12.7-29.5,11.6c0,0,3.5-21.8-0.5-23.9c-4.5-2.4-8.5,1.9-18.3,23.3
	C490.5,300.5,485.7,321.4,478.7,337.3z"/>
<path class="st3" d="M373,299.7c69.5-9.4,102.5,33.2,105.5,37.3c-4.5,17.3-12.3,54.3-12.3,54.3l-8.2-0.1
	c0.1,21.6-12.9,47.4-12.9,47.4l0,0.9c-20.6,35.6-54.5,29.7-57.7,29.2l1-5.6l-2.7-8.2l-0.8-2.3c0,0,3.8-5.4,7.1-10.2
	c2.8-4,2.1-9.7-1.5-12.9c-7.3-6.4-18-15.8-18-15.8c-0.1,0-0.1-0.1-0.2-0.1c-8.7-7.1-19.6-10.2-30.4-8.6c-22.9,3.3-68.9,10-68.9,10
	l-27.8-46c32.4-33.5,70.4-51.7,90.7-59.6L373,299.7z"/>
<path class="st5" d="M369.4,466.4c0.8-1,3.3-4.8,1-8.5l-3.2-4.2c0,0,4.5,0.7,6.4,0.5c0,0-0.3,4.9,3.5,5.7c1,0.2,2.1-0.2,2.7-1.1
	c1.8-2.4,5.9-7.9,5.9-7.9s2.3,10.4,2.7,12.3c0,0.2,0,0.4,0,0.6c-0.4,1.8-2.3,11.4-2.3,11.4l-1.1,4.9c-0.2,0.9-0.8,1.5-1.6,1.8
	c-0.8,0.3-1.7,0-2.3-0.6c-3.4-3.6-8.9-9.5-10.7-11.4c-0.4-0.4-0.7-1-0.7-1.5L369.4,466.4z M353.4,405c0,0,14.4,2.3,23.6,13.2
	l-6.4-32.9l-21.1,0.1L353.4,405z"/>
<path class="st1" d="M386.1,474.7l-0.1,0.5l-1.1,4.9c-0.2,0.9-0.8,1.5-1.6,1.8c-0.8,0.3-1.7,0-2.3-0.6l-4.8-5.2L386.1,474.7z
	 M371.9,454.2c0.7,0,1.3,0,1.8,0c0,0-0.3,4.9,3.5,5.7c0.4,0.1,0.8,0.1,1.2,0l0.6,2.9l8.8-2.7l0.7,3.2c0,0.1,0,0.2,0,0.3l-18.3,5.8
	c-0.2-0.3-0.3-0.7-0.4-1l-0.3-2c0.1-0.2,0.3-0.5,0.5-0.8l3.9-1.2L371.9,454.2z M362.5,407.8l-4.5-22.4l5.4,0l5.1,25.5
	C366.4,409.6,364.4,408.6,362.5,407.8z"/>
<path class="st3" d="M365.5,471l-12.1-1c-0.9-0.1-1.5-0.9-1.5-1.8c0.1-0.9,0.8-1.6,1.7-1.6l13.6,1.2c-1.3,0.4-2.5,0.1-2.5,0.1
	C365.5,468.9,365.7,470,365.5,471z M371,455c0.1-0.1,0.2-0.2,0.4-0.2c0,0,1.5-0.6,3.1-1.3c1.9-0.8,3.3-2.6,3.8-4.7l0,0
	c1-4.4-0.8-8.9-4.3-11.4c-4-2.8-8.3-5.8-8.3-5.8c-0.7-0.5-0.9-1.6-0.5-2.4c0.5-0.8,1.5-1,2.2-0.5l7.9,5.5l0.2-1.9
	c0.1-0.9,0.9-1.6,1.8-1.5c0.9,0.1,1.5,1,1.4,1.9l-0.5,4.1c2.8,3.4,4,8,3,12.6l0,0c-0.7,3.2-2.8,5.9-5.7,7.1
	c-1.6,0.7-3.1,1.3-3.1,1.3c-0.6,0.2-1.2,0.1-1.6-0.3c-0.4,0.3-0.9,0.4-1.5,0.3l-13.6-4.8c-0.8-0.3-1.3-1.3-1-2.1
	c0.3-0.9,1.2-1.4,2-1.1l13.6,4.8C370.6,454.7,370.8,454.8,371,455z M466.7,372.6c0,0-11.6,52-14.1,75.3c-0.1,0.9,0.5,1.8,1.4,1.9
	c0.9,0.1,1.7-0.6,1.8-1.5c2.5-23.1,14.1-74.9,14.1-74.9c0.2-0.9-0.3-1.8-1.2-2C467.8,371.1,466.9,371.7,466.7,372.6z M281.4,408.2
	c-27.6,6.6-44.4,12.2-52.6,17.1c-1,0.6-1.3,1.9-0.8,2.9c0.5,1,1.8,1.4,2.7,0.8c8-4.8,24.5-10.2,51.6-16.7c1.1-0.3,1.8-1.4,1.5-2.5
	C283.5,408.6,282.5,407.9,281.4,408.2z M554.8,320.3c-0.3,0.2-0.5,0.3-0.5,0.3c-0.4,3.1-0.8,6.3-1.1,9.6l-8.2-2.3
	c-0.3-0.1-0.5-0.4-0.6-0.7c0-0.4,0.1-0.7,0.4-0.8L554.8,320.3z M581.2,279.1c1.3,4.4-7,12-7,12c0.2-0.2,0.5-0.4,0.7-0.5
	c-5.8,5.7-13.7,12.5-21.2,16c-0.8,0.4-1.7,0-2.1-0.9c-0.4-0.9,0-1.9,0.8-2.3C565.1,297.5,578.6,282.1,581.2,279.1z M573.9,271.3
	c-0.1,4.6-6,11.1-6,11.1c0.4-0.4,0.9-0.8,1.3-1.1c-5.8,6-14.3,14-21.8,18c-0.8,0.4-1.7,0.1-2.1-0.7c-0.4-0.8-0.1-1.9,0.7-2.3
	C557.9,289.7,572.7,272.7,573.9,271.3z M564.2,265c-1.6,5.9-5.8,12.8-5.8,12.8c0.1-0.1,0.3-0.3,0.4-0.4
	c-4.8,5.4-11.4,11.4-18.8,14.4c-0.8,0.3-1.7-0.1-2-1c-0.3-0.9,0.1-1.9,0.9-2.2C551.6,283.4,561.7,268.8,564.2,265z"/>
<path class="st4" d="M321.6,407.9l12.3-14c0.5-0.6,1.4-0.8,2.2-0.5c0.7,0.3,1.2,1.1,1.2,2l-0.2,10.3L321.6,407.9z M458,393.3
	c0-1.9-0.3-12.8-1.3-20.4c-0.1-0.4,0.1-0.7,0.4-0.8c0.3-0.1,0.7,0,0.8,0.4c2.3,4.7,5.8,12.3,7.8,18.9l-7.7-0.1
	C458,391.9,458,392.5,458,393.3z"/>
<g transform="matrix(1.01592,0,0,1.01932,-17.6908,-9.9515)">
	<ellipse class="st2" cx="381.6" cy="258.8" rx="31" ry="33.3"/>
</g>
<path class="st1" d="M349.3,278.7c-6.4-6.1-10.4-15-10.4-24.9c0-18.4,13.9-33.3,31-33.3c10.5,0,19.8,5.6,25.4,14.2L369.9,259
	c-0.3-1-0.8-1.9-1.4-2.8c-2.7-3.6-7.2-4.6-10.2-2.1c-3,2.5-3.2,7.5-0.6,11.1c0.8,1.1,1.8,2,2.9,2.6L349.3,278.7z"/>
<g id="TICKET-NOTE" transform="matrix(0.925945,0,0,0.925945,133.563,52.6991)">
	<g transform="matrix(0.836076,0,0.29029,1,60.6403,-2.26609)">
		<polygon class="st6" points="550.6,281.8 581.2,281.8 580.3,321.6 549.7,321.6 		"/>
	</g>
	<g transform="matrix(0.836076,0,0.29029,1,60.6403,-2.26609)">
		<path class="st1" d="M550.7,320.7h9.7c0.6,0,0.9,0.4,0.7,0.9s-0.8,0.9-1.3,0.9h-10.4c-0.5,0-0.8-0.3-0.7-0.7l0.9-39.8
			c0-0.3,0.2-0.6,0.4-0.8c0.3-0.2,0.6-0.4,0.9-0.4h21.5c0.6,0,0.9,0.4,0.7,0.9s-0.8,0.9-1.3,0.9h-20.1L550.7,320.7z"/>
	</g>
	<g transform="matrix(0.836076,0,0.29029,1,60.6403,-2.26609)">
		<path class="st1" d="M580.1,282.7h-8.4c-0.6,0-0.9-0.4-0.7-0.9s0.8-0.9,1.3-0.9h9.2c0.5,0,0.8,0.3,0.8,0.7l-0.9,39.8
			c0,0.3-0.2,0.6-0.4,0.8c-0.3,0.2-0.6,0.4-0.9,0.4h-20.2c-0.6,0-0.9-0.4-0.7-0.9s0.8-0.9,1.3-0.9h18.8L580.1,282.7z"/>
	</g>
	<g transform="matrix(1,0,0.477775,1.38266,-339.314,-243.265)">
		<polygon class="st1" points="763.5,380.7 784.7,380.7 784.6,383.9 763.4,383.9 		"/>
	</g>
	<g transform="matrix(1,0,0.477775,1.38266,-334.084,-226.275)">
		<polygon class="st1" points="763.7,373.6 784.9,373.6 784.8,376.8 763.6,376.8 		"/>
	</g>
	<g transform="matrix(1,0,0.477775,1.38266,-328.854,-209.285)">
		<polygon class="st1" points="763.9,366.6 785.1,366.6 785,369.8 763.8,369.8 		"/>
	</g>
	<g transform="matrix(1,0,0.477775,1.38266,-323.624,-192.296)">
		<polygon class="st1" points="764.2,359.5 785.4,359.5 785.3,362.7 764.1,362.7 		"/>
	</g>
	<g transform="matrix(1,0,0.477775,1.38266,-318.395,-175.306)">
		<polygon class="st1" points="764.4,352.5 785.6,352.5 785.5,355.7 764.3,355.7 		"/>
	</g>
</g>
<path class="st5" d="M720.9,332.7c-0.8-2.3-5.4-17-1.8-23.2c0.2-0.4,0.6-0.7,1.1-0.8c1.3-0.2,4,0.4,7.8,7c0,0,34.8,56,47.4,64.4
	c0,0,0.3-42.8,47.4-49.8c6.5-1,52.4-10.5,78.1,57.6c8.5,22.6,8.4,40.6,8.3,59.9c-0.1,15.3-7.5,29.4-19.6,37.5l0,0
	c-15.9,10.6-35.6,12.2-52.8,4.4c-11.5-5.2-26.5-10.5-43.4-13.2l-37.2-3.8c0,0,1.9,10.9-13.5,8.8c0,0-12.1-1.7-9.7-10.4
	c0,0-8.2-1.4-6.5-9.9c0,0-7.7-6.5-0.9-14.4c0,0-22.3-0.3-26.9-11.7c-0.4-1-0.4-2.1-0.1-3.1c0.4-1.2,1.5-2.6,4.1-2.7
	c0,0,30.9-0.5,39-3l-17.7-32.2c0,0-13.8-8.1-16.9-21c-3.3,0-6-2.7-6.3-6.2c-0.2-3,1.5-5.8,4-6.8l-1.5,0.1c-3.4,0.3-6.4-2.5-6.7-6.1
	c-0.2-3,1.4-5.6,3.8-6.7c-3.3,0.2-6.1-2.5-6.4-6.1c-0.3-3.6,2.3-6.8,5.7-7L720.9,332.7z"/>
<path class="st7" d="M755.6,477c-7.3-0.4-13.1,1.4-13.1,1.4c-1.1,0.4-2.2-0.3-2.5-1.4c-0.3-1.1,0.3-2.3,1.3-2.7
	c0,0,8.5-2.7,18.1-1.2l-3.4-0.4C756.1,472.8,756.4,474.8,755.6,477z M729.1,469.5c1.4-4.5,6.1-14.5,21.2-16.9
	c1.1-0.2,2.1,0.6,2.3,1.8c0.2,1.2-0.6,2.3-1.7,2.4c-13.3,2.2-17.1,11.1-18.1,14.4C732.5,471,730.7,470.7,729.1,469.5z M723.5,457.4
	c1.9-4.4,7.2-11.6,21.5-14.5c1.1-0.2,2.1,0.5,2.3,1.7c0.2,1.2-0.5,2.3-1.6,2.5c-17.8,3.5-19.4,14.5-19.3,14.2
	C726.4,461.3,724.6,459.8,723.5,457.4z M720.6,446.5c2.3-3.2,9.7-12.2,20.6-13.9c1.1-0.2,2.1,0.6,2.3,1.8c0.2,1.2-0.6,2.3-1.7,2.4
	c-7.6,1.2-13.3,6.5-16.2,10C725.1,446.9,723.2,446.8,720.6,446.5z M836.2,425l24.3,9.1c1,0.4,2.2-0.2,2.5-1.3
	c0.4-1.1-0.2-2.3-1.2-2.7l-24.3-9.1c-1-0.4-2.2,0.2-2.5,1.3C834.6,423.4,835.2,424.6,836.2,425z M739.7,422.7
	c2.5-0.5,30.6-6.4,51-6.1c1.1,0,2,1,2,2.1s-0.9,2.1-2,2.1c-21.1-0.3-49.5,5.8-48.9,5.7L739.7,422.7z M724.1,394.3l6.2,3
	c0.8,0.4,1.1,1.4,0.8,2.3c-0.4,0.9-1.3,1.2-2.1,0.8l-2-1L724.1,394.3z M719.8,329.3c3.6,0.6,6.2,2.7,7.1,4.3
	c2.1,3.6,1.3,7.2-0.7,9.7c0.1,0.7,0.3,1.7,0.7,3c0.5,0.4,0.9,0.7,1.2,1.1c1.8,2,2,4.2,2,4.9c0,0.8,0,1.5-0.2,2.3
	c1.7,3.5,4.2,6.9,7.6,8.9c0.8,0.4,1.1,1.5,0.7,2.3s-1.4,1.1-2.2,0.7c-1.5-0.8-2.8-1.9-4-3.1c0,0,0,0,0,0c1.3,4.3-0.8,9-4.7,10.6
	c-6,2.5-14.5,2.7-19.1,2.6c-0.4-1.1-0.8-2.2-1.1-3.4c-0.4,0,12.1,0.6,19-2.3c2.4-1,3.7-3.9,2.8-6.5c0,0,0,0,0-0.1
	c-0.6-1.8-2.2-2.9-4-2.7l-3.3,0.3c-0.6,0.2-1,0.3-1,0.3c-0.3,0.1-0.6,0-0.9-0.1l-18.5,1.9c0.7-1.7,1.9-3.1,3.6-3.8l16.3-1.7
	c1-0.3,2.4-0.9,3.7-1.9c1.2-0.9,2.2-2.3,2.1-4.1c0-0.4-0.1-1.6-1.1-2.7c-1.3-1.4-3.8-2.6-8.5-2.7c-0.1,0-0.3,0-0.4,0
	c-5.5,0.2-11.3,0.3-16.9,0.5c-2.1-0.1-3.9-1.3-5-3.1c8.2-0.5,16.6-0.5,24.6-0.9c1.1,0,2.4-0.7,3.4-1.6c0.1-0.3,0.3-0.5,0.6-0.6
	c1.2-1.5,1.8-3.6,0.5-5.9c-1.1-2.1-3.3-2.6-3.3-2.6C720.7,332.2,720.3,330.9,719.8,329.3z M729.9,362.2c-0.5,0.2-0.6,0.5-0.7,0.6
	c0.1-0.1,0.2-0.3,0.3-0.4C729.6,362.4,729.8,362.3,729.9,362.2L729.9,362.2L729.9,362.2z M728.1,358c-0.2,0.2-0.3,0.4-0.5,0.5
	c0.4,0.1,0.7,0.3,1.1,0.5C728.5,358.7,728.3,358.4,728.1,358z"/>
<path class="st7" d="M775.2,380l0.1,0.1c0,0,0.3-42.8,47.4-49.8c6.5-1,52.4-10.5,78.1,57.6c0.1,0.2,0.2,0.5,0.3,0.7
	c-15.3,17.2-32,4.2-32,4.2c-8.2,26.8-34.4,15.3-34.4,15.3l8.5,19.4c-19.8-7.8-58.3-6.6-58.3-6.6C776.9,410.2,775.4,390.8,775.2,380z
	"/>
<path class="st2" d="M833.9,424.7c0,0-5.1-17.7-8.8-30.4c-0.2-0.6,0.1-1.2,0.6-1.4c0.5-0.2,1.1,0,1.4,0.5
	c6.5,13.6,16.3,34.2,16.3,34.2L833.9,424.7z"/>
<path class="st5" d="M688.6,539.1c36.9-47.9,113.3-30.2,130.1-27.8c108.9,15.4,84.7,104.9,80.8,116.4c-8.6,25.1-29.5,34.8-60.5,38.2
	v97.4c0,0-9.5-9.1-11.7-19.4c0,0-3.7-0.3-10.2-0.9c0,0,4.9,14.3,7.5,21.8c0.4,1,0.2,2.2-0.4,3.1c-0.6,0.9-1.5,1.4-2.6,1.4H698.1
	c6.7-13.2,20-13,20-13c-5.2-13.9-10.5-27.4-15.8-41.2c-33.9-14.5-63.7-36-72.8-67.7C625.9,635.1,623.8,580.9,688.6,539.1z"/>
<path class="st7" d="M706,724.8c12.3,6.7,33.6,12.8,47.8-12.6c0.3-0.5,0.8-0.9,1.4-1c0.6-0.1,1.2,0.1,1.6,0.5c0,0,8.8,8,19.7,12
	c6.3,2.3,13.2,3.2,19.5,0.2c4.2-2,8-5.8,11-12c0.5-1,1.7-1.4,2.7-0.9c1,0.6,1.3,1.8,0.8,2.9c-3.6,7.2-8.1,11.5-12.9,13.8
	c-7.2,3.5-15.2,2.6-22.4-0.1c-8.5-3.1-15.9-8.6-19.2-11.2c-14.2,23.4-34.3,20.1-47.8,14l-0.9-2.4c-0.3-0.8-0.7-1.7-1-2.6L706,724.8z
	"/>
<path class="st8" d="M795.2,666.8c0,0-33.8-0.2-52.3-0.2c-0.8,0-1.4,0.6-1.5,1.4c-0.1,0.8,0.4,1.6,1.1,1.8
	c19.5,5.5,56.8,15.9,56.8,15.9L795.2,666.8z"/>
<path class="st7" d="M841.5,665.6c-0.8,0.1-1.6,0.2-2.4,0.3v4.2c-14.8,1-28.5,1.2-42,1l24.3,72.4c-1.2-0.1-2.7-0.3-4.2-0.4l3.5,10.3
	c-0.2-0.2-0.4-0.5-0.5-0.8L792.8,671c-2.5,0-5-0.1-7.5-0.2c-1.1,0-2-1-1.9-2.2s1-2.1,2-2.1C803.3,667.2,821.3,667.1,841.5,665.6z
	 M698.5,528.5c-22.7,21.6-31.6,45.2-25.3,86.4c4.3,28,15.5,64,34.1,112.7c0.1,0.3,0.2,0.7,0.1,1c-1.7-4.5-3.5-8.9-5.2-13.4
	c-1.6-0.7-3.2-1.4-4.7-2.1c-15.2-41.1-24.5-72.5-28.3-97.5c-4.7-30.6-1.2-51.9,9.8-69.8c3-2.2,6.2-4.4,9.5-6.6
	C691.6,535.1,695,531.6,698.5,528.5z"/>
<g transform="matrix(1.0436,0,0,1.05132,-87.9969,-50.2575)">
	<ellipse class="st5" cx="838.2" cy="329.9" rx="29.2" ry="31.5"/>
</g>
<path class="st1" d="M764.1,276.7c5.4-7.1,13.5-11.6,22.6-11.6c16.1,0,29.2,14.1,29.2,31.5c0,3.5-0.5,7-1.5,10.1
	c-5.1-0.5-8.1-4.6-9.1-6.3c1.9-1,3.2-3.3,3.2-6c0-3.6-2.4-6.6-5.5-6.6c-3,0-5.5,3-5.5,6.6c0,0.9,0.1,1.7,0.4,2.4
	C779.5,299,767.7,282.6,764.1,276.7z M777.3,260.1c0.8,0.3,1.6,0,2-0.8c0.4-0.7,0.4-1.6-0.2-2.3c-0.2-0.2-0.3-0.4-0.5-0.6
	c-4.6-5.1-9.8-9.8-15.3-13.7c-17-12.1-37.2-21.2-57-26c-20.5-5-46.1-5.3-64.3,7.6c-11.9,8.4-20.8,26.4-10.6,40.3
	c3.7,5,9,8.5,14.5,10.8c22.2,9.5,45.3,3.5,66.4-6c12-5.4,23.9-12.6,37-14.8C757.5,253.3,770.2,257.3,777.3,260.1z"/>
<g id="GIRLS-CHAIR" transform="matrix(1,0,0,1,6.02348,2.73409)">
	<path class="st1" d="M883.8,664.3l55.5-160.4l11.8,4.6L863,767.4h-14.9l31-89.6h-88.3v-13.5L883.8,664.3L883.8,664.3z"/>
</g>
<g transform="matrix(0.843235,0,0.162401,0.964007,99.7904,26.5646)">
	<polygon class="st1" points="423.9,324.6 621.8,324.6 620.1,454.8 422.3,454.8 	"/>
</g>
<g transform="matrix(0.188267,0,0.0445801,0.264627,1212.9,786.955)">
	<polygon class="st1" points="-2978.7,-1240.4 -2780.9,-1240.4 -2782.9,-1110.3 -2980.8,-1110.3 	"/>
</g>
<polygon class="st2" points="521.8,349.1 667.7,349.1 684,452.8 538.1,452.8 "/>
<g transform="matrix(0.250622,0,0.059635,0.353992,1167,489.54)">
	<polygon class="st9" points="-2120.4,-371 -1922.5,-371 -1924.6,-240.8 -2122.4,-240.8 	"/>
</g>
<g transform="matrix(0.250622,0,0.059635,0.353992,1167,489.54)">
	<path class="st1" d="M-2115.6-367.3l-0.7,45c0,2-2.2,3.8-4.9,4.2c-2.7,0.3-4.8-1-4.8-3l0.8-49.2c0-1,0.7-2.1,1.8-2.9
		s2.5-1.3,3.9-1.3h197.8c2.3,0,4,1.3,4,3l-0.8,49.2c0,2-2.2,3.8-4.9,4.2c-2.7,0.3-4.8-1-4.8-3l0.7-46.2L-2115.6-367.3L-2115.6-367.3
		z"/>
</g>
<g transform="matrix(0.250622,0,0.059635,0.353992,1167,489.54)">
	<path class="st1" d="M-1929.3-244.4l1.2-76.7c0-2,2.2-3.8,4.9-4.2c2.7-0.3,4.8,1,4.8,3l-1.3,80.9c0,1.1-0.7,2.1-1.8,2.9
		s-2.5,1.3-3.9,1.3h-197.9c-2.3,0-4-1.3-4-3l1.3-80.9c0-2,2.2-3.8,4.9-4.2c2.7-0.3,4.8,1,4.8,3l-1.2,77.9L-1929.3-244.4
		L-1929.3-244.4L-1929.3-244.4z"/>
</g>
<path class="st1" d="M638.7,404.3h-2.4l-7.3-46.1h2.4L638.7,404.3z M656.3,404.3h-2.4l-7.3-46.1h2.4L656.3,404.3z"/>
<path class="st1" d="M668.6,393.7h-49.6l-0.4-2.6h49.6L668.6,393.7z M666.8,382.3h-49.6l-0.4-2.6h49.6L666.8,382.3z M664.9,370.1
	h-49.6l-0.4-2.6h49.6L664.9,370.1z"/>
<g transform="matrix(0.43426,0,0.0904681,0.537017,741.787,400.271)">
	<path class="st9" d="M-341.3,80.7h91.1l1.8-130.1h-65.8"/>
</g>
<g transform="matrix(0.43426,0,0.0904681,0.537017,741.787,400.271)">
	<path class="st1" d="M-251.2-47h-63.5c-1.5,0-2.5-1.1-2.3-2.4c0.3-1.3,1.7-2.4,3.2-2.4h65.8c1.3,0,2.3,0.8,2.3,2l-1.8,130.1
		c0,0.7-0.4,1.4-1,1.9c-0.6,0.5-1.5,0.8-2.3,0.8h-91.1c-1.5,0-2.5-1.1-2.3-2.4c0.3-1.3,1.7-2.4,3.2-2.4h87.9L-251.2-47z"/>
</g>
<g transform="matrix(0.43426,0,0.0904681,0.537017,741.787,400.271)">
	<path class="st9" d="M-314.2-49.4h-132L-448,80.7h106.7"/>
</g>
<g transform="matrix(0.43426,0,0.0904681,0.537017,741.787,400.271)">
	<path class="st1" d="M-445.2,78.4h104.4c1.5,0,2.5,1.1,2.3,2.4c-0.3,1.3-1.7,2.4-3.3,2.4h-106.7c-1.3,0-2.3-0.8-2.3-2L-449-49
		c0-0.7,0.4-1.4,1-1.9c0.6-0.5,1.5-0.8,2.3-0.8h132c1.5,0,2.5,1.1,2.3,2.4c-0.3,1.3-1.7,2.4-3.3,2.4h-128.8L-445.2,78.4z"/>
</g>
<g transform="matrix(0.43426,0,0.0108641,0.064489,796.463,724.822)">
	<polygon class="st1" points="-446.2,-5444 -248.4,-5444 -248.6,-5313.9 -446.4,-5313.9 	"/>
</g>
<path class="st1" d="M637.4,424h-85.9l-0.4-2.6H637L637.4,424z M633.8,401.5h-85.9l-0.4-2.6h85.9L633.8,401.5z"/>
<path class="st1" d="M576.6,443.6h-2.4l-11.1-69.9h2.4L576.6,443.6z M600,443.6h-2.4l-11.1-69.9h2.4L600,443.6z M623.1,443.6h-2.4
	l-11.1-69.9h2.4L623.1,443.6z"/>
<g>
	<g transform="matrix(39.1332,-3.06228,2.9801,38.083,1539.87,874.293)">
		<path d="M-22.2-13.9C-22.2-13.8-22.2-13.8-22.2-13.9C-22.2-13.8-22.2-13.8-22.2-13.9c-0.1,0.1-0.1,0.1-0.1,0.1c0,0,0,0-0.1,0
			c0,0,0,0,0,0c0,0,0,0,0,0c0,0,0,0,0,0c0,0,0,0,0,0s0,0,0,0c0,0,0,0,0,0s0,0,0,0c0,0,0,0,0,0S-22.3-13.8-22.2-13.9
			C-22.3-13.8-22.2-13.8-22.2-13.9C-22.2-13.8-22.2-13.9-22.2-13.9C-22.2-13.9-22.2-13.9-22.2-13.9C-22.2-13.9-22.2-13.9-22.2-13.9
			c-0.1,0-0.1,0-0.1,0c0,0,0,0,0,0c0,0,0,0,0,0c0,0,0,0,0,0c0,0,0,0,0,0s0,0,0,0c0,0,0,0,0,0c0,0,0,0,0,0c0,0,0,0,0,0s0,0,0,0
			c0,0,0,0,0,0c0,0,0,0,0,0c0,0,0,0,0,0s0,0,0,0s0,0,0,0s0,0,0,0c0,0,0,0,0,0s0,0,0,0s0,0,0,0s0,0,0,0l0,0c0,0,0,0,0,0
			S-22.3-14-22.2-13.9C-22.3-14-22.2-13.9-22.2-13.9C-22.2-13.9-22.2-13.9-22.2-13.9C-22.2-13.9-22.2-13.9-22.2-13.9
			C-22.2-13.9-22.2-13.9-22.2-13.9z"/>
	</g>
	<g transform="matrix(0.999849,-0.0173515,0.0173515,0.999849,-14.7933,25.9972)">
		<path class="st1" d="M632.6,390.8l1.5,13.3c0.1,0.7,0.7,1.2,1.3,1.1c0.7-0.1,1.1-0.7,1-1.4l-1.5-13.3c-0.1-0.7-0.7-1.2-1.3-1.1
			C633,389.4,632.5,390.1,632.6,390.8z"/>
	</g>
</g>
<path class="st1" d="M554.6,386.2l1.4,8.5c0.1,0.7,0.7,1.2,1.4,1c0.7-0.1,1.1-0.8,1-1.5l-1.4-8.5c-0.1-0.7-0.7-1.2-1.4-1
	C555,384.9,554.5,385.5,554.6,386.2z"/>
<g transform="matrix(1,0,0,1,18.943,101.882)">
	<path class="st1" d="M543.2,327.7l1.4,8.5c0.1,0.7,0.7,1.2,1.4,1c0.7-0.1,1.1-0.8,1-1.5l-1.4-8.5c-0.1-0.7-0.7-1.2-1.4-1
		S543.1,327,543.2,327.7z"/>
</g>
<g>
	<g transform="matrix(0.872154,-0.126564,0.123316,0.849772,92.3663,350.963)">
		<path class="st1" d="M540.6,147.7c0.4,0,0.7,0.4,1,0.9c0.4,0.8,0.7,2,0.7,3.3c0,1.3-0.3,2.4-0.7,3.3c-0.3,0.5-0.6,0.9-1,0.9
			c-0.7,0-1.4,0.7-1.4,1.5s0.6,1.5,1.3,1.5c1.1,0,2.1-0.6,2.9-1.7c0.9-1.3,1.6-3.3,1.6-5.5c0-2.3-0.6-4.3-1.5-5.5
			c-0.8-1.1-1.8-1.6-2.8-1.6c-0.7,0-1.4,0.7-1.4,1.5C539.3,147.1,539.8,147.7,540.6,147.7z"/>
	</g>
	<g transform="matrix(0.872154,-0.126564,0.123316,0.849772,92.3663,350.963)">
		<path class="st1" d="M540.5,156.1c-0.4,0-0.7-0.4-1-0.9c-0.4-0.8-0.7-2-0.7-3.3c0-1.3,0.3-2.4,0.7-3.3c0.3-0.5,0.6-0.9,1-0.9
			c0.7,0,1.4-0.7,1.4-1.5s-0.6-1.5-1.3-1.5c-1.1,0-2.1,0.6-2.9,1.7c-0.9,1.3-1.6,3.3-1.6,5.5s0.6,4.3,1.5,5.5
			c0.8,1.1,1.8,1.6,2.8,1.6c0.7,0,1.4-0.7,1.4-1.5C541.9,156.8,541.3,156.1,540.5,156.1z"/>
	</g>
</g>
<g>
	<g transform="matrix(0.872154,-0.126564,0.123316,0.849772,100.543,403.611)">
		<path class="st1" d="M540,112c0.4,0,0.7,0.4,1,0.9c0.4,0.8,0.7,2,0.7,3.3c0,1.3-0.3,2.4-0.7,3.3c-0.3,0.5-0.6,0.9-1,0.9
			c-0.8,0-1.4,0.7-1.4,1.5s0.6,1.5,1.3,1.5c1.1,0,2.1-0.6,2.9-1.7c0.9-1.3,1.6-3.3,1.6-5.5c0-2.3-0.6-4.3-1.5-5.5
			c-0.8-1.1-1.8-1.6-2.8-1.6c-0.8,0-1.4,0.7-1.4,1.5C538.6,111.4,539.2,112.1,540,112z"/>
	</g>
	<g transform="matrix(0.872154,-0.126564,0.123316,0.849772,100.543,403.611)">
		<path class="st1" d="M539.9,120.4c-0.4,0-0.7-0.4-1-0.9c-0.4-0.8-0.7-2-0.7-3.3c0-1.3,0.3-2.4,0.7-3.3c0.3-0.5,0.6-0.9,1-0.9
			c0.8,0,1.4-0.7,1.4-1.5s-0.6-1.5-1.3-1.5c-1.1,0-2.1,0.6-2.9,1.7c-0.9,1.3-1.6,3.3-1.6,5.5s0.6,4.3,1.5,5.5
			c0.8,1.1,1.8,1.6,2.8,1.6c0.8,0,1.4-0.7,1.4-1.5C541.3,121.1,540.7,120.4,539.9,120.4z"/>
	</g>
</g>
<g>
	<g transform="matrix(0.872154,-0.126564,0.123316,0.849772,158.987,403.58)">
		<path class="st1" d="M500.5,106.2c0.4,0,0.7,0.4,1,0.9c0.4,0.8,0.7,2,0.7,3.3s-0.3,2.4-0.7,3.3c-0.3,0.5-0.6,0.9-1,0.9
			c-0.8,0-1.4,0.7-1.4,1.5s0.6,1.5,1.3,1.5c1.1,0,2.1-0.6,2.9-1.7c0.9-1.3,1.6-3.3,1.6-5.5c0-2.3-0.6-4.3-1.5-5.5
			c-0.8-1.1-1.8-1.6-2.8-1.6c-0.8,0-1.4,0.7-1.4,1.5C499.1,105.5,499.7,106.2,500.5,106.2z"/>
	</g>
	<g transform="matrix(0.872154,-0.126564,0.123316,0.849772,158.987,403.58)">
		<path class="st1" d="M500.4,114.6c-0.4,0-0.7-0.4-1-0.9c-0.4-0.8-0.7-2-0.7-3.3c0-1.3,0.3-2.4,0.7-3.3c0.3-0.5,0.6-0.9,1-0.9
			c0.8,0,1.4-0.7,1.4-1.5s-0.6-1.5-1.3-1.5c-1.1,0-2.1,0.6-2.9,1.7c-0.9,1.3-1.6,3.3-1.6,5.5c0,2.3,0.6,4.3,1.5,5.5
			c0.8,1.1,1.8,1.6,2.8,1.6c0.8,0,1.4-0.7,1.4-1.5C501.7,115.2,501.1,114.6,500.4,114.6z"/>
	</g>
</g>
<g transform="matrix(0.783652,0.324094,-0.364731,0.799184,456.503,-337.805)">
	<polygon class="st1" points="369.6,575.7 429.4,577.1 431.5,654.4 371.7,653 	"/>
</g>
<g transform="matrix(0.647214,0.267668,-0.0474112,0.103886,493.968,77.1391)">
	<polygon class="st2" points="159.4,1256.6 219.2,1265.6 219.5,1342.9 159.7,1333.9 	"/>
</g>
<g>
	<g>
		<g transform="matrix(0.907626,0.392889,-0.37877,0.87501,318.062,-459.153)">
			<path class="st2" d="M493.5,606.8c1.8,0,3.3,1.6,3.4,3.5c0,1.9-1.4,3.4-3.2,3.3l0,1.3c2.5,0.1,4.4-2,4.4-4.6
				c-0.1-2.6-2.1-4.8-4.6-4.8L493.5,606.8z"/>
		</g>
		<g transform="matrix(0.907626,0.392889,-0.37877,0.87501,318.062,-459.153)">
			<path class="st2" d="M493.7,613.6c-1.8,0-3.3-1.6-3.4-3.5c0-1.9,1.4-3.4,3.2-3.3l0-1.3c-2.5-0.1-4.4,2-4.4,4.6
				c0.1,2.6,2.1,4.8,4.6,4.8L493.7,613.6z"/>
		</g>
	</g>
	<g>
		<g transform="matrix(0.907626,0.392889,-0.37877,0.87501,307.832,-435.519)">
			<path class="st2" d="M493.8,591.1c1.8,0,3.3,1.6,3.4,3.5c0,1.9-1.4,3.4-3.2,3.3l0,1.3c2.5,0.1,4.4-2,4.4-4.6
				c-0.1-2.6-2.1-4.8-4.6-4.8L493.8,591.1z"/>
		</g>
		<g transform="matrix(0.907626,0.392889,-0.37877,0.87501,307.832,-435.519)">
			<path class="st2" d="M493.9,597.9c-1.8,0-3.3-1.6-3.4-3.5c0-1.9,1.4-3.4,3.2-3.3l0-1.3c-2.5-0.1-4.4,2-4.4,4.6
				c0.1,2.6,2.1,4.8,4.6,4.8L493.9,597.9z"/>
		</g>
	</g>
	<g>
		<g transform="matrix(0.907626,0.392889,-0.37877,0.87501,297.602,-411.886)">
			<path class="st2" d="M494,575.5c1.8,0,3.3,1.6,3.4,3.5c0,1.9-1.4,3.4-3.2,3.3l0,1.3c2.5,0.1,4.4-2,4.4-4.6
				c-0.1-2.6-2.1-4.8-4.6-4.8L494,575.5z"/>
		</g>
		<g transform="matrix(0.907626,0.392889,-0.37877,0.87501,297.602,-411.886)">
			<path class="st2" d="M494.2,582.3c-1.8,0-3.3-1.6-3.4-3.5c0-1.9,1.4-3.4,3.2-3.3l0-1.3c-2.5-0.1-4.4,2-4.4,4.6
				c0.1,2.6,2.1,4.8,4.6,4.8L494.2,582.3z"/>
		</g>
	</g>
	<g>
		<g transform="matrix(0.907626,0.392889,-0.37877,0.87501,287.371,-388.252)">
			<path class="st2" d="M494.3,559.9c1.8,0,3.3,1.6,3.4,3.5c0,1.9-1.4,3.4-3.2,3.3l0,1.3c2.5,0.1,4.4-2,4.4-4.6
				c-0.1-2.6-2.1-4.8-4.6-4.8L494.3,559.9z"/>
		</g>
		<g transform="matrix(0.907626,0.392889,-0.37877,0.87501,287.371,-388.252)">
			<path class="st2" d="M494.5,566.7c-1.8,0-3.3-1.6-3.4-3.5c0-1.9,1.4-3.4,3.2-3.3l0-1.3c-2.5-0.1-4.4,2-4.4,4.6
				c0.1,2.6,2.1,4.8,4.6,4.8L494.5,566.7z"/>
		</g>
	</g>
	<g>
		<g transform="matrix(0.907626,0.392889,-0.37877,0.87501,341.967,-448.805)">
			<path class="st2" d="M477.8,607c1.8,0,3.3,1.6,3.4,3.5c0,1.9-1.4,3.4-3.2,3.3l0,1.3c2.5,0.1,4.4-2,4.4-4.6
				c-0.1-2.6-2.1-4.8-4.6-4.8L477.8,607z"/>
		</g>
		<g transform="matrix(0.907626,0.392889,-0.37877,0.87501,341.967,-448.805)">
			<path class="st2" d="M477.9,613.8c-1.8,0-3.3-1.6-3.4-3.5c0-1.9,1.4-3.4,3.2-3.3l0-1.3c-2.5-0.1-4.4,2-4.4,4.6
				c0.1,2.6,2.1,4.8,4.6,4.8L477.9,613.8z"/>
		</g>
	</g>
	<g>
		<g transform="matrix(0.907626,0.392889,-0.37877,0.87501,331.736,-425.172)">
			<path class="st2" d="M478,591.4c1.8,0,3.3,1.6,3.4,3.5c0,1.9-1.4,3.4-3.2,3.3l0,1.3c2.5,0.1,4.4-2,4.4-4.6
				c-0.1-2.6-2.1-4.8-4.6-4.8L478,591.4z"/>
		</g>
		<g transform="matrix(0.907626,0.392889,-0.37877,0.87501,331.736,-425.172)">
			<path class="st2" d="M478.2,598.2c-1.8,0-3.3-1.6-3.4-3.5c0-1.9,1.4-3.4,3.2-3.3l0-1.3c-2.5-0.1-4.4,2-4.4,4.6
				c0.1,2.6,2.1,4.8,4.6,4.8L478.2,598.2z"/>
		</g>
	</g>
	<g>
		<g transform="matrix(0.907626,0.392889,-0.37877,0.87501,321.506,-401.538)">
			<path class="st2" d="M478.3,575.8c1.8,0,3.3,1.6,3.4,3.5c0,1.9-1.4,3.4-3.2,3.3l0,1.3c2.5,0.1,4.4-2,4.4-4.6
				c-0.1-2.6-2.1-4.8-4.6-4.8L478.3,575.8z"/>
		</g>
		<g transform="matrix(0.907626,0.392889,-0.37877,0.87501,321.506,-401.538)">
			<path class="st2" d="M478.5,582.6c-1.8,0-3.3-1.6-3.4-3.5c0-1.9,1.4-3.4,3.2-3.3l0-1.3c-2.5-0.1-4.4,2-4.4,4.6
				c0.1,2.6,2.1,4.8,4.6,4.8L478.5,582.6z"/>
		</g>
	</g>
	<g>
		<g transform="matrix(0.907626,0.392889,-0.37877,0.87501,311.275,-377.905)">
			<path class="st2" d="M478.6,560.2c1.8,0,3.3,1.6,3.4,3.5c0,1.9-1.4,3.4-3.2,3.3l0,1.3c2.5,0.1,4.4-2,4.4-4.6
				c-0.1-2.6-2.1-4.8-4.6-4.8L478.6,560.2z"/>
		</g>
		<g transform="matrix(0.907626,0.392889,-0.37877,0.87501,311.275,-377.905)">
			<path class="st2" d="M478.7,566.9c-1.8,0-3.3-1.6-3.4-3.5c0-1.9,1.4-3.4,3.2-3.3l0-1.3c-2.5-0.1-4.4,2-4.4,4.6
				c0.1,2.6,2.1,4.8,4.6,4.8L478.7,566.9z"/>
		</g>
	</g>
	<g>
		<g transform="matrix(0.907626,0.392889,-0.37877,0.87501,365.871,-438.458)">
			<path class="st2" d="M462,607.3c1.8,0,3.3,1.6,3.4,3.5c0,1.9-1.4,3.4-3.2,3.3l0,1.3c2.5,0.1,4.4-2,4.4-4.6
				c-0.1-2.6-2.1-4.8-4.6-4.8L462,607.3z"/>
		</g>
		<g transform="matrix(0.907626,0.392889,-0.37877,0.87501,365.871,-438.458)">
			<path class="st2" d="M462.2,614.1c-1.8,0-3.3-1.6-3.4-3.5c0-1.9,1.4-3.4,3.2-3.3l0-1.3c-2.5-0.1-4.4,2-4.4,4.6
				c0.1,2.6,2.1,4.8,4.6,4.8L462.2,614.1z"/>
		</g>
	</g>
	<g>
		<g transform="matrix(0.907626,0.392889,-0.37877,0.87501,355.641,-414.824)">
			<path class="st2" d="M462.3,591.7c1.8,0,3.3,1.6,3.4,3.5c0,1.9-1.4,3.4-3.2,3.3l0,1.3c2.5,0.1,4.4-2,4.4-4.6
				c-0.1-2.6-2.1-4.8-4.6-4.8L462.3,591.7z"/>
		</g>
		<g transform="matrix(0.907626,0.392889,-0.37877,0.87501,355.641,-414.824)">
			<path class="st2" d="M462.4,598.5c-1.8,0-3.3-1.6-3.4-3.5c0-1.9,1.4-3.4,3.2-3.3l0-1.3c-2.5-0.1-4.4,2-4.4,4.6
				c0.1,2.6,2.1,4.8,4.6,4.8L462.4,598.5z"/>
		</g>
	</g>
	<g>
		<g transform="matrix(0.907626,0.392889,-0.37877,0.87501,345.41,-391.191)">
			<path class="st2" d="M462.5,576.1c1.8,0,3.3,1.6,3.4,3.5c0,1.9-1.4,3.4-3.2,3.3l0,1.3c2.5,0.1,4.4-2,4.4-4.6
				c-0.1-2.6-2.1-4.8-4.6-4.8L462.5,576.1z"/>
		</g>
		<g transform="matrix(0.907626,0.392889,-0.37877,0.87501,345.41,-391.191)">
			<path class="st2" d="M462.7,582.9c-1.8,0-3.3-1.6-3.4-3.5c0-1.9,1.4-3.4,3.2-3.3l0-1.3c-2.5-0.1-4.4,2-4.4,4.6
				c0.1,2.6,2.1,4.8,4.6,4.8L462.7,582.9z"/>
		</g>
	</g>
	<g>
		<g transform="matrix(0.907626,0.392889,-0.37877,0.87501,335.18,-367.557)">
			<path class="st2" d="M462.8,560.4c1.8,0,3.3,1.6,3.4,3.5c0,1.9-1.4,3.4-3.2,3.3l0,1.3c2.5,0.1,4.4-2,4.4-4.6
				c-0.1-2.6-2.1-4.8-4.6-4.8L462.8,560.4z"/>
		</g>
		<g transform="matrix(0.907626,0.392889,-0.37877,0.87501,335.18,-367.557)">
			<path class="st2" d="M463,567.2c-1.8,0-3.3-1.6-3.4-3.5c0-1.9,1.4-3.4,3.2-3.3l0-1.3c-2.5-0.1-4.4,2-4.4,4.6
				c0.1,2.6,2.1,4.8,4.6,4.8L463,567.2z"/>
		</g>
	</g>
	<g>
		<g transform="matrix(0.907626,0.392889,-0.37877,0.87501,389.775,-428.11)">
			<path class="st2" d="M446.3,607.6c1.8,0,3.3,1.6,3.4,3.5c0,1.9-1.4,3.4-3.2,3.3l0,1.3c2.5,0.1,4.4-2,4.4-4.6
				c-0.1-2.6-2.1-4.8-4.6-4.8L446.3,607.6z"/>
		</g>
		<g transform="matrix(0.907626,0.392889,-0.37877,0.87501,389.775,-428.11)">
			<path class="st2" d="M446.4,614.4c-1.8,0-3.3-1.6-3.4-3.5c0-1.9,1.4-3.4,3.2-3.3l0-1.3c-2.5-0.1-4.4,2-4.4,4.6
				c0.1,2.6,2.1,4.8,4.6,4.8L446.4,614.4z"/>
		</g>
	</g>
	<g>
		<g transform="matrix(0.907626,0.392889,-0.37877,0.87501,379.545,-404.476)">
			<path class="st2" d="M446.5,592c1.8,0,3.3,1.6,3.4,3.5c0,1.9-1.4,3.4-3.2,3.3l0,1.3c2.5,0.1,4.4-2,4.4-4.6
				c-0.1-2.6-2.1-4.8-4.6-4.8L446.5,592z"/>
		</g>
		<g transform="matrix(0.907626,0.392889,-0.37877,0.87501,379.545,-404.476)">
			<path class="st2" d="M446.7,598.8c-1.8,0-3.3-1.6-3.4-3.5c0-1.9,1.4-3.4,3.2-3.3l0-1.3c-2.5-0.1-4.4,2-4.4,4.6
				c0.1,2.6,2.1,4.8,4.6,4.8L446.7,598.8z"/>
		</g>
	</g>
	<g>
		<g transform="matrix(0.907626,0.392889,-0.37877,0.87501,369.314,-380.843)">
			<path class="st2" d="M446.8,576.3c1.8,0,3.3,1.6,3.4,3.5c0,1.9-1.4,3.4-3.2,3.3l0,1.3c2.5,0.1,4.4-2,4.4-4.6
				c-0.1-2.6-2.1-4.8-4.6-4.8L446.8,576.3z"/>
		</g>
		<g transform="matrix(0.907626,0.392889,-0.37877,0.87501,369.314,-380.843)">
			<path class="st2" d="M446.9,583.1c-1.8,0-3.3-1.6-3.4-3.5c0-1.9,1.4-3.4,3.2-3.3l0-1.3c-2.5-0.1-4.4,2-4.4,4.6
				c0.1,2.6,2.1,4.8,4.6,4.8L446.9,583.1z"/>
		</g>
	</g>
	<g>
		<g transform="matrix(0.907626,0.392889,-0.37877,0.87501,359.084,-357.209)">
			<path class="st2" d="M447.1,560.7c1.8,0,3.3,1.6,3.4,3.5c0,1.9-1.4,3.4-3.2,3.3l0,1.3c2.5,0.1,4.4-2,4.4-4.6
				c-0.1-2.6-2.1-4.8-4.6-4.8L447.1,560.7z"/>
		</g>
		<g transform="matrix(0.907626,0.392889,-0.37877,0.87501,359.084,-357.209)">
			<path class="st2" d="M447.2,567.5c-1.8,0-3.3-1.6-3.4-3.5c0-1.9,1.4-3.4,3.2-3.3l0-1.3c-2.5-0.1-4.4,2-4.4,4.6
				c0.1,2.6,2.1,4.8,4.6,4.8L447.2,567.5z"/>
		</g>
	</g>
</g>
<g id="DESK" transform="matrix(1,0,0,1,3.02579,6.52912)">
	<rect x="295.7" y="485.3" class="st1" width="532.9" height="16.1"/>
</g>
<g id="KEYBOARD" transform="matrix(1,0,0,1,-0.676235,-1.59399)">
	<path class="st2" d="M681,484.8h6.8v-3h10.6v3h7.2v-3h10.6v3h7.2v-3h10.6v3h2.3c1,0,2,0.4,2.8,1.2s1.1,1.9,1.1,3v4.2h-76.8
		c0,0,0-2.1,0-4.2c0-1.1,0.4-2.2,1.1-3c0.7-0.8,1.7-1.2,2.8-1.2h3.1v-3H681L681,484.8L681,484.8z"/>
</g>
<g id="NOTEPAD">
	<g transform="matrix(0.974413,0,0,1,22.0427,43.2776)">
		<rect x="310" y="438.2" class="st6" width="95.7" height="11.4"/>
	</g>
	<g>
		<path class="st1" d="M374.6,479.7v3.4h-48.4v7.3h48.4v3.4h-49.9c-0.9,0-1.6-0.8-1.6-1.7v-10.7c0-0.9,0.7-1.7,1.6-1.7L374.6,479.7
			L374.6,479.7z"/>
		<path class="st1" d="M374.6,479.7h44.2c0.9,0,1.6,0.8,1.6,1.7v10.7c0,0.9-0.7,1.7-1.6,1.7h-44.2c-1.5-1.7-0.9-2.6,0-3.4h42.6v-7.3
			h-42.6C374,481.8,373.9,480.6,374.6,479.7z"/>
		<path class="st1" d="M380.4,481.9l0.3,10.7c0,0.9,0.8,1.7,1.6,1.7s1.6-0.8,1.5-1.8l-0.3-10.7c0-0.9-0.8-1.7-1.6-1.6
			C381.1,480.1,380.4,480.9,380.4,481.9z M400.4,476.9v15c0,0.9,0.7,1.7,1.6,1.7s1.6-0.8,1.6-1.7v-15c0-0.9-0.7-1.7-1.6-1.7
			C401.1,475.2,400.4,476,400.4,476.9z M390.6,477.1V491c0,0.9,0.7,1.7,1.6,1.7s1.6-0.8,1.6-1.7v-13.8c0-0.9-0.7-1.7-1.6-1.7
			C391.3,475.4,390.6,476.2,390.6,477.1z M409.7,477v13.5c0,0.9,0.7,1.7,1.6,1.7s1.6-0.8,1.6-1.7V477c0-0.9-0.7-1.7-1.6-1.7
			S409.7,476.1,409.7,477z"/>
	</g>
</g>
<g id="JAR1" class="st10">
	<path class="st1" d="M440.5,400.6h-2.8c-1.6,0-2.8-1.4-2.8-3c0-1.7,1.3-3,2.8-3h70.6c1.6,0,2.8,1.4,2.8,3c0,1.7-1.3,3-2.8,3H507
		c1.4,0.5,2.7,1.4,3.8,2.6c1.9,2,3,4.8,3,7.7v80.7h-80.1c0,0,0-56.4,0-80.7c0-2.9,1.1-5.7,3-7.7C437.8,402,439.1,401.2,440.5,400.6z
		"/>
	<path class="st1" d="M507,400.6c1,0.4,2,0.9,2.8,1.6l-74.3,2.4c0.4-0.5,0.7-1,1.2-1.5c1.1-1.2,2.4-2,3.8-2.6L507,400.6L507,400.6z"
		/>
</g>
<g transform="matrix(0.910266,-0.275905,0.29456,0.971812,-183.502,326.179)">
	<polygon class="st11" points="593.9,268.3 622.4,267.8 621.4,316.9 592.9,317.4 	"/>
</g>
<g>
	<g transform="matrix(1,0,0,1,4.58908,-9.29654)">
		<path class="st12" d="M451.6,447.1c3,0,5.5,2.6,5.5,5.9s-2.5,5.9-5.5,5.9c-0.7,0-1.2,0.6-1.2,1.3s0.5,1.3,1.2,1.3
			c4.3,0,7.9-3.8,7.9-8.4s-3.5-8.4-7.9-8.4c-0.7,0-1.2,0.6-1.2,1.3S451,447.1,451.6,447.1z"/>
	</g>
	<g transform="matrix(1,0,0,1,4.58908,-9.29654)">
		<path class="st12" d="M451.6,458.8c-3,0-5.5-2.6-5.5-5.9s2.5-5.9,5.5-5.9c0.7,0,1.2-0.6,1.2-1.3s-0.5-1.3-1.2-1.3
			c-4.4,0-7.9,3.8-7.9,8.4s3.5,8.4,7.9,8.4c0.7,0,1.2-0.6,1.2-1.3C452.8,459.4,452.3,458.8,451.6,458.8z"/>
	</g>
	<path class="st12" d="M458.8,468.1l-2.1-6.8c-0.3-0.9,0.2-1.9,1-2.1c0.8-0.3,1.7,0.2,2,1.1l2.1,6.8L458.8,468.1z M463,466.7
		l-1.4-4.8c-0.3-0.9,0.2-1.9,1-2.1c0.8-0.3,1.7,0.2,2,1.1l1.4,4.8L463,466.7z M452.9,417.6l2.3,7.8c0.3,0.9-0.2,1.9-1,2.1
		c-0.8,0.3-1.7-0.2-2-1.1l-2.3-7.8L452.9,417.6z M448,419.2l1.9,5.9c0.3,0.9-0.2,1.9-1,2.2c-0.8,0.3-1.7-0.2-2-1.1l-1.9-6L448,419.2
		z"/>
</g>
<g transform="matrix(0.910266,-0.275905,0.29456,0.971812,-183.502,326.179)">
	<polygon class="st11" points="640.9,294.2 664.8,308.6 637.9,350.8 613.9,336.3 	"/>
</g>
<g>
	<g transform="matrix(1,0,0,1,4.58908,-9.29654)">
		<path class="st12" d="M491.8,468.4c2.6,1.7,3.4,5.3,1.8,8.1c-1.6,2.8-5,3.6-7.6,1.9c-0.6-0.4-1.3-0.2-1.6,0.4
			c-0.4,0.6-0.2,1.4,0.4,1.8c3.7,2.5,8.5,1.2,10.8-2.7c2.3-4,1.2-9.2-2.5-11.6c-0.6-0.4-1.3-0.2-1.6,0.4
			C491,467.2,491.2,468,491.8,468.4z"/>
	</g>
	<g transform="matrix(1,0,0,1,4.58908,-9.29654)">
		<path class="st12" d="M486,478.4c-2.6-1.7-3.4-5.3-1.8-8.1s5-3.6,7.6-1.9c0.6,0.4,1.3,0.2,1.6-0.4c0.4-0.6,0.2-1.4-0.4-1.8
			c-3.7-2.5-8.5-1.2-10.9,2.7c-2.3,4-1.2,9.2,2.5,11.6c0.6,0.4,1.3,0.2,1.6-0.4S486.5,478.7,486,478.4z"/>
	</g>
	<path class="st12" d="M483.6,486.3l1.6-6.9c0.2-0.9,1.1-1.5,1.9-1.3c0.9,0.2,1.4,1.1,1.2,2.1l-1.6,7L483.6,486.3z M487.9,487.5
		l1.2-4.9c0.2-0.9,1.1-1.5,1.9-1.2s1.4,1.2,1.1,2.1l-1.2,4.9L487.9,487.5z M503.5,440.1l-1.9,7.9c-0.2,0.9-1.1,1.5-1.9,1.2
		s-1.4-1.2-1.1-2.1l1.9-7.9L503.5,440.1z M498.5,438.7l-1.3,6.1c-0.2,0.9-1,1.5-1.9,1.3c-0.9-0.2-1.4-1.1-1.2-2l1.3-6.2L498.5,438.7
		z"/>
</g>
<g id="COINS">
	<g transform="matrix(0.152362,0,0,0.15348,988.073,820.014)">
		<g transform="matrix(1.00734,0,0,1,-121.537,12.8484)">
			<ellipse class="st13" cx="-3141.7" cy="-2619.8" rx="9.6" ry="10.3"/>
		</g>
		<g transform="matrix(6.99699,0,0,6.94602,-7035.01,-5737.77)">
			<path class="st14" d="M535.9,444.6c3.3,0,5.9,2.8,5.9,6.3s-2.7,6.3-5.9,6.3c-0.3,0-0.6,0.3-0.6,0.6s0.3,0.6,0.6,0.6
				c3.9,0,7-3.4,7-7.6s-3.2-7.6-7-7.6c-0.3,0-0.6,0.3-0.6,0.6C535.3,444.3,535.6,444.6,535.9,444.6z"/>
		</g>
		<g transform="matrix(6.99699,0,0,6.94602,-7035.01,-5737.77)">
			<path class="st14" d="M535.9,457.3c-3.3,0-5.9-2.8-5.9-6.3s2.7-6.3,5.9-6.3c0.3,0,0.6-0.3,0.6-0.6c0-0.3-0.3-0.6-0.6-0.6
				c-3.9,0-7.1,3.4-7.1,7.6c0,4.2,3.2,7.6,7.1,7.6c0.3,0,0.6-0.3,0.6-0.6S536.2,457.3,535.9,457.3z"/>
		</g>
		<g transform="matrix(6.5633,0,0,6.5155,-6485.02,-5342.8)">
			<path class="st14" d="M485.9,430.1l0.1-2.5c0-0.4,0.3-0.6,0.6-0.6s0.6,0.3,0.6,0.7l-0.1,2.5C486.7,430.2,486.3,430.2,485.9,430.1
				z M489.5,430l-0.6-2.5c-0.1-0.4,0.1-0.7,0.4-0.8s0.6,0.1,0.7,0.5l0.6,2.5C490.2,429.8,489.9,429.9,489.5,430z M479.3,425.6
				l1.8-1.5c0.3-0.2,0.6-0.2,0.9,0.1c0.2,0.3,0.2,0.7-0.1,0.9l-1.8,1.5C479.8,426.3,479.6,426,479.3,425.6z M478.1,422.8l2.3-1.3
				c0.3-0.2,0.7,0,0.8,0.3s0,0.7-0.3,0.9l-2.4,1.4C478.4,423.7,478.2,423.3,478.1,422.8z M496.9,421.4l-2.2-0.1
				c-0.3,0-0.6-0.3-0.6-0.7c0-0.4,0.3-0.6,0.6-0.6l2.2,0.1C497,420.6,496.9,421,496.9,421.4z M494.1,412.5c0.3,0.3,0.6,0.6,0.8,1
				l-1.8,2c-0.2,0.3-0.6,0.3-0.9,0c-0.2-0.3-0.3-0.7,0-0.9L494.1,412.5z M482.6,411l1.6,2.5c0.2,0.3,0.1,0.7-0.2,0.9
				c-0.3,0.2-0.7,0.1-0.8-0.2l-1.6-2.5C481.9,411.4,482.2,411.2,482.6,411z M488.2,409.6c0.4,0,0.8,0.1,1.2,0.2l-0.2,2.6
				c0,0.4-0.3,0.6-0.7,0.6c-0.3,0-0.6-0.4-0.5-0.7L488.2,409.6z"/>
		</g>
	</g>
	<g transform="matrix(-0.0172876,0.151378,-0.152489,-0.0174144,1240.29,729.908)">
		<g transform="matrix(1.00734,0,0,1,-121.537,12.8484)">
			<ellipse class="st13" cx="-1169.7" cy="5180" rx="9.6" ry="10.3"/>
		</g>
		<g transform="matrix(6.99699,0,0,6.94602,-7035.01,-5737.77)">
			<path class="st14" d="M819.8,1567.9c3.5,0,6.3,2.6,6.3,5.9c0,3.3-2.9,5.9-6.4,6c-0.3,0-0.6,0.3-0.6,0.6c0,0.3,0.3,0.6,0.6,0.6
				c4.2,0,7.6-3.2,7.6-7.1c0-3.9-3.3-7-7.5-7c-0.3,0-0.6,0.3-0.6,0.6C819.2,1567.6,819.5,1567.9,819.8,1567.9z"/>
		</g>
		<g transform="matrix(6.99699,0,0,6.94602,-7035.01,-5737.77)">
			<path class="st14" d="M819.7,1579.7c-3.5,0-6.3-2.6-6.3-5.9c0-3.3,2.9-5.9,6.4-6c0.3,0,0.6-0.3,0.6-0.6c0-0.3-0.3-0.6-0.6-0.6
				c-4.2,0-7.6,3.2-7.6,7.1c0,3.9,3.3,7,7.5,7c0.3,0,0.6-0.3,0.6-0.6C820.3,1580,820.1,1579.7,819.7,1579.7z"/>
		</g>
		<g transform="matrix(6.5633,0,0,6.5155,-6485.02,-5342.8)">
			<path class="st14" d="M788.4,1626.6l0.1-2.3c0-0.3,0.3-0.6,0.7-0.6s0.6,0.3,0.6,0.6l-0.1,2.4
				C789.3,1626.7,788.8,1626.6,788.4,1626.6z M792.2,1626.4l-0.6-2.3c-0.1-0.3,0.1-0.7,0.5-0.7s0.7,0.1,0.8,0.4l0.6,2.3
				C793,1626.2,792.6,1626.3,792.2,1626.4z M781.4,1622.4l2-1.4c0.3-0.2,0.7-0.2,0.9,0.1c0.2,0.3,0.2,0.7-0.1,0.8l-2,1.5
				C781.9,1623.1,781.7,1622.8,781.4,1622.4z M780.1,1619.8l2.4-1.3c0.3-0.2,0.7-0.1,0.9,0.2c0.2,0.3,0,0.7-0.3,0.8l-2.6,1.3
				C780.4,1620.6,780.2,1620.2,780.1,1619.8z M800.2,1618.4l-2.3-0.1c-0.4,0-0.6-0.3-0.6-0.6c0-0.3,0.3-0.6,0.7-0.6l2.4,0.1
				C800.3,1617.6,800.3,1618,800.2,1618.4z M797.3,1610.1c0.3,0.3,0.6,0.6,0.9,0.9l-1.9,1.8c-0.3,0.2-0.7,0.3-0.9,0s-0.3-0.6,0-0.8
				L797.3,1610.1z M785,1608.7l1.7,2.3c0.2,0.3,0.1,0.7-0.2,0.8c-0.3,0.2-0.7,0.1-0.9-0.2l-1.7-2.3
				C784.2,1609.1,784.6,1608.9,785,1608.7z M791,1607.4c0.4,0,0.9,0.1,1.3,0.2l-0.3,2.4c0,0.3-0.4,0.6-0.7,0.6
				c-0.4,0-0.6-0.3-0.6-0.7L791,1607.4z"/>
		</g>
	</g>
	<g transform="matrix(0.111656,0.103669,-0.10443,0.112475,990.357,833.943)">
		<g transform="matrix(1.00734,0,0,1,-121.537,12.8484)">
			
				<ellipse transform="matrix(-5.816565e-02 0.9983 -0.9983 -5.816565e-02 -3569.6118 4755.8472)" class="st13" cx="-4028.2" cy="694.1" rx="10.3" ry="9.6"/>
		</g>
		<g transform="matrix(6.99699,0,0,6.94602,-7035.01,-5737.77)">
			<path class="st14" d="M408,921.9c3.4,0.1,6.2,3,6.3,6.3c0.1,3.4-2.5,6-5.9,5.9c-0.3,0-0.6,0.3-0.6,0.6s0.3,0.6,0.6,0.6
				c4,0.1,7.2-3,7-7.1c-0.1-4-3.5-7.4-7.5-7.6c-0.3,0-0.6,0.3-0.6,0.6S407.7,921.9,408,921.9z"/>
		</g>
		<g transform="matrix(6.99699,0,0,6.94602,-7035.01,-5737.77)">
			<path class="st14" d="M408.5,934.2c-3.4-0.1-6.2-3-6.3-6.3c-0.1-3.4,2.5-6,5.9-5.9c0.3,0,0.6-0.3,0.6-0.6s-0.3-0.6-0.6-0.6
				c-4-0.1-7.2,3-7,7.1c0.1,4,3.5,7.4,7.5,7.6c0.3,0,0.6-0.3,0.6-0.6C409.1,934.4,408.8,934.2,408.5,934.2z"/>
		</g>
		<g transform="matrix(6.5633,0,0,6.5155,-6485.02,-5342.8)">
			<path class="st14" d="M350.1,938.4l0-2.4c0-0.3,0.3-0.6,0.6-0.6c0.4,0,0.6,0.3,0.6,0.7l0,2.5C351,938.5,350.6,938.4,350.1,938.4z
				 M353.8,938.4l-0.7-2.5c-0.1-0.3,0.1-0.7,0.4-0.7c0.3-0.1,0.7,0.1,0.8,0.5l0.7,2.4C354.6,938.2,354.2,938.3,353.8,938.4z
				 M343.2,933.8l1.8-1.4c0.3-0.2,0.7-0.2,0.9,0.1s0.2,0.7-0.1,0.9l-1.8,1.4C343.7,934.5,343.5,934.1,343.2,933.8z M341.9,931
				l2.3-1.2c0.3-0.2,0.7,0,0.9,0.3c0.2,0.3,0.1,0.7-0.2,0.8l-2.5,1.3C342.1,931.9,342,931.5,341.9,931z M361.2,930.3l-2.3-0.2
				c-0.4,0-0.6-0.3-0.6-0.7c0-0.3,0.3-0.6,0.6-0.6l2.3,0.2C361.2,929.5,361.2,929.9,361.2,930.3z M358,921.6c0.3,0.3,0.6,0.6,0.9,1
				l-1.8,1.8c-0.2,0.2-0.6,0.2-0.9,0c-0.3-0.3-0.3-0.7,0-0.9L358,921.6z M346,919.7l1.7,2.5c0.2,0.3,0.1,0.7-0.1,0.9
				s-0.7,0.1-0.9-0.2l-1.7-2.5C345.3,920.1,345.7,919.9,346,919.7z M351.8,918.6c0.4,0,0.8,0.1,1.2,0.2l-0.2,2.5
				c0,0.3-0.3,0.6-0.7,0.5s-0.6-0.4-0.6-0.7L351.8,918.6z"/>
		</g>
	</g>
	<g transform="matrix(0.149682,-0.0284542,0.028663,0.15078,1017.04,1003.81)">
		<g transform="matrix(1.00734,0,0,1,-121.537,12.8484)">
			
				<ellipse transform="matrix(-0.9998 -1.783307e-02 1.783307e-02 -0.9998 -5010.5181 -8017.6035)" class="st13" cx="-2541" cy="-3986.5" rx="9.3" ry="10.7"/>
		</g>
		<g transform="matrix(6.99699,0,0,6.94602,-7035.01,-5737.77)">
			<path class="st14" d="M622.4,247.8c3.3,0,5.9,2.8,5.8,6.3c0,3.5-2.7,6.4-6,6.4c-0.3,0-0.6,0.3-0.6,0.6c0,0.3,0.3,0.6,0.6,0.6
				c3.9,0,7.1-3.5,7.2-7.6c0-4.2-3.1-7.5-7-7.4c-0.3,0-0.6,0.3-0.6,0.6C621.9,247.5,622.1,247.8,622.4,247.8z"/>
		</g>
		<g transform="matrix(6.99699,0,0,6.94602,-7035.01,-5737.77)">
			<path class="st14" d="M622.3,260.5c-3.3,0-5.9-2.7-5.8-6.2c0-3.5,2.7-6.4,6-6.4c0.3,0,0.6-0.3,0.6-0.6c0-0.3-0.3-0.6-0.6-0.6
				c-3.9,0.1-7.1,3.5-7.2,7.6c0,4.2,3.1,7.5,7,7.4c0.3,0,0.6-0.3,0.6-0.6C622.8,260.7,622.6,260.5,622.3,260.5z"/>
		</g>
		<g transform="matrix(6.5633,0,0,6.5155,-6485.02,-5342.8)">
			<path class="st14" d="M578,220.3l0.1-2.5c0-0.4,0.3-0.6,0.6-0.6s0.6,0.3,0.6,0.7l-0.1,2.5C578.8,220.4,578.4,220.4,578,220.3z
				 M581.5,220.1l-0.6-2.5c-0.1-0.4,0.1-0.7,0.5-0.8c0.3-0.1,0.7,0.1,0.7,0.5l0.5,2.5C582.3,219.9,581.9,220,581.5,220.1z
				 M571.4,215.9l1.8-1.6c0.3-0.2,0.7-0.2,0.8,0.1s0.2,0.7-0.1,0.9l-1.9,1.6C571.9,216.6,571.7,216.3,571.4,215.9z M570.2,213.2
				l2.3-1.3c0.3-0.2,0.7-0.1,0.8,0.3s0,0.7-0.3,0.9l-2.4,1.4C570.5,214,570.4,213.6,570.2,213.2z M589.1,211.5l-2.2-0.1
				c-0.3,0-0.6-0.3-0.6-0.7s0.3-0.6,0.6-0.6l2.2,0.1C589.2,210.7,589.1,211.1,589.1,211.5z M586.4,202.7c0.3,0.3,0.5,0.6,0.8,0.9
				l-1.8,2c-0.2,0.3-0.6,0.3-0.8,0c-0.2-0.3-0.2-0.7,0-0.9L586.4,202.7z M574.8,201.3l1.5,2.5c0.2,0.3,0.1,0.7-0.2,0.9
				c-0.3,0.2-0.7,0.1-0.8-0.2l-1.5-2.5C574.1,201.7,574.5,201.5,574.8,201.3z M580.5,199.9c0.4,0,0.8,0.1,1.2,0.2l-0.3,2.6
				c0,0.4-0.3,0.6-0.7,0.6c-0.3,0-0.6-0.4-0.5-0.7L580.5,199.9z"/>
		</g>
	</g>
</g>
<path class="st15" d="M478,490.4l-46.6,87h-19.2c0,0-5.9,13.5,3,18.4h88c0.1,0,0.2,0,0.3,0c1.8,0.1,11.8-0.2,19.7-22.2
	c12.9-35.7,25.9-56.3,39.1-83.3L478,490.4L478,490.4L478,490.4z"/>
<g transform="matrix(0.93449,0.13298,-0.313392,0.955354,442.97,-95.9341)">
	
		<ellipse transform="matrix(-0.7195 0.6945 -0.6945 -0.7195 862.7139 949.6226)" class="st9" cx="239.6" cy="649.1" rx="20.2" ry="11.1"/>
</g>
<g transform="matrix(1.02716,0.0108992,-0.640974,1.16934,644.813,-194.141)">
	<polygon class="st16" points="205.1,586.7 275.7,586.8 275.9,591.9 205.3,591.9 	"/>
</g>
<g transform="matrix(1.03199,0.00927035,-0.639149,1.17041,624.093,-166.819)">
	<polygon class="st16" points="209.5,572.7 280,572.8 280.3,578 209.7,577.9 	"/>
</g>
<g transform="matrix(1.03531,0.026932,-0.65816,1.15904,625.602,-150.226)">
	<polygon class="st16" points="210.6,570.1 281.2,570.2 281.4,575.4 210.8,575.3 	"/>
</g>
<g transform="matrix(1.0299,0.0446274,-0.676583,1.14736,637.838,-133.605)">
	<polygon class="st16" points="203.2,567.8 273.9,568 274.1,573.2 203.4,573 	"/>
</g>
<g transform="matrix(0.549765,0.0277179,-0.562031,1.11902,1148.2,-51.3241)">
	<polygon class="st16" points="-642,545 -571.3,545.1 -571,550.2 -641.6,550.1 	"/>
</g>
<g transform="matrix(0.371267,0.0223134,-0.468608,1.12431,1275.26,-20.7622)">
	<polygon class="st16" points="-1421,538.9 -1350.4,539 -1350,544.1 -1420.6,544 	"/>
</g>
<g transform="matrix(0.492546,0.036704,-0.392064,1.1297,1016.41,-16.9977)">
	<polygon class="st16" points="-659.4,536.3 -588.7,536.4 -588.5,541.6 -659.1,541.5 	"/>
</g>
<path class="st1" d="M433.1,574.1H496c0.1,0,0.1,0,0.2,0c0.7,0.1,1.2,0.5,1.5,1.4c0.1,0.4,0.1,1.3,0,2.5c-0.6,4.3-3.1,15,7.1,17.7
	c-0.6,0.1-1.1,0.1-1.3,0c-0.1,0-0.2,0-0.3,0h-5.4c-0.4-0.3-0.7-0.7-1-1c-3.6-4.4-3.2-10.8-2.6-15.1c0.1-0.7,0.2-1.5,0.3-2.2
	l-63.1-0.2L433.1,574.1z"/>
<g transform="matrix(0.259277,0.187502,-0.187502,0.259277,898.122,890.161)">
	<g transform="matrix(187.083,-86.746,58.002,189.528,1142.68,441.752)">
		<path d="M-12.7-8.3C-12.7-8.3-12.7-8.3-12.7-8.3c0.1,0,0.1,0,0.1,0c0,0,0,0,0,0C-12.6-8.4-12.7-8.4-12.7-8.3
			C-12.7-8.4-12.7-8.4-12.7-8.3c0-0.1,0-0.1,0-0.1s0,0,0-0.1c0,0,0,0,0.1,0c0,0,0.1,0,0.1,0l0,0c0,0,0,0-0.1,0c0,0,0,0,0,0
			c0,0,0,0,0,0s0,0,0,0c0,0,0,0,0,0c0,0,0,0,0,0c0,0,0,0,0.1,0c0,0,0,0,0,0.1C-12.6-8.3-12.6-8.3-12.7-8.3
			C-12.7-8.3-12.7-8.3-12.7-8.3L-12.7-8.3z"/>
	</g>
	<g transform="matrix(1.058,-0.0924583,-0.0519775,1.11983,-39.8004,66.0465)">
		<path class="st1" d="M-1607.3-270.6l19.9,67.3l6.3-1.4l-20.1-67.9L-1607.3-270.6z"/>
	</g>
</g>
<g>
	<g>
		<path class="st17" d="M-216.2,727.6c2.1,0,2.1-3.2,0-3.2S-218.3,727.6-216.2,727.6L-216.2,727.6z"/>
	</g>
</g>
<line class="st18" x1="926.2" y1="772.2" x2="-67.6" y2="767.7"/>
</svg>
