<?xml version="1.0" encoding="utf-8"?>
<!-- Generator: Adobe Illustrator 23.1.0, SVG Export Plug-In . SVG Version: 6.00 Build 0)  -->
<svg version="1.1" id="Layer_1" xmlns="http://www.w3.org/2000/svg" xmlns:xlink="http://www.w3.org/1999/xlink" x="0px" y="0px"
	 viewBox="0 0 1200 1000" style="enable-background:new 0 0 1200 1000;" xml:space="preserve">
<style type="text/css">
	.st0{fill:#D6CFBC;}
	.st1{fill-rule:evenodd;clip-rule:evenodd;fill:#D8B6A4;}
	.st2{fill-rule:evenodd;clip-rule:evenodd;fill:#B7837B;}
	.st3{fill-rule:evenodd;clip-rule:evenodd;fill:#C18F85;}
	.st4{fill-rule:evenodd;clip-rule:evenodd;fill:#FFCF84;}
	.st5{fill-rule:evenodd;clip-rule:evenodd;fill:#FD9909;}
	.st6{fill:#FD9909;}
	.st7{fill-rule:evenodd;clip-rule:evenodd;fill:#FFFFFF;}
	.st8{fill-rule:evenodd;clip-rule:evenodd;}
	.st9{fill-rule:evenodd;clip-rule:evenodd;fill:#EEEBDD;}
	.st10{fill-rule:evenodd;clip-rule:evenodd;fill:#630000;}
	.st11{fill-rule:evenodd;clip-rule:evenodd;fill:#440101;}
	.st12{fill-rule:evenodd;clip-rule:evenodd;fill:#1C0101;}
	.st13{fill-rule:evenodd;clip-rule:evenodd;fill:#DBD4C1;}
	.st14{fill-rule:evenodd;clip-rule:evenodd;fill:#B7A991;}
	.st15{fill-rule:evenodd;clip-rule:evenodd;fill:#CEC6B2;}
	.st16{fill:none;stroke:#000000;stroke-width:3;stroke-miterlimit:10;}
</style>
<g>
	<path class="st0" d="M601.1,129.6c-34.6-9.8-73.8-4.3-103.8,14.6c-13,8.2-24.3,18.7-37.9,26.1c-28.4,15.6-63,15.8-95.7,18.9
		s-68.3,11.3-87.4,36.5c-15.8,20.8-17,49.3-33.8,69.4c-14.2,17-37.5,25.4-52.5,41.7c-33.1,35.8-14.7,91.6-27.9,137.4
		c-8,28-27.7,51.5-42.1,77.1c-31.5,56.4-36.1,126.2-8.8,184.5s87,102.9,154.2,111.5c59.5,7.6,121.1-11.8,179.4,1.6
		c31.7,7.3,60.1,23.7,90.8,33.9c35,11.6,72.5,14.9,109.6,16.4c68.2,2.7,137.5-0.5,202.8-19.1s126.8-53.8,166.6-105.9
		c39.9-52.1,55.7-122.1,32.8-182.5c-11.1-29.3-30.4-55.2-42.5-84.1c-20.3-48.5-18.7-104.7,4.3-152.1c5.3-11,11.8-21.7,14.6-33.5
		c4.7-20.3-2.2-41.4-10.3-60.7c-17.1-40.5-40.5-79.4-74-109.6c-50.2-45.3-120.3-68-189.8-71S611.1,93.2,546,116.2
		c-57,20.2-115.2,49.4-143.4,100.2"/>
</g>
<path class="st1" d="M226.5,761.4l-0.6-25.2h21.3v-24h717.5v24h17v25.3h13v25.3H205.1v-25.3L226.5,761.4L226.5,761.4L226.5,761.4z
	 M282.5,331.5h-35.3l363-174.1l363,174.1h-39.9v380.7H282.5V331.5z"/>
<path class="st2" d="M981.7,761.4H226.5l-0.2-7h755.4V761.4z M964.7,736H247.2v-7h717.5V736z M933.4,712.1H282.5v-7h650.9V712.1
	L933.4,712.1z M933.4,339.1l-650.9,1v-7.3l650.9-1V339.1z"/>
<path class="st3" d="M933.4,337.2l-97.1,14v355.6H745V344.5c-17,2.1-58.8,7.3-97.9,12.5v349.8h-91.3V339.6l-97.9,11.6v355.6h-91.3
	V341l-84,10.3v-15.4c0,0,61.8,1.9,84,3.3v-2h91.3V336h107.8l-3.3,1.2H647v2.2l97.9-2v-0.2h91.3V336l97.1,1.2L933.4,337.2
	L933.4,337.2z"/>
<g>
	<g transform="matrix(1,0,0,1,-111.727,12.8484)">
		<circle class="st4" cx="722" cy="236.5" r="57.8"/>
	</g>
	<g transform="matrix(0.811681,0,0,0.811681,169.781,83.0003)">
		<path class="st5" d="M542.7,149.5c30.6,0,55.5,24.9,55.5,55.5s-24.9,55.5-55.5,55.5c-1.2,0-2.3,1-2.3,2.3s1,2.3,2.3,2.3
			c33.1,0,60-26.9,60-60s-26.9-60-60-60c-1.2,0-2.3,1-2.3,2.3S541.4,149.5,542.7,149.5z"/>
	</g>
	<g transform="matrix(0.811681,0,0,0.811681,169.781,83.0003)">
		<path class="st5" d="M542.7,260.5c-30.6,0-55.5-24.9-55.5-55.5s24.9-55.5,55.5-55.5c1.2,0,2.3-1,2.3-2.3s-1-2.3-2.3-2.3
			c-33.1,0-60,26.9-60,60s26.9,60,60,60c1.2,0,2.3-1,2.3-2.3S543.9,260.5,542.7,260.5z"/>
	</g>
	<path class="st5" d="M617.2,306.7l-1.2-9.5c-0.1-1,0.6-1.9,1.6-2s1.9,0.6,2,1.6l1.2,9.4C619.6,306.4,618.4,306.6,617.2,306.7z
		 M628,304.4l-3.3-9.7c-0.3-1,0.2-2,1.2-2.3s2,0.2,2.3,1.1l3.3,9.6C630.3,303.6,629.2,304,628,304.4z M578.4,297.6l5.1-8.4
		c0.5-0.9,1.7-1.1,2.5-0.6s1.1,1.6,0.6,2.5l-5.1,8.4C580.5,298.9,579.4,298.3,578.4,297.6z M657.8,282.2l-8.4-6.2
		c-0.8-0.6-1-1.8-0.4-2.6s1.8-1,2.6-0.4l8.2,6.1C659.1,280.2,658.5,281.2,657.8,282.2z M555.3,267.4l9.9-4.5c0.9-0.4,2,0,2.4,0.9
		s0,2-0.9,2.4l-10.1,4.6C556.1,269.7,555.7,268.6,555.3,267.4z M666.3,235.4c0.3,1.2,0.5,2.4,0.8,3.6l-9.7,2.3c-1,0.2-2-0.4-2.2-1.4
		s0.4-2,1.4-2.2L666.3,235.4z M562.5,216.9l8.7,5.7c0.8,0.6,1.1,1.7,0.5,2.5c-0.5,0.9-1.7,1.1-2.5,0.5l-8.7-5.7
		C561.2,218.9,561.8,217.9,562.5,216.9z M568.2,209.8l7.1,5.2c0.8,0.6,1,1.8,0.4,2.6s-1.8,1-2.6,0.4l-7.3-5.4
		C566.5,211.6,567.3,210.7,568.2,209.8z M643.6,202.3c1,0.7,2,1.4,2.9,2.2l-6.3,8c-0.6,0.8-1.8,0.9-2.6,0.3s-0.9-1.8-0.3-2.6
		L643.6,202.3z M633.8,196.6c1.1,0.5,2.2,1,3.3,1.6l-4.5,8.4c-0.5,0.9-1.6,1.2-2.5,0.8c-0.9-0.5-1.2-1.6-0.8-2.5L633.8,196.6z
		 M597.3,193.1l2.6,9.2c0.3,1-0.3,2-1.3,2.3s-2-0.3-2.3-1.3l-2.6-9.2C594.9,193.7,596.1,193.4,597.3,193.1z"/>
</g>
<g transform="matrix(1.11006,0.41898,-0.41898,1.11006,226.696,-499.195)">
	<g transform="matrix(168.886,-75.1162,75.4425,169.619,1155.79,433.379)">
		<path class="st6" d="M-3.3-1.1C-3.3-1.1-3.2-1.1-3.3-1.1C-3.2-1.1-3.2-1.1-3.3-1.1C-3.2-1.1-3.2-1.1-3.3-1.1
			C-3.2-1.1-3.2-1.1-3.3-1.1C-3.2-1.1-3.3-1.2-3.3-1.1c0-0.1,0-0.1,0-0.1l0,0c0,0,0,0,0.1,0h0.1l0,0c0,0,0,0-0.1,0l0,0l0,0l0,0
			C-3.2-1.2-3.2-1.2-3.3-1.1C-3.2-1.2-3.2-1.2-3.3-1.1c0.1-0.1,0.1-0.1,0.1-0.1l0,0C-3.1-1.1-3.2-1-3.3-1.1C-3.3-1-3.3-1-3.3-1.1
			L-3.3-1.1z"/>
	</g>
	<g transform="matrix(0.997551,-0.0699429,0.0699429,0.997551,-14.0824,86.2329)">
		<path class="st5" d="M498.9,397.9l15.8,58.7l3.5-1L502.4,397L498.9,397.9z"/>
	</g>
	<g transform="matrix(0.997551,-0.0699429,0.0699429,0.997551,2.44825,80.5396)">
		<path class="st5" d="M488.2,400.8l15.8,58.7l3.5-1l-15.8-58.7L488.2,400.8z"/>
	</g>
</g>
<g>
	<g transform="matrix(0.80681,0.590811,-0.590811,0.80681,745.123,-436.422)">
		<g transform="matrix(1,0,0,1,170.194,146.13)">
			<path class="st7" d="M110.5,842l52.4,49.6l-43,47.6L67,888.6L110.5,842z"/>
		</g>
		<g transform="matrix(1,0,0,1,170.194,146.13)">
			<path class="st8" d="M69.7,888.5l28.2,27c0.7,0.7,0.8,1.9,0.1,2.6c-0.7,0.7-1.9,0.8-2.6,0.1l-29.5-28.3c-0.7-0.7-0.8-1.8-0.1-2.6
				l43.4-46.6c0.3-0.4,0.8-0.6,1.3-0.6s1,0.2,1.3,0.5l25.8,24.3c0.7,0.7,0.8,1.9,0.1,2.6c-0.7,0.7-1.9,0.8-2.6,0.1l-24.4-23.1
				L69.7,888.5z"/>
		</g>
		<g transform="matrix(1,0,0,1,170.194,146.13)">
			<path class="st8" d="M160.4,891.6l-25.4-24c-0.7-0.7-0.8-1.8-0.1-2.6c0.7-0.7,1.9-0.8,2.6-0.1l26.7,25.2c0.7,0.7,0.8,1.8,0.1,2.5
				l-43,47.6c-0.3,0.4-0.8,0.6-1.3,0.6s-1-0.2-1.3-0.5L95.3,918c-0.7-0.7-0.8-1.9-0.1-2.6c0.7-0.7,1.9-0.8,2.6-0.1l22,21
				L160.4,891.6z"/>
		</g>
		<path class="st8" d="M324.7,1038l-3.4-3.2l-35.1,37.5l3.4,3.2L324.7,1038z M316.9,1030.7l-3.4-3.2l-35.1,37.5l3.4,3.2
			L316.9,1030.7z M309.1,1023.3l-3.4-3.2l-35.1,37.5l3.4,3.2L309.1,1023.3z M301.3,1015.9l-3.4-3.2l-35.1,37.5l3.4,3.2L301.3,1015.9
			z M293.5,1008.6l-3.4-3.2l-35.1,37.5l3.4,3.2L293.5,1008.6z M285.7,1001.2l-3.4-3.2l-35.1,37.5l3.4,3.2L285.7,1001.2z"/>
	</g>
	<g transform="matrix(0.977511,0.210883,-0.210883,0.977511,136.075,-309.167)">
		<g transform="matrix(1,0,0,1,170.194,146.13)">
			<path class="st7" d="M260.2,610.7l52.4,49.6l-43,47.6l-52.9-50.6L260.2,610.7z"/>
		</g>
		<g transform="matrix(1,0,0,1,170.194,146.13)">
			<path class="st8" d="M310.6,660.3l-18.9-17.8c-0.6-0.5-0.6-1.5-0.1-2.1c0.6-0.6,1.5-0.6,2.1-0.1l19.9,18.8c0.6,0.5,0.6,1.5,0.1,2
				l-43,47.6c-0.3,0.3-0.6,0.5-1,0.5s-0.8-0.1-1.1-0.4l-22.4-21.4c-0.6-0.6-0.6-1.5-0.1-2.1c0.6-0.6,1.5-0.6,2.1,0l21.3,20.4
				L310.6,660.3z"/>
		</g>
		<g transform="matrix(1,0,0,1,170.194,146.13)">
			<path class="st8" d="M218.8,657.2l29.4,28.2c0.6,0.6,0.6,1.5,0.1,2.1c-0.6,0.6-1.5,0.6-2.1,0l-30.5-29.2
				c-0.6-0.5-0.6-1.5-0.1-2.1l43.4-46.6c0.3-0.3,0.6-0.5,1-0.5s0.8,0.1,1,0.4l32.5,30.8c0.6,0.6,0.6,1.5,0.1,2.1
				c-0.6,0.6-1.5,0.6-2.1,0L260,612.7L218.8,657.2z"/>
		</g>
		<path class="st8" d="M474.3,806.7l-3.4-3.2L435.8,841l3.4,3.2L474.3,806.7z M466.5,799.4l-3.4-3.2L428,833.7l3.4,3.2L466.5,799.4z
			 M458.8,792l-3.4-3.2l-35.1,37.5l3.4,3.2L458.8,792z M451,784.6l-3.4-3.2l-35.1,37.5l3.4,3.2L451,784.6z M443.2,777.3l-3.4-3.2
			l-35.1,37.5l3.4,3.2L443.2,777.3z M435.4,769.9l-3.4-3.2l-35.1,37.5l3.4,3.2L435.4,769.9z"/>
	</g>
</g>
<g id="COINS">
	<g transform="matrix(0.837793,0,0,0.860247,-536.927,1371.61)">
		<g transform="matrix(1,0,0,1,-111.727,12.8484)">
			<ellipse class="st4" cx="1155" cy="-749" rx="48.6" ry="49.5"/>
		</g>
		<g transform="matrix(0.811681,0,0,0.811681,169.781,83.0003)">
			<path class="st5" d="M1076.2-1064.7c30.6,0,55.5,24.9,55.5,55.5s-24.9,55.5-55.5,55.5c-1.2,0-2.3,1-2.3,2.3s1,2.3,2.3,2.3
				c33.1,0,60-26.9,60-60s-26.9-60-60-60c-1.2,0-2.3,1-2.3,2.3S1074.9-1064.7,1076.2-1064.7z"/>
		</g>
		<g transform="matrix(0.811681,0,0,0.811681,169.781,83.0003)">
			<path class="st5" d="M1076.2-953.6c-30.6,0-55.5-24.9-55.5-55.5s24.9-55.5,55.5-55.5c1.2,0,2.3-1,2.3-2.3s-1-2.3-2.3-2.3
				c-33.1,0-60,26.9-60,60s26.9,60,60,60c1.2,0,2.3-1,2.3-2.3S1077.4-953.6,1076.2-953.6z"/>
		</g>
		<path class="st5" d="M1050.2-678.8l-1.2-9.5c-0.1-1,0.6-1.9,1.6-2s1.9,0.6,2,1.6l1.2,9.4C1052.7-679.1,1051.4-678.9,1050.2-678.8z
			 M1061-681.1l-3.3-9.7c-0.3-1,0.2-2,1.2-2.3s2,0.2,2.3,1.2l3.3,9.6C1063.3-681.9,1062.2-681.5,1061-681.1z M1011.4-687.9l5.1-8.4
			c0.5-0.9,1.7-1.1,2.5-0.6s1.1,1.7,0.6,2.5l-5.1,8.4C1013.5-686.6,1012.4-687.2,1011.4-687.9z M1090.8-703.3l-8.4-6.2
			c-0.8-0.6-1-1.8-0.4-2.6s1.8-1,2.6-0.4l8.2,6.1C1092.2-705.3,1091.5-704.3,1090.8-703.3z M988.4-718.1l9.9-4.5
			c0.9-0.4,2,0,2.4,0.9s0,2-0.9,2.4l-10.1,4.6C989.2-715.8,988.8-716.9,988.4-718.1z M1099.3-750.1c0.3,1.2,0.6,2.4,0.8,3.6
			l-9.7,2.3c-1,0.2-2-0.4-2.2-1.4s0.4-2,1.4-2.2L1099.3-750.1z M995.5-768.6l8.7,5.7c0.8,0.5,1.1,1.7,0.5,2.5
			c-0.5,0.8-1.7,1.1-2.5,0.5l-8.7-5.7C994.2-766.6,994.8-767.6,995.5-768.6z M1001.2-775.7l7.1,5.2c0.8,0.6,1,1.8,0.4,2.6
			s-1.8,1-2.6,0.4l-7.3-5.4C999.6-773.9,1000.4-774.8,1001.2-775.7z M1076.7-783.2c1,0.7,2,1.4,2.9,2.2l-6.3,8
			c-0.6,0.8-1.8,0.9-2.6,0.3s-0.9-1.8-0.3-2.6L1076.7-783.2z M1066.9-788.8c1.1,0.5,2.2,1,3.3,1.6l-4.5,8.4
			c-0.5,0.9-1.6,1.2-2.5,0.8c-0.9-0.5-1.2-1.6-0.8-2.5L1066.9-788.8z M1030.3-792.4l2.6,9.2c0.3,1-0.3,2-1.3,2.3s-2-0.3-2.3-1.3
			l-2.6-9.2C1027.9-791.8,1029.1-792.1,1030.3-792.4z"/>
	</g>
	<g transform="matrix(0.210527,0.805986,-0.815723,0.21307,1233.47,514.535)">
		<g transform="matrix(1,0,0,1,-111.727,12.8484)">
			
				<ellipse transform="matrix(0.1745 0.9847 -0.9847 0.1745 962.882 524.5928)" class="st4" cx="168.6" cy="836.5" rx="48.9" ry="47.9"/>
		</g>
		<g transform="matrix(0.811681,0,0,0.811681,169.781,83.0003)">
			<path class="st5" d="M-139,888.8c30.6,0,55.5,24.9,55.5,55.5s-24.9,55.5-55.5,55.5c-1.2,0-2.3,1-2.3,2.3s1,2.3,2.3,2.3
				c33.1,0,60-26.9,60-60s-26.9-60-60-60c-1.2,0-2.3,1-2.3,2.3S-140.3,888.8-139,888.8z"/>
		</g>
		<g transform="matrix(0.811681,0,0,0.811681,169.781,83.0003)">
			<path class="st5" d="M-139,999.8c-30.6,0-55.5-24.9-55.5-55.5s24.9-55.5,55.5-55.5c1.2,0,2.3-1,2.3-2.3s-1-2.3-2.3-2.3
				c-33.1,0-60,26.9-60,60s26.9,60,60,60c1.2,0,2.3-1,2.3-2.3S-137.8,999.8-139,999.8z"/>
		</g>
		<path class="st5" d="M63.9,906.8l-1.2-9.5c-0.1-1,0.6-1.9,1.6-2c1-0.1,1.9,0.6,2,1.6l1.2,9.4C66.3,906.5,65.1,906.7,63.9,906.8z
			 M74.7,904.5l-3.3-9.7c-0.3-1,0.2-2,1.2-2.3s2,0.2,2.3,1.2l3.3,9.6C77,903.7,75.9,904.1,74.7,904.5z M25.1,897.7l5.1-8.4
			c0.5-0.9,1.6-1.1,2.5-0.6c0.9,0.5,1.1,1.7,0.6,2.5l-5.1,8.4C27.1,899,26.1,898.3,25.1,897.7z M104.5,882.3l-8.4-6.2
			c-0.8-0.6-1-1.8-0.4-2.6s1.8-1,2.6-0.4l8.2,6.1C105.8,880.3,105.2,881.3,104.5,882.3z M2,867.5l9.9-4.5c0.9-0.4,2,0,2.4,0.9
			s0,2-0.9,2.4l-10.1,4.6C2.8,869.8,2.4,868.7,2,867.5z M113,835.5c0.3,1.2,0.6,2.4,0.8,3.6l-9.7,2.3c-1,0.2-2-0.4-2.2-1.4
			s0.4-2,1.4-2.2L113,835.5z M9.2,817l8.7,5.7c0.9,0.5,1.1,1.7,0.5,2.5c-0.5,0.8-1.7,1.1-2.5,0.5L7.2,820C7.9,819,8.5,818,9.2,817z
			 M14.9,809.9l7.1,5.2c0.8,0.6,1,1.8,0.4,2.6s-1.8,1-2.6,0.4l-7.3-5.4C13.2,811.7,14,810.8,14.9,809.9z M90.3,802.3
			c1,0.7,2,1.4,2.9,2.2l-6.3,8c-0.6,0.8-1.8,0.9-2.6,0.3s-0.9-1.8-0.3-2.6L90.3,802.3z M80.5,796.7c1.1,0.5,2.2,1,3.3,1.6l-4.5,8.4
			c-0.5,0.9-1.6,1.2-2.5,0.8c-0.9-0.5-1.2-1.6-0.8-2.5L80.5,796.7z M44,793.2l2.6,9.2c0.3,1-0.3,2-1.3,2.3s-2-0.3-2.3-1.3l-2.6-9.2
			C41.6,793.8,42.8,793.5,44,793.2z"/>
	</g>
</g>
<path class="st8" d="M442.6,378.2c-0.1-0.2-5.1,0-5.5,0c-5.8-0.4-11.7-0.9-17.5-1.6c-19.3-2.2-42.3-3.7-58.2-16
	c-18.1-14-2.9-34.5,17-30.8c24.5,4.7,43,28.9,64,41"/>
<g transform="matrix(0.974553,0,0,0.974553,15.3474,3.94254)">
	<circle class="st9" cx="458.9" cy="384" r="24.3"/>
</g>
<path class="st8" d="M452.2,387.3l-7.8,6.2c-3.5-4.1-5.6-9.5-5.6-15.4c0-13.1,10.6-23.8,23.8-23.8c12.1,0,22.2,9.1,23.6,20.9
	c-4-0.5-7.3-2.9-9.9-7.3c-0.2,8.9-8,12.3-17.4,14c-0.4-2.3-2.4-4-4.8-4c-2.7,0-4.9,2.1-4.9,4.8C449.1,384.9,450.4,386.6,452.2,387.3
	z"/>
<path class="st10" d="M608.8,511.1c0,0,101.7-107.3,163.9-103c10,0.7,38.4,4.5,65.8,24.6c19.8,14.4,36.7,31.1,53.2,48
	c8,8.3,11.6,20,9.6,31.3c-2,11.4-9.3,21.1-19.7,26.2c-14.9,7.4-34.2,14.4-57.8,18.3c0,0,4.2,7.6,6.8,12.3c1.4,2.5,1.3,5.5,0,7.9
	c-2.2,3.7-6.2,9.2-13.2,14.8c0,0-0.4,2.6-0.8,5.1c-0.2,1.2-0.8,2.2-1.8,2.9s-2.1,1-3.3,0.8l0,0c-1.8-0.3-3.1-1.8-3.3-3.5
	c-0.1-1.1,0-2.2,0.2-3.2c0,0,4.5-31.2-20.1-56.9c0,0-6.8-10.6,3.6-17.4l38.7-23.3l-24.2-20.3c0,0-5.2,25.5-34.6,31
	c-12.7,2.4-36.6,3.2-51.4-19.4c0,0-76.8,61.1-97,85.2c0,0-3.1,2.9-5.8,1c-1.5-1.1-3.5-3.3-1.3-6.7c0,0-3.6,3.3-6.8,1.1
	c-2.1-1.5-3.8-4.3-1.6-7.7c0,0-3.7,3.4-7,1c-2.3-1.6-2.8-4.5-1.7-7.7c0,0-3.9,3.9-7.2,1.6c-2.3-1.6-3.5-4.8-1.9-7.2l14.8-21.2
	L608.8,511.1z"/>
<path class="st11" d="M816.4,597.8c0-0.1,0-0.3,0-0.4c3.7-18.6,0.4-38.3,0.4-38.3c-0.1-0.8,0.4-1.5,1.2-1.7c0.8-0.1,1.5,0.4,1.7,1.2
	c0,0,0.8,5.1,1.2,12.6l5,1.4c0.8,0.2,1.2,1,1,1.8s-1,1.2-1.8,1l-4.1-1.2c0.1,4.4,0,9.4-0.4,14.6c-1,0.9-2,1.7-3.1,2.6
	c0,0-0.4,2.6-0.8,5.1C816.6,597,816.5,597.4,816.4,597.8z"/>
<path class="st11" d="M650.8,471.7c35.2-30.1,85.4-66.1,121.9-63.6c10,0.7,38.4,4.5,65.8,24.6c19.8,14.4,36.7,31.1,53.2,48
	c8,8.3,11.6,20,9.6,31.3c-2,11.4-9.3,21.1-19.7,26.2c-7.4,3.6-15.8,7.2-25.2,10.3l-34.6-47.2l8.8-5.3l-24.2-20.3
	c0,0-5.2,25.5-34.6,31c-12.7,2.4-36.6,3.2-51.4-19.4c0,0-15.1,12-33.6,27.4L650.8,471.7z"/>
<path class="st11" d="M611.6,568.8l4.3-6c0.5-0.7,1.4-0.8,2-0.3s0.8,1.4,0.3,2c0,0-2,2.7-1.8,2.4C616.4,567,614.1,569,611.6,568.8z
	 M603.1,562.2l4.4-6.1c0.5-0.7,1.4-0.8,2-0.3c0.7,0.5,0.8,1.4,0.3,2l-1.9,2.6C607.8,560.6,605.6,562.5,603.1,562.2z M594.1,556
	l4.9-6.8c0.5-0.7,1.4-0.8,2-0.3c0.7,0.5,0.8,1.4,0.3,2l-2,2.8C599,554,596.6,556.2,594.1,556z"/>
<g transform="matrix(1,0,0,1,-1.7806,-1.95146)">
	<circle class="st10" cx="769.7" cy="381.7" r="21.8"/>
</g>
<path class="st8" d="M757,360.7c3.2-1.8,6.9-2.9,10.9-2.9c12.1,0,21.9,9.8,21.9,21.9c0,8.1-4.4,15.2-11,19l-7-12.2
	c1.4,0.4,3.1,0.3,4.5-0.5c2.7-1.5,3.7-4.8,2.3-7.3s-4.8-3.3-7.5-1.8c-1.5,0.8-2.5,2.2-2.8,3.7L757,360.7z"/>
<path class="st12" d="M830.2,495.6L830.2,495.6c0.1,0,7.7,6.4,12.2,10.3c0.3,0.2,0.3,0.6,0.2,0.9s-0.5,0.4-0.9,0.3l-17.9-7l6.9-4.1
	L830.2,495.6z M718.4,489.1l17.3-14.7c0.5-0.4,1.1-0.4,1.6-0.1c0.5,0.4,0.7,1,0.4,1.5l-9,21c-2.9-2.6-5.7-5.7-8.2-9.5
	C720.5,487.4,719.7,488,718.4,489.1z M806.5,475.7c1.4-5.7,2.8-15,2.3-26.5c0-0.5,0.3-0.9,0.8-1.1s1,0.1,1.2,0.5
	c3.1,6.4,8,19.5,5.7,35.5L806.5,475.7z"/>
<path class="st11" d="M649.2,787.6c0,0,5.3-11.3,16.1-13.3c6.5-70.3,19.3-138.9,41-209.4c8.6-27.8,36.6-44.8,65.3-39.6
	c8.3,1.5,16.1,4.8,22.2,10.9c2.7,2.7,22.2,26.6,14.9,64c-2.3,11.8-7.1,25.8-10.4,35c0,0,57.7,69,65.4,78.2c0.5,0.6,0.6,1.5,0.2,2.1
	c-5.5,9.2-43.2,72.4-43.2,72.4s-6.6-6.4-4.2-19.6l-48.2-52.9c0,0-24.5,59.2-28.9,69.8c-0.4,1-1.4,1.6-2.5,1.7
	C724.3,787.1,649.2,787.6,649.2,787.6z"/>
<path class="st12" d="M665.9,768.2l79.4,2.5l-1.2,2.9l-78.5-2.5C665.7,770.1,665.8,769.2,665.9,768.2z M852.5,700.2L815,766.9
	l-2.1-2.3l37.6-66.8L852.5,700.2z M799,633c-0.3,0.8-0.5,1.5-0.8,2.3l2.7,3.2l-30.1,79.9l-2.6-2.8l-3,7.1L799,633z M783.7,529.2
	c1.1,0.5,2.2,1.1,3.2,1.8c0.4,1.7,1.2,3.7,2.8,5.6c2.5,3.2,21.8,18.6,18.5,56.6c-0.2,2.3,0.1,4,0.7,5.4c-0.1,0.6-0.2,1.2-0.3,1.7
	c-0.1,0.7-0.3,1.4-0.5,2.2c-0.2-0.2-0.4-0.4-0.6-0.7c-1.6-1.9-2.6-4.8-2.2-8.9c3.2-36.6-15.4-51.4-17.9-54.5
	C784.8,535,783.9,531.8,783.7,529.2z"/>
<path class="st13" d="M505.4,628.1c-16.6,69-59.7,147.2-59.7,147.2c8-0.8,16.9,12.8,16.9,12.8s-80.8,0-104.1,0
	c-1.4,0-2.7-0.7-3.4-1.8s-0.9-2.6-0.3-3.9c28.9-68.2,50.7-154.5,53.5-167.7c19.2-90.5,52.5-91.3,66.9-88.5c4.1,0.8,7.8,2,11.1,3.5
	c34.4,7.4,87.5,31.4,116.6,53.2c9.1,6.9,13.5,18.4,11.2,29.6c-5,24.5-15.3,47.1-27.2,72c11.8,6.2,14.8,13.8,14.8,13.8
	s-61.1-4.8-75.6-5.9c-0.8-0.1-1.5-0.5-1.9-1.1c-0.5-0.6-0.6-1.4-0.5-2.2c2.5-11.2,11.3-49.8,11.3-49.8
	C524.4,636.6,514.4,633,505.4,628.1z"/>
<path class="st14" d="M366.9,751.7l88.5,5.1c-0.6,1.2-1.2,2.4-1.8,3.6l-88-5.1C366,754.1,366.4,752.9,366.9,751.7z M591.7,674.2
	l-64.6-0.3l0.8-3.7l65.5,0.3C592.8,671.8,592.2,673,591.7,674.2z M473,525.8c0.7,0.1,1.4,0.2,2.1,0.4c4.1,0.8,7.8,2,11.1,3.5
	c1.4,0.3,2.9,0.6,4.3,1c3.5,2.7,7.1,6.3,10.4,10.9c10.7,15,18.5,41.5,7.6,88.2c-1.1-0.5-2.1-1.1-3.2-1.7c-0.7,3-1.5,6.1-2.4,9.2
	c0-0.2,0-0.5,0-0.7c13.2-49.8,5.8-77.5-5.1-92.8c-10.6-14.9-24.4-17.7-24.4-17.7l0,0C473.4,526,473.2,525.9,473,525.8z"/>
<path class="st14" d="M530.8,638.3L530.8,638.3c0,0,11.6,3.4,23.2,4.8c0.6,0.1,1.1,0.6,1.2,1.2c0,0.6-0.4,1.2-1,1.3
	c-7.2,1.8-17.8,4.5-22,5.6l2.7-11.8C533.5,639,532.2,638.7,530.8,638.3z"/>
<g>
	<path class="st9" d="M414,543.1c0,0,1.3,3.3,3.5,5.4c1.3,1.2,3.7,1.7,5.9,0.2c4.2-2.8,7.3-9.8,6.6-17.4c-0.2-2-5.6-17.9-19.5-26.6
		l12.9-7.4c0,0,29.3,33.3,70.6,4.7c0,0,37.8,29.3,94.2,50.1l17.6-25.1c0,0,21.8-4.1,25.8-10.4c0.6-1,1.3-3.5-3.3-3.8
		c-2.1-0.2-18.1-2.3-46.5-17.8c-7.8-4.2-33.4-17.2-67.5-51.1c-7.2-7.1-52.8-53-123.1,0c-12.3,9.3-61,47-83.4,82.5
		c-9.3,14.8-7.6,34,4.2,46.8l0,0c10.8,11.8,28.4,14.3,42.1,6C378.8,564.4,414,543.1,414,543.1z"/>
	<path class="st9" d="M413.6,543.3l5.6-3.8c0.9-0.5,2-0.3,2.5,0.6c0.5,0.9,0.3,2-0.6,2.5l-5.6,3.5c-1-1.6-1.6-3.1-1.6-3.1
		L413.6,543.3z M605.6,527.2l-0.1,0.2c-0.2,0-0.2,0-0.2,0l-2.8,3.9c-3.1,0.4-5.7,0.8-5.7,0.8c-1,0.1-1.9-0.6-2-1.6s0.6-1.9,1.6-2
		C596.4,528.5,601.3,527.8,605.6,527.2z"/>
</g>
<path class="st15" d="M401.2,550.7l-47.1,28.5c-13.7,8.3-31.3,5.8-42.1-6l0,0c-11.8-12.9-13.5-32-4.2-46.8
	c22.4-35.6,71-73.3,83.4-82.6c70.3-53,115.9-7.1,123.1,0c34.1,33.9,59.8,46.9,67.5,51.1c4,2.2,7.7,4.1,11.2,5.8l-27.7,42.1
	C521.8,523.6,494,502,494,502c-41.3,28.7-70.6-4.7-70.6-4.7l-12.9,7.5c-15.5-11.3-35.3,2.1-35.3,2.1L401.2,550.7z"/>
<path class="st14" d="M375.5,506.7c-0.2,0.1-0.3,0.2-0.3,0.2l1.9,3.1c-15.7,8.9-31.5,18.5-47.3,28.3c-0.9,0.5-2,0.3-2.5-0.6
	c-0.5-0.9-0.3-2,0.6-2.5C343.7,525.3,359.6,515.7,375.5,506.7z M493.1,502.6c2.9-2.8,13-13.7,16.2-34.3c0.1-0.4,0.4-0.8,0.9-0.8
	s0.9,0.3,1,0.7c0.9,5.3,1.7,14.3-0.7,25.3c-1.1,5.1-2.8,10.6-5.5,16.3c-7.1-4.8-11-7.8-11-7.8C493.7,502.2,493.4,502.4,493.1,502.6z
	 M413.5,503c-3.3-7.7-2.9-14.7-2.2-18.8c0.1-0.6,0.6-1.1,1.3-1.3c0.6-0.1,1.3,0.2,1.6,0.8c3.6,6.9,7.1,11.4,9.1,13.6L413.5,503z"/>
<path class="st9" d="M642.1,537.7c-1.5-1.9-1.7-4.6-0.3-6.7c1.7-2.5,5.2-3.1,7.7-1.4l8.5,5.9c2.5,1.7,3.1,5.2,1.4,7.7
	c-1.6,2.3-4.6,3-7,1.8c1.3,1.8,1.5,4.3,0.1,6.3c-1.5,2.2-4.5,3-6.8,1.8c1.3,1.8,1.4,4.3,0.1,6.2c-1.5,2.2-4.4,2.9-6.7,1.8
	c1.3,1.8,1.4,4.2,0.1,6.1c-1.6,2.4-4.9,3-7.3,1.3l-6.8-4.7c-2.4-1.6-3-4.9-1.3-7.3c1.4-2,4-2.8,6.2-1.9c-1.5-1.8-1.7-4.4-0.3-6.4
	c1.4-2.1,4.1-2.8,6.3-1.9c-1.5-1.8-1.7-4.5-0.3-6.5C637.1,537.5,639.8,536.8,642.1,537.7z"/>
<path class="st15" d="M628.7,550.2l14.9,10.8c-1.5,0.7-3.2,0.8-4.7,0c0.1,0.1-9.2-6.5-9.1-6.4C628.9,553.4,628.5,551.8,628.7,550.2z
	 M634.7,542C634.8,542,634.8,542,634.7,542l15.3,11.1l0.1,0.1c-1.4,0.6-3.1,0.6-4.6-0.1c0.2,0.2-9.8-6.9-9.7-6.8
	C634.9,545,634.5,543.5,634.7,542z M640.9,533.3c0.1,0,0.1,0.1,0.2,0.1l15.3,11c0.3,0.2,0.4,0.4,0.5,0.7c-1.4,0.6-3.1,0.5-4.5-0.2
	c0.1,0.1-10.3-7.3-10.3-7.3C641,536.5,640.6,534.8,640.9,533.3z"/>
<g id="CASE">
	<path class="st8" d="M807.3,718c0-2.3-1.9-4.2-4.2-4.2c-17.8,0-86.5,0-104.3,0c-2.3,0-4.2,1.9-4.2,4.2c0,16.1,0,72.6,0,72.6h112.7
		V718L807.3,718z"/>
	<path class="st8" d="M730.1,713.8v-10.1c0-1.9,1.5-3.5,3.5-3.5h35c1.9,0,3.5,1.5,3.5,3.5v10.1H765v-6.7h-28v6.7H730.1z"/>
	<path class="st7" d="M806.3,715.3c0.6,0.7,1,1.7,1,2.8v1l-51.7,36.1c-2.8,2-6.5,2-9.3,0l-51.7-36v-1.1c0-1,0.4-2,1-2.7l52.8,36.8
		c1.5,1.1,3.6,1.1,5.1,0L806.3,715.3z"/>
</g>
<line class="st16" x1="131.3" y1="786.7" x2="1200" y2="790.6"/>
</svg>
