<?xml version="1.0" encoding="utf-8"?>
<!-- Generator: Adobe Illustrator 23.1.0, SVG Export Plug-In . SVG Version: 6.00 Build 0)  -->
<svg version="1.1" id="Layer_1" xmlns="http://www.w3.org/2000/svg" xmlns:xlink="http://www.w3.org/1999/xlink" x="0px" y="0px"
	 viewBox="0 0 1200 1000" style="enable-background:new 0 0 1200 1000;" xml:space="preserve">
<style type="text/css">
	.st0{fill:#EEEBDD;}
	.st1{fill-rule:evenodd;clip-rule:evenodd;fill:#D8B6A4;}
	.st2{fill-rule:evenodd;clip-rule:evenodd;fill:#B7837B;}
	.st3{fill-rule:evenodd;clip-rule:evenodd;fill:#C18F85;}
	.st4{fill-rule:evenodd;clip-rule:evenodd;fill:#FFCF84;}
	.st5{fill-rule:evenodd;clip-rule:evenodd;fill:#FD9909;}
	.st6{fill:#FD9909;}
	.st7{fill-rule:evenodd;clip-rule:evenodd;fill:#FFFFFF;}
	.st8{fill-rule:evenodd;clip-rule:evenodd;}
	.st9{fill-rule:evenodd;clip-rule:evenodd;fill:#EEEBDD;}
	.st10{fill-rule:evenodd;clip-rule:evenodd;fill:#630000;}
	.st11{fill-rule:evenodd;clip-rule:evenodd;fill:#440101;}
	.st12{fill-rule:evenodd;clip-rule:evenodd;fill:#1C0101;}
	.st13{fill-rule:evenodd;clip-rule:evenodd;fill:#CEC6B2;}
	.st14{fill-rule:evenodd;clip-rule:evenodd;fill:#B7A991;}
</style>
<g>
	<path class="st0" d="M601.11,129.61c-34.61-9.8-73.75-4.3-103.79,14.59c-13.01,8.18-24.32,18.67-37.85,26.07
		c-28.43,15.55-63,15.77-95.73,18.86s-68.29,11.3-87.38,36.48c-15.78,20.8-17.01,49.27-33.8,69.35c-14.21,17-37.46,25.4-52.53,41.73
		c-33.07,35.83-14.73,91.59-27.88,137.39c-8.03,27.97-27.72,51.45-42.05,77.1c-31.5,56.38-36.1,126.23-8.8,184.51
		s87.04,102.94,154.16,111.48c59.48,7.57,121.1-11.79,179.42,1.56c31.7,7.25,60.09,23.72,90.85,33.92
		c35.03,11.61,72.52,14.9,109.63,16.39c68.2,2.73,137.46-0.46,202.77-19.12s126.76-53.85,166.63-105.94
		c39.88-52.09,55.72-122.08,32.82-182.53c-11.08-29.25-30.4-55.17-42.49-84.06c-20.28-48.48-18.68-104.67,4.31-152.06
		c5.34-11.01,11.83-21.7,14.57-33.52c4.71-20.33-2.19-41.36-10.35-60.7c-17.09-40.52-40.53-79.36-73.97-109.55
		c-50.21-45.31-120.31-68.04-189.84-70.99s-138.73,12.6-203.85,35.68c-57.03,20.22-115.23,49.42-143.42,100.23"/>
</g>
<path class="st1" d="M226.5,761.38l-0.57-25.19h21.29V712.2h717.5v23.99h17.01v25.29h13.03v25.29H205.1v-25.29h21.39V761.38z
	 M282.48,331.53h-35.27l363.03-174.08l363.03,174.08h-39.86V712.2H282.48V331.53z"/>
<path class="st2" d="M981.73,761.36H226.5l-0.16-6.95h755.39V761.36z M964.72,736.04h-717.5v-6.95h717.5V736.04z M933.41,712.14
	H282.48v-6.95h650.93V712.14z M933.41,339.06l-650.93,0.95v-7.32l650.93-0.95V339.06z"/>
<path class="st3" d="M933.41,337.22l-97.14,14.02V706.8h-91.34V344.52c-16.99,2.09-58.85,7.29-97.88,12.46V706.8H555.7V339.61
	l-97.88,11.63V706.8h-91.34V340.97l-84,10.27v-15.36c0,0,61.78,1.88,84,3.29v-2.05h91.34v-1.24h107.76l-3.27,1.24h84.74v2.17
	l97.88-2.01v-0.16h91.34v-1.24l97.14,1.23V337.22z"/>
<g>
	<g transform="matrix(1,0,0,1,-111.727,12.8484)">
		<circle class="st4" cx="721.97" cy="236.54" r="57.77"/>
	</g>
	<g transform="matrix(0.811681,0,0,0.811681,169.781,83.0003)">
		<path class="st5" d="M542.65,149.48c30.64,0,55.51,24.87,55.51,55.51s-24.88,55.51-55.51,55.51c-1.24,0-2.25,1.01-2.25,2.25
			s1.01,2.25,2.25,2.25c33.13,0,60.02-26.89,60.02-60.02s-26.9-60.02-60.02-60.02c-1.24,0-2.25,1.01-2.25,2.25
			S541.41,149.48,542.65,149.48z"/>
	</g>
	<g transform="matrix(0.811681,0,0,0.811681,169.781,83.0003)">
		<path class="st5" d="M542.65,260.51c-30.64,0-55.52-24.87-55.52-55.51s24.88-55.51,55.52-55.51c1.24,0,2.25-1.01,2.25-2.25
			s-1.01-2.25-2.25-2.25c-33.13,0-60.02,26.89-60.02,60.02s26.89,60.02,60.02,60.02c1.24,0,2.25-1.01,2.25-2.25
			S543.9,260.51,542.65,260.51z"/>
	</g>
	<path class="st5" d="M617.2,306.74l-1.18-9.52c-0.12-1,0.59-1.92,1.59-2.04c1-0.12,1.91,0.59,2.04,1.59l1.17,9.42
		C619.62,306.41,618.41,306.6,617.2,306.74z M628,304.37l-3.27-9.66c-0.32-0.96,0.19-2,1.15-2.32c0.96-0.32,1.99,0.19,2.32,1.15
		l3.25,9.6C630.31,303.58,629.16,304,628,304.37z M578.4,297.58l5.09-8.37c0.52-0.86,1.65-1.14,2.51-0.61s1.14,1.65,0.61,2.51
		l-5.1,8.39C580.45,298.9,579.41,298.26,578.4,297.58z M657.77,282.21l-8.41-6.22c-0.81-0.6-0.98-1.75-0.38-2.56
		c0.6-0.81,1.75-0.98,2.56-0.38l8.22,6.08C659.13,280.18,658.47,281.21,657.77,282.21z M555.34,267.4l9.88-4.45
		c0.92-0.41,2.01,0,2.42,0.92c0.41,0.92,0,2.01-0.92,2.42l-10.12,4.56C556.14,269.71,555.72,268.56,555.34,267.4z M666.29,235.38
		c0.29,1.18,0.55,2.37,0.77,3.58l-9.74,2.3c-0.98,0.23-1.97-0.38-2.2-1.36c-0.23-0.98,0.38-1.97,1.36-2.2L666.29,235.38z
		 M562.51,216.86l8.7,5.69c0.85,0.55,1.08,1.69,0.53,2.53c-0.55,0.85-1.69,1.08-2.53,0.53l-8.67-5.67
		C561.16,218.9,561.82,217.87,562.51,216.86z M568.19,209.8l7.08,5.21c0.81,0.6,0.99,1.75,0.39,2.56c-0.6,0.81-1.75,0.99-2.56,0.39
		l-7.34-5.4C566.54,211.61,567.35,210.69,568.19,209.8z M643.63,202.26c1,0.71,1.97,1.44,2.92,2.21l-6.33,7.98
		c-0.63,0.79-1.78,0.92-2.57,0.3s-0.92-1.78-0.3-2.57L643.63,202.26z M633.83,196.65c1.12,0.5,2.21,1.04,3.29,1.6l-4.46,8.37
		c-0.48,0.89-1.58,1.23-2.48,0.75c-0.89-0.48-1.23-1.58-0.75-2.48L633.83,196.65z M597.29,193.08l2.58,9.19
		c0.27,0.97-0.3,1.98-1.27,2.26c-0.97,0.27-1.98-0.3-2.25-1.27l-2.59-9.24C594.91,193.67,596.09,193.36,597.29,193.08z"/>
</g>
<g transform="matrix(1.11006,0.41898,-0.41898,1.11006,226.696,-499.195)">
	<g transform="matrix(168.886,-75.1162,75.4425,169.619,1155.79,433.379)">
		<path class="st6" d="M-3.28-1.1c0.02,0.02,0.05,0.03,0.07,0.03c0.03,0,0.05-0.01,0.05-0.04c0-0.02-0.01-0.03-0.03-0.04
			c-0.01,0-0.02,0-0.03,0c-0.02,0-0.04-0.01-0.05-0.02c-0.01-0.01-0.02-0.03-0.02-0.05c0-0.02,0.01-0.04,0.02-0.05
			C-3.25-1.3-3.23-1.3-3.21-1.3c0.03,0,0.06,0.01,0.08,0.03l-0.02,0.03c-0.02-0.01-0.04-0.02-0.06-0.02c-0.01,0-0.02,0-0.03,0.01
			c-0.01,0.01-0.01,0.02-0.01,0.03c0,0.01,0,0.01,0.01,0.02C-3.24-1.2-3.23-1.2-3.22-1.19c0.01,0,0.02,0,0.03,0
			c0.02,0,0.04,0.01,0.05,0.03c0.01,0.01,0.02,0.03,0.02,0.05c0,0.05-0.03,0.08-0.09,0.08c-0.04,0-0.07-0.01-0.1-0.04L-3.28-1.1z"/>
	</g>
	<g transform="matrix(0.997551,-0.0699429,0.0699429,0.997551,-14.0824,86.2329)">
		<path class="st5" d="M498.89,397.92l15.85,58.69l3.53-0.95l-15.85-58.69L498.89,397.92z"/>
	</g>
	<g transform="matrix(0.997551,-0.0699429,0.0699429,0.997551,2.44825,80.5396)">
		<path class="st5" d="M488.18,400.79l15.85,58.69l3.53-0.95l-15.85-58.69L488.18,400.79z"/>
	</g>
</g>
<g>
	<g transform="matrix(0.80681,0.590811,-0.590811,0.80681,745.123,-436.422)">
		<g transform="matrix(1,0,0,1,170.194,146.13)">
			<path class="st7" d="M110.52,841.95l52.43,49.58L120,939.13l-52.9-50.6L110.52,841.95z"/>
		</g>
		<g transform="matrix(1,0,0,1,170.194,146.13)">
			<path class="st8" d="M69.67,888.46l28.23,27.01c0.73,0.7,0.76,1.86,0.06,2.59c-0.7,0.73-1.86,0.75-2.59,0.06l-29.54-28.26
				c-0.72-0.69-0.76-1.84-0.07-2.57l43.42-46.59c0.33-0.36,0.79-0.57,1.28-0.58c0.49-0.01,0.96,0.16,1.32,0.5l25.75,24.35
				c0.73,0.7,0.77,1.86,0.07,2.59c-0.69,0.74-1.85,0.77-2.59,0.07l-24.41-23.08L69.67,888.46z"/>
		</g>
		<g transform="matrix(1,0,0,1,170.194,146.13)">
			<path class="st8" d="M160.4,891.63l-25.38-24c-0.73-0.7-0.77-1.85-0.07-2.59c0.69-0.73,1.85-0.77,2.59-0.07l26.68,25.23
				c0.72,0.68,0.77,1.82,0.1,2.55l-42.96,47.61c-0.33,0.37-0.8,0.59-1.29,0.6c-0.49,0.02-0.98-0.16-1.33-0.51l-23.36-22.34
				c-0.73-0.7-0.76-1.86-0.06-2.59c0.7-0.73,1.86-0.76,2.59-0.06l22,21.04L160.4,891.63z"/>
		</g>
		<path class="st8" d="M324.66,1038.03l-3.4-3.2l-35.15,37.49l3.41,3.2L324.66,1038.03z M316.87,1030.66l-3.4-3.19l-35.15,37.49
			l3.41,3.19L316.87,1030.66z M309.08,1023.29l-3.41-3.2l-35.15,37.49l3.41,3.2L309.08,1023.29z M301.29,1015.93l-3.41-3.2
			l-35.15,37.49l3.41,3.2L301.29,1015.93z M293.49,1008.56l-3.41-3.2l-35.15,37.49l3.41,3.2L293.49,1008.56z M285.7,1001.19
			l-3.41-3.2l-35.15,37.49l3.41,3.19L285.7,1001.19z"/>
	</g>
	<g transform="matrix(0.977511,0.210883,-0.210883,0.977511,136.075,-309.167)">
		<g transform="matrix(1,0,0,1,170.194,146.13)">
			<path class="st7" d="M260.2,610.65l52.43,49.58l-42.95,47.61l-52.9-50.6L260.2,610.65z"/>
		</g>
		<g transform="matrix(1,0,0,1,170.194,146.13)">
			<path class="st8" d="M310.58,660.31l-18.87-17.84c-0.59-0.55-0.61-1.48-0.06-2.07c0.56-0.59,1.48-0.61,2.07-0.06l19.91,18.83
				c0.58,0.55,0.61,1.46,0.08,2.05l-42.95,47.61c-0.27,0.3-0.64,0.47-1.03,0.48s-0.78-0.13-1.07-0.41l-22.42-21.44
				c-0.58-0.56-0.6-1.49-0.05-2.07c0.56-0.58,1.49-0.6,2.07-0.04l21.33,20.4L310.58,660.31z"/>
		</g>
		<g transform="matrix(1,0,0,1,170.194,146.13)">
			<path class="st8" d="M218.83,657.18l29.43,28.16c0.58,0.56,0.6,1.49,0.05,2.07c-0.56,0.59-1.49,0.6-2.07,0.05l-30.48-29.15
				c-0.58-0.55-0.61-1.47-0.06-2.06l43.42-46.59c0.27-0.29,0.63-0.45,1.02-0.46c0.39-0.01,0.77,0.13,1.05,0.4l32.52,30.75
				c0.59,0.56,0.61,1.48,0.06,2.07c-0.56,0.59-1.48,0.61-2.07,0.05l-31.45-29.74L218.83,657.18z"/>
		</g>
		<path class="st8" d="M474.34,806.74l-3.4-3.2l-35.15,37.49l3.41,3.2L474.34,806.74z M466.54,799.37l-3.4-3.19l-35.15,37.49
			l3.41,3.19L466.54,799.37z M458.75,792l-3.41-3.2l-35.15,37.49l3.41,3.2L458.75,792z M450.96,784.63l-3.41-3.2l-35.15,37.49
			l3.41,3.2L450.96,784.63z M443.17,777.26l-3.41-3.2l-35.15,37.49l3.41,3.2L443.17,777.26z M435.37,769.89l-3.41-3.2l-35.15,37.49
			l3.41,3.19L435.37,769.89z"/>
	</g>
</g>
<g id="COINS">
	<g transform="matrix(0.837793,0,0,0.860247,-536.927,1371.61)">
		<g transform="matrix(1,0,0,1,-111.727,12.8484)">
			<ellipse class="st4" cx="1155" cy="-748.95" rx="48.4" ry="49.69"/>
		</g>
		<g transform="matrix(0.811681,0,0,0.811681,169.781,83.0003)">
			<path class="st5" d="M1076.15-1064.66c30.64,0,55.51,24.87,55.51,55.51s-24.88,55.51-55.51,55.51c-1.24,0-2.25,1.01-2.25,2.25
				s1.01,2.25,2.25,2.25c33.13,0,60.02-26.89,60.02-60.02s-26.9-60.02-60.02-60.02c-1.24,0-2.25,1.01-2.25,2.25
				S1074.91-1064.66,1076.15-1064.66z"/>
		</g>
		<g transform="matrix(0.811681,0,0,0.811681,169.781,83.0003)">
			<path class="st5" d="M1076.15-953.63c-30.64,0-55.52-24.87-55.52-55.51s24.88-55.51,55.52-55.51c1.24,0,2.25-1.01,2.25-2.25
				s-1.01-2.25-2.25-2.25c-33.13,0-60.02,26.89-60.02,60.02s26.89,60.02,60.02,60.02c1.24,0,2.25-1.01,2.25-2.25
				S1077.4-953.63,1076.15-953.63z"/>
		</g>
		<path class="st5" d="M1050.23-678.75l-1.18-9.52c-0.12-1,0.59-1.92,1.59-2.04c1-0.12,1.91,0.59,2.04,1.59l1.17,9.42
			C1052.65-679.08,1051.45-678.9,1050.23-678.75z M1061.03-681.12l-3.27-9.66c-0.32-0.96,0.19-2,1.15-2.32
			c0.96-0.32,1.99,0.19,2.32,1.15l3.25,9.6C1063.35-681.91,1062.2-681.5,1061.03-681.12z M1011.43-687.91l5.09-8.37
			c0.52-0.86,1.65-1.14,2.51-0.61s1.14,1.65,0.61,2.51l-5.1,8.39C1013.48-686.59,1012.44-687.24,1011.43-687.91z M1090.8-703.28
			l-8.41-6.22c-0.81-0.6-0.98-1.75-0.38-2.56c0.6-0.81,1.75-0.98,2.56-0.38l8.22,6.08C1092.16-705.31,1091.5-704.28,1090.8-703.28z
			 M988.37-718.1l9.88-4.45c0.92-0.41,2.01,0,2.42,0.92c0.41,0.92,0,2.01-0.92,2.42l-10.12,4.56
			C989.17-715.78,988.75-716.93,988.37-718.1z M1099.33-750.11c0.29,1.18,0.55,2.37,0.77,3.58l-9.74,2.3
			c-0.98,0.23-1.97-0.38-2.2-1.36c-0.23-0.98,0.38-1.97,1.36-2.2L1099.33-750.11z M995.54-768.63l8.7,5.69
			c0.85,0.55,1.08,1.69,0.53,2.53c-0.55,0.85-1.69,1.08-2.53,0.53l-8.67-5.67C994.19-766.6,994.85-767.63,995.54-768.63z
			 M1001.22-775.69l7.08,5.21c0.81,0.6,0.99,1.75,0.39,2.56c-0.6,0.81-1.75,0.99-2.56,0.39l-7.34-5.4
			C999.57-773.88,1000.38-774.8,1001.22-775.69z M1076.66-783.24c1,0.71,1.97,1.44,2.92,2.21l-6.33,7.98
			c-0.63,0.79-1.78,0.92-2.57,0.3s-0.92-1.78-0.3-2.57L1076.66-783.24z M1066.86-788.84c1.12,0.5,2.21,1.04,3.29,1.6l-4.46,8.37
			c-0.48,0.89-1.58,1.23-2.48,0.75c-0.89-0.48-1.23-1.58-0.75-2.48L1066.86-788.84z M1030.32-792.41l2.58,9.19
			c0.27,0.97-0.3,1.98-1.27,2.26c-0.97,0.27-1.98-0.29-2.25-1.27l-2.59-9.24C1027.94-791.82,1029.12-792.14,1030.32-792.41z"/>
	</g>
	<g transform="matrix(0.210527,0.805986,-0.815723,0.21307,1233.47,514.535)">
		<g transform="matrix(1,0,0,1,-111.727,12.8484)">
			
				<ellipse transform="matrix(0.9675 -0.2527 0.2527 0.9675 -205.9499 69.7764)" class="st4" cx="168.66" cy="836.63" rx="48.7" ry="48.12"/>
		</g>
		<g transform="matrix(0.811681,0,0,0.811681,169.781,83.0003)">
			<path class="st5" d="M-139.03,888.8c30.64,0,55.51,24.87,55.51,55.51s-24.88,55.51-55.51,55.51c-1.24,0-2.25,1.01-2.25,2.25
				s1.01,2.25,2.25,2.25c33.13,0,60.02-26.89,60.02-60.02c0-33.13-26.9-60.02-60.02-60.02c-1.24,0-2.25,1.01-2.25,2.25
				S-140.28,888.8-139.03,888.8z"/>
		</g>
		<g transform="matrix(0.811681,0,0,0.811681,169.781,83.0003)">
			<path class="st5" d="M-139.03,999.82c-30.64,0-55.52-24.87-55.52-55.51s24.88-55.51,55.52-55.51c1.24,0,2.25-1.01,2.25-2.25
				s-1.01-2.25-2.25-2.25c-33.13,0-60.02,26.89-60.02,60.02s26.89,60.02,60.02,60.02c1.24,0,2.25-1.01,2.25-2.25
				S-137.79,999.82-139.03,999.82z"/>
		</g>
		<path class="st5" d="M63.88,906.83l-1.18-9.52c-0.12-1,0.59-1.92,1.59-2.04c1-0.12,1.91,0.59,2.04,1.59l1.17,9.42
			C66.31,906.5,65.1,906.69,63.88,906.83z M74.69,904.46l-3.27-9.66c-0.32-0.96,0.19-2,1.15-2.32c0.96-0.32,1.99,0.19,2.32,1.15
			l3.25,9.6C77,903.67,75.85,904.09,74.69,904.46z M25.08,897.67l5.09-8.37c0.52-0.86,1.65-1.14,2.51-0.61
			c0.86,0.52,1.14,1.65,0.61,2.51l-5.1,8.39C27.14,898.99,26.1,898.35,25.08,897.67z M104.46,882.3l-8.41-6.22
			c-0.81-0.6-0.98-1.75-0.38-2.56c0.6-0.81,1.75-0.98,2.56-0.38l8.22,6.08C105.82,880.27,105.15,881.3,104.46,882.3z M2.03,867.49
			l9.88-4.45c0.92-0.41,2.01,0,2.42,0.92c0.41,0.92,0,2.01-0.92,2.42l-10.12,4.56C2.83,869.8,2.41,868.65,2.03,867.49z
			 M112.98,835.47c0.29,1.18,0.55,2.37,0.77,3.58l-9.74,2.3c-0.98,0.23-1.97-0.38-2.2-1.36c-0.23-0.98,0.38-1.97,1.36-2.2
			L112.98,835.47z M9.2,816.95l8.7,5.69c0.85,0.55,1.08,1.69,0.53,2.53c-0.55,0.85-1.69,1.08-2.53,0.53l-8.67-5.67
			C7.85,818.98,8.51,817.96,9.2,816.95z M14.88,809.89l7.08,5.21c0.81,0.6,0.99,1.75,0.39,2.56c-0.6,0.81-1.75,0.99-2.56,0.39
			l-7.34-5.4C13.23,811.7,14.04,810.78,14.88,809.89z M90.32,802.35c1,0.71,1.97,1.44,2.92,2.21l-6.33,7.98
			c-0.63,0.79-1.78,0.92-2.57,0.3s-0.92-1.78-0.3-2.57L90.32,802.35z M80.52,796.74c1.12,0.5,2.21,1.04,3.29,1.6l-4.46,8.37
			c-0.48,0.89-1.58,1.23-2.48,0.75c-0.89-0.48-1.23-1.58-0.75-2.48L80.52,796.74z M43.98,793.17l2.58,9.19
			c0.27,0.97-0.3,1.98-1.27,2.26c-0.97,0.27-1.98-0.3-2.25-1.27l-2.59-9.24C41.6,793.76,42.78,793.45,43.98,793.17z"/>
	</g>
</g>
<path class="st8" d="M442.63,378.23c-0.13-0.2-5.11-0.02-5.5-0.04c-5.83-0.36-11.66-0.93-17.46-1.6
	c-19.3-2.21-42.32-3.74-58.24-16.04c-18.11-14-2.85-34.55,16.98-30.75c24.46,4.69,42.98,28.92,63.99,41"/>
<g transform="matrix(0.974553,0,0,0.974553,15.3474,3.94254)">
	<circle class="st9" cx="458.89" cy="384" r="24.36"/>
</g>
<path class="st8" d="M452.2,387.31l-7.77,6.23c-3.52-4.14-5.64-9.51-5.64-15.37c0-13.12,10.65-23.77,23.77-23.77
	c12.15,0,22.18,9.13,23.6,20.91c-3.98-0.47-7.28-2.92-9.94-7.27c-0.22,8.87-8.03,12.26-17.44,14c-0.39-2.26-2.41-3.98-4.83-3.98
	c-2.7,0-4.9,2.15-4.9,4.79C449.06,384.87,450.36,386.61,452.2,387.31z"/>
<path class="st10" d="M608.78,511.07c0,0,101.71-107.32,163.93-103.02c9.97,0.69,38.38,4.55,65.82,24.57
	c19.8,14.44,36.73,31.08,53.15,48.05c8.03,8.31,11.62,19.95,9.63,31.34c-1.98,11.39-9.29,21.14-19.66,26.24
	c-14.94,7.36-34.16,14.39-57.76,18.35c0,0,4.2,7.59,6.8,12.3c1.36,2.46,1.34,5.45-0.05,7.9c-2.15,3.66-6.19,9.24-13.19,14.78
	c0,0-0.4,2.61-0.78,5.09c-0.18,1.17-0.82,2.21-1.77,2.91c-0.96,0.7-2.14,0.98-3.31,0.8l0,0c-1.78-0.28-3.14-1.75-3.29-3.54
	c-0.09-1.09-0.04-2.24,0.15-3.17c0,0,4.52-31.16-20.08-56.94c0,0-6.77-10.61,3.58-17.42L830.67,496l-24.17-20.33
	c0,0-5.18,25.45-34.63,31.03c-12.68,2.4-36.61,3.16-51.39-19.35c0,0-76.84,61.06-97.04,85.2c0,0-3.07,2.94-5.75,1.04
	c-1.5-1.07-3.48-3.29-1.28-6.65c0,0-3.62,3.26-6.8,1.09c-2.12-1.45-3.76-4.3-1.57-7.65c0,0-3.7,3.38-7.04,0.99
	c-2.25-1.61-2.77-4.46-1.66-7.7c0,0-3.91,3.88-7.24,1.63c-2.33-1.57-3.45-4.85-1.86-7.23l14.77-21.2L608.78,511.07z"/>
<path class="st11" d="M816.39,597.76c-0.01-0.12,0-0.25,0.02-0.38c3.65-18.59,0.37-38.25,0.37-38.25c-0.13-0.8,0.41-1.55,1.2-1.69
	c0.79-0.13,1.55,0.41,1.68,1.2c0,0,0.85,5.12,1.22,12.64l5.01,1.4c0.78,0.22,1.23,1.02,1.01,1.8c-0.22,0.78-1.02,1.23-1.8,1.01
	l-4.1-1.15c0.12,4.41,0.04,9.43-0.44,14.62c-0.96,0.86-1.98,1.73-3.08,2.6c0,0-0.4,2.61-0.78,5.09
	C816.64,597.05,816.54,597.41,816.39,597.76z"/>
<path class="st11" d="M650.79,471.66c35.18-30.13,85.37-66.13,121.93-63.61c9.97,0.69,38.38,4.55,65.82,24.57
	c19.8,14.44,36.73,31.08,53.15,48.05c8.03,8.31,11.62,19.95,9.63,31.34c-1.98,11.39-9.29,21.14-19.66,26.24
	c-7.37,3.63-15.78,7.18-25.24,10.32l-34.6-47.24l8.85-5.33l-24.17-20.33c0,0-5.18,25.45-34.63,31.03
	c-12.68,2.4-36.61,3.16-51.39-19.35c0,0-15.08,11.98-33.64,27.43L650.79,471.66z"/>
<path class="st11" d="M611.6,568.77l4.28-5.96c0.47-0.66,1.39-0.81,2.04-0.34s0.81,1.39,0.34,2.04c0,0-2.02,2.69-1.85,2.43
	C616.41,566.95,614.13,569.01,611.6,568.77z M603.11,562.21l4.41-6.14c0.47-0.66,1.39-0.81,2.04-0.34c0.66,0.47,0.81,1.39,0.34,2.05
	l-1.88,2.62C607.85,560.56,605.63,562.49,603.11,562.21z M594.06,556l4.86-6.77c0.47-0.66,1.39-0.81,2.04-0.34
	c0.66,0.47,0.81,1.39,0.34,2.04l-1.99,2.77C599.01,553.99,596.61,556.2,594.06,556z"/>
<g transform="matrix(1,0,0,1,-1.7806,-1.95146)">
	<circle class="st10" cx="769.7" cy="381.69" r="21.85"/>
</g>
<path class="st8" d="M757.05,360.74c3.2-1.84,6.91-2.89,10.86-2.89c12.08,0,21.89,9.81,21.89,21.88c0,8.11-4.42,15.19-10.97,18.97
	l-6.97-12.16c1.43,0.44,3.09,0.29,4.55-0.54c2.69-1.53,3.72-4.81,2.29-7.31c-1.42-2.5-4.77-3.29-7.46-1.76
	c-1.47,0.84-2.45,2.2-2.79,3.67L757.05,360.74z"/>
<path class="st12" d="M830.24,495.64l0.08-0.05c0,0,7.63,6.49,12.12,10.3c0.26,0.22,0.33,0.6,0.15,0.9c-0.18,0.3-0.54,0.42-0.86,0.3
	l-17.92-6.95l6.87-4.13L830.24,495.64z M718.36,489.06l17.25-14.67c0.45-0.38,1.11-0.41,1.59-0.06c0.48,0.35,0.65,0.99,0.42,1.53
	l-8.95,21.02c-2.93-2.58-5.69-5.72-8.19-9.53C720.48,487.36,719.73,487.96,718.36,489.06z M806.54,475.71
	c1.39-5.7,2.83-14.99,2.28-26.52c-0.03-0.5,0.3-0.94,0.78-1.06s0.98,0.11,1.2,0.55c3.12,6.4,8.01,19.52,5.74,35.45L806.54,475.71z"
	/>
<path class="st11" d="M649.24,787.64c0,0,5.28-11.35,16.09-13.35c6.54-70.33,19.28-138.94,41-209.37
	c8.59-27.83,36.64-44.83,65.29-39.58c8.27,1.51,16.07,4.82,22.19,10.93c2.72,2.71,22.23,26.63,14.86,64
	c-2.34,11.84-7.1,25.77-10.41,35c0,0,57.72,69.03,65.39,78.2c0.5,0.6,0.57,1.45,0.17,2.12c-5.51,9.23-43.22,72.43-43.22,72.43
	s-6.62-6.38-4.15-19.59l-48.22-52.89c0,0-24.5,59.15-28.92,69.81c-0.41,0.99-1.37,1.64-2.45,1.65
	C724.3,787.09,649.24,787.64,649.24,787.64z"/>
<path class="st12" d="M665.91,768.19l79.44,2.53l-1.2,2.89l-78.53-2.5C665.72,770.14,665.81,769.16,665.91,768.19z M852.55,700.21
	l-37.5,66.7l-2.08-2.28l37.57-66.83L852.55,700.21z M799.05,633.02c-0.27,0.77-0.54,1.52-0.8,2.25l2.66,3.18l-30.12,79.92
	l-2.58-2.83l-2.95,7.12L799.05,633.02z M783.7,529.17c1.1,0.53,2.18,1.11,3.23,1.75c0.4,1.71,1.23,3.65,2.83,5.64
	c2.54,3.18,21.84,18.6,18.51,56.58c-0.2,2.26,0.09,4.04,0.71,5.4c-0.1,0.57-0.21,1.15-0.33,1.73c-0.14,0.72-0.29,1.44-0.45,2.17
	c-0.21-0.21-0.42-0.43-0.62-0.67c-1.58-1.9-2.6-4.76-2.24-8.89c3.2-36.59-15.44-51.43-17.88-54.49
	C784.78,535.02,783.86,531.78,783.7,529.17z"/>
<path class="st13" d="M505.42,628.09c-16.64,68.99-59.74,147.24-59.74,147.24c8-0.78,16.89,12.77,16.89,12.77s-80.8,0-104.1,0
	c-1.38,0-2.66-0.69-3.42-1.84c-0.76-1.15-0.89-2.6-0.34-3.87c28.93-68.16,50.74-154.52,53.54-167.69
	c19.23-90.49,52.53-91.35,66.91-88.54c4.08,0.8,7.78,1.97,11.09,3.48c34.43,7.42,87.51,31.38,116.58,53.18
	c9.13,6.89,13.48,18.42,11.19,29.62c-4.97,24.49-15.26,47.06-27.23,72c11.83,6.19,14.84,13.85,14.84,13.85s-61.12-4.76-75.64-5.89
	c-0.77-0.06-1.48-0.45-1.93-1.08c-0.46-0.62-0.62-1.41-0.45-2.16c2.54-11.17,11.3-49.76,11.3-49.76
	C524.37,636.6,514.41,633.02,505.42,628.09z"/>
<path class="st14" d="M366.87,751.68l88.45,5.11c-0.62,1.24-1.22,2.43-1.8,3.57l-88-5.08C365.98,754.08,366.43,752.88,366.87,751.68
	z M591.65,674.21l-64.59-0.31l0.83-3.66l65.46,0.31C592.79,671.77,592.22,672.99,591.65,674.21z M473.05,525.82
	c0.73,0.1,1.43,0.22,2.09,0.36c4.08,0.8,7.78,1.97,11.09,3.48c1.41,0.3,2.86,0.64,4.33,1c3.47,2.71,7.08,6.27,10.41,10.94
	c10.68,14.98,18.47,41.54,7.6,88.16c-1.07-0.53-2.12-1.08-3.16-1.65c-0.74,3.05-1.52,6.12-2.35,9.19c-0.04-0.24-0.03-0.49,0.04-0.74
	c13.2-49.8,5.79-77.55-5.11-92.83c-10.61-14.88-24.39-17.69-24.39-17.69l0,0C473.4,525.98,473.22,525.91,473.05,525.82z"/>
<path class="st14" d="M530.84,638.28v-0.02c0,0,11.63,3.4,23.19,4.86c0.61,0.06,1.1,0.56,1.15,1.17c0.05,0.62-0.36,1.18-0.96,1.33
	c-7.24,1.84-17.78,4.52-22,5.6l2.68-11.82C533.53,639.05,532.18,638.67,530.84,638.28z"/>
<g>
	<path class="st9" d="M413.96,543.06c0,0,1.3,3.32,3.52,5.41c1.25,1.19,3.72,1.72,5.93,0.24c4.18-2.8,7.28-9.81,6.58-17.39
		c-0.18-1.96-5.56-17.88-19.49-26.58l12.9-7.4c0,0,29.31,33.35,70.56,4.67c0,0,37.84,29.31,94.18,50.06l17.64-25.09
		c0,0,21.77-4.14,25.76-10.42c0.6-0.95,1.31-3.47-3.31-3.83c-2.09-0.16-18.1-2.31-46.45-17.75c-7.77-4.24-33.39-17.24-67.53-51.14
		c-7.18-7.13-52.78-53.04-123.07,0c-12.33,9.31-60.95,46.99-83.35,82.55c-9.29,14.79-7.56,33.96,4.23,46.84c0,0,0,0,0,0
		c10.78,11.79,28.39,14.32,42.06,6.05C378.77,564.36,413.96,543.06,413.96,543.06z"/>
	<path class="st9" d="M413.58,543.29l5.64-3.76c0.86-0.53,1.99-0.27,2.52,0.58c0.54,0.86,0.28,1.98-0.58,2.52l-5.59,3.5
		c-1.04-1.6-1.61-3.07-1.61-3.07L413.58,543.29z M605.64,527.19l-0.12,0.18c-0.15,0.03-0.22,0.04-0.22,0.04l-2.76,3.92
		c-3.11,0.43-5.7,0.77-5.7,0.77c-1,0.13-1.92-0.58-2.05-1.58c-0.13-1,0.58-1.92,1.58-2.05
		C596.38,528.46,601.27,527.83,605.64,527.19z"/>
</g>
<path class="st13" d="M401.18,550.74l-47.06,28.52c-13.66,8.28-31.28,5.76-42.06-6.03c0,0,0,0,0,0
	c-11.78-12.88-13.51-32.04-4.23-46.82c22.4-35.56,71.02-73.25,83.36-82.56c70.29-53.04,115.89-7.13,123.07,0
	c34.14,33.9,59.75,46.9,67.53,51.14c3.99,2.17,7.73,4.08,11.23,5.76l-27.7,42.08c-43.5-19.23-71.34-40.81-71.34-40.81
	c-41.26,28.67-70.56-4.67-70.56-4.67l-12.93,7.47c-15.53-11.29-35.33,2.09-35.33,2.09L401.18,550.74z"/>
<path class="st14" d="M375.46,506.7c-0.21,0.13-0.31,0.2-0.31,0.2l1.86,3.13c-15.72,8.91-31.47,18.5-47.34,28.33
	c-0.86,0.53-1.99,0.27-2.52-0.59c-0.53-0.86-0.27-1.99,0.59-2.52C343.73,525.34,359.61,515.68,375.46,506.7z M493.13,502.6
	c2.88-2.76,12.99-13.72,16.24-34.29c0.07-0.44,0.44-0.77,0.89-0.79c0.45-0.02,0.85,0.29,0.95,0.72c0.91,5.27,1.68,14.29-0.66,25.3
	c-1.08,5.07-2.83,10.56-5.52,16.29c-7.15-4.78-11.05-7.8-11.05-7.8C493.69,502.22,493.41,502.41,493.13,502.6z M413.54,503.04
	c-3.29-7.7-2.93-14.66-2.17-18.84c0.12-0.64,0.63-1.15,1.28-1.25c0.65-0.11,1.29,0.21,1.61,0.79c3.65,6.89,7.15,11.37,9.11,13.62
	L413.54,503.04z"/>
<path class="st9" d="M642.06,537.7c-1.54-1.86-1.73-4.58-0.29-6.65c1.73-2.5,5.16-3.13,7.67-1.4l8.48,5.86
	c2.5,1.73,3.13,5.16,1.4,7.67c-1.57,2.28-4.57,3-6.98,1.8c1.34,1.81,1.45,4.34,0.1,6.3c-1.54,2.24-4.48,2.95-6.84,1.79
	c1.32,1.78,1.43,4.28,0.1,6.2c-1.52,2.2-4.39,2.9-6.72,1.76c1.31,1.75,1.42,4.21,0.11,6.11c-1.64,2.38-4.91,2.98-7.29,1.33
	l-6.79-4.69c-2.38-1.64-2.98-4.91-1.33-7.28c1.41-2.04,4-2.77,6.22-1.9c-1.49-1.79-1.68-4.43-0.29-6.43
	c1.43-2.07,4.07-2.81,6.32-1.93c-1.52-1.82-1.7-4.5-0.29-6.54C637.09,537.55,639.77,536.8,642.06,537.7z"/>
<path class="st13" d="M628.74,550.22L643.67,561c-1.45,0.71-3.19,0.75-4.7,0.01c0.1,0.13-9.17-6.47-9.08-6.44
	C628.87,553.36,628.46,551.75,628.74,550.22z M634.73,541.95c0.03,0.02,0.05,0.04,0.08,0.05l15.25,11.02
	c0.05,0.03,0.09,0.07,0.13,0.11c-1.44,0.64-3.13,0.64-4.6-0.08c0.15,0.21-9.85-6.92-9.67-6.85
	C634.93,545.02,634.51,543.46,634.73,541.95z M640.86,533.28c0.07,0.03,0.13,0.07,0.19,0.12l15.25,11.02
	c0.26,0.19,0.44,0.44,0.53,0.72c-1.43,0.57-3.07,0.54-4.51-0.17c0.09,0.12-10.31-7.29-10.27-7.27
	C641.04,536.46,640.61,534.84,640.86,533.28z"/>
<g id="CASE">
	<path class="st8" d="M807.35,718.04c0-2.33-1.89-4.21-4.21-4.21c-17.77,0-86.5,0-104.27,0c-2.32,0-4.21,1.89-4.21,4.21
		c0,16.07,0,72.62,0,72.62h112.69V718.04z"/>
	<path class="st8" d="M730.06,713.83v-10.14c0-1.91,1.55-3.46,3.46-3.46h34.97c1.91,0,3.46,1.55,3.46,3.46v10.14h-6.92v-6.68h-28.05
		v6.68H730.06z"/>
	<path class="st7" d="M806.31,715.28c0.64,0.74,1.04,1.71,1.04,2.76v0.98l-51.68,36.09c-2.8,1.95-6.53,1.96-9.33,0.01l-51.68-35.97
		v-1.1c0-1.02,0.36-1.96,0.97-2.69l52.8,36.75c1.54,1.08,3.6,1.07,5.14,0L806.31,715.28z"/>
</g>
</svg>
