<?xml version="1.0" encoding="utf-8"?>
<!-- Generator: Adobe Illustrator 23.1.0, SVG Export Plug-In . SVG Version: 6.00 Build 0)  -->
<svg version="1.1" id="Layer_1" xmlns="http://www.w3.org/2000/svg" xmlns:xlink="http://www.w3.org/1999/xlink" x="0px" y="0px"
	 viewBox="0 0 200 65" style="enable-background:new 0 0 200 65;" xml:space="preserve">
<style type="text/css">
	.st0{fill:#807D96;}
	.st1{fill:#96916E;}
</style>
<g>
	<polygon class="st0" points="36.56,37.28 51.58,28.32 54.84,32.49 69.09,23.8 69.09,37.28 59.56,46.81 46.09,46.81 	"/>
	<polyline class="st0" points="35.57,37.87 51.58,28.32 54.84,32.49 69.09,23.8 	"/>
	<polygon class="st0" points="73.19,21.47 67.42,21.47 70.31,26.47 	"/>
	<g>
		<polygon class="st0" points="62.15,24.96 62.15,16.86 59.56,14.27 56.68,14.27 56.68,28.3 		"/>
		<polygon class="st0" points="51.58,25.24 54.84,29.42 55.56,28.98 55.56,14.27 50.09,14.27 50.09,26.13 		"/>
		<polygon class="st0" points="48.79,26.9 48.79,14.27 46.11,14.27 43.32,17.03 43.32,30.17 		"/>
		<polygon class="st0" points="42.03,18.33 36.56,23.8 36.56,34.21 42.03,30.94 		"/>
	</g>
</g>
<g>
	<path class="st1" d="M80.71,34.93v7.5H75.5V19.99h7.92c1.58,0,2.94,0.19,4.08,0.56c1.14,0.38,2.07,0.89,2.8,1.55
		c0.73,0.66,1.28,1.43,1.63,2.33c0.35,0.89,0.52,1.86,0.52,2.9c0,1.12-0.18,2.15-0.54,3.08c-0.36,0.93-0.91,1.74-1.65,2.4
		c-0.74,0.67-1.68,1.19-2.81,1.56c-1.13,0.38-2.48,0.56-4.03,0.56H80.71z M80.71,31h2.71c1.36,0,2.33-0.32,2.93-0.97
		c0.6-0.65,0.89-1.55,0.89-2.71c0-0.51-0.08-0.98-0.23-1.4c-0.15-0.42-0.39-0.78-0.7-1.09c-0.31-0.3-0.71-0.54-1.19-0.7
		c-0.48-0.16-1.05-0.25-1.7-0.25h-2.71V31z"/>
	<path class="st1" d="M100.37,34.93v7.5h-5.21V19.99h7.92c1.58,0,2.94,0.19,4.08,0.56c1.14,0.38,2.07,0.89,2.8,1.55
		c0.73,0.66,1.28,1.43,1.63,2.33c0.35,0.89,0.52,1.86,0.52,2.9c0,1.12-0.18,2.15-0.54,3.08c-0.36,0.93-0.91,1.74-1.65,2.4
		c-0.74,0.67-1.68,1.19-2.81,1.56c-1.14,0.38-2.48,0.56-4.03,0.56H100.37z M100.37,31h2.71c1.36,0,2.33-0.32,2.93-0.97
		c0.6-0.65,0.89-1.55,0.89-2.71c0-0.51-0.08-0.98-0.23-1.4c-0.15-0.42-0.39-0.78-0.7-1.09c-0.31-0.3-0.71-0.54-1.19-0.7
		c-0.48-0.16-1.05-0.25-1.7-0.25h-2.71V31z"/>
	<path class="st1" d="M120.03,34.13v8.3h-5.21V19.99h7.3c1.62,0,3.01,0.17,4.15,0.5c1.15,0.33,2.08,0.8,2.8,1.39
		c0.72,0.6,1.25,1.3,1.58,2.11c0.33,0.81,0.49,1.7,0.49,2.65c0,0.73-0.1,1.42-0.29,2.06c-0.2,0.65-0.49,1.25-0.87,1.8
		c-0.39,0.55-0.86,1.04-1.42,1.47c-0.56,0.43-1.2,0.79-1.93,1.06c0.35,0.17,0.68,0.39,0.98,0.65c0.3,0.26,0.57,0.57,0.79,0.94
		l4.78,7.81h-4.72c-0.87,0-1.5-0.33-1.88-0.99l-3.73-6.52c-0.16-0.29-0.36-0.49-0.58-0.62c-0.22-0.12-0.53-0.18-0.93-0.18H120.03z
		 M120.03,30.54h2.1c0.71,0,1.31-0.09,1.81-0.27c0.5-0.18,0.91-0.43,1.23-0.75c0.32-0.32,0.55-0.69,0.69-1.12
		c0.14-0.43,0.22-0.89,0.22-1.38c0-0.99-0.32-1.76-0.96-2.31s-1.64-0.83-2.98-0.83h-2.1V30.54z"/>
	<path class="st1" d="M156.21,42.44h-4.04c-0.45,0-0.82-0.11-1.12-0.32c-0.29-0.21-0.5-0.48-0.61-0.81l-1.32-3.91h-8.54l-1.33,3.91
		c-0.1,0.29-0.3,0.55-0.6,0.78c-0.3,0.23-0.66,0.35-1.09,0.35h-4.07l8.69-22.45h5.33L156.21,42.44z M141.79,33.85h6.13l-2.06-6.15
		c-0.13-0.39-0.29-0.85-0.47-1.38c-0.18-0.53-0.36-1.1-0.53-1.72c-0.16,0.63-0.33,1.21-0.51,1.74c-0.17,0.53-0.34,1-0.49,1.39
		L141.79,33.85z"/>
</g>
</svg>
