<?xml version="1.0" encoding="utf-8"?>
<!-- Generator: Adobe Illustrator 23.1.0, SVG Export Plug-In . SVG Version: 6.00 Build 0)  -->
<svg version="1.1" id="Layer_1" xmlns="http://www.w3.org/2000/svg" xmlns:xlink="http://www.w3.org/1999/xlink" x="0px" y="0px"
	 viewBox="0 0 200 65" style="enable-background:new 0 0 200 65;" xml:space="preserve">
<style type="text/css">
	.st0{fill:#630000;}
</style>
<g>
	<polygon points="22.8,42.1 42.5,30.3 46.7,35.8 65.5,24.4 65.5,42.1 53,54.6 35.3,54.6 	"/>
	<polyline points="21.5,42.9 42.5,30.3 46.7,35.8 65.5,24.4 	"/>
	<polygon points="70.8,21.4 63.2,21.4 67,28 	"/>
	<g>
		<polygon points="56.4,26 56.4,15.4 53,12 49.2,12 49.2,30.3 		"/>
		<polygon points="42.5,26.3 46.7,31.8 47.8,31.2 47.8,12 40.5,12 40.5,27.4 		"/>
		<polygon points="38.8,28.5 38.8,12 35.3,12 31.6,15.5 31.6,32.8 		"/>
		<polygon points="29.9,17.2 22.8,24.4 22.8,38.1 29.9,33.7 		"/>
	</g>
</g>
<g>
	<path class="st0" d="M80.7,39v9.8h-6.8V19.4h10.4c2.1,0,3.8,0.3,5.4,0.8c1.4,0.5,2.8,1.2,3.7,2c0.9,0.8,1.7,1.8,2.1,3
		c0.4,1.2,0.7,2.5,0.7,3.8c0,1.4-0.3,2.8-0.7,4.1c-0.4,1.3-1.2,2.2-2.2,3.1c-0.9,0.9-2.2,1.6-3.7,2.1c-1.4,0.5-3.3,0.8-5.2,0.8h-3.5
		V39z M80.7,33.9h3.5c1.8,0,3-0.4,3.8-1.3s1.2-2,1.2-3.5c0-0.7-0.1-1.3-0.3-1.8s-0.5-1-0.9-1.4c-0.4-0.4-0.9-0.7-1.6-0.9
		c-0.7-0.3-1.4-0.4-2.2-0.4h-3.5L80.7,33.9L80.7,33.9z"/>
	<path class="st0" d="M106.5,39v9.8h-6.8V19.4H110c2.1,0,3.8,0.3,5.4,0.8c1.4,0.5,2.8,1.2,3.7,2c0.9,0.8,1.7,1.8,2.1,3
		c0.4,1.2,0.7,2.5,0.7,3.8c0,1.4-0.3,2.8-0.7,4.1c-0.4,1.3-1.2,2.2-2.2,3.1c-0.9,0.9-2.2,1.6-3.7,2.1c-1.4,0.5-3.3,0.8-5.2,0.8h-3.5
		V39z M106.5,33.9h3.5c1.8,0,3-0.4,3.8-1.3c0.8-0.9,1.2-2,1.2-3.5c0-0.7-0.1-1.3-0.3-1.8c-0.1-0.5-0.5-1-0.9-1.4
		c-0.4-0.4-0.9-0.7-1.6-0.9c-0.7-0.3-1.4-0.4-2.2-0.4h-3.5L106.5,33.9L106.5,33.9z"/>
	<path class="st0" d="M132.2,37.9v10.9h-6.8V19.4h9.6c2.1,0,3.9,0.3,5.5,0.7c1.6,0.4,2.8,1,3.7,1.8s1.7,1.7,2.1,2.8
		c0.4,1,0.7,2.2,0.7,3.4c0,0.9-0.1,1.8-0.4,2.8c-0.3,0.8-0.7,1.7-1.2,2.4c-0.5,0.7-1.2,1.3-1.8,2c-0.7,0.7-1.6,1-2.5,1.4
		c0.4,0.3,0.9,0.5,1.3,0.9c0.4,0.4,0.8,0.8,1,1.2l6.3,10.2h-6.2c-1.2,0-2-0.4-2.5-1.3l-4.9-8.5c-0.3-0.4-0.5-0.7-0.8-0.8
		c-0.3-0.1-0.7-0.3-1.2-0.3L132.2,37.9L132.2,37.9z M132.2,33.2h2.8c0.9,0,1.7-0.1,2.4-0.4c0.7-0.3,1.2-0.5,1.6-1s0.8-0.9,0.9-1.4
		c0.1-0.5,0.3-1.2,0.3-1.8c0-1.3-0.4-2.4-1.3-3c-0.9-0.7-2.1-1-3.9-1h-2.6V33.2L132.2,33.2z"/>
	<path class="st0" d="M179.7,48.8h-5.2c-0.5,0-1-0.1-1.4-0.4c-0.4-0.3-0.7-0.7-0.8-1l-1.7-5.1h-11.1l-1.7,5.1
		c-0.1,0.4-0.4,0.7-0.8,1s-0.9,0.4-1.4,0.4H150l11.4-29.5h6.9L179.7,48.8z M160.8,37.5h8l-2.8-8c-0.1-0.5-0.4-1.2-0.7-1.8
		c-0.3-0.7-0.5-1.4-0.7-2.2c-0.3,0.8-0.4,1.6-0.7,2.2c-0.3,0.7-0.4,1.3-0.7,1.8L160.8,37.5z"/>
</g>
</svg>
