<?xml version="1.0" encoding="utf-8"?>
<!-- Generator: Adobe Illustrator 23.1.0, SVG Export Plug-In . SVG Version: 6.00 Build 0)  -->
<svg version="1.1" id="Layer_1" xmlns="http://www.w3.org/2000/svg" xmlns:xlink="http://www.w3.org/1999/xlink" x="0px" y="0px"
	 viewBox="0 0 200 65" style="enable-background:new 0 0 200 65;" xml:space="preserve">
<style type="text/css">
	.st0{fill:#D8B6A4;}
	.st1{fill:#F5F7D9;}
</style>
<g>
	<polygon class="st0" points="36.6,37.3 51.6,28.3 54.8,32.5 69.1,23.8 69.1,37.3 59.6,46.8 46.1,46.8 	"/>
	<polyline class="st0" points="35.6,37.9 51.6,28.3 54.8,32.5 69.1,23.8 	"/>
	<polygon class="st0" points="73.2,21.5 67.4,21.5 70.3,26.5 	"/>
	<g>
		<polygon class="st0" points="62.2,25 62.2,16.9 59.6,14.3 56.7,14.3 56.7,28.3 		"/>
		<polygon class="st0" points="51.6,25.2 54.8,29.4 55.6,29 55.6,14.3 50.1,14.3 50.1,26.1 		"/>
		<polygon class="st0" points="48.8,26.9 48.8,14.3 46.1,14.3 43.3,17 43.3,30.2 		"/>
		<polygon class="st0" points="42,18.3 36.6,23.8 36.6,34.2 42,30.9 		"/>
	</g>
</g>
<g>
	<path class="st1" d="M80.7,34.9v7.5h-5.2V20h7.9c1.6,0,2.9,0.2,4.1,0.6c1.1,0.4,2.1,0.9,2.8,1.5s1.3,1.4,1.6,2.3
		c0.3,0.9,0.5,1.9,0.5,2.9c0,1.1-0.2,2.1-0.5,3.1s-0.9,1.7-1.7,2.4c-0.7,0.7-1.7,1.2-2.8,1.6c-1.1,0.4-2.5,0.6-4,0.6L80.7,34.9
		L80.7,34.9z M80.7,31h2.7c1.4,0,2.3-0.3,2.9-1s0.9-1.5,0.9-2.7c0-0.5-0.1-1-0.2-1.4s-0.4-0.8-0.7-1.1c-0.3-0.3-0.7-0.5-1.2-0.7
		s-1.1-0.3-1.7-0.3h-2.7L80.7,31L80.7,31z"/>
	<path class="st1" d="M100.4,34.9v7.5h-5.2V20h7.9c1.6,0,2.9,0.2,4.1,0.6c1.1,0.4,2.1,0.9,2.8,1.5s1.3,1.4,1.6,2.3
		c0.3,0.9,0.5,1.9,0.5,2.9c0,1.1-0.2,2.1-0.5,3.1s-0.9,1.7-1.7,2.4c-0.7,0.7-1.7,1.2-2.8,1.6c-1.1,0.4-2.5,0.6-4,0.6L100.4,34.9
		L100.4,34.9z M100.4,31h2.7c1.4,0,2.3-0.3,2.9-1s0.9-1.5,0.9-2.7c0-0.5-0.1-1-0.2-1.4s-0.4-0.8-0.7-1.1c-0.3-0.3-0.7-0.5-1.2-0.7
		s-1.1-0.3-1.7-0.3h-2.7L100.4,31L100.4,31z"/>
	<path class="st1" d="M120,34.1v8.3h-5.2V20h7.3c1.6,0,3,0.2,4.2,0.5s2.1,0.8,2.8,1.4s1.3,1.3,1.6,2.1c0.3,0.8,0.5,1.7,0.5,2.6
		c0,0.7-0.1,1.4-0.3,2.1c-0.2,0.6-0.5,1.3-0.9,1.8s-0.9,1-1.4,1.5s-1.2,0.8-1.9,1.1c0.3,0.2,0.7,0.4,1,0.7c0.3,0.3,0.6,0.6,0.8,0.9
		l4.8,7.8h-4.7c-0.9,0-1.5-0.3-1.9-1L123,35c-0.2-0.3-0.4-0.5-0.6-0.6s-0.5-0.2-0.9-0.2L120,34.1L120,34.1L120,34.1z M120,30.5h2.1
		c0.7,0,1.3-0.1,1.8-0.3s0.9-0.4,1.2-0.8s0.6-0.7,0.7-1.1s0.2-0.9,0.2-1.4c0-1-0.3-1.8-1-2.3s-1.6-0.8-3-0.8h-2V30.5L120,30.5z"/>
	<path class="st1" d="M156.2,42.4h-4c-0.4,0-0.8-0.1-1.1-0.3s-0.5-0.5-0.6-0.8l-1.3-3.9h-8.5l-1.3,3.9c-0.1,0.3-0.3,0.5-0.6,0.8
		s-0.7,0.3-1.1,0.3h-4.1l8.7-22.5h5.3L156.2,42.4z M141.8,33.8h6.1l-2.1-6.1c-0.1-0.4-0.3-0.9-0.5-1.4s-0.4-1.1-0.5-1.7
		c-0.2,0.6-0.3,1.2-0.5,1.7s-0.3,1-0.5,1.4L141.8,33.8z"/>
</g>
</svg>
