<?xml version="1.0" encoding="utf-8"?>
<!-- Generator: Adobe Illustrator 23.1.0, SVG Export Plug-In . SVG Version: 6.00 Build 0)  -->
<svg version="1.1" id="Layer_1" xmlns="http://www.w3.org/2000/svg" xmlns:xlink="http://www.w3.org/1999/xlink" x="0px" y="0px"
	 viewBox="0 0 2000 1500" style="enable-background:new 0 0 2000 1500;" xml:space="preserve">
<style type="text/css">
	.st0{fill-rule:evenodd;clip-rule:evenodd;fill:#E3E1D3;}
	.st1{fill-rule:evenodd;clip-rule:evenodd;}
	.st2{fill-rule:evenodd;clip-rule:evenodd;fill:#FFFFFF;}
	.st3{fill-rule:evenodd;clip-rule:evenodd;fill:#D4D2E3;}
	.st4{fill-rule:evenodd;clip-rule:evenodd;fill:#807D96;}
	.st5{fill-rule:evenodd;clip-rule:evenodd;fill:#96916E;}
	.st6{fill-rule:evenodd;clip-rule:evenodd;fill:#7F7658;}
	.st7{fill-rule:evenodd;clip-rule:evenodd;fill:#F27F71;}
	.st8{fill-rule:evenodd;clip-rule:evenodd;fill:#5D5F7F;}
	.st9{fill-rule:evenodd;clip-rule:evenodd;fill:#444D6B;}
	.st10{fill-rule:evenodd;clip-rule:evenodd;fill:#A3A8AE;}
	.st11{fill:#E3E1D3;}
	.st12{fill-rule:evenodd;clip-rule:evenodd;stroke:#000000;stroke-width:4;stroke-miterlimit:10;}
</style>
<g>
	<path class="st0" d="M448.06,63.8c-75.43,6.38-149.72,25.97-218.48,57.63c-36.74,16.92-73.6,38.89-93.56,74.07
		c-14.67,25.85-18.72,56.29-29.82,83.87C62.95,386.81-81.68,442.79-89.9,558.32c-3.78,53.18,24.44,104.65,21.37,157.88
		c-5.07,87.92-92.82,155.91-93.43,243.97c-0.54,77.03,66.73,144.43,58.75,221.05c-4.01,38.5-26.81,72.71-33.77,110.79
		c-16.66,91.15,66.25,177.17,157.11,195.39s183.92-13.76,268.47-51.68c37.89-16.99,77.13-35.69,118.61-33.84
		c42.86,1.92,81.21,25.41,120.56,42.51c68.96,29.96,159.04,37,210.81-17.53c7.71-8.12,14.61-17.6,24.76-22.32
		c20.11-9.36,42.92,3.41,62.23,14.32c94.76,53.54,210.08,69.52,315.83,43.76c32.37-7.88,64.45-19.59,97.76-19.22
		c60.23,0.67,114.67,40.55,174.89,41.96c48.7,1.14,94.01-22.9,136.75-46.29c61.19-33.48,124.94-69.3,162.61-128
		c50.93-79.38,42.87-181.49,32.97-275.28c-7.57-71.71-15.94-145.95-52.77-207.94c-11.77-19.8-26.45-38.39-32.91-60.5
		c-15.85-54.22,21.13-107.75,42.92-159.86c35.87-85.8,30.19-187.91-14.98-269.2c-12.36-22.25-28.32-43.69-50.93-55.37
		c-13.83-7.14-30.16-10.71-40.71-22.15c-19.38-21.01-8.91-54.34-11.68-82.78c-4.68-47.98-50.65-83.26-97.85-93.06
		c-47.2-9.8-95.94-0.25-143.65,6.64c-47.71,6.89-98.43,10.69-142.26-9.36c-24.06-11.01-44.55-28.61-68.16-40.56
		c-75.35-38.13-167.68-12.36-241.49,28.68c-32.49,18.06-64.48,39.35-101.15,45.42c-63.74,10.56-124.43-26.52-186.93-42.91
		c-85.05-22.3-179.77-4.28-250.7,47.69"/>
</g>
<path class="st1" d="M941.66,1354.82V777.35h-29.06v577.47H941.66z M1506.39,1354.82V777.35h-29.06v577.47H1506.39z"/>
<path class="st1" d="M941.66,827.19l-29.06,0.61v-50.45h29.06V827.19z M1506.39,779.2v36.06l-29.06,0.61V779.1L1506.39,779.2z"/>
<g transform="matrix(1,0,0,0.75234,0,253.369)">
	<rect x="784.95" y="679.84" class="st1" width="851.5" height="29.02"/>
</g>
<g id="MOUSE">
	<g>
		<path class="st1" d="M796.92,765.67c10.47-43.14,46.96-75.01,90.31-75.01c43.35,0,79.84,31.87,90.31,75.01H796.92z"/>
		<path class="st1" d="M945.25,765.67c-14.41-32.94-37.1-39.64-37.1-39.64c-1.92-0.54-3.03-2.51-2.48-4.39
			c0.56-1.88,2.57-2.96,4.49-2.42c0,0,27.09,7.37,42.94,46.44H945.25z"/>
	</g>
	<path class="st1" d="M975.16,765.67c2.69,52.54,9.08,135.28,24.81,179.02c3.46,9.62,7.32,17.3,11.8,22.14
		c3.65,3.97,7.67,5.88,12.25,4.61c4.42-1.22,8.99-4.38,13.26-8.58c-0.2-0.28-0.39-0.57-0.58-0.86c-5.59-8.53-8.55-21.93-8.3-33.67
		c0.13-6.42,1.22-12.34,3.24-16.76c1.79-3.93,4.35-6.75,7.48-8.16c3.26-1.47,7.23-1.55,11.94,0.68
		c11.57,5.48,14.08,17.75,10.58,31.18c-2.49,9.51-7.96,19.56-14.64,27.58c1.04,0.76,2.16,1.32,3.37,1.62
		c2.98,0.73,6.36-0.25,10.21-3.09c3.19-2.35,5.89-6.58,8.34-12.11c4.04-9.13,7.21-21.63,9.73-35.87
		c10.01-56.43,9.73-139.43,10.16-149.29c0.08-1.95,1.77-3.47,3.77-3.39c1.99,0.09,3.54,1.74,3.45,3.69
		c-0.43,9.92-0.18,93.43-10.25,150.2c-2.64,14.87-6,27.94-10.22,37.47c-3.06,6.9-6.65,12.03-10.63,14.96
		c-6.1,4.49-11.6,5.45-16.32,4.29c-2.31-0.57-4.48-1.67-6.46-3.24c-5.19,5.03-10.82,8.67-16.15,10.14c-7.25,2-13.82-0.42-19.6-6.68
		c-4.96-5.38-9.4-13.84-13.26-24.53c-15.94-44.33-22.51-128.28-25.23-181.37H975.16z M1042.26,957.33
		c5.64-7.04,10.24-15.64,12.36-23.8c2.56-9.8,1.73-19.05-6.71-23.05c-2.29-1.08-4.19-1.34-5.77-0.62c-1.7,0.77-2.91,2.46-3.9,4.61
		c-1.68,3.69-2.5,8.65-2.6,14.01C1035.43,938.43,1037.7,949.78,1042.26,957.33z M972.87,751.11c0.99,0.59,1.67,1.64,1.73,2.86
		l0.09,1.97C974.12,754.32,973.51,752.7,972.87,751.11z"/>
</g>
<g transform="matrix(1,0,0,1,8.16549,9.66786)">
	<ellipse class="st2" cx="1218.52" cy="1023.18" rx="73.41" ry="93.42"/>
</g>
<g transform="matrix(0.858154,0,0,1,233.798,7.53205)">
	<path class="st1" d="M1157.56,921.63v16.19c-45.38,0.74-80.91,40.11-80.91,87.58c0,47.46,35.53,86.82,80.91,87.57v16.2
		c-54.82-0.73-100.19-46.53-100.19-103.77C1057.38,968.15,1102.74,922.34,1157.56,921.63z"/>
</g>
<path class="st1" d="M1227.16,929.16l1.17-0.04c47.56,0,87.14,46.08,87.14,103.8c0,57.72-39.58,103.8-87.14,103.8l-1.17-0.04v-16.2
	l1.17,0.04c39.5,0,70.59-39.68,70.59-87.61c0-47.93-31.09-87.61-70.59-87.61l-1.17,0.04V929.16z"/>
<path class="st1" d="M1229.06,1030.77c4.16,0,7.54,3.3,7.54,7.38c0,4.07-3.38,7.38-7.54,7.38c-4.17,0-7.55-3.31-7.55-7.38
	C1221.51,1034.07,1224.89,1030.77,1229.06,1030.77z M1242.02,1021.09l25.39-48.13c0.91-1.74,0.22-3.88-1.56-4.77
	c-1.78-0.89-3.96-0.21-4.87,1.52l-25.39,48.13c-0.92,1.74-0.23,3.88,1.56,4.77C1238.92,1023.5,1241.1,1022.82,1242.02,1021.09z
	 M1208.35,981.47l9.66,37.3c0.49,1.89,2.45,3.04,4.39,2.56c1.94-0.48,3.1-2.41,2.61-4.3l-9.65-37.29c-0.49-1.9-2.46-3.05-4.4-2.57
	C1209.04,977.64,1207.87,979.57,1208.35,981.47z"/>
<g transform="matrix(1.01816,0.522775,-0.487759,0.949962,569.315,-1101.57)">
	<polygon class="st3" points="1599.64,1261.88 1697.01,1260.98 1695.91,1396.64 1598.53,1397.54 	"/>
</g>
<path class="st1" d="M1612.45,1094.9l16.91,8.49c1.78,0.89,3.96,0.2,4.87-1.53c0.91-1.74,0.21-3.88-1.57-4.77l-16.91-8.49
	c-1.78-0.89-3.96-0.2-4.87,1.54C1609.97,1091.87,1610.66,1094.01,1612.45,1094.9z M1622.91,1074.92l16.92,8.48
	c1.77,0.89,3.96,0.2,4.87-1.53c0.91-1.74,0.21-3.88-1.56-4.76l-16.92-8.49c-1.77-0.89-3.95-0.2-4.87,1.53
	C1620.43,1071.88,1621.14,1074.02,1622.91,1074.92z M1633.38,1054.93l16.91,8.49c1.78,0.89,3.96,0.2,4.87-1.54
	c0.91-1.73,0.21-3.87-1.57-4.76l-16.91-8.49c-1.78-0.89-3.96-0.2-4.87,1.53C1630.9,1051.9,1631.61,1054.04,1633.38,1054.93z
	 M1643.85,1034.94l16.91,8.49c1.77,0.89,3.96,0.2,4.87-1.54c0.91-1.73,0.21-3.87-1.56-4.76l-16.92-8.49
	c-1.77-0.89-3.95-0.2-4.87,1.53C1641.37,1031.91,1642.07,1034.05,1643.85,1034.94z M1654.32,1014.95l16.92,8.49
	c1.77,0.89,3.95,0.2,4.87-1.54c0.91-1.73,0.21-3.87-1.56-4.76l-16.92-8.49c-1.77-0.89-3.96-0.2-4.87,1.53
	C1651.84,1011.93,1652.54,1014.06,1654.32,1014.95z M1664.5,995.51l16.92,8.49c1.77,0.89,3.95,0.2,4.87-1.53s0.21-3.88-1.56-4.76
	l-16.92-8.49c-1.77-0.89-3.96-0.2-4.87,1.53C1662.02,992.48,1662.73,994.62,1664.5,995.51z"/>
<path class="st2" d="M1355.06,953.75l153.37,35.63l-8.16,22.39L1355.06,953.75z"/>
<polygon class="st4" points="1351.8,949.38 1511.79,1005.27 1439.18,1204.43 1279.19,1148.54 "/>
<g transform="matrix(1.44259,-0.514811,0.514811,1.44259,-1943.85,702.105)">
	<path class="st4" d="M2055.01,933.54l-83.09-52.76c-1.1-0.7-1.43-2.14-0.73-3.21c0.7-1.07,2.15-1.37,3.25-0.67l85.3,54.16
		c0.56,0.36,0.95,0.93,1.06,1.58c0.11,0.65-0.05,1.31-0.47,1.82l-10.26,12.77c-0.8,1-2.28,1.16-3.3,0.35
		c-1.02-0.8-1.2-2.26-0.4-3.26L2055.01,933.54z"/>
</g>
<g id="DOCUMENT">
	<rect x="1429.29" y="1012.94" class="st2" width="200.94" height="235.09"/>
	<path class="st1" d="M1611.99,1221.28h-166.11v10.52h166.11V1221.28z M1611.99,1202.01h-166.11v10.52h166.11V1202.01z
		 M1611.99,1182.74h-166.11v10.52h166.11V1182.74z M1611.99,1163.47h-166.11v10.52h166.11V1163.47z M1611.99,1144.2h-166.11v10.52
		h166.11V1144.2z M1611.99,1124.92h-166.11v10.52h166.11V1124.92z M1611.99,1105.65h-166.11v10.52h166.11V1105.65z M1611.99,1086.38
		h-166.11v10.52h166.11V1086.38z M1611.99,1067.11h-166.11v10.52h166.11V1067.11z M1611.99,1047.84h-166.11v10.52h166.11V1047.84z
		 M1611.99,1028.54h-166.11v10.52h166.11V1028.54z"/>
	<path class="st1" d="M1432.9,1244.49h97.56c1.99,0,3.62,1.58,3.62,3.54s-1.63,3.54-3.62,3.54h-101.17c-2,0-3.62-1.58-3.62-3.54
		v-235.09c0-1.96,1.62-3.54,3.62-3.54h96.07c1.99,0,3.62,1.58,3.62,3.54c0,1.96-1.63,3.54-3.62,3.54h-92.45V1244.49z"/>
	<path class="st1" d="M1626.61,1016.49h-101.26c-2,0-3.62-1.58-3.62-3.54c0-1.96,1.62-3.54,3.62-3.54h104.87
		c2,0,3.62,1.58,3.62,3.54v235.09c0,1.96-1.62,3.54-3.62,3.54h-99.76c-2,0-3.62-1.58-3.62-3.54s1.62-3.54,3.62-3.54h96.15V1016.49z"
		/>
</g>
<g transform="matrix(1.5832,0,0,1.3594,1025.61,-595.823)">
	<rect x="65.33" y="1206.79" class="st5" width="339.22" height="231.1"/>
</g>
<path class="st6" d="M1458.24,1044.69v140.56l-16.93-13.04l-15.86,13.04l-16.1-13.04l-15.37,13.04l-14.13-13.04l-14.81,13.04
	v-140.56H1458.24z"/>
<g transform="matrix(1.03135,0,0,1.03135,-47.2873,-19.2041)">
	<ellipse class="st4" cx="326.58" cy="305.59" rx="75.84" ry="74.23"/>
</g>
<path class="st1" d="M247.94,358.04c-20.63-13.28-34.25-36.13-34.25-62.07c0-40.97,33.98-74.23,75.84-74.23
	c9.44,0,18.48,1.69,26.82,4.78l-39.63,76.19c-2.96-4.91-8.55-8.23-14.95-8.23c-9.49,0-17.19,7.28-17.19,16.24
	c0,8.96,7.7,16.24,17.19,16.24c0.82,0,1.63-0.05,2.42-0.16L247.94,358.04z"/>
<g transform="matrix(1.10226,-0.0372489,0.039552,1.17041,-98.7108,-52.9081)">
	<path class="st0" d="M327.4,252.23c0,0-10.58,23.59-10.57,33.7c0,5.39,4.76,9.78,10.61,9.78c5.85,0,10.6-4.37,10.59-9.77
		C338.02,275.84,327.4,252.23,327.4,252.23z"/>
</g>
<path class="st4" d="M268.92,1121.54c-39.2,3.38-87.64,3.58-144.58-3.57c-38.68-4.85-167.83-44.58-135.21-209.77
	c6.45-32.66,38.91-113.36,176.87-120.38c40.27-2.05,321.64-33.74,434.36,87.88c2.21,2.39,5.06,5.58,8.26,9.69
	c38.28,17.01,148.96,75.71,144.74,184.65c0,0-8.74,122.02-170.51,174.62c-11.95,26.21-25.99,54.18-42.39,83.97
	c0,0,36.86,9.65,46.2,29.93H302.25l17.03-52.75l-17.69,4.09c-0.17,18.34-17.7,36.65-32.66,49.86V1121.54z"/>
<path class="st7" d="M306.52,1308.76l15.72-194.89c0.16-1.95,1.9-3.4,3.89-3.25c1.99,0.15,3.48,1.86,3.32,3.81l-15.54,192.62
	L306.52,1308.76z"/>
<path class="st8" d="M354.29,1104.68l34.75-6.59c0,0,12.77-40.33,21.53-68.01c0.53-1.68-0.29-3.49-1.92-4.22
	c-1.63-0.73-3.57-0.17-4.52,1.32C385.15,1056.69,354.29,1104.68,354.29,1104.68"/>
<path class="st8" d="M268.92,1121.54c-8.74,0.75,70.21-14.38,116.21-27.92c2.88-0.85,6.17-1.33,6.17-1.33s-1.29,4.57-1.71,5.82
	l-55.43,166.12l241.06-3.2c-1.13,2.36-2.27,4.74-3.43,7.13l-239.43,3.19c-0.19,0-0.38-0.02-0.57-0.04l-12.53,34.51l-7.15,1.66
	l68.46-205.17c-36.15,10.27-72.7,19.21-111.67,24.79V1121.54z M582.98,1244.61c107.63-223.78,23.64-361.81,25.65-359.22
	c2.77,1.23,5.92,2.68,9.4,4.36c22.26,42.4,64.04,161.03-25.52,351.63C589.4,1242.48,586.22,1243.56,582.98,1244.61z"/>
<path class="st4" d="M203.21,389.24c167.33,1.75,286.73,24.08,426.3,35.18c42.17,3.35,138.78,27.02,116.19,112l0,0
	c-8.57,32.24-38.43,54.65-72.46,54.39c-58.96-0.45-139.5-1.06-139.5-1.06s63.88,53.2,196.88,55.08c0,0,146.62,12.17,160.36,12.71
	c24.29,0.96,38.82,1.33,52.15,2.08c2.87,0.17,5.4,1.88,6.57,4.45c1.17,2.57,0.78,5.56-1.01,7.75c-2.77,3.37-8.34,7.18-18.8,11.03
	c-19.1,7.04-34.05,7.65-48.73,11.88c1.1-2.4,23.85,18.57,37.17,32.03c2.65,2.71,3.6,6.61,2.5,10.21c-1.11,3.59-4.11,6.32-7.86,7.15
	c-2.88,0.64-6.35,0.78-10.5,0.06c7.9,7.54-1.33,20.05-26.2,7.77c-6.53-3.22-8.78-4.12-25.57-14.28c0,0,5.36,9.43,8.51,14.98
	c0.83,1.47,1.01,3.21,0.48,4.82c-0.52,1.6-1.71,2.92-3.26,3.64c-3.45,1.58-8.91,2.08-17.01-2.07c-12.32-6.29-20.69-9.76-28.38-12.85
	c-7.09-2.86-15.15-2.21-21.66,1.74c-26.85,16.23-110.7,53.99-269.48,18.52c0,0-95.13-12.31-219.51-91.09
	c-3.31-12.83-157.93,165.73-295.09,15.15C-48.74,631.18-59.92,386.49,203.21,389.24z"/>
<path class="st9" d="M850.88,738.03c-24.22-31.45-41.3-32.16-41.3-32.16c-1.99-0.03-3.59-1.64-3.55-3.6
	c0.03-1.95,1.67-3.52,3.67-3.48c0,0,23.09-0.17,53.38,43.81c0.57,0.84,0.73,1.83,0.53,2.74c-3.1-1.77-7.16-4.17-12.94-7.66
	L850.88,738.03z M902.45,744.18c0.27,0.26-33.12-28.22-37.32-32.69c-14.29-15.24-24.74-22.37-31.67-25.64
	c-5.18-2.45-8.46-2.5-8.58-2.5c0.05,0,0.09-0.01,0.13-0.02l-0.13,0.02l0,0c-1.92,0.24-3.71-1.05-4.02-2.94
	c-0.33-1.93,1.01-3.75,2.98-4.07c0,0,15.22-3.12,46.63,30.35c4.67,4.98,27.49,26.14,43.31,37.21c-0.27,0.08-0.54,0.15-0.82,0.21
	C910.07,744.77,906.6,744.91,902.45,744.18z M835.32,653.37c6.64,0.53,13.04,1.04,19,1.5c5.14,3.59,10.4,8.44,15.17,14.98
	c3.32,4.55,9.8,13.8,21.39,22.51c-2.97,0.62-5.9,1.3-8.81,2.11c-9.66-8.18-15.36-16.25-18.47-20.51
	C854.27,661.18,842.83,655.7,835.32,653.37z"/>
<path class="st8" d="M488.93,759.91c-37.8-9.75-106.87-32.82-188.57-84.56c-1.5-10.85-160.22,171.1-295.09,15.15
	c-53.2-61.52-65.2-304,197.93-301.26c167.33,1.75,286.73,24.08,426.3,35.18c42.17,3.35,138.78,27.02,116.19,112l0,0
	c-8.57,32.24-38.43,54.65-72.46,54.39c-58.96-0.45-139.5-1.06-139.5-1.06s45.5,37.9,139.65,50.85l-21.12,140.46
	c-23.8,0.5-50.75-0.94-81-5.21C546.35,771.01,517.78,765.47,488.93,759.91z"/>
<g transform="matrix(1,0,0,1,-36.5139,-2.95153)">
	<path class="st9" d="M312.04,695.77c-20.5-24.03-31.18-50.6-35.98-65.31c-0.35-1.23,0.21-2.54,1.35-3.16
		c1.14-0.62,2.57-0.38,3.45,0.57c22.76,24.07,50.98,46.48,55.42,49.96C334,677.97,325.41,685.46,312.04,695.77z M570.37,592.8
		L570.37,592.8l0.05,0.04l0.06,0.05l0.04,0.03l0.03,0.03l0.05,0.04l0.07,0.05l0.06,0.05l0.05,0.05l0.05,0.04l0.06,0.05l0.11,0.08
		l0.08,0.07l0.05,0.03l0.05,0.04l0.16,0.12l0.11,0.09l0.03,0.02l0.04,0.02l0.27,0.21l0.1,0.07l0.01,0.01
		c0.14,0.11,0.3,0.23,0.46,0.35l0.04,0.02l0.15,0.12l0.28,0.21l0.06,0.04c0.14,0.11,0.31,0.22,0.46,0.34l0.03,0.02l0.03,0.02
		c0.37,0.27,0.77,0.55,1.19,0.86l0.08,0.05l0.18,0.13l0.1,0.07l0.03,0.02l0.08,0.06l0.16,0.11l0.08,0.06l0.05,0.04l0.12,0.08
		l0.13,0.09l0.07,0.05l0.07,0.05l0.15,0.1l0.11,0.07l0.05,0.03l0.1,0.07l0.19,0.13l0.08,0.05l0.03,0.02l0.1,0.07l0.25,0.17
		l0.05,0.04c-42.43-26.09-118.27-81.34-168.23-119.3c-1.97-1.5-2.33-4.28-0.8-6.21c1.53-1.93,4.37-2.28,6.34-0.78
		c51.67,39.25,131.17,97.18,172.08,121.59l-16.02-0.12l0.1,0.08L570.37,592.8z M592.89,459.29l124.55,3.46
		c2.49,0.07,4.58-1.86,4.65-4.3c0.06-2.44-1.9-4.48-4.39-4.55l-124.55-3.46c-2.5-0.07-4.58,1.86-4.65,4.3
		C588.42,457.18,590.39,459.22,592.89,459.29z"/>
</g>
<path class="st1" d="M430.54,469.84c-18.21-40.85-103.74-75.55-103.74-75.55l34.68,2.74c38.57,17.16,67.04,46.98,78.24,59.98
	c4.27,0.56,14.89,2.15,15.07,4.06c0.22,2.4,1.7,42.71,1.7,42.71c-0.14,0.07-0.27,0.13-0.4,0.19l1.2,0.08
	c21.37,38.71,13.59,93.58,44.09,126.56c9.66,10.44,22.29,20.25,36.11,24.75c16.05,5.22,32.72,4.98,49.38,4.02
	c4.4-0.25,15.1-1.02,20.48-1.4c2-0.14,3.92,0.73,5.11,2.31c4.61,6.16,16.41,21.94,22.16,29.61c1.86,2.49,1.61,5.93-0.6,8.13
	c-7.91,7.88-25.84,25.75-31.93,31.81c-1.32,1.32-3.21,1.92-5.07,1.62c-3.53-0.53-9.14-1.42-11.25-2.02
	c-12.25-3.46-24.33-7.53-36.12-12.31c-33.71-13.67-69.36-35.22-84.04-69.29c-8.58-19.9-9.87-41.14-9.78-62.45
	c0.08-18.78,2.33-38.55-1.68-57.09c-1.56-7.21-5.02-13.96-8.43-20.48c-0.08-0.15-0.39-0.65-0.79-1.31
	c-16.08-0.56-23.5-20.66-23.5-20.66L430.54,469.84z"/>
<path class="st4" d="M593.01,589.94l-32.65-142.25c0,0-31.02-1.81-49.43-5.05c0,0-45.16-14.38-76.87-4.15
	c-5.16,1.66-21.07,10.19-31.92,30.68c-4.53,8.55,10.4,14.11,27.6,0c3.52-2.88,10.27-6.23,17.3-6.8c0,0-21.95,16.82,0,30.93
	c0,0-4.5,14.98,14.52,18.1c0,0-2.83,22.39,32.09,43.98C503.65,561.56,581.31,592.43,593.01,589.94z"/>
<path class="st9" d="M455.37,509.67c2.9-8.19,9.29-13.09,15.45-15.95c7.12-3.31,13.87-3.84,13.87-3.84c1.99-0.16,3.73,1.29,3.9,3.24
	c0.16,1.95-1.32,3.66-3.31,3.82c0,0-5.47,0.55-11.35,3.18c-9.16,4.1-12.35,11.27-12.35,11.27
	C459.14,510.99,457.09,510.4,455.37,509.67z M441.81,489.1c3.93-6.68,10.04-11,16.23-13.74c10.15-4.5,20.4-4.69,20.4-4.69
	c2-0.04,3.65,1.52,3.69,3.47c0.04,1.95-1.55,3.57-3.54,3.61c0,0-8.83,0.18-17.57,4.06c-5.55,2.46-13.98,11.48-13.98,11.48
	C444.9,491.91,443.18,490.51,441.81,489.1z M434.6,466.05c0.07-0.6,0.29-1.19,0.68-1.71c11.22-15.01,35.83-15.97,35.83-15.97
	c2-0.06,3.67,1.47,3.73,3.42c0.07,1.95-1.5,3.59-3.5,3.65c0,0-7.62,0.26-15.81,3.23c-4.67,1.7-8.5,3.69-8.5,3.69
	C442.52,462.73,438.11,464.25,434.6,466.05z"/>
<path class="st1" d="M209.21,389.24c0,0,35.8,2.06,87.14,31.37c15.98,9.12,55.04,34.49,102.46,48.74
	c18.01,5.41,26.74,1.4,32.82,3.18l-6.77,15.79c0,0-30.28-3.08-41.68-7.1C383.2,481.21,239.9,392.91,209.21,389.24z"/>
<g transform="matrix(1,0,0,1.02563,38.9823,-33.5916)">
	<rect x="-30.92" y="1126.54" class="st5" width="339.22" height="231.1"/>
</g>
<g transform="matrix(1,0,0,1,36.5953,0)">
	<path class="st6" d="M37.48,1358.85h-7.23v-237.04h7.23V1358.85z M196.31,1121.82v122.91l-20.93-14.61l-20.68,14.61v-122.91H196.31
		z M17.89,1121.82v82.1l-16.57-24.71l-11.38,10.45v-67.84H17.89z"/>
</g>
<path class="st1" d="M1227.21,644.96H993.15V274.82h568.22v370.14h-245.95v95.31h31.81v25.38h-151.57v-25.38h31.55V644.96z"/>
<path class="st1" d="M1546.38,274.82v370.14h-245.95v95.31h31.81v25.38h-136.58v-25.38h31.55v-95.31H993.15V274.82H1546.38z"/>
<g transform="matrix(0.877754,0,0,0.822814,222.265,115.164)">
	<rect x="910.5" y="228.44" class="st0" width="568.22" height="370.14"/>
</g>
<path class="st10" d="M1300.56,739.5h12.24c-0.64,0.55-1.48,0.89-2.4,0.89l-83.06-0.89v-6.19h73.21V739.5z M1300.56,652.1h-73.21
	v-7.08h73.21V652.1z"/>
<rect x="1085.75" y="163.93" class="st3" width="283.41" height="339.91"/>
<g transform="matrix(1,0,0,1,11.2896,-16.1969)">
	<ellipse class="st8" cx="1287.71" cy="245.55" rx="44.63" ry="43.69"/>
</g>
<path class="st4" d="M1263,255.17c8.44-8.24,20.47-13.4,33.84-13.4c14.64,0,27.71,6.2,36.16,15.86c-8.18,9.42-20.39,15.41-34,15.41
	C1284.23,273.04,1271.13,266,1263,255.17z"/>
<g transform="matrix(1,0,0,1,-2.03427,2.40728)">
	<ellipse class="st4" cx="1300.05" cy="218.55" rx="15.62" ry="15.29"/>
</g>
<path class="st1" d="M1282.4,221.06v-0.1c0-8.44,7-15.29,15.62-15.29c8.62,0,15.62,6.85,15.62,15.29v0.08
	c-10.59,0.09-15.62-10.69-15.62-10.69C1295.21,219.21,1287.03,220.86,1282.4,221.06z"/>
<path class="st8" d="M1332.69,464.76h-195.15v10.85h195.15V464.76z M1332.69,441.79h-195.15v10.85h195.15V441.79z M1332.69,419.49
	h-195.15v10.85h195.15V419.49z M1325,389.14h-210.97v17.63H1325V389.14z M1332.69,356.38h-195.15v10.85h195.15V356.38z
	 M1332.69,333.41h-195.15v10.85h195.15V333.41z M1332.69,311.11h-195.15v10.85h195.15V311.11z M1263.53,272.56h-149.49v17.63h149.49
	V272.56z M1237.15,239.79h-118.09v7.88h118.09V239.79z M1206.86,224.24h-87.8v7.88h87.8V224.24z M1230.27,207.56h-111.2v7.88h111.2
	V207.56z M1242.52,191.38h-123.46v7.88h123.46V191.38z"/>
<rect x="1271.92" y="424.46" class="st3" width="227.55" height="129.42"/>
<path class="st1" d="M1499.46,432.95l-111.75,73.83c-1.23,0.81-2.83,0.81-4.05,0l-111.75-73.8v-8.52h0.03l113.74,75.11l113.7-75.11
	h0.07V432.95z"/>
<g id="CURSER" transform="matrix(0.716073,-0.628566,0.835407,0.951711,-129.657,1093.26)">
	<path class="st8" d="M1416.8,406.73l-0.28-19.96l29.56,0.23l-0.26-18.54l76.42,29.12l-75.62,27.91l-0.26-18.54L1416.8,406.73z"/>
</g>
<g>
	<path class="st0" d="M436.67,65.49c35.59-4.08,72.36,2.88,103.99,19.69c12.84,6.82,25.91,16.82,28.18,31.18
		c3.46,21.89-18.92,38.24-38.32,48.94c-36.93,20.36-76.18,41.31-118.33,40.06c-51.47-1.53-96.57-35.85-147.48-43.61
		c-12.65-1.93-26.15-2.39-36.91-9.32c-10.76-6.93-16.55-23.6-7.45-32.6"/>
</g>
<g>
	<g>
		<path class="st11" d="M1713.86,1380.5c1.93,0,1.93-3,0-3C1711.93,1377.5,1711.92,1380.5,1713.86,1380.5L1713.86,1380.5z"/>
	</g>
</g>
<line class="st12" x1="-132.11" y1="1358.85" x2="2097" y2="1359.75"/>
</svg>
