<?xml version="1.0" encoding="utf-8"?>
<!-- Generator: Adobe Illustrator 23.1.0, SVG Export Plug-In . SVG Version: 6.00 Build 0)  -->
<svg version="1.1" id="Layer_1" xmlns="http://www.w3.org/2000/svg" xmlns:xlink="http://www.w3.org/1999/xlink" x="0px" y="0px"
	 viewBox="0 0 1200 10000" style="enable-background:new 0 0 1200 10000;" xml:space="preserve">
<style type="text/css">
	.st0{fill-rule:evenodd;clip-rule:evenodd;fill:#E3E1D3;}
	.st1{fill-rule:evenodd;clip-rule:evenodd;fill:#776947;}
	.st2{fill-rule:evenodd;clip-rule:evenodd;}
	.st3{fill-rule:evenodd;clip-rule:evenodd;fill:#D4D2E3;}
	.st4{fill-rule:evenodd;clip-rule:evenodd;fill:#515477;}
	.st5{fill-rule:evenodd;clip-rule:evenodd;fill:#FFFFFF;}
	.st6{fill-rule:evenodd;clip-rule:evenodd;fill:#807D96;}
	.st7{fill-rule:evenodd;clip-rule:evenodd;fill:#96916E;}
	.st8{fill-rule:evenodd;clip-rule:evenodd;fill:#F27F71;}
	.st9{fill-rule:evenodd;clip-rule:evenodd;fill:#626384;}
	.st10{opacity:0.6;}
</style>
<g>
	<path class="st0" d="M665.84,4657.54c-30.27-35.27-95.02-30.22-119.44,9.33c-7.5,12.15-11.61,26.6-21.63,36.77
		c-21.34,21.67-58.36,13.95-84.44-1.69c-26.08-15.64-49.61-38.04-79.59-43.13c-31.74-5.4-63.32,10.1-89.5,28.84
		c-26.76,19.16-51.54,43.43-62.34,74.52c-13.96,40.17-2.56,84.9-10.86,126.61c-6.33,31.84-24.53,61.18-50.24,81
		c-10.12,7.8-21.57,14.4-29.01,24.79c-8.69,12.14-10.67,27.78-10.92,42.7c-1.01,61.31,23.96,122.63,67.5,165.8
		c7.53,7.46,16.28,16.21,14.88,26.72c-1.09,8.2-8.08,14.12-14.3,19.58c-19.98,17.51-36.82,38.6-49.49,61.95
		c-4.7,8.66-8.92,18.06-8.55,27.9c0.88,23.77,26.31,37.88,48.44,46.59c67.86,26.69,145.51,47.36,212.09,17.63
		c31.59-14.11,59.56-39.17,94.04-42.02c28.9-2.39,56.29,11.44,82.98,22.79c85.12,36.2,179.69,49.9,271.58,39.34
		c63.82-7.34,128.36-27.39,176.04-70.45c47.68-43.05,74.94-112.45,55.59-173.7c-8.23-26.04-23.98-48.99-34.92-74.02
		c-20.96-47.98-23.38-103.78-6.64-153.39c12.98-38.47,37.33-76.01,31.25-116.15c-4.1-27.02-21.51-49.86-38.36-71.38
		c-26.26-33.53-57.13-69.68-99.45-74.42c-41.97-4.7-88.01,22.89-124.38,1.42c-9.03-5.33-16.23-13.22-24.49-19.69
		c-25.93-20.32-60.65-25.5-93.6-25.23c-75.44,0.6-157.78,33.36-187.44,102.73"/>
</g>
<path class="st1" d="M659.1,5276.99v-248.68h-12.25v248.68H659.1z M897.16,5276.99v-248.68h-12.25v248.68H897.16z"/>
<path class="st2" d="M659.1,5049.78l-12.25,0.26v-21.73h12.25V5049.78z M897.16,5029.11v15.53l-12.25,0.26v-15.83L897.16,5029.11z"
	/>
<g transform="matrix(1,0,0,0.75234,0,253.369)">
	<rect x="593.04" y="6339.63" class="st1" width="358.95" height="12.5"/>
</g>
<path class="st3" d="M598.09,5023.28c4.41-18.58,19.8-32.3,38.07-32.3c18.28,0,33.66,13.73,38.07,32.3H598.09z"/>
<path class="st4" d="M660.62,5023.28c-6.07-14.18-15.64-17.07-15.64-17.07c-0.81-0.23-1.28-1.08-1.04-1.89
	c0.24-0.81,1.08-1.27,1.89-1.04c0,0,11.42,3.17,18.1,20H660.62z"/>
<path class="st4" d="M673.22,5023.28c1.13,22.63,3.83,58.26,10.46,77.09c1.46,4.14,3.09,7.45,4.97,9.53
	c1.54,1.71,3.23,2.53,5.17,1.99c1.86-0.53,3.79-1.89,5.59-3.69c-0.08-0.12-0.16-0.24-0.24-0.37c-2.36-3.67-3.6-9.44-3.5-14.5
	c0.05-2.76,0.51-5.31,1.36-7.22c0.75-1.69,1.83-2.91,3.15-3.52c1.37-0.63,3.05-0.67,5.03,0.29c4.88,2.36,5.94,7.64,4.46,13.43
	c-1.05,4.09-3.35,8.42-6.17,11.88c0.44,0.33,0.91,0.57,1.42,0.7c1.26,0.32,2.68-0.11,4.3-1.33c1.35-1.01,2.48-2.83,3.51-5.21
	c1.7-3.93,3.04-9.32,4.1-15.45c4.22-24.3,4.1-60.04,4.28-64.29c0.03-0.84,0.75-1.49,1.59-1.46c0.84,0.04,1.49,0.75,1.46,1.59
	c-0.18,4.27-0.08,40.23-4.32,64.68c-1.11,6.4-2.53,12.03-4.31,16.14c-1.29,2.97-2.8,5.18-4.48,6.44c-2.57,1.93-4.89,2.35-6.88,1.85
	c-0.97-0.24-1.89-0.72-2.72-1.4c-2.19,2.17-4.56,3.73-6.81,4.37c-3.06,0.86-5.82-0.18-8.26-2.88c-2.09-2.32-3.96-5.96-5.59-10.56
	c-6.72-19.09-9.49-55.24-10.64-78.11H673.22z M701.51,5105.82c2.38-3.03,4.32-6.74,5.21-10.25c1.08-4.22,0.73-8.2-2.83-9.93
	c-0.96-0.47-1.77-0.58-2.43-0.27c-0.72,0.33-1.23,1.06-1.64,1.99c-0.71,1.59-1.05,3.72-1.1,6.03
	C698.63,5097.68,699.59,5102.57,701.51,5105.82z M672.26,5017.02c0.42,0.26,0.71,0.71,0.73,1.23l0.04,0.85
	C672.78,5018.4,672.53,5017.7,672.26,5017.02z"/>
<g transform="matrix(1,0,0,1,8.16549,9.66786)">
	<ellipse class="st0" cx="771.08" cy="5128.68" rx="30.95" ry="40.23"/>
</g>
<g transform="matrix(0.858154,0,0,1,233.798,7.53205)">
	<path class="st2" d="M635.85,5086.16v6.97c-19.13,0.32-34.11,17.27-34.11,37.71c0,20.44,14.98,37.39,34.11,37.71v6.98
		c-23.11-0.31-42.23-20.04-42.23-44.69C593.62,5106.19,612.74,5086.47,635.85,5086.16z"/>
</g>
<path class="st2" d="M779.45,5093.69l0.49-0.02c20.05,0,36.73,19.85,36.73,44.7c0,24.85-16.69,44.7-36.73,44.7l-0.49-0.02v-6.98
	l0.49,0.02c16.65,0,29.76-17.09,29.76-37.73s-13.11-37.73-29.76-37.73l-0.49,0.02V5093.69z"/>
<path class="st2" d="M780.25,5137.45c1.75,0,3.18,1.42,3.18,3.18c0,1.75-1.43,3.18-3.18,3.18c-1.76,0-3.18-1.43-3.18-3.18
	C777.07,5138.87,778.5,5137.45,780.25,5137.45z M785.72,5133.28l10.7-20.73c0.39-0.75,0.09-1.67-0.66-2.05
	c-0.75-0.38-1.67-0.09-2.05,0.66l-10.7,20.73c-0.39,0.75-0.1,1.67,0.66,2.05C784.41,5134.32,785.33,5134.02,785.72,5133.28z
	 M771.53,5116.21l4.07,16.06c0.21,0.82,1.03,1.31,1.85,1.1c0.82-0.21,1.31-1.04,1.1-1.85l-4.07-16.06
	c-0.21-0.82-1.04-1.31-1.85-1.11C771.81,5114.57,771.32,5115.4,771.53,5116.21z"/>
<g id="GREEN-NOTEBOOK">
	<g transform="matrix(1.01816,0.522775,-0.487759,0.949962,569.315,-1101.57)">
		
			<rect x="2746.39" y="5015.54" transform="matrix(2.533785e-06 1 -1 2.533785e-06 7811.1567 2264.1013)" class="st3" width="54.26" height="44.19"/>
	</g>
	<path class="st3" d="M941.87,5165.06l7.13,3.66c0.75,0.38,1.67,0.09,2.05-0.66c0.39-0.75,0.09-1.67-0.66-2.05l-7.13-3.66
		c-0.75-0.38-1.67-0.09-2.05,0.66C940.82,5163.76,941.12,5164.68,941.87,5165.06z M946.28,5156.46l7.13,3.65
		c0.75,0.39,1.67,0.09,2.05-0.66c0.39-0.75,0.09-1.67-0.66-2.05l-7.13-3.66c-0.75-0.38-1.67-0.09-2.05,0.66
		C945.23,5155.15,945.53,5156.07,946.28,5156.46z M950.69,5147.85l7.13,3.66c0.75,0.38,1.67,0.09,2.05-0.66
		c0.39-0.75,0.09-1.67-0.66-2.05l-7.13-3.66c-0.75-0.39-1.67-0.09-2.05,0.66C949.65,5146.55,949.95,5147.47,950.69,5147.85z
		 M955.11,5139.24l7.13,3.66c0.75,0.38,1.67,0.09,2.05-0.66c0.39-0.75,0.09-1.67-0.66-2.05l-7.13-3.66
		c-0.75-0.38-1.67-0.09-2.05,0.66C954.06,5137.94,954.36,5138.86,955.11,5139.24z M959.52,5130.64l7.13,3.66
		c0.75,0.39,1.67,0.09,2.05-0.66c0.39-0.75,0.09-1.67-0.66-2.05l-7.13-3.66c-0.75-0.39-1.67-0.09-2.05,0.66
		C958.47,5129.33,958.77,5130.25,959.52,5130.64z M963.81,5122.26l7.13,3.66c0.75,0.39,1.67,0.09,2.05-0.66
		c0.39-0.75,0.09-1.67-0.66-2.05l-7.13-3.66c-0.75-0.38-1.67-0.09-2.05,0.66C962.77,5120.96,963.06,5121.88,963.81,5122.26z"/>
</g>
<path class="st5" d="M833.37,5104.28l64.65,15.34l-3.44,9.64L833.37,5104.28z"/>
<rect x="804.88" y="5121.51" transform="matrix(0.3361 -0.9418 0.9418 0.3361 -4292.7017 4224.8511)" class="st6" width="91.06" height="71.61"/>
<path class="st6" d="M895.01,5120.27l-61.98-14.36c-0.82-0.19-1.33-1.01-1.14-1.83c0.19-0.82,1.01-1.33,1.83-1.14l63.62,14.74
	c0.42,0.1,0.78,0.37,0.99,0.74c0.21,0.38,0.25,0.82,0.11,1.23l-3.47,10.21c-0.27,0.8-1.14,1.22-1.93,0.95
	c-0.8-0.27-1.22-1.14-0.95-1.94L895.01,5120.27z"/>
<g id="DOCUMENT">
	<rect x="864.66" y="5129.77" class="st5" width="84.7" height="101.24"/>
	<path class="st2" d="M941.68,5219.49h-70.02v4.53h70.02V5219.49z M941.68,5211.19h-70.02v4.53h70.02V5211.19z M941.68,5202.89
		h-70.02v4.53h70.02V5202.89z M941.68,5194.59h-70.02v4.53h70.02V5194.59z M941.68,5186.29h-70.02v4.53h70.02V5186.29z
		 M941.68,5177.99h-70.02v4.53h70.02V5177.99z M941.68,5169.69h-70.02v4.53h70.02V5169.69z M941.68,5161.4h-70.02v4.53h70.02V5161.4
		z M941.68,5153.1h-70.02v4.53h70.02V5153.1z M941.68,5144.8h-70.02v4.53h70.02V5144.8z M941.68,5136.49h-70.02v4.53h70.02V5136.49z
		"/>
	<path class="st2" d="M866.18,5229.48h41.12c0.84,0,1.52,0.68,1.52,1.52c0,0.84-0.69,1.52-1.52,1.52h-42.65
		c-0.84,0-1.52-0.68-1.52-1.52v-101.24c0-0.84,0.68-1.52,1.52-1.52h40.5c0.84,0,1.52,0.68,1.52,1.52s-0.69,1.52-1.52,1.52h-38.97
		V5229.48z"/>
	<path class="st2" d="M947.84,5131.3h-42.68c-0.84,0-1.52-0.68-1.52-1.52s0.68-1.52,1.52-1.52h44.21c0.84,0,1.52,0.68,1.52,1.52
		v101.24c0,0.84-0.68,1.52-1.52,1.52h-42.05c-0.84,0-1.52-0.68-1.52-1.52c0-0.84,0.68-1.52,1.52-1.52h40.53V5131.3z"/>
</g>
<g transform="matrix(1.5832,0,0,1.3594,1025.61,-595.823)">
	<rect x="-181.61" y="4221.91" class="st7" width="143" height="99.52"/>
</g>
<path class="st1" d="M876.86,5143.44v60.53l-7.14-5.62l-6.69,5.62l-6.79-5.62l-6.48,5.62l-5.96-5.62l-6.24,5.62v-60.53H876.86z"/>
<g transform="matrix(1.03135,0,0,1.03135,-47.2873,-19.2041)">
	<circle class="st6" cx="418.37" cy="4693.09" r="31"/>
</g>
<path class="st2" d="M366.67,4847.74c-8.69-5.72-14.44-15.56-14.44-26.73c0-17.64,14.32-31.97,31.97-31.97
	c3.98,0,7.79,0.73,11.3,2.06l-16.7,32.81c-1.25-2.12-3.6-3.54-6.3-3.54c-4,0-7.25,3.13-7.25,6.99c0,3.86,3.25,6.99,7.25,6.99
	c0.35,0,0.69-0.02,1.02-0.07L366.67,4847.74z"/>
<g transform="matrix(1.10226,-0.0372489,0.039552,1.17041,-98.7108,-52.9081)">
	<path class="st0" d="M282.58,4149.05c0,0-4.47,10.16-4.47,14.52c0,2.32,2,4.21,4.47,4.21c2.47,0,4.47-1.89,4.47-4.21
		C287.05,4159.21,282.58,4149.05,282.58,4149.05z"/>
</g>
<path class="st6" d="M375.51,5176.54c-16.52,1.46-36.94,1.54-60.95-1.54c-16.31-2.09-70.75-19.2-57-90.33
	c2.72-14.06,16.4-48.82,74.56-51.84c16.97-0.88,135.59-14.53,183.1,37.84c0.93,1.03,2.13,2.4,3.48,4.17
	c16.14,7.32,62.79,32.6,61.01,79.52c0,0-3.69,52.55-71.88,75.2c-5.04,11.29-10.96,23.33-17.87,36.16c0,0,15.54,4.16,19.48,12.89
	H389.56l7.18-22.72l-7.46,1.76c-0.07,7.9-7.46,15.78-13.77,21.47V5176.54z"/>
<path class="st8" d="M391.36,5257.16l6.63-83.93c0.07-0.84,0.8-1.46,1.64-1.4c0.84,0.06,1.47,0.8,1.4,1.64l-6.55,82.95
	L391.36,5257.16z"/>
<path class="st9" d="M411.5,5169.27l14.65-2.84c0,0,5.38-17.37,9.07-29.29c0.22-0.72-0.12-1.5-0.81-1.82
	c-0.69-0.32-1.5-0.07-1.91,0.57C424.51,5148.61,411.5,5169.27,411.5,5169.27"/>
<path class="st9" d="M375.51,5176.54c-3.68,0.32,29.6-6.19,48.99-12.02c1.21-0.37,2.6-0.57,2.6-0.57s-0.54,1.97-0.72,2.5
	l-23.37,71.54l101.62-1.38c-0.48,1.02-0.96,2.04-1.44,3.07l-100.93,1.37c-0.08,0-0.16-0.01-0.24-0.02l-5.28,14.86l-3.01,0.71
	l28.86-88.35c-15.24,4.42-30.65,8.27-47.07,10.67V5176.54z M507.9,5229.53c45.37-96.37,9.96-155.81,10.81-154.69
	c1.17,0.53,2.5,1.16,3.96,1.88c9.38,18.26,27,69.35-10.76,151.42C510.61,5228.62,509.27,5229.08,507.9,5229.53z"/>
<path class="st6" d="M347.81,4861.18c70.54,0.75,120.87,10.37,179.7,15.15c17.78,1.44,58.5,11.64,48.98,48.23l0,0
	c-3.61,13.88-16.2,23.54-30.55,23.42c-24.85-0.19-58.81-0.45-58.81-0.45s26.93,22.91,82.99,23.72c0,0,61.81,5.24,67.6,5.47
	c10.24,0.42,16.37,0.57,21.98,0.9c1.21,0.07,2.28,0.81,2.77,1.92c0.49,1.11,0.33,2.39-0.43,3.34c-1.17,1.45-3.51,3.09-7.93,4.75
	c-8.05,3.03-14.35,3.29-20.54,5.12c0.47-1.04,10.05,8,15.67,13.79c1.12,1.17,1.52,2.85,1.05,4.4c-0.47,1.55-1.73,2.72-3.31,3.08
	c-1.21,0.28-2.68,0.34-4.43,0.02c3.33,3.25-0.56,8.64-11.04,3.34c-2.75-1.39-3.7-1.77-10.78-6.15c0,0,2.26,4.06,3.59,6.45
	c0.35,0.63,0.43,1.38,0.2,2.07c-0.22,0.69-0.72,1.26-1.38,1.57c-1.46,0.68-3.75,0.9-7.17-0.89c-5.19-2.71-8.72-4.2-11.96-5.54
	c-2.99-1.23-6.39-0.95-9.13,0.75c-11.32,6.99-46.66,23.25-113.6,7.98c0,0-40.1-5.3-92.53-39.23c-1.39-5.53-66.57,71.37-124.39,6.52
	C241.6,4965.37,236.89,4860,347.81,4861.18z"/>
<path class="st9" d="M620.83,5011.38c-10.21-13.54-17.41-13.85-17.41-13.85c-0.84-0.01-1.51-0.71-1.5-1.55
	c0.01-0.84,0.71-1.51,1.55-1.5c0,0,9.73-0.07,22.5,18.87c0.24,0.36,0.31,0.79,0.22,1.18c-1.31-0.76-3.02-1.8-5.46-3.3
	L620.83,5011.38z M642.57,5014.03c0.11,0.11-13.96-12.15-15.73-14.08c-6.02-6.56-10.43-9.63-13.35-11.04
	c-2.18-1.05-3.56-1.08-3.62-1.08c0.02,0,0.04,0,0.05-0.01l-0.05,0.01l0,0c-0.81,0.1-1.56-0.45-1.7-1.26
	c-0.14-0.83,0.43-1.62,1.26-1.75c0,0,6.42-1.34,19.66,13.07c1.97,2.14,11.59,11.26,18.26,16.02c-0.11,0.04-0.23,0.07-0.35,0.09
	C645.78,5014.28,644.32,5014.34,642.57,5014.03z M614.27,4974.93c2.8,0.23,5.5,0.45,8.01,0.65c2.17,1.55,4.38,3.64,6.39,6.45
	c1.4,1.96,4.13,5.94,9.02,9.7c-1.25,0.27-2.49,0.56-3.71,0.91c-4.07-3.52-6.48-7-7.78-8.83
	C622.26,4978.29,617.44,4975.93,614.27,4974.93z"/>
<path class="st9" d="M468.26,5020.8c-15.93-4.2-45.05-14.13-79.49-36.41c-0.63-4.67-67.54,73.68-124.39,6.52
	c-22.43-26.49-27.48-130.92,83.44-129.73c70.54,0.75,120.87,10.37,179.7,15.15c17.78,1.44,58.5,11.64,48.98,48.23l0,0
	c-3.61,13.88-16.2,23.54-30.55,23.42c-24.85-0.19-58.81-0.45-58.81-0.45s19.18,16.32,58.87,21.9l-8.9,60.48
	c-10.03,0.21-21.39-0.4-34.14-2.24C492.46,5025.58,480.42,5023.2,468.26,5020.8z"/>
<g transform="matrix(1,0,0,1,-36.5139,-2.95153)">
	<path class="st4" d="M414.81,4994.86c-8.64-10.35-13.15-21.79-15.17-28.12c-0.15-0.53,0.09-1.09,0.57-1.36s1.09-0.16,1.45,0.24
		c9.59,10.36,21.49,20.02,23.36,21.52C424.07,4987.2,420.45,4990.42,414.81,4994.86z M523.71,4950.52L523.71,4950.52l0.02,0.02
		l0.03,0.02l0.02,0.01l0.01,0.01l0.02,0.02l0.03,0.02l0.03,0.02l0.02,0.02l0.02,0.02l0.03,0.02l0.05,0.04l0.03,0.03l0.02,0.01
		l0.02,0.02l0.07,0.05l0.05,0.04l0.01,0.01l0.02,0.01l0.11,0.09l0.04,0.03l0,0c0.06,0.05,0.13,0.1,0.19,0.15l0.02,0.01l0.06,0.05
		l0.12,0.09l0.03,0.02c0.06,0.05,0.13,0.1,0.19,0.15l0.01,0.01l0.01,0.01c0.16,0.11,0.32,0.24,0.5,0.37l0.03,0.02l0.08,0.06
		l0.04,0.03l0.01,0.01l0.03,0.02l0.07,0.05l0.03,0.03l0.02,0.02l0.05,0.03l0.05,0.04l0.03,0.02l0.03,0.02l0.06,0.04l0.05,0.03
		l0.02,0.01l0.04,0.03l0.08,0.06l0.03,0.02l0.01,0.01l0.04,0.03l0.11,0.07l0.02,0.02c-17.89-11.23-49.85-35.03-70.91-51.37
		c-0.83-0.65-0.98-1.84-0.34-2.67c0.64-0.83,1.84-0.98,2.67-0.34c21.78,16.9,55.29,41.85,72.54,52.36l-6.75-0.05l0.04,0.04
		L523.71,4950.52z M533.2,4893.03l52.5,1.49c1.05,0.03,1.93-0.8,1.96-1.85c0.03-1.05-0.8-1.93-1.85-1.96l-52.5-1.49
		c-1.05-0.03-1.93,0.8-1.96,1.85C531.32,4892.12,532.15,4893,533.2,4893.03z"/>
</g>
<path class="st2" d="M443.64,4895.89c-7.68-17.59-43.73-32.54-43.73-32.54l14.62,1.18c16.26,7.39,28.26,20.23,32.98,25.83
	c1.8,0.24,6.28,0.92,6.35,1.75c0.09,1.03,0.72,18.39,0.72,18.39c-0.06,0.03-0.11,0.06-0.17,0.08l0.5,0.03
	c9.01,16.67,5.73,40.3,18.59,54.5c4.07,4.5,9.4,8.72,15.22,10.66c6.77,2.25,13.79,2.14,20.81,1.73c1.86-0.11,6.37-0.44,8.63-0.6
	c0.84-0.06,1.65,0.31,2.15,1c1.94,2.65,6.92,9.45,9.34,12.75c0.79,1.07,0.68,2.55-0.25,3.5c-3.34,3.4-10.89,11.09-13.46,13.7
	c-0.56,0.57-1.35,0.83-2.14,0.7c-1.49-0.23-3.85-0.61-4.74-0.87c-5.17-1.49-10.26-3.24-15.23-5.3
	c-14.21-5.89-29.24-15.17-35.43-29.84c-3.61-8.57-4.16-17.72-4.12-26.89c0.03-8.09,0.98-16.6-0.71-24.58
	c-0.66-3.1-2.12-6.01-3.56-8.82c-0.03-0.06-0.17-0.28-0.33-0.56c-6.78-0.24-9.91-8.9-9.91-8.9L443.64,4895.89z"/>
<path class="st6" d="M512.13,4947.61l-13.77-61.26c0,0-13.08-0.78-20.84-2.18c0,0-19.04-6.19-32.4-1.79
	c-2.17,0.72-8.88,4.39-13.45,13.21c-1.91,3.68,4.38,6.07,11.64,0c1.48-1.24,4.33-2.68,7.29-2.93c0,0-9.25,7.24,0,13.32
	c0,0-1.9,6.45,6.12,7.79c0,0-1.19,9.64,13.53,18.94C474.46,4935.39,507.2,4948.68,512.13,4947.61z"/>
<path class="st9" d="M454.11,4913.28c1.22-2.39,3.91-3.82,6.51-4.66c3-0.97,5.85-1.12,5.85-1.12c0.84-0.05,1.57,0.38,1.64,0.95
	c0.07,0.57-0.56,1.07-1.4,1.12c0,0-2.31,0.16-4.78,0.93c-3.86,1.2-5.21,3.29-5.21,3.29C455.7,4913.67,454.83,4913.49,454.11,4913.28
	z M448.39,4904.18c1.66-2.88,4.23-4.74,6.84-5.92c4.28-1.94,8.6-2.02,8.6-2.02c0.84-0.02,1.54,0.65,1.55,1.49
	c0.02,0.84-0.65,1.54-1.49,1.56c0,0-3.72,0.08-7.4,1.75c-2.34,1.06-5.89,4.94-5.89,4.94
	C449.69,4905.4,448.97,4904.79,448.39,4904.18z M445.35,4894.26c0.03-0.26,0.12-0.51,0.29-0.74c4.73-6.46,15.11-6.88,15.11-6.88
	c0.84-0.03,1.55,0.63,1.57,1.47s-0.63,1.55-1.47,1.57c0,0-3.21,0.11-6.66,1.39c-1.97,0.73-3.58,1.59-3.58,1.59
	C448.69,4892.83,446.83,4893.48,445.35,4894.26z"/>
<path class="st2" d="M350.34,4861.18c0,0,15.09,0.89,36.73,13.51c6.73,3.93,23.2,14.85,43.19,20.99c7.59,2.33,11.27,0.6,13.84,1.37
	l-2.85,6.8c0,0-12.77-1.32-17.57-3.06C423.68,4900.79,363.28,4862.76,350.34,4861.18z"/>
<g transform="matrix(1,0,0,1.02563,38.9823,-33.5916)">
	<rect x="226.56" y="5080.05" class="st7" width="143" height="99.52"/>
</g>
<g transform="matrix(1,0,0,1,36.5953,0)">
	<path class="st1" d="M256.78,5278.73h-3.05v-102.08h3.05V5278.73z M323.74,5176.66v52.93l-8.82-6.29l-8.72,6.29v-52.93H323.74z
		 M248.52,5176.66v35.36l-6.98-10.64l-4.8,4.5v-29.22H248.52z"/>
</g>
<path class="st1" d="M779.47,4971.3h-98.67v-159.4h239.53v159.4H816.66v41.04h13.41v10.93h-63.89v-10.93h13.3V4971.3z"/>
<path class="st7" d="M914.02,4811.91v159.4H810.34v41.04h13.41v10.93h-57.57v-10.93h13.3v-41.04h-98.67v-159.4H914.02z"/>
<g transform="matrix(0.877754,0,0,0.822814,222.265,115.164)">
	<rect x="536" y="5722.96" class="st0" width="239.53" height="159.4"/>
</g>
<path class="st1" d="M810.39,5012.02h5.16c-0.27,0.24-0.63,0.38-1.01,0.38l-35.01-0.38v-2.67h30.86V5012.02z M810.39,4974.38h-30.86
	v-3.05h30.86V4974.38z"/>
<rect x="719.84" y="4764.16" class="st3" width="119.47" height="146.38"/>
<g transform="matrix(1,0,0,1,11.2896,-16.1969)" class="st10">
	<circle class="st6" cx="798.45" cy="4808.53" r="18.81"/>
</g>
<path class="st9" d="M794.56,4803.45c3.56-3.55,8.63-5.77,14.26-5.77c6.17,0,11.68,2.67,15.24,6.83c-3.45,4.06-8.6,6.63-14.33,6.63
	C803.51,4811.14,797.99,4808.11,794.56,4803.45z"/>
<g transform="matrix(1,0,0,1,-2.03427,2.40728)">
	<circle class="st9" cx="811.35" cy="4786.31" r="6.58"/>
</g>
<path class="st2" d="M802.74,4788.76v-0.04c0-3.63,2.95-6.58,6.58-6.58c3.63,0,6.58,2.95,6.58,6.58v0.04
	c-4.46,0.04-6.58-4.61-6.58-4.61C808.14,4787.96,804.69,4788.67,802.74,4788.76z"/>
<path class="st9" d="M823.94,4893.7h-82.26v4.67h82.26V4893.7z M823.94,4883.81h-82.26v4.67h82.26V4883.81z M823.94,4874.21h-82.26
	v4.67h82.26V4874.21z M820.7,4861.14h-88.93v7.59h88.93V4861.14z M823.94,4847.03h-82.26v4.67h82.26V4847.03z M823.94,4837.14
	h-82.26v4.67h82.26V4837.14z M823.94,4827.54h-82.26v4.67h82.26V4827.54z M794.78,4810.94h-63.02v7.59h63.02V4810.94z
	 M783.66,4796.82h-49.78v3.39h49.78V4796.82z M770.9,4790.13h-37.01v3.39h37.01V4790.13z M780.76,4782.94h-46.88v3.39h46.88V4782.94
	z M785.93,4775.97h-52.04v3.39h52.04V4775.97z"/>
<rect x="798.32" y="4876.35" class="st3" width="95.92" height="55.73"/>
<path class="st9" d="M894.24,4880.01l-47.11,31.79c-0.52,0.35-1.19,0.35-1.71,0l-47.11-31.78v-3.67h0.01l47.95,32.35l47.93-32.35
	h0.03V4880.01z"/>
<g id="CURSER" transform="matrix(0.716073,-0.628566,0.835407,0.951711,-129.657,1093.26)">
	<path class="st6" d="M-1952.33,2760.42v-8.52h12.58v-7.91l32.34,12.17l-32.34,12.17v-7.91H-1952.33z"/>
</g>
<g>
	<path class="st0" d="M930.51,4622.84c-6.86-4.61-16.08-4.01-23.86-1.2c-9.84,3.57-18.68,10.75-22.65,20.43
		c-3.97,9.69-2.3,21.87,5.28,29.08c6.48,6.17,15.87,7.96,24.73,9.18c7.66,1.05,15.47,1.88,23.1,0.63
		c7.63-1.25,15.16-4.84,19.69-11.11c8.19-11.35,3.6-28.62-7.37-37.31c-10.97-8.7-26.29-10.07-40.02-7.34"/>
</g>
<g>
	<path class="st0" d="M1109.65,4664.26c-11.84-5.25-26.31-2.52-36.7,5.21s-16.96,19.83-19.88,32.45
		c-2.03,8.77-2.34,18.38,1.79,26.37c5.91,11.44,20.4,17.01,32.96,14.23s22.82-12.79,27.81-24.66c4.99-11.87,5.18-25.34,2.61-37.95
		c-0.64-3.16-1.47-6.32-3.03-9.14c-4.63-8.36-16.07-12.12-24.76-8.15"/>
</g>
<g>
	<path class="st0" d="M1086.17,5304.9c-7.16,1.75-12.1,8.12-16.2,14.24c-5.53,8.24-10.78,17.43-10.43,27.35
		c0.53,15.19,14.27,27.01,28.73,31.7c5.8,1.88,11.92,2.94,17.99,2.42c17.77-1.54,32.58-17.97,33.59-35.77
		c1.01-17.8-10.91-35.21-27.39-42.02c-4.13-1.71-8.64-2.83-13.07-2.24c-10.1,1.34-16.87,10.74-22.38,19.31"/>
</g>
<g>
	<path class="st0" d="M1118.93,4995.78c-17.3,5.16-29.59,22.46-30.91,40.46c-0.51,6.98,0.5,14.25,4.05,20.28
		c3.55,6.03,9.92,10.64,16.91,10.96c6.78,0.31,13.33-3.4,17.63-8.66c4.3-5.26,6.59-11.89,7.88-18.56c1.68-8.7,1.72-17.96-1.64-26.17
		c-3.36-8.2-10.54-15.16-19.27-16.64"/>
</g>
<g>
	<path class="st0" d="M619.35,4643.98c16.99-6.45,37.42-2.72,51.05,9.3c13.63,12.03,19.86,31.83,15.58,49.49
		c-4.36,17.98-18.07,31.97-31.22,44.98c-15.15,15-30.75,30.31-50.22,38.99c-12.88,5.75-26.94,8.34-40.97,9.79
		c-18.49,1.91-37.97,1.73-54.59-6.59s-29.37-26.7-26-44.98c3.1-16.82,17.99-28.51,31.81-38.58c10.3-7.5,20.6-15,30.89-22.5
		c21.29-15.5,43.55-31.44,69.46-36.15c13.36-2.43,27.28-1.71,40.32,2.09"/>
</g>
</svg>
