<?xml version="1.0" encoding="utf-8"?>
<!-- Generator: Adobe Illustrator 23.1.0, SVG Export Plug-In . SVG Version: 6.00 Build 0)  -->
<svg version="1.1" id="Layer_1" xmlns="http://www.w3.org/2000/svg" xmlns:xlink="http://www.w3.org/1999/xlink" x="0px" y="0px"
	 viewBox="0 0 2200 1500" style="enable-background:new 0 0 2200 1500;" xml:space="preserve">
<style type="text/css">
	.st0{fill-rule:evenodd;clip-rule:evenodd;fill:#D8B6A4;}
	.st1{fill-rule:evenodd;clip-rule:evenodd;}
	.st2{fill-rule:evenodd;clip-rule:evenodd;fill:#FFFFFF;}
	.st3{fill-rule:evenodd;clip-rule:evenodd;fill:#EEEBDD;}
	.st4{fill-rule:evenodd;clip-rule:evenodd;fill:#D6CEBA;}
	.st5{fill-rule:evenodd;clip-rule:evenodd;fill:#630000;}
	.st6{fill-rule:evenodd;clip-rule:evenodd;fill:#3D0601;}
	.st7{fill-rule:evenodd;clip-rule:evenodd;fill:#F27F71;}
	.st8{fill-rule:evenodd;clip-rule:evenodd;fill:#B2A18D;}
	.st9{fill-rule:evenodd;clip-rule:evenodd;fill:#A3A8AE;}
	.st10{fill-rule:evenodd;clip-rule:evenodd;fill:#BFB6A1;}
	.st11{fill-rule:evenodd;clip-rule:evenodd;fill:#210201;}
	.st12{fill:#E3E1D3;}
	.st13{fill:none;stroke:#000000;stroke-width:4;stroke-miterlimit:10;}
</style>
<g>
	<path class="st0" d="M619.1,60.8c-75.4,6.4-149.7,26-218.5,57.6c-36.7,16.9-73.6,38.9-93.6,74.1c-14.7,25.9-18.7,56.3-29.8,83.9
		C234,383.8,89.3,439.8,81.1,555.3c-3.8,53.2,24.4,104.7,21.4,157.9c-5.1,87.9-92.8,155.9-93.4,244c-0.5,77,66.7,144.4,58.8,221
		c-4,38.5-26.8,72.7-33.8,110.8c-16.7,91.2,66.3,177.2,157.1,195.4s183.9-13.8,268.5-51.7c37.9-17,77.1-35.7,118.6-33.8
		c42.9,1.9,81.2,25.4,120.6,42.5c69,30,159,37,210.8-17.5c7.7-8.1,14.6-17.6,24.8-22.3c20.1-9.4,42.9,3.4,62.2,14.3
		c94.8,53.5,210.1,69.5,315.8,43.8c32.4-7.9,64.4-19.6,97.8-19.2c60.2,0.7,114.7,40.6,174.9,42c48.7,1.1,94-22.9,136.8-46.3
		c61.2-33.5,124.9-69.3,162.6-128c50.9-79.4,42.9-181.5,33-275.3c-7.6-71.7-15.9-145.9-52.8-207.9c-11.8-19.8-26.4-38.4-32.9-60.5
		c-15.8-54.2,21.1-107.8,42.9-159.9c35.9-85.8,30.2-187.9-15-269.2c-12.4-22.3-28.3-43.7-50.9-55.4c-13.8-7.1-30.2-10.7-40.7-22.1
		c-19.4-21-8.9-54.3-11.7-82.8c-4.7-48-50.7-83.3-97.8-93.1s-95.9-0.3-143.7,6.6c-47.7,6.9-98.4,10.7-142.3-9.4
		c-24.1-11-44.6-28.6-68.2-40.6c-75.3-38.1-167.7-12.4-241.5,28.7c-32.5,18.1-64.5,39.3-101.2,45.4C898,123.3,837.4,86.2,774.9,69.9
		c-85-22.3-179.8-4.3-250.7,47.7"/>
</g>
<path class="st1" d="M1112.7,1351.8V774.4h-29.1v577.5H1112.7z M1677.4,1351.8V774.4h-29.1v577.5H1677.4z"/>
<path class="st1" d="M1112.7,824.2l-29.1,0.6v-50.5h29.1V824.2z M1677.4,776.2v36.1l-29.1,0.6v-36.8L1677.4,776.2z"/>
<g transform="matrix(1,0,0,0.75234,0,253.369)">
	<rect x="956" y="675.9" class="st1" width="851.5" height="29"/>
</g>
<g id="MOUSE">
	<g>
		<path class="st1" d="M967.9,762.7c10.5-43.1,47-75,90.3-75s79.8,31.9,90.3,75H967.9z"/>
		<path class="st1" d="M1116.3,762.7c-14.4-32.9-37.1-39.6-37.1-39.6c-1.9-0.5-3-2.5-2.5-4.4c0.6-1.9,2.6-3,4.5-2.4
			c0,0,27.1,7.4,42.9,46.4L1116.3,762.7L1116.3,762.7z"/>
	</g>
	<path class="st1" d="M1146.2,762.7c2.7,52.5,9.1,135.3,24.8,179c3.5,9.6,7.3,17.3,11.8,22.1c3.7,4,7.7,5.9,12.3,4.6
		c4.4-1.2,9-4.4,13.3-8.6c-0.2-0.3-0.4-0.6-0.6-0.9c-5.6-8.5-8.6-21.9-8.3-33.7c0.1-6.4,1.2-12.3,3.2-16.8c1.8-3.9,4.3-6.8,7.5-8.2
		c3.3-1.5,7.2-1.5,11.9,0.7c11.6,5.5,14.1,17.8,10.6,31.2c-2.5,9.5-8,19.6-14.6,27.6c1,0.8,2.2,1.3,3.4,1.6c3,0.7,6.4-0.3,10.2-3.1
		c3.2-2.3,5.9-6.6,8.3-12.1c4-9.1,7.2-21.6,9.7-35.9c10-56.4,9.7-139.4,10.2-149.3c0.1-2,1.8-3.5,3.8-3.4c2,0.1,3.5,1.7,3.4,3.7
		c-0.4,9.9-0.2,93.4-10.3,150.2c-2.6,14.9-6,27.9-10.2,37.5c-3.1,6.9-6.7,12-10.6,15c-6.1,4.5-11.6,5.5-16.3,4.3
		c-2.3-0.6-4.5-1.7-6.5-3.2c-5.2,5-10.8,8.7-16.2,10.1c-7.3,2-13.8-0.4-19.6-6.7c-5-5.4-9.4-13.8-13.3-24.5
		c-15.9-44.3-22.5-128.3-25.2-181.4L1146.2,762.7L1146.2,762.7z M1213.3,954.3c5.6-7,10.2-15.6,12.4-23.8c2.6-9.8,1.7-19-6.7-23
		c-2.3-1.1-4.2-1.3-5.8-0.6c-1.7,0.8-2.9,2.5-3.9,4.6c-1.7,3.7-2.5,8.7-2.6,14C1206.5,935.4,1208.7,946.8,1213.3,954.3z
		 M1143.9,748.1c1,0.6,1.7,1.6,1.7,2.9l0.1,2C1145.1,751.3,1144.5,749.7,1143.9,748.1z"/>
</g>
<g transform="matrix(1,0,0,1,8.16549,9.66786)">
	<ellipse class="st2" cx="1389.5" cy="1020.2" rx="73.4" ry="93.4"/>
</g>
<g transform="matrix(0.858154,0,0,1,233.798,7.53205)">
	<path class="st1" d="M1356.9,918.6v16.2c-45.4,0.7-80.9,40.1-80.9,87.6c0,47.5,35.5,86.8,80.9,87.6v16.2
		c-54.8-0.7-100.2-46.5-100.2-103.8C1256.7,965.2,1302,919.4,1356.9,918.6z"/>
</g>
<path class="st1" d="M1398.2,926.2l1.2,0c47.6,0,87.1,46.1,87.1,103.8s-39.6,103.8-87.1,103.8l-1.2,0v-16.2l1.2,0
	c39.5,0,70.6-39.7,70.6-87.6s-31.1-87.6-70.6-87.6l-1.2,0V926.2z"/>
<path class="st1" d="M1400.1,1027.8c4.2,0,7.5,3.3,7.5,7.4c0,4.1-3.4,7.4-7.5,7.4c-4.2,0-7.6-3.3-7.6-7.4
	C1392.5,1031.1,1395.9,1027.8,1400.1,1027.8z M1413,1018.1l25.4-48.1c0.9-1.7,0.2-3.9-1.6-4.8s-4-0.2-4.9,1.5l-25.4,48.1
	c-0.9,1.7-0.2,3.9,1.6,4.8C1409.9,1020.5,1412.1,1019.8,1413,1018.1z M1379.4,978.5l9.7,37.3c0.5,1.9,2.4,3,4.4,2.6
	c1.9-0.5,3.1-2.4,2.6-4.3l-9.7-37.3c-0.5-1.9-2.5-3-4.4-2.6C1380.1,974.7,1378.9,976.6,1379.4,978.5z"/>
<g transform="matrix(1.01816,0.522775,-0.487759,0.949962,569.315,-1101.57)">
	<polygon class="st3" points="1731.4,1186.2 1828.7,1185.3 1827.6,1321 1730.3,1321.9 	"/>
</g>
<path class="st1" d="M1783.5,1091.9l16.9,8.5c1.8,0.9,4,0.2,4.9-1.5c0.9-1.7,0.2-3.9-1.6-4.8l-16.9-8.5c-1.8-0.9-4-0.2-4.9,1.5
	C1781,1088.9,1781.7,1091,1783.5,1091.9z M1793.9,1071.9l16.9,8.5c1.8,0.9,4,0.2,4.9-1.5c0.9-1.7,0.2-3.9-1.6-4.8l-16.9-8.5
	c-1.8-0.9-3.9-0.2-4.9,1.5C1791.5,1068.9,1792.2,1071,1793.9,1071.9z M1804.4,1051.9l16.9,8.5c1.8,0.9,4,0.2,4.9-1.5
	c0.9-1.7,0.2-3.9-1.6-4.8l-16.9-8.5c-1.8-0.9-4-0.2-4.9,1.5C1801.9,1048.9,1802.6,1051.1,1804.4,1051.9z M1814.9,1032l16.9,8.5
	c1.8,0.9,4,0.2,4.9-1.5c0.9-1.7,0.2-3.9-1.6-4.8l-16.9-8.5c-1.8-0.9-3.9-0.2-4.9,1.5C1812.4,1028.9,1813.1,1031.1,1814.9,1032z
	 M1825.3,1012l16.9,8.5c1.8,0.9,3.9,0.2,4.9-1.5c0.9-1.7,0.2-3.9-1.6-4.8l-16.9-8.5c-1.8-0.9-4-0.2-4.9,1.5
	C1822.9,1008.9,1823.6,1011.1,1825.3,1012z M1835.5,992.5l16.9,8.5c1.8,0.9,3.9,0.2,4.9-1.5s0.2-3.9-1.6-4.8l-16.9-8.5
	c-1.8-0.9-4-0.2-4.9,1.5C1833,989.5,1833.8,991.6,1835.5,992.5z"/>
<path class="st2" d="M1526.1,950.8l153.4,35.6l-8.2,22.4L1526.1,950.8z"/>
<polygon class="st4" points="1522.8,946.4 1682.8,1002.3 1610.2,1201.4 1450.2,1145.6 "/>
<g transform="matrix(1.44259,-0.514811,0.514811,1.44259,-1943.85,702.105)">
	<path class="st4" d="M2160.8,969.2l-83.1-52.8c-1.1-0.7-1.4-2.1-0.7-3.2c0.7-1.1,2.1-1.4,3.3-0.7l85.3,54.2
		c0.6,0.4,0.9,0.9,1.1,1.6s-0.1,1.3-0.5,1.8l-10.3,12.8c-0.8,1-2.3,1.2-3.3,0.3c-1-0.8-1.2-2.3-0.4-3.3L2160.8,969.2z"/>
</g>
<g id="DOCUMENT">
	<rect x="1600.3" y="1010" class="st2" width="200.9" height="235.1"/>
	<path class="st1" d="M1783,1218.3h-166.1v10.5H1783V1218.3z M1783,1199h-166.1v10.5H1783V1199z M1783,1179.8h-166.1v10.5H1783
		V1179.8z M1783,1160.5h-166.1v10.5H1783V1160.5z M1783,1141.2h-166.1v10.5H1783V1141.2z M1783,1121.9h-166.1v10.5H1783V1121.9z
		 M1783,1102.7h-166.1v10.5H1783V1102.7z M1783,1083.4h-166.1v10.5H1783V1083.4z M1783,1064.1h-166.1v10.5H1783V1064.1z
		 M1783,1044.9h-166.1v10.5H1783V1044.9z M1783,1025.6h-166.1v10.5H1783V1025.6z"/>
	<path class="st1" d="M1603.9,1241.5h97.6c2,0,3.6,1.6,3.6,3.5s-1.6,3.5-3.6,3.5h-101.2c-2,0-3.6-1.6-3.6-3.5V1010
		c0-2,1.6-3.5,3.6-3.5h96.1c2,0,3.6,1.6,3.6,3.5c0,2-1.6,3.5-3.6,3.5h-92.4L1603.9,1241.5L1603.9,1241.5z"/>
	<path class="st1" d="M1797.6,1013.5h-101.3c-2,0-3.6-1.6-3.6-3.5c0-2,1.6-3.5,3.6-3.5h104.9c2,0,3.6,1.6,3.6,3.5v235.1
		c0,2-1.6,3.5-3.6,3.5h-99.8c-2,0-3.6-1.6-3.6-3.5s1.6-3.5,3.6-3.5h96.2V1013.5z"/>
</g>
<g transform="matrix(1.5832,0,0,1.3594,1025.61,-595.823)">
	<rect x="173.4" y="1204.6" class="st5" width="339.2" height="231.1"/>
</g>
<path class="st6" d="M1629.3,1041.7v140.6l-16.9-13l-15.9,13l-16.1-13l-15.4,13l-14.1-13l-14.8,13v-140.6H1629.3z"/>
<g transform="matrix(1.03135,0,0,1.03135,-47.2873,-19.2041)">
	<ellipse class="st3" cx="492.4" cy="302.7" rx="75.8" ry="74.2"/>
</g>
<path class="st1" d="M419,355.1c-20.6-13.3-34.3-36.1-34.3-62.1c0-41,34-74.2,75.8-74.2c9.4,0,18.5,1.7,26.8,4.8l-39.6,76.2
	c-3-4.9-8.5-8.2-15-8.2c-9.5,0-17.2,7.3-17.2,16.2s7.7,16.2,17.2,16.2c0.8,0,1.6,0,2.4-0.2L419,355.1z"/>
<g transform="matrix(1.10226,-0.0372489,0.039552,1.17041,-98.7108,-52.9081)">
	<path class="st3" d="M482.5,254.6c0,0-10.6,23.6-10.6,33.7c0,5.4,4.8,9.8,10.6,9.8c5.9,0,10.6-4.4,10.6-9.8
		C493.1,278.2,482.5,254.6,482.5,254.6z"/>
</g>
<path class="st4" d="M439.9,1118.6c-39.2,3.4-87.6,3.6-144.6-3.6c-38.7-4.8-167.8-44.6-135.2-209.8c6.4-32.7,38.9-113.4,176.9-120.4
	c40.3-2,321.6-33.7,434.4,87.9c2.2,2.4,5.1,5.6,8.3,9.7c38.3,17,149,75.7,144.7,184.6c0,0-8.7,122-170.5,174.6
	c-12,26.2-26,54.2-42.4,84c0,0,36.9,9.7,46.2,29.9H473.3l17-52.8l-17.7,4.1c-0.2,18.3-17.7,36.7-32.7,49.9L439.9,1118.6
	L439.9,1118.6z"/>
<path class="st7" d="M477.5,1305.8l15.7-194.9c0.2-1.9,1.9-3.4,3.9-3.3c2,0.2,3.5,1.9,3.3,3.8l-15.5,192.6L477.5,1305.8z"/>
<path class="st8" d="M525.3,1101.7l34.8-6.6c0,0,12.8-40.3,21.5-68c0.5-1.7-0.3-3.5-1.9-4.2s-3.6-0.2-4.5,1.3
	C556.2,1053.7,525.3,1101.7,525.3,1101.7"/>
<path class="st8" d="M439.9,1118.6c-8.7,0.8,70.2-14.4,116.2-27.9c2.9-0.8,6.2-1.3,6.2-1.3s-1.3,4.6-1.7,5.8l-55.4,166.1l241.1-3.2
	c-1.1,2.4-2.3,4.7-3.4,7.1l-239.4,3.2c-0.2,0-0.4,0-0.6,0l-12.5,34.5l-7.1,1.7l68.5-205.2c-36.1,10.3-72.7,19.2-111.7,24.8
	L439.9,1118.6L439.9,1118.6z M754,1241.6c107.6-223.8,23.6-361.8,25.7-359.2c2.8,1.2,5.9,2.7,9.4,4.4c22.3,42.4,64,161-25.5,351.6
	C760.4,1239.5,757.2,1240.6,754,1241.6z"/>
<path class="st3" d="M374.2,386.3c167.3,1.8,286.7,24.1,426.3,35.2c42.2,3.4,138.8,27,116.2,112l0,0c-8.6,32.2-38.4,54.7-72.5,54.4
	c-59-0.5-139.5-1.1-139.5-1.1s63.9,53.2,196.9,55.1c0,0,146.6,12.2,160.4,12.7c24.3,1,38.8,1.3,52.2,2.1c2.9,0.2,5.4,1.9,6.6,4.5
	c1.2,2.6,0.8,5.6-1,7.8c-2.8,3.4-8.3,7.2-18.8,11c-19.1,7-34.1,7.7-48.7,11.9c1.1-2.4,23.8,18.6,37.2,32c2.7,2.7,3.6,6.6,2.5,10.2
	c-1.1,3.6-4.1,6.3-7.9,7.2c-2.9,0.6-6.3,0.8-10.5,0.1c7.9,7.5-1.3,20-26.2,7.8c-6.5-3.2-8.8-4.1-25.6-14.3c0,0,5.4,9.4,8.5,15
	c0.8,1.5,1,3.2,0.5,4.8c-0.5,1.6-1.7,2.9-3.3,3.6c-3.4,1.6-8.9,2.1-17-2.1c-12.3-6.3-20.7-9.8-28.4-12.8c-7.1-2.9-15.2-2.2-21.7,1.7
	c-26.8,16.2-110.7,54-269.5,18.5c0,0-95.1-12.3-219.5-91.1c-3.3-12.8-157.9,165.7-295.1,15.2C122.3,628.2,111.1,383.5,374.2,386.3z"
	/>
<path class="st4" d="M1021.9,735c-24.2-31.5-41.3-32.2-41.3-32.2c-2,0-3.6-1.6-3.5-3.6c0-2,1.7-3.5,3.7-3.5c0,0,23.1-0.2,53.4,43.8
	c0.6,0.8,0.7,1.8,0.5,2.7c-3.1-1.8-7.2-4.2-12.9-7.7L1021.9,735z M1073.5,741.2c0.3,0.3-33.1-28.2-37.3-32.7
	c-14.3-15.2-24.7-22.4-31.7-25.6c-5.2-2.5-8.5-2.5-8.6-2.5c0,0,0.1,0,0.1,0l-0.1,0l0,0c-1.9,0.2-3.7-1-4-2.9c-0.3-1.9,1-3.8,3-4.1
	c0,0,15.2-3.1,46.6,30.3c4.7,5,27.5,26.1,43.3,37.2c-0.3,0.1-0.5,0.2-0.8,0.2C1081.1,741.8,1077.6,741.9,1073.5,741.2z
	 M1006.3,650.4c6.6,0.5,13,1,19,1.5c5.1,3.6,10.4,8.4,15.2,15c3.3,4.5,9.8,13.8,21.4,22.5c-3,0.6-5.9,1.3-8.8,2.1
	c-9.7-8.2-15.4-16.3-18.5-20.5C1025.3,658.2,1013.9,652.7,1006.3,650.4z"/>
<path class="st4" d="M660,756.9c-37.8-9.8-106.9-32.8-188.6-84.6c-1.5-10.8-160.2,171.1-295.1,15.2c-53.2-61.5-65.2-304,197.9-301.3
	c167.3,1.8,286.7,24.1,426.3,35.2c42.2,3.4,138.8,27,116.2,112l0,0c-8.6,32.2-38.4,54.7-72.5,54.4c-59-0.5-139.5-1.1-139.5-1.1
	s45.5,37.9,139.7,50.8l-21.1,140.5c-23.8,0.5-50.8-0.9-81-5.2C717.4,768,688.8,762.5,660,756.9z"/>
<g transform="matrix(1,0,0,1,-36.5139,-2.95153)">
	<path class="st8" d="M483.1,692.8c-20.5-24-31.2-50.6-36-65.3c-0.4-1.2,0.2-2.5,1.4-3.2s2.6-0.4,3.5,0.6c22.8,24.1,51,46.5,55.4,50
		C505,675,496.4,682.5,483.1,692.8z M741.4,589.8L741.4,589.8L741.4,589.8l0.1,0.1l0,0l0,0l0,0l0.1,0l0.1,0l0,0l0,0l0.1,0l0.1,0.1
		l0.1,0.1l0,0l0,0l0.2,0.1l0.1,0.1l0,0l0,0l0.3,0.2l0.1,0.1l0,0c0.1,0.1,0.3,0.2,0.5,0.3l0,0l0.2,0.1l0.3,0.2l0.1,0
		c0.1,0.1,0.3,0.2,0.5,0.3l0,0l0,0c0.4,0.3,0.8,0.5,1.2,0.9l0.1,0l0.2,0.1l0.1,0.1l0,0l0.1,0.1l0.2,0.1l0.1,0.1l0,0l0.1,0.1l0.1,0.1
		l0.1,0l0.1,0l0.2,0.1l0.1,0.1l0,0l0.1,0.1l0.2,0.1l0.1,0l0,0l0.1,0.1l0.3,0.2l0,0c-42.4-26.1-118.3-81.3-168.2-119.3
		c-2-1.5-2.3-4.3-0.8-6.2c1.5-1.9,4.4-2.3,6.3-0.8c51.7,39.3,131.2,97.2,172.1,121.6l-16-0.1L741.4,589.8L741.4,589.8z M763.9,456.3
		l124.5,3.5c2.5,0.1,4.6-1.9,4.7-4.3c0.1-2.4-1.9-4.5-4.4-4.5l-124.5-3.5c-2.5-0.1-4.6,1.9-4.7,4.3
		C759.4,454.2,761.4,456.2,763.9,456.3z"/>
</g>
<path class="st1" d="M601.6,466.9c-18.2-40.9-103.7-75.6-103.7-75.6l34.7,2.7c38.6,17.2,67,47,78.2,60c4.3,0.6,14.9,2.1,15.1,4.1
	c0.2,2.4,1.7,42.7,1.7,42.7c-0.1,0.1-0.3,0.1-0.4,0.2l1.2,0.1c21.4,38.7,13.6,93.6,44.1,126.6c9.7,10.4,22.3,20.3,36.1,24.8
	c16,5.2,32.7,5,49.4,4c4.4-0.3,15.1-1,20.5-1.4c2-0.1,3.9,0.7,5.1,2.3c4.6,6.2,16.4,21.9,22.2,29.6c1.9,2.5,1.6,5.9-0.6,8.1
	c-7.9,7.9-25.8,25.8-31.9,31.8c-1.3,1.3-3.2,1.9-5.1,1.6c-3.5-0.5-9.1-1.4-11.3-2c-12.3-3.5-24.3-7.5-36.1-12.3
	c-33.7-13.7-69.4-35.2-84-69.3c-8.6-19.9-9.9-41.1-9.8-62.5c0.1-18.8,2.3-38.5-1.7-57.1c-1.6-7.2-5-14-8.4-20.5
	c-0.1-0.1-0.4-0.6-0.8-1.3c-16.1-0.6-23.5-20.7-23.5-20.7L601.6,466.9z"/>
<path class="st3" d="M764,587l-32.7-142.3c0,0-31-1.8-49.4-5c0,0-45.2-14.4-76.9-4.1c-5.2,1.7-21.1,10.2-31.9,30.7
	c-4.5,8.5,10.4,14.1,27.6,0c3.5-2.9,10.3-6.2,17.3-6.8c0,0-22,16.8,0,30.9c0,0-4.5,15,14.5,18.1c0,0-2.8,22.4,32.1,44
	C674.7,558.6,752.3,589.4,764,587z"/>
<path class="st4" d="M626.4,506.7c2.9-8.2,9.3-13.1,15.5-16c7.1-3.3,13.9-3.8,13.9-3.8c2-0.2,3.7,1.3,3.9,3.2c0.2,2-1.3,3.7-3.3,3.8
	c0,0-5.5,0.5-11.3,3.2c-9.2,4.1-12.4,11.3-12.4,11.3C630.2,508,628.1,507.4,626.4,506.7z M612.8,486.1c3.9-6.7,10-11,16.2-13.7
	c10.2-4.5,20.4-4.7,20.4-4.7c2,0,3.6,1.5,3.7,3.5c0,2-1.5,3.6-3.5,3.6c0,0-8.8,0.2-17.6,4.1c-5.5,2.5-14,11.5-14,11.5
	C615.9,488.9,614.2,487.5,612.8,486.1z M605.6,463.1c0.1-0.6,0.3-1.2,0.7-1.7c11.2-15,35.8-16,35.8-16c2-0.1,3.7,1.5,3.7,3.4
	c0.1,2-1.5,3.6-3.5,3.6c0,0-7.6,0.3-15.8,3.2c-4.7,1.7-8.5,3.7-8.5,3.7C613.5,459.7,609.1,461.3,605.6,463.1z"/>
<path class="st1" d="M380.2,386.3c0,0,35.8,2.1,87.1,31.4c16,9.1,55,34.5,102.5,48.7c18,5.4,26.7,1.4,32.8,3.2l-6.8,15.8
	c0,0-30.3-3.1-41.7-7.1C554.2,478.2,410.9,389.9,380.2,386.3z"/>
<g transform="matrix(1,0,0,1.02563,38.9823,-33.5916)">
	<rect x="140.1" y="1123.6" class="st5" width="339.2" height="231.1"/>
</g>
<g transform="matrix(1,0,0,1,36.5953,0)">
	<path class="st6" d="M208.5,1355.9h-7.2v-237h7.2V1355.9z M367.3,1118.8v122.9l-20.9-14.6l-20.7,14.6v-122.9H367.3z M188.9,1118.8
		v82.1l-16.6-24.7l-11.4,10.4v-67.8H188.9z"/>
</g>
<path class="st1" d="M1398.2,642h-234.1V271.8h568.2V642h-245.9v95.3h31.8v25.4h-151.6v-25.4h31.6L1398.2,642L1398.2,642z"/>
<path class="st1" d="M1717.4,271.8V642h-245.9v95.3h31.8v25.4h-136.6v-25.4h31.6V642h-234.1V271.8H1717.4z"/>
<g transform="matrix(0.877754,0,0,0.822814,222.265,115.164)">
	<rect x="1105.3" y="224.8" class="st2" width="568.2" height="370.1"/>
</g>
<path class="st9" d="M1471.6,736.5h12.2c-0.6,0.5-1.5,0.9-2.4,0.9l-83.1-0.9v-6.2h73.2L1471.6,736.5L1471.6,736.5z M1471.6,649.1
	h-73.2V642h73.2V649.1z"/>
<rect x="1256.8" y="160.9" class="st3" width="283.4" height="339.9"/>
<g transform="matrix(1,0,0,1,11.2896,-16.1969)">
	<ellipse class="st10" cx="1458.7" cy="242.6" rx="44.6" ry="43.7"/>
</g>
<path class="st6" d="M1434,252.2c8.4-8.2,20.5-13.4,33.8-13.4c14.6,0,27.7,6.2,36.2,15.9c-8.2,9.4-20.4,15.4-34,15.4
	C1455.3,270.1,1442.2,263,1434,252.2z"/>
<g transform="matrix(1,0,0,1,-2.03427,2.40728)">
	<ellipse class="st5" cx="1471.1" cy="215.6" rx="15.6" ry="15.3"/>
</g>
<path class="st1" d="M1453.4,218.1V218c0-8.4,7-15.3,15.6-15.3s15.6,6.9,15.6,15.3v0.1c-10.6,0.1-15.6-10.7-15.6-10.7
	C1466.2,216.2,1458.1,217.9,1453.4,218.1z"/>
<path class="st11" d="M1503.7,461.8h-195.2v10.9h195.2V461.8z M1503.7,438.8h-195.2v10.9h195.2V438.8z M1503.7,416.5h-195.2v10.9
	h195.2V416.5z M1496,386.2h-211v17.6h211V386.2z M1503.7,353.4h-195.2v10.9h195.2V353.4z M1503.7,330.4h-195.2v10.9h195.2V330.4z
	 M1503.7,308.1h-195.2V319h195.2V308.1z M1434.6,269.6h-149.5v17.6h149.5V269.6z M1408.2,236.8h-118.1v7.9h118.1V236.8z
	 M1377.9,221.3h-87.8v7.9h87.8V221.3z M1401.3,204.6h-111.2v7.9h111.2V204.6z M1413.5,188.4h-123.5v7.9h123.5V188.4z"/>
<rect x="1442.9" y="421.5" class="st3" width="227.6" height="129.4"/>
<path class="st1" d="M1670.5,430l-111.8,73.8c-1.2,0.8-2.8,0.8-4.1,0L1442.9,430v-8.5h0l113.7,75.1l113.7-75.1h0.1L1670.5,430
	L1670.5,430z"/>
<g id="CURSER" transform="matrix(0.716073,-0.628566,0.835407,0.951711,-129.657,1093.26)">
	<path class="st6" d="M1553.8,494.1l-0.3-20l29.6,0.2l-0.3-18.5l76.4,29.1l-75.6,27.9l-0.3-18.5L1553.8,494.1z"/>
</g>
<g>
	<path class="st0" d="M607.7,62.5c35.6-4.1,72.4,2.9,104,19.7c12.8,6.8,25.9,16.8,28.2,31.2c3.5,21.9-18.9,38.2-38.3,48.9
		c-36.9,20.4-76.2,41.3-118.3,40.1c-51.5-1.5-96.6-35.8-147.5-43.6c-12.6-1.9-26.1-2.4-36.9-9.3c-10.8-6.9-16.6-23.6-7.5-32.6"/>
</g>
<g>
	<g>
		<path class="st12" d="M1884.9,1377.5c1.9,0,1.9-3,0-3C1883,1374.5,1882.9,1377.5,1884.9,1377.5L1884.9,1377.5z"/>
	</g>
</g>
<line class="st13" x1="38.9" y1="1355.9" x2="2268" y2="1356.8"/>
</svg>
