<?xml version="1.0" encoding="utf-8"?>
<!-- Generator: Adobe Illustrator 23.1.0, SVG Export Plug-In . SVG Version: 6.00 Build 0)  -->
<svg version="1.1" id="Layer_1" xmlns:serif="http://www.serif.com/"
	 xmlns="http://www.w3.org/2000/svg" xmlns:xlink="http://www.w3.org/1999/xlink" x="0px" y="0px" viewBox="0 0 300 200"
	 style="enable-background:new 0 0 300 200;" xml:space="preserve">
<style type="text/css">
	.st0{fill-rule:evenodd;clip-rule:evenodd;fill:#E3E1D3;}
	.st1{fill-rule:evenodd;clip-rule:evenodd;fill:#D1C9AE;}
	.st2{fill-rule:evenodd;clip-rule:evenodd;fill:#807D96;}
	.st3{fill-rule:evenodd;clip-rule:evenodd;fill:#9999C9;}
	.st4{fill-rule:evenodd;clip-rule:evenodd;fill:#D4D2E3;}
	.st5{fill-rule:evenodd;clip-rule:evenodd;fill:#AEAED3;}
	.st6{fill-rule:evenodd;clip-rule:evenodd;fill:#82B5B2;}
	.st7{fill-rule:evenodd;clip-rule:evenodd;}
	.st8{fill-rule:evenodd;clip-rule:evenodd;fill:#B7A180;}
	.st9{fill-rule:evenodd;clip-rule:evenodd;fill:#FD9500;}
</style>
<rect x="161.34" y="111.88" class="st0" width="73.84" height="59.78"/>
<path class="st1" d="M182.66,139.29H171.1v25.11h11.56V139.29z M228.02,140.48h-11.56v23.92h11.56V140.48z M212.9,133.79h-11.56
	v30.61h11.56V133.79z M197.78,125.21h-11.56v39.19h11.56V125.21z M224.76,136.55h-5.21v2.84h5.21V136.55z M179.26,135.44h-5.21v2.84
	h5.21V135.44z M209.72,130.12h-5.21v2.84h5.21V130.12z M194.41,121.35h-5.2v2.84h5.2V121.35z"/>
<path class="st2" d="M204.45,159.87l22.72-24.57c0.32-0.35,0.87-0.37,1.21-0.04c0.34,0.33,0.36,0.88,0.04,1.24L205,161.83
	c-0.18,0.19-0.42,0.29-0.68,0.27c-0.25-0.02-0.49-0.15-0.64-0.36l-16.28-22.57l-17.38,23.5c-0.29,0.39-0.82,0.46-1.2,0.17
	c-0.38-0.29-0.46-0.84-0.17-1.22l18.07-24.45c0.16-0.22,0.42-0.35,0.69-0.35c0.27,0,0.53,0.13,0.69,0.36L204.45,159.87z"/>
<g id="CURVE" transform="matrix(0.762218,0,0,0.749345,259.14,217.392)">
	<path class="st3" d="M-86.36-215.45c-0.12-0.34-0.18-0.7-0.18-1.08c0-1.77,1.41-3.21,3.16-3.21c1.74,0,3.16,1.44,3.16,3.21
		c0,1.77-1.42,3.21-3.16,3.21c-0.42,0-0.83-0.09-1.2-0.24l-31.61,37.6c0.2,0.42,0.32,0.9,0.32,1.4c0,1.77-1.42,3.21-3.16,3.21
		c-1.74,0-3.16-1.44-3.16-3.21c0-0.09,0-0.17,0.01-0.26l-3.01-2.13c-0.54,0.42-1.21,0.67-1.94,0.67c-0.35,0-0.69-0.06-1.01-0.17
		l-31.93,42.81c0.1,0.31,0.15,0.64,0.15,0.98c0,1.77-1.41,3.21-3.16,3.21c-1.74,0-3.16-1.44-3.16-3.21c0-0.17,0.01-0.34,0.04-0.51
		l-19.68-20.07c-0.44,0.24-0.94,0.37-1.47,0.37c-0.32,0-0.63-0.05-0.91-0.14l-34.28,54.28c0.28,0.48,0.44,1.04,0.44,1.64
		c0,1.77-1.42,3.21-3.16,3.21c-1.74,0-3.16-1.44-3.16-3.21c0-1.77,1.42-3.21,3.16-3.21c0.21,0,0.42,0.02,0.63,0.06l34.41-54.5
		c-0.19-0.41-0.29-0.87-0.29-1.34c0-1.77,1.42-3.21,3.16-3.21c1.74,0,3.16,1.44,3.16,3.21c0,0.27-0.03,0.53-0.09,0.78l19.53,19.92
		c0.49-0.31,1.06-0.49,1.67-0.49c0.45,0,0.87,0.09,1.26,0.26l31.79-42.62c-0.17-0.39-0.26-0.82-0.26-1.27
		c0-1.77,1.42-3.21,3.16-3.21c1.74,0,3.16,1.44,3.16,3.21c0,0.07,0,0.15-0.01,0.22l3.04,2.14c0.53-0.41,1.19-0.65,1.91-0.65
		c0.31,0,0.6,0.04,0.89,0.13L-86.36-215.45z"/>
</g>
<rect x="68.58" y="35.47" class="st4" width="76.5" height="57.79"/>
<path class="st5" d="M83.93,45.24h-5.21v42.4h5.21V45.24z M94.26,41.45h-5.21v46.16h5.21V41.45z M104.59,51.14h-5.21v36.45h5.21
	V51.14z M114.92,45.13h-5.21v42.43h5.21V45.13z M125.25,56.92h-5.21v30.61h5.21V56.92z M135.58,65.47h-5.21V87.5h5.21V65.47z"/>
<g id="UP-ARROW" transform="matrix(4.747e-17,-0.775243,0.908422,5.56248e-17,148.671,2354.33)" serif:id="UP ARROW">
	<path class="st2" d="M2838.76,8.16V-3.29h17.84v-7.84l23.04,13.56l-23.04,13.56V8.16H2838.76z"/>
</g>
<g id="DOWN-ARROW" transform="matrix(4.747e-17,0.775243,-0.908422,5.56248e-17,3003.24,-447.894)" serif:id="DOWN ARROW">
	<path class="st0" d="M626.97,3072.13v-11.45h17.84v-7.84l23.04,13.56l-23.04,13.56v-7.84H626.97z"/>
</g>
<g transform="matrix(1,0,0,1,7.68225,2.33985)">
	<ellipse class="st0" cx="178.88" cy="100.05" rx="17.33" ry="17.63"/>
</g>
<g transform="matrix(0.941798,-0.33618,0.33618,0.941798,-251.674,588.663)">
	<g transform="matrix(1.05464,0.000379216,-0.000281715,0.783484,-312.137,128.316)">
		<path class="st1" d="M842.38-576.87l-0.64,0l0-1.22l1.12-0.01c0.27,0,0.48,0.27,0.48,0.61l-0.01,2.06
			c0.98,0.05,1.92,0.24,2.82,0.58c1.15,0.43,2.23,1.09,3.25,1.99c0.12,0.1,0.19,0.26,0.2,0.44c0.01,0.18-0.04,0.35-0.13,0.48
			l-2.17,2.87c-0.16,0.22-0.42,0.25-0.62,0.08c-1-0.87-2.12-1.39-3.37-1.58l-0.03,6.86c4.63,1.21,6.84,4.01,6.76,8.23
			c-0.04,2.29-0.71,4.19-2.03,5.7c-1.2,1.43-2.8,2.35-4.8,2.75l-0.01,3.54c0,0.34-0.22,0.61-0.48,0.61l-1.1,0.01l0-1.22l0.62,0
			l0.01-3.46c0-0.31,0.18-0.57,0.42-0.61c1.97-0.32,3.53-1.14,4.69-2.51c1.11-1.28,1.68-2.88,1.71-4.82c0.07-3.79-2.1-6.1-6.38-7.11
			c-0.23-0.05-0.39-0.3-0.39-0.6l0.03-8.03c0-0.17,0.06-0.33,0.15-0.44c0.1-0.12,0.23-0.18,0.36-0.17c1.48,0.11,2.82,0.63,4.02,1.56
			l1.5-1.98c-0.79-0.63-1.63-1.11-2.51-1.43c-0.96-0.36-1.97-0.54-3.03-0.54c-0.26,0-0.47-0.27-0.47-0.61L842.38-576.87z
			 M843.24-551.94c0.7-0.27,1.21-0.65,1.52-1.17c0.19-0.33,0.33-0.71,0.42-1.12l0.92,0.32c-0.12,0.56-0.32,1.07-0.58,1.53
			c-0.51,0.85-1.39,1.48-2.67,1.83c-0.14,0.04-0.29,0-0.4-0.12c-0.11-0.11-0.18-0.29-0.18-0.47l0.02-4.3l0.96-0.01L843.24-551.94z
			 M838.06-569.12c0.17-0.55,0.39-1.01,0.66-1.38c0.01-0.01,0.01-0.02,0.02-0.03c0.6-0.74,1.32-1.17,2.14-1.29
			c0.13-0.02,0.27,0.04,0.37,0.15c0.1,0.12,0.16,0.28,0.16,0.45l-0.01,3.52l-0.96,0.01l0.01-2.78c-0.38,0.16-0.73,0.42-1.03,0.79
			c-0.19,0.27-0.34,0.6-0.46,0.99c0,0.01-0.01,0.02-0.01,0.03c-0.15,0.41-0.22,0.91-0.22,1.48l-0.96,0.01
			C837.76-567.92,837.87-568.57,838.06-569.12z"/>
	</g>
	<g transform="matrix(1.05464,0.000379216,-0.000281715,0.783484,-312.137,128.316)">
		<path class="st1" d="M838.47-564.61c-0.47-0.68-0.71-1.53-0.7-2.55l0.96-0.01c0,0.7,0.15,1.28,0.47,1.75l0.01,0.02
			c0.25,0.39,0.66,0.7,1.22,0.95l0.01-3.24l0.96-0.01l-0.02,4.06c0,0.19-0.07,0.37-0.19,0.48c-0.12,0.12-0.27,0.16-0.42,0.11
			C839.66-563.4,838.9-563.94,838.47-564.61z"/>
	</g>
	<g transform="matrix(1.05464,0.000379216,-0.000281715,0.783484,-312.137,128.316)">
		<path class="st1" d="M843.26-558.37l-0.01,2.91l-0.96,0.01l0.01-3.65c0-0.18,0.06-0.35,0.17-0.46c0.11-0.12,0.25-0.17,0.39-0.14
			c1.34,0.27,2.23,0.81,2.7,1.54l0.01,0.02c0.46,0.77,0.69,1.65,0.69,2.67c0,0.57-0.06,1.09-0.16,1.57l-0.92-0.32
			c0.08-0.38,0.13-0.8,0.13-1.25c0-0.73-0.16-1.37-0.49-1.92C844.52-557.85,844-558.16,843.26-558.37z"/>
	</g>
	<g transform="matrix(1.05464,0.000379216,-0.000281715,0.783484,-312.137,128.316)">
		<path class="st1" d="M840.4-559.06c-4.45-1.23-6.55-3.95-6.44-8.01c0.05-2.44,0.67-4.36,1.85-5.76c1.07-1.28,2.62-2.13,4.66-2.52
			l0.01-2.12c0-0.34,0.22-0.61,0.48-0.61l0.79-0.01l0,1.22l-0.31,0l-0.01,2.04c0,0.31-0.18,0.57-0.43,0.61
			c-2,0.31-3.51,1.05-4.53,2.27c-0.99,1.19-1.5,2.82-1.54,4.9c-0.11,3.63,1.96,5.87,6.06,6.89c0.22,0.06,0.38,0.3,0.38,0.59
			l-0.03,8.41c0,0.17-0.06,0.33-0.16,0.45c-0.1,0.12-0.23,0.17-0.37,0.16c-1.2-0.13-2.22-0.47-3.04-0.99
			c-0.73-0.41-1.38-0.92-1.96-1.54l-1.84,1.98c0.88,0.79,1.86,1.46,2.94,2c1.25,0.62,2.57,0.93,3.95,0.94
			c0.26,0,0.47,0.27,0.47,0.61l-0.01,3.46l0.33,0l0,1.22l-0.81,0.01c-0.26,0-0.48-0.27-0.48-0.6l0.01-3.48
			c-1.33-0.07-2.6-0.41-3.82-1.01c-1.36-0.69-2.58-1.56-3.65-2.62c-0.11-0.11-0.18-0.28-0.18-0.47c0-0.18,0.06-0.36,0.17-0.48
			l2.63-2.82c0.19-0.2,0.46-0.19,0.64,0.02c0.58,0.69,1.25,1.24,2.02,1.68l0.02,0.01c0.61,0.39,1.35,0.65,2.19,0.8L840.4-559.06z"/>
	</g>
</g>
<g id="MAGNIFYING-GLASS" serif:id="MAGNIFYING GLASS">
	<g>
		<path class="st2" d="M190.21,122.23c-1.29,0.27-2.62,0.41-3.99,0.41c-1.13,0-2.05-0.93-2.05-2.09c0-1.15,0.92-2.09,2.05-2.09
			c8.61,0,15.6-7.11,15.6-15.87c0-8.76-6.99-15.87-15.6-15.87c-1.13,0-2.05-0.93-2.05-2.09c0-1.15,0.92-2.09,2.05-2.09
			c10.87,0,19.7,8.98,19.7,20.04c0,8.2-4.85,15.25-11.79,18.35l12.85,30.83c0.44,1.06-0.04,2.28-1.09,2.73
			c-1.04,0.45-2.25-0.05-2.69-1.11L190.21,122.23z"/>
		<g transform="matrix(1,0,0,1,-20.3138,-7.3432)">
			<path class="st2" d="M206.54,125.82c-8.61,0-15.6-7.11-15.6-15.87c0-8.76,6.99-15.87,15.6-15.87c1.13,0,2.05-0.93,2.05-2.09
				c0-1.15-0.92-2.09-2.05-2.09c-10.87,0-19.7,8.98-19.7,20.04s8.83,20.04,19.7,20.04c1.13,0,2.05-0.93,2.05-2.09
				C208.59,126.75,207.67,125.82,206.54,125.82z"/>
		</g>
	</g>
</g>
<path class="st4" d="M213.83,129.03c0,0-1.1-4.21-0.74-9.59c0.52-7.56,5.27-14.13,12.21-16.89c6.94-2.75,14.81-1.19,20.22,4.02
	c1.25,1.21,2.39,2.63,3.35,4.3c4.71,8.21,6.24,17.26,2.27,26.2c0,0,2.56,17.08-1.13,29.39c-1.86,6.18-7.13,10.67-13.44,11.43
	c-0.21,0.03-0.43,0.05-0.64,0.08c-5.76,0.7-11.42-1.99-14.59-6.93c-6.18-9.63-15.68-24.43-15.68-24.43s-5.38,0.48-7.45,0.66
	c-0.74,0.07-1.41-0.47-1.52-1.22c-0.06-0.45,0.08-0.94,0.71-1.36c0,0-0.67-0.01-1.19-0.13c-0.83-0.2-1.16-0.92-1.19-1.69
	c-0.03-0.72,0.18-1.56,1.14-2.05l0,0c-1.22,0.23-2.4-0.56-2.67-1.79c-0.01-0.05-0.02-0.1-0.03-0.14c-0.1-0.45-0.04-0.91,0.18-1.32
	c0.2-0.38,0.54-0.81,1.13-1.06c0,0-0.57-0.18-1.19-0.38c-0.9-0.28-1.51-1.12-1.51-2.08v0c0-0.85,0.5-1.61,1.27-1.93
	c1.67-0.71,4.4-1.85,4.4-1.85s-3.52-4.56-2.06-5.9c0.26-0.24,0.84-0.38,2.55,1.1c0.64,0.56,3.15,1.27,6.31,0.83
	C204.56,126.29,208.7,126.27,213.83,129.03z M217.63,79.92c5.38,0,9.75,4.45,9.75,9.92c0,5.48-4.37,9.92-9.75,9.92
	c-5.38,0-9.75-4.45-9.75-9.92C207.88,84.36,212.25,79.92,217.63,79.92z"/>
<path class="st6" d="M205.33,146.64l2.14-0.25c0.28-0.03,0.53,0.17,0.57,0.46c0.03,0.29-0.17,0.54-0.45,0.58l-1.3,0.15l-0.62-0.97
	L205.33,146.64z M195.28,143.86l6.17-0.58c0.28-0.03,0.53,0.18,0.56,0.47c0.03,0.29-0.18,0.54-0.46,0.57l-4.18,0.39
	c0.01-0.01,0.02-0.01,0.03-0.02c0,0-0.67-0.01-1.19-0.13C195.77,144.45,195.47,144.19,195.28,143.86z M194.18,140.24
	c0.05-0.03,0.1-0.05,0.15-0.06l5.72-1.25c0.28-0.06,0.55,0.12,0.61,0.4c0.06,0.28-0.12,0.56-0.39,0.62l-4.16,0.91
	c0.02-0.01,0.04-0.02,0.06-0.03l0,0C195.42,140.96,194.69,140.72,194.18,140.24z M193.14,135.94l6.1-1.91
	c0.27-0.08,0.56,0.07,0.64,0.34s-0.07,0.57-0.34,0.65l-4.82,1.51c0.02-0.01,0.03-0.02,0.05-0.02c0,0-0.57-0.18-1.19-0.38
	C193.43,136.09,193.28,136.02,193.14,135.94z M197.13,129.4l2.13-0.9c0.26-0.11,0.56,0.02,0.67,0.28c0.11,0.27-0.02,0.57-0.28,0.68
	l-1.91,0.8C197.73,130.25,197.47,129.91,197.13,129.4z"/>
<path class="st5" d="M213.78,128.83c-0.21-0.89-1.01-4.7-0.69-9.39c0.52-7.56,5.27-14.13,12.21-16.89
	c6.94-2.75,14.81-1.19,20.22,4.02c1.25,1.21,2.39,2.63,3.35,4.3c4.71,8.21,6.24,17.26,2.27,26.2c0,0,2.56,17.08-1.13,29.39
	c-1.86,6.18-7.13,10.67-13.44,11.43c-0.21,0.03-0.43,0.05-0.64,0.08c-5.76,0.7-11.42-1.99-14.59-6.93l-4.23-6.59l14.38-17.09
	C223.97,135.46,215.79,130.04,213.78,128.83z"/>
<path class="st3" d="M231.44,147.27c0.03,0.02,0.05,0.05,0.07,0.09l9.29,14.26c0.16,0.24,0.09,0.56-0.14,0.72
	c-0.24,0.16-0.55,0.09-0.71-0.15l-9.13-14.02l0.68-0.81L231.44,147.27z M251.23,137.74l0.02,0.19l-0.03,0.06
	c0,0-2.05-11.62-4.99-20.5c-0.07-0.18,0.01-0.39,0.19-0.47c0.17-0.08,0.38-0.02,0.48,0.15c1.57,3.1,3.72,7.73,6.1,13.96
	c-0.03,0.19-0.07,0.37-0.11,0.55l0,0.01l-0.02,0.09l0,0.01l-0.02,0.09l0,0.01c-0.04,0.18-0.08,0.37-0.12,0.55l0,0.01l-0.02,0.08
	l0,0.01l-0.02,0.08l-0.01,0.02l-0.02,0.08l0,0.01l-0.02,0.08l0,0.01c-0.03,0.12-0.06,0.24-0.09,0.36l0,0.01l-0.02,0.08l-0.01,0.02
	l-0.02,0.07l-0.01,0.03l-0.02,0.07l-0.01,0.03l-0.02,0.07l-0.01,0.03l-0.02,0.07l-0.01,0.02l-0.02,0.07
	c-0.01,0.03-0.02,0.06-0.03,0.09l-0.02,0.08l0,0.01l-0.02,0.07l-0.01,0.03l-0.02,0.06l-0.01,0.04l-0.02,0.06l-0.01,0.04l-0.02,0.06
	l-0.01,0.04l-0.02,0.06l-0.01,0.04l-0.02,0.05l-0.01,0.04l-0.02,0.05l-0.02,0.05l-0.01,0.04l-0.02,0.05l-0.02,0.05l-0.02,0.05
	l-0.02,0.05l-0.02,0.05l-0.02,0.05l-0.02,0.05l-0.02,0.05l-0.02,0.05l-0.02,0.05l-0.02,0.05l-0.02,0.06l-0.02,0.04l-0.02,0.07
	l-0.01,0.03l-0.04,0.1l-0.01,0.03l-0.02,0.07l-0.02,0.04l-0.02,0.06l-0.02,0.04l-0.02,0.06l-0.02,0.04l-0.02,0.06l-0.02,0.04
	l-0.02,0.06l-0.02,0.04l-0.03,0.06l-0.01,0.04l-0.03,0.08l-0.01,0.02l-0.04,0.1l-0.01,0.03l-0.03,0.07l-0.02,0.04l-0.03,0.06
	l-0.02,0.04l-0.03,0.06l-0.02,0.04l-0.03,0.06l-0.02,0.04l-0.03,0.06l-0.02,0.04l-0.03,0.07l-0.01,0.03l-0.04,0.1l0.01,0.05l0,0.02
	l0.01,0.05l0,0.02l0.01,0.07l0,0.03l0.01,0.09l0,0.03l0.02,0.12l0,0.02l0.02,0.15L251.23,137.74z M218.63,132.38
	c0,0-0.49-3.84-1.15-15.12c-0.02-0.25,0.16-0.33,0.25-0.35c0.17-0.04,0.29,0.07,0.31,0.17l2.75,17.22
	C220.03,133.58,219.31,132.95,218.63,132.38z"/>
<path class="st7" d="M210.04,83.62c1.79-2.26,4.53-3.7,7.6-3.7c5.38,0,9.75,4.45,9.75,9.92c0,3.1-1.4,5.87-3.59,7.69l-3.4-3.44
	c0.36-0.03,0.74-0.12,1.1-0.3c1.28-0.62,1.61-2.25,1.12-3.31c-0.49-1.05-1.94-1.41-3.22-0.78c-0.83,0.4-1.08,1.39-1.24,2.13
	L210.04,83.62z"/>
<g transform="matrix(1,0,0,1,-479.57,-66.72)">
	<ellipse class="st4" cx="603.7" cy="160.11" rx="17.33" ry="17.63"/>
</g>
<path class="st5" d="M107.24,89.43c0.13-0.06,0.28-0.09,0.46-0.06c0.36,0.07,0.62,0.38,0.63,0.75c0.12,0.22,0.45,0.79,0.84,1.33
	c0.92,1.27,2.48,3.1,4.63,4.97c0.99-4.29,2.88-7.87,4.96-10.74c-3.08-2.42-4.78-4.65-5.12-5.08c-0.27-0.33-0.22-0.83,0.1-1.1
	c0.33-0.27,0.81-0.23,1.08,0.11c0.33,0.41,1.94,2.53,4.88,4.83c4.01-5,8.34-7.48,8.34-7.48c0.37-0.21,0.84-0.08,1.05,0.3
	c0.21,0.38,0.08,0.85-0.29,1.07c0,0-4.08,2.34-7.86,7.04c2.93,2.07,6.91,4.13,11.98,5.08c0.54-3.76,0.35-7.25-0.04-9.84
	c-0.06-0.43,0.23-0.83,0.65-0.89c0.42-0.06,0.81,0.23,0.88,0.66c0.4,2.72,0.6,6.38,0.03,10.32c1.97,0.27,4.1,0.38,6.37,0.25
	c0.19-0.01,0.36,0.05,0.5,0.16c0.05,0.38,0.08,0.76,0.11,1.15c-0.13,0.15-0.32,0.25-0.53,0.26c-2.4,0.13-4.64,0.02-6.72-0.27
	c-0.74,3.81-2.26,7.81-5.03,11.41c2.79,0.41,5.84,0.44,9.15-0.1c-0.43,0.62-0.9,1.21-1.4,1.77c-3.21,0.36-6.18,0.22-8.9-0.28
	c-1.86,2.09-4.2,4.01-7.11,5.65c-0.01,0.01-0.02,0.01-0.03,0.02c-0.32-0.06-0.63-0.13-0.94-0.21c-0.03-0.04-0.05-0.07-0.08-0.11
	c-0.2-0.38-0.07-0.85,0.3-1.06c2.43-1.37,4.44-2.94,6.08-4.65c-4.56-1.12-8.37-3.19-11.36-5.42c-0.34,2.53-0.33,5.3,0.14,8.29
	c0.04,0.26-0.05,0.52-0.23,0.69c-0.47-0.31-0.93-0.64-1.37-1c-0.46-3.3-0.38-6.32,0.07-9.08c-3.63-3-5.82-6.03-6.43-7.17
	c-0.02-0.04-0.04-0.08-0.06-0.12C107.04,90.38,107.13,89.9,107.24,89.43z M120,86.6c-2.09,2.88-3.98,6.52-4.86,10.92
	c3.11,2.42,7.22,4.74,12.27,5.81c2.93-3.54,4.5-7.53,5.25-11.35C127.3,90.98,123.09,88.8,120,86.6z M107.69,90.92
	c-0.04,0.01-0.07,0.01-0.11,0.01c-0.04,0-0.07,0-0.11-0.01C107.55,90.93,107.63,90.93,107.69,90.92z"/>
<path class="st0" d="M64.96,126.7c0,0-25.47-20.5-7.78-44.79c1.88-2.58,13.31-17.65,29.55-27.86c0.63-0.4,1.45-0.33,2.01,0.16
	c0.36,0.33,0.59,0.82,0.36,1.58c0,0,2.51-0.56,2.34,1.9c0,0,2.94-0.8,3.05,2.28c0,0,4.87-6.06,6.99-8.71
	c0.56-0.69,1.53-0.86,2.28-0.4c0,0,0,0,0,0c0.34,0.21,0.59,0.55,0.68,0.94c0.1,0.39,0.03,0.81-0.17,1.16
	C95.23,68.2,85.61,82.18,75.97,96.1c0,0,7.95,8.19,12.05,11.13c1.66,1.2,18.3,11.77,20.7,17.56c0,0,0.2-1.33,0.43-2.84
	c0.4-2.62,2.3-4.74,4.82-5.4c1.71-0.44,3.3-0.85,3.3-0.85s2.84-0.49,5.26-0.47c1.58,0.01,2.98,1.05,3.48,2.58l0,0
	c0.23,0.71,0.13,1.48-0.26,2.1c-0.22,0.35-0.42,0.66-0.42,0.66s0.57,0.2,1.1,0.38c0.56,0.19,1.02,0.62,1.25,1.18l0,0
	c0.46,1.08,0.26,2.34-0.5,3.23c-0.24,0.28-0.42,0.48-0.42,0.48h0.17c0.9,0,1.71,0.56,2.05,1.41l0,0c0.46,1.17,0.09,2.51-0.91,3.26
	c-0.25,0.19-0.42,0.32-0.42,0.32c0.31-0.11,0.6,0.11,0.81,0.61c0.41,0.99,0.03,2.14-0.85,2.73c-1.38,0.92-3.2,2.13-3.2,2.13
	c-0.41,8.55-1.42,17.78-6.2,28.77c-1.44,3.31-4.27,5.77-7.71,6.71c0,0-0.01,0-0.01,0c-7.19,1.95-14.72-1.6-17.89-8.45
	c-1.52-3.29-3.14-7.35-4.6-12.12c0,0-6.04,0.8-12.05-2.29C68.75,145.18,61.57,136.74,64.96,126.7z"/>
<path class="st1" d="M54.1,112.73c0.76-2.37,3.41-7.69,11.82-7.19c0,0,2.98-8.85,12.41-7.07c2.68,2.65,7.01,6.83,9.7,8.76
	c1.66,1.2,18.3,11.77,20.7,17.56l0.03-0.18c1.55,4.63,4.37,14.58,2.95,25.34c0,0-5.58,3.8-11.02-0.97c0,0-5.14,6.94-12.58,2.51
	c-0.03-0.1-0.06-0.2-0.09-0.3c0,0-6.04,0.8-12.05-2.29c-7.22-3.72-14.4-12.15-11.01-22.2C64.96,126.7,58.24,121.28,54.1,112.73z
	 M89.45,104.92l2.19,1.39C90.85,105.94,90.12,105.48,89.45,104.92z"/>
<path class="st1" d="M110.94,147.45l-1.24,14.26c-0.02,0.29,0.18,0.54,0.47,0.57c0.28,0.03,0.53-0.19,0.56-0.47l1.24-14.26
	c0.03-0.29-0.18-0.54-0.47-0.57C111.22,146.95,110.97,147.16,110.94,147.45z"/>
<path class="st8" d="M84.34,151.21c-0.44-5.22,0.73-9.46,1.51-11.62c0.06-0.15,0.22-0.23,0.38-0.2c0.16,0.03,0.27,0.17,0.27,0.34
	c0.15,4.24,1.25,9.96,1.6,11.71c-0.02-0.08-0.05-0.16-0.07-0.24C88.02,151.19,86.55,151.39,84.34,151.21z M61.41,123.28
	c1.85-2.34,3.69-4.11,5.39-5.45c2.63-2.07,4.96-3.11,6.6-3.65c0.19-0.04,0.38,0.06,0.46,0.24c0.08,0.18,0.01,0.39-0.15,0.5
	c-4.97,3.46-7.8,9.44-8.76,11.77C64.86,126.62,63.38,125.41,61.41,123.28z"/>
<path class="st1" d="M127.67,130.81c0.31-0.1,0.6,0.12,0.8,0.62c0.01,0.03,0.02,0.05,0.03,0.08c-0.95,0.6-3.01,1.79-4.89,2.06
	c-0.28,0.04-0.54-0.16-0.58-0.44c-0.04-0.29,0.16-0.55,0.44-0.59C125.04,132.32,126.72,131.4,127.67,130.81z M126.77,125.83h0.17
	c0.42,0,0.82,0.12,1.16,0.33c-0.57,0.42-2.82,2.01-5.17,2.59c-0.28,0.07-0.55-0.11-0.62-0.39c-0.07-0.28,0.11-0.56,0.38-0.63
	C124.3,127.35,125.85,126.44,126.77,125.83z M125.34,120.57l1.02,0.35c-0.94,1.23-2.7,3.07-5.15,3.57c-0.28,0.06-0.55-0.13-0.6-0.41
	c-0.06-0.28,0.12-0.56,0.4-0.61C123,123.06,124.47,121.65,125.34,120.57z"/>
<path class="st9" d="M118.49,117.13c0,0-1.75,0.39-3.59,0.13c-0.28-0.04-0.54,0.16-0.58,0.44c-0.04,0.29,0.16,0.55,0.44,0.59
	c2.03,0.29,3.96-0.14,3.96-0.14c0.28-0.06,0.45-0.34,0.39-0.62C119.03,117.25,118.76,117.07,118.49,117.13z"/>
<path class="st1" d="M94.21,58.69c0.16,0.33,0.27,0.75,0.28,1.29l0.77-0.96c-0.01,0.03-0.03,0.05-0.05,0.08l-1.92,2.36
	c-0.18,0.22-0.5,0.25-0.72,0.07c-0.22-0.18-0.25-0.51-0.07-0.73L94.21,58.69z M91.19,56.41c0.19,0.29,0.3,0.7,0.26,1.28l-1.19,1.38
	c-0.19,0.22-0.51,0.24-0.72,0.05c-0.21-0.19-0.23-0.52-0.05-0.74L91.19,56.41z M88.98,54.49c0.21,0.31,0.3,0.74,0.12,1.31h0
	c-0.64,0.62-1.38,1.33-1.38,1.33c-0.21,0.2-0.53,0.19-0.72-0.02s-0.19-0.54,0.02-0.74C87.02,56.37,88.33,55.11,88.98,54.49z"/>
<path class="st1" d="M75.97,96.1c0,0-3.38-3.4-5.39-5.41c-0.14-0.14-0.16-0.35-0.05-0.52c0.11-0.16,0.32-0.22,0.5-0.15
	c2.64,1.09,7.13,2.95,7.13,2.95L75.97,96.1z"/>
<g transform="matrix(0.859489,0.511155,-0.511155,0.859489,251.905,-741.212)">
	<g>
		<g transform="matrix(0.859489,-0.511155,0.511155,0.859489,162.365,765.825)">
			<path class="st2" d="M116.83,118.36l0.78-5.8c-1.24-0.44-2.46-1.01-3.63-1.72c-0.97-0.59-1.29-1.87-0.71-2.86
				c0.58-0.99,1.84-1.31,2.81-0.73c7.4,4.48,16.98,2,21.38-5.53c4.4-7.53,1.97-17.27-5.43-21.75c-0.97-0.59-1.29-1.87-0.71-2.86
				c0.58-0.99,1.84-1.31,2.81-0.73c9.34,5.65,12.42,17.96,6.86,27.46c-4.12,7.05-11.83,10.59-19.35,9.65l-0.51,3.77
				C120.19,117.72,118.65,118.3,116.83,118.36z"/>
		</g>
		<g transform="matrix(1,0,0,1,-20.3138,-7.3432)">
			<path class="st2" d="M337.26,806.02c-8.65-0.06-15.72-7.2-15.79-15.91c-0.06-8.72,6.9-15.74,15.55-15.68
				c1.14,0.01,2.05-0.91,2.04-2.06c-0.01-1.15-0.94-2.08-2.07-2.09c-10.92-0.08-19.72,8.79-19.64,19.8
				c0.08,11.01,9.01,20.01,19.93,20.1c1.14,0.01,2.05-0.91,2.04-2.06C339.33,806.96,338.4,806.03,337.26,806.02z"/>
		</g>
	</g>
</g>
<ellipse class="st0" cx="95.82" cy="96.98" rx="10.08" ry="10.25"/>
<path class="st7" d="M92.31,101.03c-1.82,0.32-3.75,0.36-5.76-0.01c-0.52-1.24-0.81-2.61-0.81-4.04c0-5.66,4.52-10.25,10.08-10.25
	c4.43,0,8.2,2.92,9.55,6.97c-0.42,1.93-3.59,5.78-10.11,6.56c0.21-0.55,0.23-1.21,0-1.86c-0.45-1.27-1.66-1.99-2.72-1.61
	s-1.55,1.72-1.1,3C91.62,100.3,91.93,100.73,92.31,101.03z"/>
<g transform="matrix(0.715949,0,0,0.715949,270.378,125.494)">
	<ellipse class="st7" cx="-238.97" cy="-64.92" rx="6.87" ry="6.99"/>
</g>
<g transform="matrix(1,0,0,1,-10.5812,7.59404)">
	<path class="st2" d="M182.77,49.23c-3.71,7.15-11.09,12.02-19.59,12.02c-12.22,0-22.14-10.09-22.14-22.52
		c0-7.56,3.67-14.26,9.31-18.34l12.83,18.34L182.77,49.23z"/>
</g>
<path class="st0" d="M152.6,46.32l-12.83-18.34c3.21-2.34,7.07-3.82,11.24-4.12L152.6,46.32z"/>
<path class="st4" d="M151.59,23.82l1.01-0.03c6.23,0,11.86,2.62,15.88,6.84L152.6,46.32l-1.59-22.46l0.3-0.02L151.59,23.82z"/>
<g transform="matrix(1,0,0,1,46.71,-10.1252)">
	<path class="st5" d="M127.76,39.44c3.88,4.05,6.27,9.59,6.27,15.69c0,3.79-0.92,7.37-2.56,10.5l-19.59-10.5L127.76,39.44z"/>
</g>
</svg>
